<?xml version="1.0" encoding="utf-8"?>
<!-- Generator: Adobe Illustrator 22.1.0, SVG Export Plug-In . SVG Version: 6.00 Build 0)  -->
<svg version="1.1" id="Layer_1" xmlns="http://www.w3.org/2000/svg" xmlns:xlink="http://www.w3.org/1999/xlink" x="0px" y="0px"
	 viewBox="0 0 1366 768" style="enable-background:new 0 0 1366 768;" xml:space="preserve">
<style type="text/css">
	.st0{display:none;}
	.st1{display:inline;}
	.st2{fill:#E6E6E6;}
	.st3{fill:#4EB682;}
	.st4{fill:#37805B;}
	.st5{fill:#024661;}
	.st6{fill:#19ACA5;}
	.st7{fill:#71C598;}
	.st8{fill:#498062;}
	.st9{fill:#133A5F;}
	.st10{fill:#1D5870;}
	.st11{fill:#579976;}
	.st12{fill:#12807A;}
	.st13{display:inline;fill:#133A5F;}
	.st14{display:inline;fill:#71C598;}
	.st15{font-family:'PTSans-NarrowBold';}
	.st16{font-size:135.3947px;}
	.st17{font-size:135.3899px;}
	.st18{fill:#1AB3AA;}
	.st19{fill:#128079;}
	.st20{font-family:'OpenSans-Bold';}
	.st21{font-size:376.118px;}
</style>
<g id="_x34_04" class="st0">
	<g class="st1">
		<g>
			<path class="st2" d="M1032.8,453.8c-12.2,37.7-43,66.8-76.8,87.5c-5,3.1-10.1,6-15.3,8.8c-22.3,12-45.7,21.3-69.8,28.4
				c-70.3,20.9-147.1,24.1-221.3,26.5c-12.3,0.4-24.5,0.8-36.8,1.2c-52.3,1.7-102.9-9-148.4-30c-17.5-8.1-34.2-17.6-50-28.6
				c-53-36.9-95.1-89.6-118.5-153.2c-0.7-1.8-1.4-3.7-2-5.5c-10.5-29.7-17.8-63.6-4.2-92c11-23.1,34.2-38.5,58.6-46.1
				c24.4-7.6,50.3-8.7,75.9-10.3c58.8-3.6,117.6-10.2,174.9-24.2c59.6-14.7,117.2-37.3,177.5-48.9c35.7-6.8,73.5-9.6,107.8,2.3
				c31.6,10.9,58,33.5,79.5,59c30.3,35.9,52.5,78.5,65.4,123.6C1038.9,385.4,1043.3,421.1,1032.8,453.8z"/>
		</g>
		<g>
			<g>
				<path class="st3" d="M737.9,363.2c-0.9,2.2-1.8,4.4-2.7,6.5c-9.8,22.6-23.1,43.4-35.8,64.5c-5.4,8.9-10.6,17.9-15.8,27
					c-8.6,15.2-16.9,30.5-24.9,46c-3.6,7-7.1,14-10.6,21.1c-1.1-6.5-2.1-13-3-19.6c-8.4-60.5-9.8-124.9,3.5-184.2
					c3.4-15.4,7.9-30.5,13.5-45c3.5-9,7.4-17.9,11.7-26.5c5.5-10.9,14.1-23,26.4-22.4c4.9,0.2,9.4,2.5,13.5,5.2
					c20.6,13.5,32.6,37.8,35,62.2C750.9,320.1,746.1,342.4,737.9,363.2z"/>
			</g>
			<g>
				<g>
					<path class="st4" d="M651.5,540.2c3.1-75.4,20.6-150,51.4-218.9c0.9-2-2.1-3.8-3-1.7c-31.1,69.5-48.8,144.5-51.9,220.6
						C648,542.4,651.4,542.4,651.5,540.2L651.5,540.2z"/>
				</g>
			</g>
			<g>
				<path class="st3" d="M629.9,552.5c-11.3-5.4-22.6-10.7-33.9-16c-16.8-7.9-33.8-16-48-28.1c-14.2-12-25.4-28.6-27-47.2
					c-1-11.4,2-23.4,9.4-32.2c2.4-2.9,5.5-5.5,9.2-5.7c2.8-0.2,5.6,1,8.1,2.3c13.3,7.1,23.7,18.6,33.1,30.4
					C601.3,481.5,616.5,520.1,629.9,552.5z"/>
			</g>
			<g>
				<g>
					<path class="st4" d="M549.8,474.2c19.4,28.9,47.3,50.3,70.8,75.6c1.5,1.6,3.9-0.8,2.4-2.4c-23.3-25.1-51.1-46.3-70.3-74.9
						C551.5,470.7,548.5,472.4,549.8,474.2L549.8,474.2z"/>
				</g>
			</g>
			<g>
				<path class="st3" d="M461.1,464.6c-1.5,21.7-3.8,44.2-12.3,63.9c-0.2-0.6-0.4-1.3-0.6-1.9c-3.4-10.9-8.7-21.4-14.7-31.3
					c-1.2-2-2.5-4.1-3.8-6c-8.5-13-18.2-25.2-27.1-37.9h45.6V406c0-7.6,0.3-18.6,0.9-33c0-1.1,0.1-2.1,0.1-3.2
					c2.2,4.2,4.1,8.6,5.6,13C463.9,408.8,463,437.1,461.1,464.6z"/>
			</g>
			<g>
				<path class="st3" d="M1071.3,453.8c-10.5,16.2-26,28.6-42.6,38.3c-16.6,9.8-34.5,17.1-52,25.2c-15.6,7.2-30.9,15-45.8,23.4
					c-4.3,2.5-9,5.6-11.3,9.8c0.1-16.9,0-33.9,2.2-50.7c2.4-18,7.7-36.1,18.3-50.9c11.5-16.1,28.3-27.4,45.3-37.4
					c24.8-14.6,52.4-27.4,81-25.1c4,0.3,8.3,1.1,11.2,3.8c2.3,2.2,3.5,5.3,4.3,8.4C1086.7,417.2,1081.7,437.6,1071.3,453.8z"/>
			</g>
			<g>
				<g>
					<path class="st4" d="M921.1,541c12.4-26.3,32.4-48.8,54.1-67.7c21.1-18.3,45.1-33.2,70.8-44.2c2-0.9,0.3-3.8-1.7-3
						c-26,11.1-50.1,26.2-71.5,44.7c-22,19.1-42.2,41.9-54.7,68.4C917.1,541.2,920.1,543,921.1,541L921.1,541z"/>
				</g>
			</g>
			<g>
				<path class="st5" d="M393.2,436.9l-6.7,10.4l6.8-10.3C393.2,437,393.2,437,393.2,436.9z"/>
				<path class="st5" d="M503.6,451.4V282.9h-52.2l-21.7,32l-13.5,19.9l-40.7,60l-11,16.3L334,456v39.4h114.4v55.5h55.3v-55.5h32.2
					v-44L503.6,451.4L503.6,451.4z M449.3,369.8c0,1-0.1,2.1-0.1,3.2c-0.6,14.4-0.9,25.4-0.9,33v45.4h-64.5l2.7-4.1l6.7-10.4
					l50.1-77.2c2.1-3.9,4.1-7.9,5.9-11.9h1.5C450.3,350,449.8,357.3,449.3,369.8z"/>
				<path class="st5" d="M737.9,363.2c-0.9,2.2-1.8,4.4-2.7,6.5c-9.8,22.6-23.1,43.4-35.8,64.5c-5.4,8.9-10.6,17.9-15.8,27
					c-1.5,10.6-3.6,19.3-6.3,26c-4.3,10.5-10.5,17.2-18.7,20c-3,1.1-6.4,1.6-9.9,1.6c-1.3,0-2.5-0.1-3.6-0.2
					c-11.5-1.2-19.9-8.2-25-21.2c-5.7-14.2-8.5-37.8-8.5-70.6c0-32.9,2.9-56.5,8.6-70.8c5.7-14.3,15.2-21.5,28.4-21.5
					c3.4-15.4,7.9-30.5,13.5-45c-4.3-0.5-8.7-0.8-13.3-0.8c-31.8,0-55.3,11.2-70.6,33.6s-22.9,57.3-22.9,104.5
					c0,45.3,7.8,79.6,23.6,102.8c15.7,23.2,39,34.8,69.9,34.8c31.9,0,55.5-11.2,70.8-33.7c15.3-22.5,23-57.1,23-103.9
					C742.6,396.9,741,379,737.9,363.2z"/>
				<path class="st5" d="M964.3,495.3H932v55.5h-55.3v-55.5H762.3v-39.4l117.5-173H932v168.4h32.3V495.3z M876.7,451.4V406
					c0-7.6,0.3-18.6,0.9-33c0.6-14.4,1.1-22.8,1.5-25.1h-1.5c-4.5,10-10,19.8-16.3,29.3l-49.1,74.2L876.7,451.4L876.7,451.4z"/>
			</g>
			<g>
				<path class="st3" d="M449.3,384.7c0,0.8-0.1,1.7-0.1,2.6c-0.5,11.8-0.7,20.7-0.7,26.9v37.1h-37.2c-2.7-3.8-5.3-7.7-7.7-11.7
					c-0.4-0.7-0.8-1.4-1.2-2c-5.9-10-10.6-21.1-13.3-32.4c-3.4-14.1-3.7-28.8,0.7-42.5c1.4-4.3,3.5-8.8,7.5-10.8
					c3-1.5,6.7-1.4,10-0.8c5.3,0.9,10.3,2.7,15,5.2c8.8,4.7,16.3,11.9,22.2,20.4C446.2,379.2,447.8,381.9,449.3,384.7z"/>
				<g>
					<path class="st4" d="M448.4,446.6v4.7h-0.8c-0.2-0.2-0.5-0.4-0.6-0.7c-7.2-18-18.6-33.8-30.4-49.1c-1.1-1.4,0.9-3.4,2-2
						C430.1,414.3,441,429.5,448.4,446.6z"/>
				</g>
			</g>
		</g>
		<g>
			<path class="st6" d="M940.7,550.1c-22.3,12-45.7,21.3-69.8,28.4c-70.3,20.9-147.1,24.1-221.3,26.5c-12.3,0.4-24.5,0.8-36.8,1.2
				c-52.3,1.7-102.9-9-148.4-30c-17.5-8.1-34.2-17.6-50-28.6c7.4-4,15.6-7.5,25.2-10.2c38.5-10.7,85.6-4.1,128.4,0.7
				s94.9,5.9,122.7-11.3c6.9-4.3,12.7-9.8,23.2-11.1c7.6-0.9,15.4,0.7,22.6,2.3c29,6.7,57.3,14.4,87.5,19.5
				C861.7,544.2,901.5,546.5,940.7,550.1z"/>
		</g>
	</g>
</g>
<g id="Layer_4" class="st0">
	<g class="st1">
		<path class="st2" d="M1094.8,501.6c-10.8,30.1-40.9,48.5-70.3,61.2c-13.9,6-28,11.2-42.4,15.7c-0.2,0.1-0.3,0.1-0.5,0.2
			c-15.9,5-32,9.2-48.3,12.6c-53.8,11.4-109.5,15.2-164.6,15.7c-87.1,0.8-174.2-6.2-261.2-1.9c-10.3,0.5-20.8,1.2-31.2,2.2
			c-4.3,0.4-8.5,0.6-12.8,0.6c-14.2,0-28.3-2.2-41.6-6.5c-2.3-0.7-4.5-1.5-6.7-2.4c-11-4.2-21.4-9.7-31-16.6
			c-7.5-5.4-14.5-11.6-20.8-18.6c-0.2-0.2-0.3-0.4-0.5-0.5c-18.3-20.2-36-41.1-51.3-63.6c-2.5-3.7-4.9-7.4-7.3-11.2
			c-5.7-9.2-10.9-18.6-15.6-28.4c-18.4-38.3-27.4-82.4-18.2-123.9c12.1-54.5,54.4-98.7,103.7-124.8S479.6,174.9,535,168
			c120.8-15.1,251.6-13.4,353.7,53c9.2,6,18,12.4,26.5,19.1c13.8,11,26.9,22.9,39.5,35.4c9.1,9,18,18.4,26.7,27.9
			c19.3,21.1,37.9,42.9,57,64.1c13,14.5,26.5,28.8,37.5,44.8c3.4,5,6.6,10.1,9.5,15.4C1097.7,450.3,1103.4,477.5,1094.8,501.6z"/>
	</g>
	<g class="st1">
		<path class="st7" d="M1078.4,528.9c-23.9,28.4-59.4,46.6-96.4,49.7c-0.1,0-0.2,0-0.4,0c0.4-1.1,0.7-2.3,1.1-3.4
			c0.5-1.7,1.1-3.3,1.6-5c5.8-17.9,12.2-35.6,19.1-53.1c4.1-10.3,8.5-20.7,13.3-30.8c12.6-26.1,28.5-50.5,51.2-68.2
			c2.6-2,5.3-4,8.2-5.7c5.5-3.5,11.4-6.3,17.7-7.9c2.7-0.7,5.6-1.1,8.2-0.2c5,1.9,6.8,8,7.6,13.3
			C1115.7,456.9,1103.9,498.5,1078.4,528.9z"/>
	</g>
	<g class="st1">
		<path class="st8" d="M1079.9,446.8c-2.9,17.5-11.5,33.3-21.6,47.7c-17.8,25.5-39.8,49-62.9,69.9c-4.1,3.7-8.3,7.3-12.7,10.8
			c0.5-1.7,1.1-3.3,1.6-5c16.3-13.4,31-29,45.1-44.5c20.3-22.5,42.4-48.8,47.6-79.6C1077.4,444.1,1080.3,444.9,1079.9,446.8z"/>
	</g>
	<g class="st1">
		<path class="st7" d="M417,578.3c-0.3,4.6-0.6,9.2-1,13.8c-0.2,2.3-0.4,4.6-0.6,6.9c-0.3-0.1-0.6-0.2-0.9-0.3
			c-1.4-0.5-2.8-1.1-4.2-1.7c-9.1-3.9-17.8-8.8-26-14.6c-7.5-5.4-14.5-11.6-20.8-18.6c-0.2-0.2-0.3-0.4-0.5-0.5
			c-18.3-20.2-36-41.1-51.3-63.6c-2.5-3.7-4.9-7.4-7.3-11.2c-17.6-37.9-22.5-82.8-5.5-120.8c6.7-15.1,19-30.1,35.6-31
			c8.9-0.5,17.5,3.3,25,8.1c12.6,8,23.2,18.9,30.8,31.7c9.8,16.5,14.3,35.5,17.8,54.4C417,479.3,420,529,417,578.3z"/>
	</g>
	<g class="st1">
		<path class="st8" d="M414.5,598.6c-1.4-0.5-2.8-1.1-4.2-1.7c-12.6-26.4-23.5-53.8-34.1-81c-15.3-39.2-29.3-79-42.1-119
			c-0.6-1.9,2.3-2.6,2.9-0.8c7.1,22,14.5,44,22.3,65.8c14,39.1,28.9,77.9,45.7,115.9C408,584.7,411.2,591.7,414.5,598.6z"/>
	</g>
	<g class="st1">
		<path class="st9" d="M981.7,262.2v316.4c-68.2,21.4-141,27.7-212.8,28.4c-87.1,0.8-174.2-6.2-261.2-1.9
			c-10.3,0.5-20.8,1.2-31.2,2.2c-4.3,0.4-8.5,0.6-12.8,0.6c-28.6,0-56.4-9-79.4-25.5V262.2c0-2.7,0.5-5.2,1.3-7.6l252.2,208.2
			l2.2,1.8l30.8,25.4l5.9,4.8l2,1.7l0,0l4.2,3.4l0.8-0.7l1.5-1.3l1.4-1.2l2-1.6l6.3-5.3l10.2-8.4l28.2-23.3l1.2-1L955,275.5
			l25.4-20.9C981.2,257,981.7,259.5,981.7,262.2z"/>
		<path class="st10" d="M980.3,254.6L980.3,254.6L683,500L385.7,254.6l0,0c3.1-8.5,11.2-14.5,20.7-14.5h553.2
			C969.1,240.1,977.2,246.1,980.3,254.6z"/>
		<g>
			<path class="st11" d="M742.8,486.3c0,30.4-24.7,55.1-55.1,55.1c-18.5,0-34.9-9.1-44.9-23.1c-6.4-9-10.2-20-10.2-31.9
				c0-30.4,24.7-55.1,55.1-55.1c15.9,0,30.2,6.7,40.2,17.4l0,0C737.1,458.5,742.8,471.7,742.8,486.3z"/>
			<path class="st11" d="M738.1,480.5c0,30.4-24.7,55.1-55.1,55.1c-14.8,0-28.1-5.8-38-15.2c0,0,0,0,0-0.1c-6.4-9-10.2-20-10.2-31.9
				c0-30.4,24.7-55.1,55.1-55.1c14.7,0,28,5.8,37.9,15.1c0.1,0.1,0.1,0.1,0.2,0.2l0,0C734.3,457.6,738.1,468.6,738.1,480.5z"/>
			<path class="st11" d="M727.7,448.4c-9.9-9.4-23.2-15.1-37.9-15.1c-30.4,0-55.1,24.7-55.1,55.1c0,11.9,3.8,22.9,10.2,31.9
				c0,0,0,0,0,0.1c-0.7-0.7-1.4-1.4-2.1-2.2c-6.4-9-10.2-20-10.2-31.9c0-30.4,24.7-55.1,55.1-55.1
				C703.5,431.2,717.7,437.8,727.7,448.4z"/>
			<path class="st7" d="M738.1,480.5c0,30.4-24.7,55.1-55.1,55.1c-14.8,0-28.1-5.8-38-15.2c0,0,0,0,0-0.1c-6.4-9-10.2-20-10.2-31.9
				c0-30.4,24.7-55.1,55.1-55.1c14.7,0,28,5.8,37.9,15.1c0.1,0.1,0.1,0.1,0.2,0.2l0,0C734.3,457.6,738.1,468.6,738.1,480.5z"/>
			<g>
				<path class="st11" d="M705.2,481.7L705.2,481.7c-0.3-9.6-4.4-20.6-15.8-32.2c-0.9-1-2.5-1-3.5,0c-5.1,4.9-19,20.4-15,40.6l0,0
					c1.6,8,6.1,16.8,15.1,25.9c0.2,0.2,0.5,0.4,0.7,0.5v-14.1l-2.9-3l-3-3c-0.6,0.3-1.3,0.4-1.9,0.2l0,0c-0.5-0.1-1-0.4-1.4-0.8
					c-0.3-0.3-0.5-0.6-0.6-0.9c-0.5-1.1-0.3-2.4,0.6-3.3c1.2-1.2,3-1.2,4.2,0c0.9,0.9,1.1,2.3,0.6,3.4l3.2,3.1l1.4,1.4v-12.9
					l-5.8-5.8c-0.4-0.4-0.4-1,0-1.4s1-0.4,1.4,0l4.4,4.5v-10.8c-1.2-0.4-2-1.5-2-2.8c0-1.6,1.3-3,3-3c1.6,0,3,1.3,3,3
					c0,1.3-0.8,2.4-2,2.8v16.5l7-7c-0.5-1.1-0.3-2.5,0.6-3.4c1.2-1.2,3-1.2,4.2,0s1.2,3,0,4.2c-0.9,0.9-2.3,1.1-3.4,0.6l-8.4,8.4
					v11.4l3.1-3.1c1.2-1.2,1.8-2.8,1.8-4.4c0-0.5,0.4-1,1-1s1,0.4,1,1c0,2.2-0.9,4.3-2.4,5.8l-4.5,4.5v9.9c0.3-0.1,0.6-0.3,0.8-0.5
					c0.3-0.3,0.8-0.7,1.2-1.2C695.8,509.6,705.7,497.4,705.2,481.7z M680.1,478.7c-0.2,0.2-0.5,0.3-0.7,0.3s-0.5-0.1-0.7-0.3l-1-1
					c-0.4-0.4-0.4-1,0-1.4s1-0.4,1.4,0l1,1C680.5,477.7,680.5,478.3,680.1,478.7z M695.6,493.5c0,0.5-0.4,1-1,1s-1-0.4-1-1v-1.7
					c0-0.5,0.4-1,1-1s1,0.5,1,1V493.5z"/>
				<path class="st11" d="M690.7,514h-2v8.8c0,0.5,0.4,1,1,1l0,0c0.5,0,1-0.4,1-1V514z"/>
			</g>
		</g>
	</g>
	<g class="st1">
		<path class="st6" d="M1028.1,522.6c-8.2,19.6-23.7,35.1-39.2,49.6c-2.3,2.1-4.5,4.2-6.8,6.3c-0.1,0-0.1,0.1-0.1,0.1
			c-0.1,0-0.2,0-0.4,0c-15.9,5-32,9.2-48.3,12.6c0-0.2,0-0.4-0.1-0.6c-0.1-1.1-0.2-2.2-0.3-3.3c-2.3-24.6-1.2-49.2,6.6-72.5
			c5.4-15.9,15-31.8,30.6-37.9c15.4-6,33.2-0.7,46.5,9.3c1.4,1.1,2.8,2.2,4.2,3.4c4.3,3.8,8.3,8.3,9.8,13.8
			C1032.4,509.8,1030.7,516.5,1028.1,522.6z"/>
	</g>
	<g class="st1">
		<path class="st6" d="M422.1,601.3c-1.2-0.4-2.3-0.8-3.5-1.2c-1.1-0.4-2.2-0.8-3.2-1.2c-11-4.2-21.4-9.7-31-16.6
			c-7.5-5.4-14.5-11.6-20.8-18.6c-0.2-0.2-0.3-0.4-0.5-0.5c-18.3-20.2-36-41.1-51.3-63.6c2.1-0.9,4.2-1.6,6.4-2.2
			c14.8-4.1,30.6-2.6,45.7,0.5c12.7,2.7,25.8,6.9,34.8,16.3c13.2,13.8,14.3,34.6,16.8,53.5c0.5,3.5,1,7.1,1.6,10.6
			c1.2,7.1,2.8,14.1,4.6,21.1C421.8,600,421.9,600.7,422.1,601.3z"/>
	</g>
	<g class="st1">
		<path class="st12" d="M991.4,506.2c-7.8,29-24.1,55.4-46.5,75.3c-3.7,3.3-7.6,6.3-11.6,9.1c-0.1-1.1-0.2-2.2-0.3-3.3
			c2.5-1.8,5-3.8,7.4-5.8c23.3-19.8,40.1-46.5,48.1-76C989,503.6,991.9,504.4,991.4,506.2z"/>
	</g>
	<g class="st1">
		<path class="st12" d="M422.1,601.3c-1.2-0.4-2.3-0.8-3.5-1.2c-1-1.9-1.9-3.9-2.9-5.9c-5.8-12.7-11.3-25-20.9-35.4
			c-9.3-10.1-20.9-17.9-33.7-22.8c-1.8-0.7-1-3.6,0.8-2.9c23.1,8.9,40.9,26.2,51.4,48.5c2.8,5.9,5.3,11.9,8.3,17.7
			C421.8,600,421.9,600.7,422.1,601.3z"/>
	</g>
</g>
<g id="Layer_5" class="st0">
	<g class="st1">
		<path class="st2" d="M858.2,460.4c0,4.8-0.1,9.6-0.4,14.4c-1.9,31.3-11,62.5-31.4,85.9l0,0c0,0.1-0.1,0.1-0.2,0.2
			c-17.1,19.5-39.8,31.3-64.6,38.7l0,0c-7.5,2.3-15.1,4.1-22.9,5.7c-19.9,4-40.4,6-60.2,7.7c-15.5,1.3-31.1,2.5-46.8,3.5
			c-6,0.4-12.1,0.7-18.1,1c-0.5,0-1,0.1-1.5,0.1c-4.5,0.2-9-0.2-13.2-1.1c-20.5-4.4-37-21.2-39.7-42.8c-1-7.9-3.5-15.6-7.6-22.5
			c-14-23.8-41.4-35.3-64.1-51.1c-0.2-0.1-0.3-0.2-0.4-0.3c-25.3-17.6-47.1-50.1-33.6-77.8c4.6-9.5,12.8-16.7,21.1-23.2
			c64.7-50.6,149.5-68.9,231.6-70.5c40.6-0.8,84.8,3.6,114.8,31C848.2,384.1,858,423.4,858.2,460.4z"/>
	</g>
	<g class="st1">
		<path class="st7" d="M628.6,595.6c-0.8,3.3-1.8,6.5-3.1,9.7c-0.2-0.1-0.4-0.2-0.7-0.3c-1.2-0.6-2.5-1.3-3.7-1.9
			c-11.2-5.5-22.9-10.2-33.9-16.2c-27.8-15-50.9-38.3-65.8-66.1c-6-11.1-10.7-23.3-11.2-35.9s3.7-25.9,13.1-34.3
			c13.8-12.2,34.5-11.5,52.8-9.8c7.1,0.7,14.5,1.5,20.5,5.3c7.7,4.9,11.7,13.8,14.8,22.4c5.7,15.8,9.8,32.1,13.4,48.5
			C630.5,542.8,634.8,569.9,628.6,595.6z"/>
	</g>
	<g class="st1">
		<path class="st8" d="M624.8,604.9c-1.2-0.6-2.5-1.3-3.7-1.9c-13.5-43-38.7-81.8-63.3-119.4c-1.1-1.6,1.5-3.1,2.6-1.5
			C585.6,520.7,611.5,560.5,624.8,604.9z"/>
	</g>
	<g class="st1">
		<path class="st7" d="M858.2,453.7c-1.5,9.8-5.7,19.1-10.5,27.8c-13.4,24.4-32.3,45.7-54.8,62c-14.4,10.4-30.5,18.9-45.3,28.9
			c-1.5,1-3,2.1-4.5,3.1c-0.6,0.4-1.2,0.9-1.8,1.3c3.9-21.5,3.6-43.7,6.5-65.4c3.5-26.2,13.4-53.7,35.8-67.7
			c16.1-10.1,36.1-11.5,55-10c7,0.5,15.1,2.2,18.5,8.4C858.9,445.5,858.8,449.7,858.2,453.7z"/>
	</g>
	<g class="st1">
		<path class="st8" d="M814.9,458c-19.5,16.7-35.6,37-47.3,59.9c-6,11.7-10.8,24-14.4,36.7c-1.7,6-3.3,12-5.5,17.8
			c-1.5,1-3,2.1-4.5,3.1c3.7-8.5,5.7-17.6,8.5-26.5c3.6-11.8,8.3-23.2,14.1-34.1c11.8-22.5,27.8-42.5,47.1-59
			C814.2,454.6,816.3,456.7,814.9,458z"/>
	</g>
	<path class="st13" d="M755.2,375.2L755.2,375.2c-1.1-39.8-18.1-85-65.2-132.6c-3.9-4-10.4-4.1-14.4-0.2
		c-21,20.2-78.6,84.2-61.8,167.4l0,0c3.9,19.5,11.9,40,25.4,61.2c6.9,10.9,15.2,21.9,25.1,33.1v32.3c0,1,0.4,2,1.2,2.7l7,6.5l-7,6.5
		c-0.7,0.7-1.2,1.6-1.2,2.7c0,1,0.4,2,1.2,2.7l7,6.5l-7,6.5c-0.7,0.7-1.2,1.7-1.2,2.7s0.3,1.9,1.2,2.7l7,6.5l-7,6.5
		c-0.8,0.7-1.2,1.7-1.2,2.8c0,0.9,0.4,1.8,1.1,2.4c0.1,0.1,0.2,0.2,0.3,0.3l11.5,9.2c1.6,1.2,3.8,1,5.1-0.5l11.5-13.8
		c0.5-0.6,0.8-1.5,1.5-2.3v-75.3c-0.2-0.2,0.4-0.4,0.9-0.7c6.4-6.6,14.4-15.7,22.5-26.8C737.5,457.9,756.5,420.1,755.2,375.2z
		 M641.9,352.9c1.6-1.6,4.2-1.6,5.7,0l4.1,4.1c1.6,1.6,1.6,4.2,0,5.8c-0.8,0.7-1.9,1.2-2.9,1.2s-2.1-0.4-2.9-1.2l-4.1-4.2
		C640.3,357.1,640.3,354.5,641.9,352.9z M715.5,424.1c0,2.3-1.8,4.1-4.1,4.1s-4.1-1.8-4.1-4.1v-7c0-2.2,1.8-4.1,4.1-4.1
		s4.1,1.9,4.1,4.1V424.1z M735.7,382.6c-3.8,3.8-9.4,4.5-13.9,2.3l-34.7,34.7v47l12.7-12.7c2.9-2.9,5-6.3,6.3-10.1
		c0.9-2.6,1.3-5.3,1.3-8.1c0-2.3,1.8-4.1,4.1-4.1s4.1,1.8,4.1,4.1c0,5.2-1.2,10.2-3.4,14.7c-1.6,3.4-3.9,6.5-6.6,9.2l-7.4,7.4
		l-11.1,11.1v40.7l0,0V548v30.5c-0.3,1.5-1.5,2.7-3,2.7c-0.8,0-3.7-0.3-4.2-0.8s-0.8-1.2-1-1.9v-59.9l0,0v-58.3l-9.7-9.7l-2.4-2.4
		l-8.4-8.4l-4-4c-2.5,1.2-5.3,1.5-8,0.9l0,0c-2.2-0.4-4.2-1.5-5.9-3.3c-1.1-1.1-1.9-2.4-2.5-3.7c-2-4.5-1.2-9.9,2.5-13.6
		c4.8-4.8,12.5-4.8,17.3,0c3.8,3.8,4.5,9.4,2.3,13.9l6,6l6.9,6.9l2.2,2.1l3.7,3.7v-53l-24.1-24.1c-1.6-1.6-1.6-4.2,0-5.7
		c1.6-1.6,4.2-1.6,5.7,0l18.4,18.4v-44.4c-4.8-1.6-8.2-6.2-8.2-11.5c0-6.8,5.5-12.3,12.3-12.3c6.7,0,12.2,5.5,12.2,12.3
		c0,5.3-3.4,9.9-8.2,11.5v68.3l29-29c-2.2-4.6-1.4-10.1,2.4-13.9c4.8-4.7,12.5-4.7,17.3,0C740.5,370,740.5,377.7,735.7,382.6z"/>
	<path class="st14" d="M701.5,467.7c-0.1,0.2-0.1,0.3-0.2,0.5l0,0C701.4,468.1,701.5,467.9,701.5,467.7z"/>
	<g class="st1">
		<path class="st7" d="M699,519.3c-0.6,0.3-1.2,0.5-1,0.8v0.3C698.3,520,698.7,519.7,699,519.3z M688.5,562.4L688.5,562.4v-33.9
			V562.4z"/>
	</g>
	<text transform="matrix(0.8784 -0.478 0.478 0.8784 553.1662 396.3415)" class="st14 st15 st16">?</text>
	<text transform="matrix(0.9591 0.2831 -0.2831 0.9591 769.7637 373.3419)" class="st14 st15 st17">?</text>
	<g class="st1">
		<path class="st6" d="M897.4,495.3c-7.3,14.7-19.7,26.2-32.4,36.7c-12.4,10.2-25.4,19.7-38.6,28.7l0,0c-9.8,6.7-19.9,13.1-30,19.4
			c-11.2,7-22.8,13.9-34.8,19.5l0,0c-5.7,1.7-11.6,3.2-17.5,4.5c-1.2,0.3-2.4,0.5-3.6,0.8c-0.6,0.1-1.2,0.3-1.8,0.4
			c1.1-30.5,4.6-61.7,22.8-85.8c15.6-20.6,40.1-32.9,65.2-39.4c10.2-2.6,20.7-4.4,31.2-5.3c9.6-0.8,19.2-0.9,28.8-0.3
			c4,0.3,8.4,0.8,11.2,3.7C901.9,482.6,900.1,489.8,897.4,495.3z"/>
	</g>
	<g class="st1">
		<path class="st18" d="M631.7,616.5c-6,0.4-12.1,0.7-18.1,1c-4.9-0.4-9.8-0.7-14.8-1c-46.6-3.1-93.2-5.2-134.4-25.8
			c-12.2-6.1-24.3-14.6-29-27.4c-4.4-12-1.2-26,6.4-36.4c7.5-10.4,18.9-17.5,30.8-22.2c4.8-1.9,9.8-3.4,14.9-4.6
			c24.8-5.6,51.8-2.1,73.4,11.3c15.7,9.7,28.1,23.8,39,38.7c13.1,17.9,24.6,38,30.2,59.3c0.5,1.7,0.9,3.5,1.3,5.2
			C631.4,615.2,631.5,615.8,631.7,616.5z"/>
	</g>
	<g class="st1">
		<path class="st19" d="M631.2,614.5c-16.4-16-37.5-27.2-57.4-37.7c-29-15.1-59.4-27.7-90.6-37.8c-1.8-0.6-1-3.5,0.8-2.9
			c32,10.3,63.2,23.3,93,38.9c18.4,9.7,37.5,20.1,53,34.2C630.5,611,630.9,612.8,631.2,614.5z"/>
	</g>
	<g class="st1">
		<path class="st19" d="M858.7,507.6c-46.5,19.9-93.4,49.1-114.7,96.5c-1.2,0.3-2.4,0.5-3.6,0.8c21.2-49.1,69-79.3,116.8-99.8
			C859,504.3,860.5,506.9,858.7,507.6z"/>
	</g>
</g>
<g id="_x35_00" class="st0">
	<g class="st1">
		<path class="st2" d="M980.1,475.2c-12.5,16-26.5,29.5-41.5,40.7c-0.9,0.7-1.9,1.4-2.8,2.1l0,0c-7.1,5.2-14.5,9.9-22,14.2
			c-15,8.6-30.7,15.5-46.6,21.1c-1,0.4-2,0.7-3,1.1c-18.7,6.4-37.7,11.1-56.6,14.8c-75.4,14.6-151.9,15.7-228.1,16.7
			c-51,0.7-102.2,1.3-152.6-8.9c-11.8-2.4-23.7-5.5-35.2-10.3c-12-4.9-23.4-11.6-33.5-21.1c-2.9-2.7-5.6-5.6-8.3-8.7
			c-1.8-2.1-3.5-4.3-5.1-6.6c-26.5-37.7-31.2-98.2-15.7-146c6.5-20.2,16-38.2,27.6-53.8c14.9-20.2,33.1-36.4,52.6-48.3
			c3.4-2.1,6.8-4,10.2-5.8c38.8-20.3,81-25.7,122.6-27.8s83.5-1.2,124.7-9.5c44.3-9,87.3-28.9,126.2-58.2c7.4-5.6,16.6-4.9,23.4,2
			c0.1,0.1,0.1,0.1,0.2,0.2c56.1,56.7,109.5,118.1,159.8,183.7c11.9,15.5,24.4,33.5,24.8,55.7C1001.6,443,991.3,461,980.1,475.2z"/>
	</g>
	<g class="st1">
		<g>
			<path class="st7" d="M494.5,342.8c-13.3,23.7-35.2,42.5-60.6,52.1c-15.6,5.9-32.2,8.4-48.9,9.2c-1.5,0.1-3,0.1-4.4,0.2
				c-0.4,0-0.8,0-1.2,0c10-43.5,25.8-85.7,47-125.1c6-11.1,12.6-22.2,22.4-30.1c8.6-6.9,19.5-10.9,30.5-11.3
				c5.8-0.2,11.9,0.7,16.8,4c7,4.8,10,13.7,11.5,22.1C512.5,290.7,507.8,319.1,494.5,342.8z"/>
		</g>
		<g>
			<path class="st8" d="M472.9,281.5c-18,48.2-51.8,86.8-87.9,122.6c-1.5,0.1-3,0.1-4.4,0.2c36.6-36,71.3-74.9,89.4-123.6
				C470.7,278.9,473.5,279.7,472.9,281.5z"/>
		</g>
	</g>
	<g class="st1">
		<path class="st9" d="M501.2,401.1c-15.4-14.6-36-21.9-62-21.9c-11,0-20.3,0.9-27.7,2.6l-6.4,1.3l5-52.7H506v-48.1H360.3l-3.6,48.3
			l-6.5,88.5l22.6,12.1c4.9-1.5,11.3-2.9,19.1-4.1c7.8-1.3,15-1.9,21.5-1.9c35.9,0,53.8,13.5,53.8,40.6c0,28.4-17.3,42.6-52,42.6
			c-11.5,0-23.7-1.6-36.5-4.9s-24.1-7.4-33.8-12.6v39.6c1.6,2.3,3.3,4.5,5.1,6.6c2.6,3.1,5.4,6,8.3,8.7c16.2,5.8,35.9,8.7,59,8.7
			c34.4,0,60.8-8.1,79.3-24.2c18.5-16.2,27.7-39.2,27.7-69.2C524.3,435.7,516.6,415.7,501.2,401.1z"/>
		<path class="st9" d="M718.7,313.3c-15.9-23.5-39.3-35.3-70.2-35.3c-31.8,0-55.4,11.2-70.7,33.7s-23,57.4-23,104.8
			c0,45.4,7.9,79.8,23.6,103c15.7,23.3,39.1,34.9,70.1,34.9c32,0,55.6-11.3,71-33.8c15.4-22.5,23-57.2,23-104.1
			C742.4,371.3,734.5,336.8,718.7,313.3z M677.1,487.1c-5.9,14.5-15.4,21.7-28.7,21.7c-13.5,0-23-7.1-28.7-21.4s-8.5-37.9-8.5-70.8
			s2.9-56.6,8.6-71c5.8-14.4,15.3-21.6,28.6-21.6c13.1,0,22.6,7.2,28.6,21.6c5.9,14.4,8.9,38,8.9,71
			C685.9,449.1,682.9,472.6,677.1,487.1z"/>
		<path class="st9" d="M930.6,401.1c-6.7-6.4-14.5-11.4-23.2-15c2.5-3.7,5.2-7.4,7.8-11.1c9.5-13.2,19.5-25.9,30.1-38.3
			c-0.4-1.1-0.8-2.1-1.2-3.2c-14.1,16.4-27.2,33.6-39.5,51.5c-1.7-0.6-3.4-1.2-5.2-1.7c0.2,2.8,0.4,5.6,0.6,8.6
			c0.1,1.6,0.2,3.3,0.3,5c0.3,6.1,0.4,12.7,0.4,19.6c0,32.6-2.9,56.1-8.8,70.5c-0.6,1.6-1.3,3-2,4.4c11-10.4,21.6-21.3,31.9-32.3
			c9.2-9.9,18.3-20,26.9-30.5C944.6,418,938.7,408.8,930.6,401.1z"/>
		<path class="st9" d="M957.1,416.6c0,45.1-7.1,78.9-21.3,101.5l0,0c-7.1,5.2-14.5,9.9-22,14.2c-15,8.6-30.7,15.5-46.6,21.1
			c-1,0.4-2,0.7-3,1.1c-0.4,0-0.7,0-1,0c-31,0-54.3-11.6-70.1-34.9c-15.7-23.3-23.6-57.6-23.6-103c0-47.4,7.7-82.3,23-104.8
			s38.9-33.7,70.7-33.7c31,0,54.4,11.8,70.3,35.3c4.1,6,7.6,12.8,10.6,20.3c-14.1,16.4-27.2,33.6-39.5,51.5
			c-1.7-0.6-3.4-1.2-5.2-1.7c-1.4-16.2-4-28.8-7.7-37.8c-5.9-14.4-15.5-21.6-28.6-21.6c-13.3,0-22.9,7.2-28.6,21.6
			c-5.8,14.4-8.6,38-8.6,71c0,30.1,2.4,52.4,7.2,67c0.4,1.3,0.9,2.6,1.4,3.8c2.2,5.4,4.9,9.8,8.2,13.2c0.8,0.8,1.6,1.5,2.4,2.2
			c5,4,11,6,18.1,6c3.1,0,5.9-0.4,8.6-1.2c7.6-2.2,13.6-7.6,18-16.1c11-10.4,21.6-21.3,31.9-32.3c9.2-9.9,18.3-20,26.9-30.5
			c-3.8-10.7-9.8-19.8-17.9-27.5c-6.7-6.4-14.5-11.4-23.2-15c2.5-3.7,5.2-7.4,7.8-11.1c9.5-13.2,19.5-25.9,30.1-38.3
			C953.2,357.9,957.1,384.5,957.1,416.6z"/>
	</g>
	<g class="st1">
		<path class="st7" d="M948.5,428.6c-8.6,10.5-17.6,20.6-26.9,30.5c-10.3,11.1-20.9,22-31.9,32.3c-0.4,0.4-0.7,0.7-1.1,1
			c-2.7,2.5-5.4,5-8.1,7.4c-2.9,2.6-5.8,5.1-8.8,7.6c-2.7,0.8-5.5,1.2-8.6,1.2c-7.1,0-13.2-2-18.1-6c-0.8-0.7-1.6-1.4-2.4-2.2
			c-3.3-3.4-6-7.8-8.2-13.2c-0.5-1.2-0.9-2.5-1.4-3.8c-0.5-19.5,0.9-39,4.1-58.2c2.5-15.2,6.2-30.2,11-44.8c6-0.8,12.8-1.3,20.5-1.3
			c11.2,0,21.5,1.4,30.7,4.1c1.8,0.5,3.5,1.1,5.2,1.7l0,0c1,0.3,1.9,0.7,2.8,1.1c8.8,3.6,16.5,8.6,23.2,15
			C938.7,408.8,944.6,418,948.5,428.6z"/>
	</g>
	<g class="st1">
		<path class="st8" d="M951.8,329.2c-2.2,2.5-4.4,5.1-6.6,7.6c-10.5,12.3-20.6,25.1-30.1,38.3c-2.6,3.7-5.2,7.4-7.8,11.1
			c-2.5,3.6-4.8,7.1-7.2,10.8c-21.8,33.3-40.4,68.8-55.2,105.8c-0.8-0.7-1.6-1.4-2.4-2.2v-0.1c15.4-38,34.6-74.4,57.3-108.5
			c1.5-2.3,3.1-4.6,4.6-6.9l0,0c12.2-17.8,25.4-35,39.5-51.5c1.9-2.2,3.8-4.4,5.7-6.5C951,325.6,953.1,327.8,951.8,329.2z"/>
	</g>
	<g class="st1">
		<g>
			<path class="st7" d="M793.5,378.6c-6.2-2.5-12.2-5.5-18-8.8c-13.7-7.9-26.5-18.5-33.5-32.7s-7.1-32.6,2.8-44.9
				c1.9-2.4,4.6-4.7,7.7-4.6c4.2,0.2,6.7,4.6,8.4,8.4c10.8,24.1,20.7,48.7,29.5,73.6c0.9,2.5,1.8,5,2.6,7.5
				C793.2,377.6,793.4,378.1,793.5,378.6z"/>
		</g>
		<g>
			<path class="st8" d="M793,377.2c-15-16.6-28.3-34.7-39.9-53.9c-1-1.7,1.6-3.2,2.6-1.5c10.1,17,21.7,33,34.6,47.9
				C791.3,372.1,792.2,374.7,793,377.2z"/>
		</g>
	</g>
	<g class="st1">
		<g>
			<path class="st7" d="M381.2,525.4c-0.8-0.3-1.5-0.6-2.3-0.9c-1.7-0.6-3.3-1.3-5-1.9c-2.3-0.9-4.6-1.8-6.9-2.7
				c-15.6-6.1-31.6-12.4-43.8-23.8c-12.2-11.4-20-29.2-14.8-45.1c1.2-3.7,3.1-7.2,6.3-9.5c4.5-3.3,10.7-3.4,16.2-2.1
				c17.7,4.3,29.6,20.8,37.1,37.4C374.8,492.2,379.3,508.6,381.2,525.4z"/>
		</g>
		<g>
			<path class="st8" d="M379,524.5c-1.7-0.6-3.3-1.3-5-1.9c-13.7-19.4-30.8-36.6-43.8-56.5c-1-1.6,1.5-3.1,2.6-1.5
				C346.5,485.7,364.9,503.7,379,524.5z"/>
		</g>
	</g>
	<path class="st14" d="M990.7,362.8c-10.8,23.9-25.6,45.5-42.2,65.8c-3.8-10.7-9.8-19.8-17.9-27.5c-6.7-6.4-14.5-11.4-23.2-15
		c-0.9-0.4-1.9-0.7-2.8-1.1c-10.6-3.9-22.5-5.8-35.9-5.8c-7.7,0-14.5,0.4-20.5,1.3c5.7-17.3,12.9-34.1,21.7-50.1
		c3.3-6,6.8-11.9,10.5-17.6c7.1-11,15.5-22,25.4-30.5c8.7-7.4,18.5-13.1,29.8-15.4c27.9-5.7,58.6,14.3,64.5,42.3
		C1003.8,327.3,998.3,346,990.7,362.8z"/>
	<g class="st1">
		<g>
			<path class="st7" d="M685.6,433.9c-0.7,18.2-2.5,32.9-5.5,44.1c-0.3,1.2-0.6,2.3-1,3.4c-0.6,2-1.3,4-2,5.7
				c-1.7,4.2-3.7,7.8-6.1,10.8c-19.3-7.7-38.2-16.5-55.9-26.9c-21.4-12.5-41.1-27.5-57.8-45.9c-0.8-0.9-1.7-1.9-2.5-2.8
				c-10.3-11.8-19.2-25.2-23.4-40.3c-8.2-29.5,2.8-61.5,20.5-86.6c2.7-3.9,5.8-7.8,10-10c6.7-3.5,14.9-2.2,22,0.3
				c4.8,1.6,9.4,3.7,13.8,6.1c15.1,8.2,28,20.6,38.5,34.7c3.3,4.3,6.3,8.9,9.1,13.5c12.8,21.1,21.7,44.4,30.5,67.5
				C679.1,416.2,682.4,425.1,685.6,433.9z"/>
		</g>
		<g>
			<path class="st8" d="M680,478c-0.3,1.2-0.6,2.3-1,3.4c-36-38.5-68.6-80.1-97.4-124.3c-1.1-1.6,1.5-3.1,2.6-1.5
				C612.7,399,644.7,440,680,478z"/>
		</g>
	</g>
	<g class="st1">
		<path class="st8" d="M951.8,329.2c-12.9,14.7-25.2,30-36.6,45.9c-2.6,3.7-5.2,7.4-7.8,11.1c-0.9-0.4-1.9-0.7-2.8-1.1
			c13.8-20.2,28.9-39.6,45.1-58C951,325.6,953.1,327.8,951.8,329.2z"/>
	</g>
	<g class="st1">
		<path class="st6" d="M913.8,532.3c-15,8.6-30.7,15.5-46.6,21.1c-19.6,6.9-39.8,12-59.7,15.8c-75.4,14.6-151.9,15.7-228.1,16.7
			c-51,0.7-102.2,1.3-152.6-8.9c-11.8-2.4-23.7-5.5-35.2-10.3c3.9-0.7,7.8-1.7,11.6-2.9c16.5-5.2,31.2-14.9,47.3-21.4
			c27.6-11.1,58.2-12,87.9-12.4c60-0.9,120.2-0.3,180-5.4c46.7-4,93.6-11.5,140.1-5.5C877.4,521.7,895.8,526.3,913.8,532.3z"/>
	</g>
</g>
<g id="_x34_03" class="st0">
	<g class="st1">
		<path class="st2" d="M1031.6,431.3c-4.9,19.8-19,36.2-34.7,49.2c-15.5,12.8-32.7,23.1-50.8,32c-19.5,9.6-40,17.6-60.3,25.5
			c-9,3.5-18.1,7-27.2,10.5c-5.3,2-10.6,4-15.9,5.9c-29,10.5-58.4,19.7-88.7,25c-69,12.1-139.9,3.5-209.9,5.4
			c-31.7,0.9-62.9-7.8-89.5-25.1c-0.2-0.1-0.3-0.2-0.5-0.3c-7.2-4.7-14.3-9.4-21.3-14.3c-21.7-15.2-42.6-31.6-61.5-49.9
			c-13.5-13-25.9-27-36.8-42.1c-7.3-10.1-14-20.7-19.8-31.9c-12-23-20.4-49.5-14.6-74.7c4.7-20.5,18.3-38,34.4-51.4
			c30-25,68.7-37.3,107.4-42.8c38.6-5.5,77.8-4.8,116.8-6.7c62.9-3,125.2-13,187.7-20.1c41.6-4.7,84.7-8,124.7,4.6
			c54.3,17.1,95.6,61.2,129.1,107.2C1020.6,364.9,1039.8,398.2,1031.6,431.3z"/>
	</g>
	<g class="st1">
		<path class="st7" d="M867,506.8c-3.9,1-8.3,1.7-13,2.1c-1,0.1-2,0.2-3.1,0.2c-3,0.2-6.1,0.3-9.4,0.3c-4.5,0-9.1-0.2-13.6-0.7
			c-22.1-28.4-38.9-60.9-48.8-95.5c-5.7-19.9-9.1-41.1-3.9-61.1c2.2-8.3,6.1-16.3,11.5-23.1c7.5-9.5,17.8-16.5,29.7-18.4
			c5.9-0.9,12.2-0.5,17.2,2.7c3.8,2.5,6.5,6.4,8.9,10.2c0.3,0.5,0.6,0.9,0.9,1.4c11.8,19.1,19.9,40,24.8,61.8
			c-9.1,2.8-21.2,4.2-36.1,4.2h-20.8v43.5H832c18,0,32.1,1.7,42.3,5.1C874.5,462.2,872,484.9,867,506.8z"/>
	</g>
	<g class="st1">
		<path class="st8" d="M854,509c-1,0.1-2,0.2-3.1,0.2c-7.9-24.7-15.8-49.5-22-74.6c-3.5-14.4-6.5-28.9-8.6-43.5
			c-1.3-8.9-2.2-18-2.7-27c-0.1-1.9,2.9-1.9,3,0c0.5,9.1,1.4,18.1,2.7,27c2.1,14.7,5.1,29.2,8.6,43.5
			C838.2,459.6,846.2,484.3,854,509z"/>
	</g>
	<g class="st1">
		<path class="st7" d="M1020.5,475.9c-8.7,10.2-20.4,17.5-32.7,22.7c-21.8,9.3-45.5,12.5-69.3,13.6c0.9-3,1.8-6.1,2.8-9.1
			c0.4-1.2,0.8-2.5,1.2-3.7c2.8-8.2,6.1-16.1,10.2-23.7c9.4-17.2,23.9-32.5,42.5-38.8c9.6-3.2,19.8-4,29.9-3.3
			c7.3,0.5,15.1,2.1,20,7.6C1033.7,450.7,1028.8,466.2,1020.5,475.9z"/>
	</g>
	<g class="st1">
		<path class="st8" d="M1003.4,455.3c-22.5,23.2-52.2,36.4-82.1,47.8c0.4-1.2,0.8-2.5,1.2-3.7c28.7-11,57.1-23.9,78.7-46.3
			C1002.6,451.8,1004.7,453.9,1003.4,455.3z"/>
	</g>
	<g class="st1">
		<path class="st7" d="M533.6,253.5c-4.1,19.7-20,35.5-38.4,43.7c-9.6,4.3-19.8,6.7-30.3,8c0-1.8-0.1-3.7,0-5.5
			c0-1.3,0.1-2.6,0.1-3.8c0.7-10.6,3.2-20.6,9.4-29.3c5.5-7.8,13.5-13.7,22-18c8.3-4.2,17.3-7.1,26.5-8.6c2.2-0.4,4.6-0.6,6.7,0.3
			C534.2,242.3,534.6,248.6,533.6,253.5z"/>
	</g>
	<g class="st1">
		<path class="st8" d="M516.7,256.2c-16.4,15.5-33.7,30-51.8,43.4c0-1.3,0.1-2.6,0.1-3.8c17.3-13,33.8-26.9,49.5-41.7
			C516,252.7,518.1,254.9,516.7,256.2z"/>
	</g>
	<g class="st1">
		<path class="st7" d="M607.3,534.6c-0.5-0.1-1-0.1-1.6-0.2c-5-0.6-10-1.2-15-1.8c-27.7-3.3-58.5-8.3-75.5-30.5
			c-15.1-19.7-14.5-47.1-11.5-71.7c0.6-5,1.6-10.6,5.5-13.8c2.5-2.1,6-2.8,9.2-3.1c16.7-1.5,33.1,7,44.9,18.9
			c11.8,11.9,19.7,27.1,26.8,42.3c5.4,11.4,10.5,23.2,13.7,35.3c0.5,1.8,0.9,3.6,1.3,5.4l0,0c1.2,5.5,1.9,11,2,16.6
			C607.4,532.8,607.4,533.7,607.3,534.6z"/>
	</g>
	<g class="st1">
		<path class="st8" d="M607.3,534.6c-0.5-0.1-1-0.1-1.6-0.2c-5.3-4.7-10.2-9.7-15-14.4c-9.9-9.9-19.2-20.3-28.5-30.8
			c-8.9-10-17.4-20.4-24.2-32c-1-1.7,1.6-3.2,2.6-1.5c13,22,31.9,41.3,49.7,59.5c5.3,5.4,10.9,11.2,16.9,16.6
			C607.4,532.8,607.4,533.7,607.3,534.6z"/>
	</g>
	<g class="st1">
		<path class="st7" d="M466.2,526.7c-6.4-6.1-12.6-12.2-18.8-18.5c-4.1-4.2-8.1-8.5-12.1-13c-7.4-8.3-14.5-17-20.9-26.2
			c-4-5.8-7.8-11.7-11.2-17.9h44.2v-45.5c0-6.4,0.2-15.3,0.7-26.7c12.3,20.2,18.7,43.9,21,67.5C471.8,473.1,469.4,500,466.2,526.7z"
			/>
	</g>
	<g class="st1">
		<path class="st7" d="M841.6,509.5c9.8,0,18.3-0.9,25.4-2.6c-0.5,2.5-1.1,4.9-1.7,7.4c-2.3,9.2-5,18.3-7.3,27.4
			c-10.9-10.1-20.9-21.2-30-32.9C832.5,509.3,837.1,509.5,841.6,509.5z"/>
	</g>
	<g class="st1">
		<path class="st7" d="M831.9,434.6h-20.4V391h20.8c14.9,0,26.9-1.4,36.1-4.2c3.9,17.2,5.8,35,6,52.8
			C864.1,436.3,850,434.6,831.9,434.6z"/>
	</g>
	<path class="st13" d="M503,451.1V282.3h-52.3l-43.3,63.8c4,0,8,1,11.7,2.6c6.8,3.1,12.5,8.3,17.4,13.9c0.9,1,1.7,2,2.6,3.1
		c3.5-6,6.7-12.2,9.5-18.4h1.5c-0.4,2.3-0.9,10.7-1.5,25.2c-0.1,2.2-0.2,4.3-0.3,6.4c-0.4,11.4-0.7,20.3-0.7,26.7v45.5H383
		l11.7-17.7c-6.9-16.2-11.2-33.4-11.7-51v-0.2l-48.2,71c10.9,15.1,23.4,29,36.8,42.1h76V551H503v-55.7h32.3v-44.1L503,451.1
		L503,451.1z"/>
	<path class="st14" d="M448.2,378.8c-0.4,11.4-0.7,20.3-0.7,26.7V451h-44.2c-3.2-5.8-6.2-11.7-8.7-17.7c-6.9-16.2-11.2-33.4-11.7-51
		v-0.2c-0.3-12.9,2.8-27.8,14.3-33.7c3.1-1.6,6.6-2.3,10-2.3c4,0,8,1,11.7,2.6c6.8,3.1,12.5,8.3,17.4,13.9c0.9,1,1.7,2,2.6,3.1
		C442.3,369.9,445.4,374.3,448.2,378.8z"/>
	<path class="st13" d="M720.1,384.3c-0.5-3.5-1.5-7.2-4.4-9.2s-6.8-1.6-10.3-0.9c-7.3,1.5-14.4,4-21,7.3c1,10.2,1.4,21.9,1.4,35.1
		c0,19.7-1.1,36-3.2,49.1C706.6,445.4,724.5,415.2,720.1,384.3z"/>
	<path class="st13" d="M718.7,313.3c-15.9-23.5-39.3-35.3-70.2-35.3c-31.8,0-55.4,11.2-70.7,33.7s-23,57.4-23,104.8
		c0,45.4,7.9,79.8,23.6,103c15.7,23.3,39.1,34.9,70.1,34.9c32,0,55.6-11.3,71-33.8c15.4-22.5,23-57.2,23-104.1
		C742.4,371.3,734.5,336.8,718.7,313.3z M682.7,465.6c-1.4,8.6-3.3,15.7-5.6,21.4c-5.9,14.5-15.4,21.7-28.7,21.7
		c-9,0-16.2-3.2-21.8-9.5c-2.8-3.2-5.1-7.1-7-11.9c-1.6-4.1-3-9-4.2-14.6c-2.9-14-4.3-32.7-4.3-56.2c0-32.9,2.9-56.6,8.6-71
		c5.8-14.4,15.3-21.6,28.6-21.6c13.1,0,22.6,7.2,28.6,21.6c3.6,8.6,6,20.6,7.5,35.9c6.7-3.3,13.7-5.7,21-7.3
		c3.5-0.7,7.4-1.2,10.3,0.9c2.9,2,3.9,5.8,4.4,9.2C724.5,415.2,706.6,445.4,682.7,465.6z"/>
	<path class="st13" d="M939.3,430.2c-11.1-10.5-27.5-17-49.2-19.7v-1.1c18.4-4.4,32.6-12.5,42.8-24.3s15.3-26,15.3-42.8
		c0-20.1-8.1-35.8-24.2-47c-16.1-11.3-38-16.9-65.8-16.9c-33.9,0-63.1,8.8-87.6,26.4l16.3,24.2c7.5-9.5,17.8-16.5,29.7-18.4
		c5.9-0.9,12.2-0.5,17.2,2.7c3.8,2.5,6.5,6.4,8.9,10.2c0.3,0.5,0.6,0.9,0.9,1.4c3.6-0.5,7.1-0.7,10.6-0.7
		c25.5,0,38.2,10.2,38.2,30.5c0,13.2-4.8,22.6-14.4,28c-2.7,1.5-5.9,2.9-9.6,4c-9.1,2.8-21.2,4.2-36.1,4.2h-20.8v43.5h20.4
		c18.1,0,32.2,1.7,42.4,5.1c2.5,0.8,4.8,1.8,6.8,2.8c10.3,5.3,15.4,14.2,15.4,26.8c0,14.1-4.5,24.3-13.4,30.7
		c-4.3,3-9.6,5.3-16.1,6.9c-7.1,1.8-15.6,2.6-25.4,2.6c-4.5,0-9.1-0.2-13.6-0.7c-7.8-0.8-15.6-2.2-23.5-4.3
		c-12.5-3.3-23.9-7.6-34.3-12.9V540c21.3,9.1,45.5,14,72.6,14.5c14.4-5.2,28.8-10.8,43.1-16.3c20.3-7.9,40.8-15.9,60.3-25.5
		c6.6-11.3,9.9-24.6,9.9-40C956,454.8,950.5,440.7,939.3,430.2z"/>
	<g class="st1">
		<path class="st7" d="M605.4,515.4c-0.2,0.8-0.3,1.6-0.5,2.5"/>
	</g>
	<g class="st1">
		<path class="st7" d="M682.7,465.6c-0.9,0.8-1.9,1.6-2.8,2.3c-16.1,12.9-34.5,22.3-53.2,31.3c-2.5-2.9-4.6-6.4-6.4-10.6
			c-0.2-0.4-0.4-0.9-0.5-1.3c-0.2-0.5-0.4-1.1-0.6-1.7c-1.4-3.7-2.6-8-3.6-12.9c4.6-15,10.5-29.5,18.5-43
			c12-20.3,29.5-38.1,50.5-48.3c6.7-3.3,13.7-5.7,21-7.3c3.5-0.7,7.4-1.2,10.3,0.9c2.9,2,3.9,5.8,4.4,9.2
			C724.5,415.2,706.6,445.4,682.7,465.6z"/>
	</g>
	<g class="st1">
		<path class="st8" d="M447.5,447.6v3.5h-1.6c-10.8-21.1-21.8-42.2-33-63.1c-0.9-1.7,1.7-3.2,2.6-1.5
			C426.3,406.7,437,427.1,447.5,447.6z"/>
	</g>
	<g class="st1">
		<path class="st8" d="M693.1,405.8c-22,29.6-46.4,57.3-72.9,82.8c-0.2-0.4-0.4-0.9-0.5-1.3c-0.2-0.5-0.4-1.1-0.6-1.7
			c25.9-25.1,49.9-52.3,71.5-81.3C691.6,402.8,694.2,404.3,693.1,405.8z"/>
	</g>
	<g class="st1">
		<path class="st6" d="M858.7,548.5c-5.3,2-10.6,4-15.9,5.9c-29,10.5-58.4,19.7-88.7,25c-69,12.1-139.9,3.5-209.9,5.4
			c-31.7,0.9-62.9-7.8-89.5-25.1c-0.2-0.1-0.3-0.2-0.5-0.3c-7.2-4.7-14.3-9.4-21.3-14.3c76.8-14.7,160.7-20.8,243.1-17.6
			C739.2,530,799.9,537.7,858.7,548.5z"/>
	</g>
</g>
<g id="_x35_02" class="st0">
	<g class="st1">
		<path class="st2" d="M1033,460.9c-20.8,25.2-46.3,45.9-74.5,62.5c-18.4,10.9-38,20-58.1,27.4c-6.3,2.3-12.6,4.5-18.9,6.5
			c-64.5,20.3-132.7,25.2-200.2,27.8c-94.8,3.8-192.8,2.7-280.8-31.2c-6.7-2.6-13.3-5.3-19.8-8.3c-12.3-5.5-24.7-12.5-35.9-20.7
			c-26.9-19.6-47.6-46.4-46.3-78.5c1.3-30.9,22.7-56.9,44.3-79c3.9-4,7.9-8,12-12c26.7-25.8,56.8-48.9,92.4-58.5
			c19.1-5.1,38.8-6.1,58.7-6.8c15.3-0.6,30.7-1,45.8-3.1c49.6-6.8,95-31.1,140.9-52.5c66.7-31.2,144.4-30.2,209.5,4.2
			c1.3,0.7,2.6,1.4,3.9,2.1c46.3,25.4,84.5,63.4,120,102.5c14.8,16.3,29.9,34.4,31.9,56.3C1059.9,422.2,1047.4,443.5,1033,460.9z"/>
	</g>
	<g class="st1">
		<path class="st7" d="M985,480.2c-11,10.1-24.2,17.6-37.2,25c-11.1,6.3-22.3,12.6-34,17.8c-0.1,0-0.2,0.1-0.3,0.1
			c0-1.4-0.1-2.9-0.1-4.3c-0.2-11.5,0.2-23.1,2.2-34.5c2.9-15.6,9.3-30.9,20.9-41.8c11.5-10.9,28.6-16.5,43.8-11.7
			c8.4,2.6,16.1,8.8,18.4,17.2C1001.9,459.9,994,471.9,985,480.2z"/>
	</g>
	<g class="st1">
		<path class="st8" d="M972.2,453.9c-17.9,24.2-39.4,45.7-58.4,69.1c-0.1,0-0.2,0.1-0.3,0.1c0-1.4-0.1-2.9-0.1-4.3
			c18.4-22.4,39-43.2,56.2-66.5C970.8,450.8,973.4,452.3,972.2,453.9z"/>
	</g>
	<g class="st1">
		<path class="st7" d="M924.9,508.7c-2.8-0.1-5.7-0.2-8.5-0.4c-2.1-0.1-4.2-0.3-6.3-0.5c-10.5-0.9-20.9-2.3-31.1-4.8
			c-2.3-0.5-4.7-1.2-7-1.8c-7.6-2.2-15.1-4.9-22.3-8.4c-13.3-6.3-25.4-14.9-35-25.8l20.7-20.9l2.5-2.5l0.4-0.4
			c20-20.5,33-34.6,39.1-42.5c1.8-2.4,3.5-4.7,5-6.9c-0.6,7.4-0.9,14.8-0.5,22.1c0.7,13.4,3.8,26.3,8.7,38.6
			c6.9,17.4,17.4,33.6,29.6,48.6C921.8,505,923.3,506.8,924.9,508.7z"/>
	</g>
	<g class="st1">
		<path class="st7" d="M882.5,393.8c-1.5,2.3-3.2,4.6-5,6.9c-6.1,7.9-19.2,22.1-39.1,42.5l-23.6,23.9c-1.3-1.5-2.6-3-3.8-4.6
			c-18.7-24.4-23.7-56.7-22.5-87.4c0.4-10.2,1.6-20.7,5.7-29.9c1.3-2.8,2.8-5.5,4.7-8c13.9-18.1,40.2-19.6,63-19.4
			c4,0,8.3,0.1,11.8,2.2c3.6,2.2,5.6,6.2,7.1,10.2c0.1,0.3,0.2,0.5,0.3,0.8C887.6,351,884.1,372.4,882.5,393.8z"/>
	</g>
	<g class="st1">
		<path class="st8" d="M844.1,381.4c-4.8,16.2-9.7,32.9-8.4,50c0.3,4.3,1,8.3,2.2,12.2l-2.5,2.5c-6.4-20.8-0.2-44.9,5.9-65.5
			C841.8,378.8,844.7,379.5,844.1,381.4z"/>
		<path class="st8" d="M916.4,508.3c-2.1-0.1-4.2-0.3-6.3-0.5c-2.3-1.4-4.5-2.6-6.5-3.8c-0.6-0.3-1.1-0.7-1.7-1
			c-6.6-4.1-13.3-8.1-19.9-12.2c-6-3.7-12.3-7.2-18.3-11.2l2.2-2.1c10.5,7.1,21.8,13.3,32.6,19.8c2.9,1.8,6.5,3.6,10.1,5.6
			C911.3,504.6,914,506.3,916.4,508.3z"/>
	</g>
	<g class="st1">
		<path class="st7" d="M553.6,323.8c-25.9,35.1-66,59.1-108.9,66.6c-2.3,0.4-4.5,0.7-6.8,1c-2.2,0.3-4.3,0.5-6.5,0.7
			c5.1-13.3,10.3-26.5,15.4-39.8c7.9-20.2,16.3-41.3,32.5-55.7c12.4-11,28.7-17.3,45.3-18.3c8.2-0.6,16.7,0.2,24.1,3.9
			c7.3,3.7,13.2,10.9,13.8,19.1C563.1,309.5,558.5,317.1,553.6,323.8z"/>
	</g>
	<g class="st1">
		<path class="st8" d="M520.9,307c-19.1,33-45.2,61.4-76.2,83.3c-2.3,0.4-4.5,0.7-6.8,1c32.9-22.1,60.5-51.5,80.4-85.9
			C519.3,303.8,521.9,305.3,520.9,307z"/>
	</g>
	<g class="st1">
		<path class="st7" d="M410.6,508.3c-4-0.1-8.1-0.5-12.3-1c-1.1-0.1-2.2-0.3-3.3-0.5c-5.3-0.8-10.8-1.9-16.4-3.3
			c-5.2-1.3-10.1-2.8-14.8-4.4c-18.9-12.6-37.8-25.2-55.5-39.4c-29.9-24-56.9-53.3-70.4-89.3c-8.4-22.3-9.9-50.7,7.6-66.8
			c11.8-10.9,29.1-13.1,45.2-13.3c12.3-0.2,24.6,0.5,36.8,2c7.8,1,16.2,2.7,21.1,8.8c4.1,5.2,4.6,12.4,4.6,19.1
			c0,13.4-1,27.4,1.3,40.4c1,5.6,2.6,11,5.1,16.1c5.2,10.5,13.9,18.8,22.2,27.1c6.9,6.9,13.8,14.2,19.7,22c9.6,12.6,16.8,26.5,18,42
			C420.7,481.9,416.7,495.4,410.6,508.3z"/>
	</g>
	<g class="st1">
		<path class="st7" d="M410.6,508.3c-2.7,5.6-5.8,11.1-9,16.5c-12.3-8.9-25-17.3-37.7-25.7c4.7,1.6,9.6,3.1,14.8,4.4
			C389.8,506.3,400.4,507.9,410.6,508.3z"/>
	</g>
	<g class="st1">
		<path class="st7" d="M589.2,532.7c-5.6-0.8-11.1-1.7-16.7-2.7c-13.1-2.4-26.3-5.5-37.7-12.4c-7-4.2-13.2-10.1-17.4-17
			c-2.6-4.4-4.5-9.1-5.2-14.2c-1.6-11.4,3.4-23.1,11.9-30.7c4.8-4.4,10.8-7.4,17.2-8.4c5-0.8,10-0.4,14.8,0.8
			c1.9,20,5.8,37.3,11.7,51.8c0.6,1.6,1.3,3.2,2,4.7c2.5,5.5,5.3,10.6,8.5,15.2C581.6,524.5,585.3,528.8,589.2,532.7z"/>
	</g>
	<g class="st1">
		<path class="st7" d="M615.6,535.6c-8.8-0.8-17.6-1.8-26.3-3c-4-3.8-7.6-8.2-10.9-13.1c-11.9-17.6-19.3-41.5-22.2-71.7
			c6.8,1.7,13.3,5.1,18.9,9.5c9.5,7.5,16.4,17.7,22.4,28.2C606.3,501.1,613.3,518,615.6,535.6z"/>
	</g>
	<g class="st1">
		<path class="st9" d="M524.1,455.6c-1-22.8-8.7-40.9-22.9-54.4c-15.4-14.6-36-21.9-62-21.9c-11,0-20.3,0.9-27.7,2.6l-6.4,1.3
			l5-52.7H506v-48.1H360.3l-5.4,73.1l-0.4,5.2c1,5.6,2.6,11,5.1,16.1c5.2,10.5,13.9,18.8,22.2,27.1c6.9,6.9,13.8,14.2,19.7,22
			c4.2-0.4,8.1-0.6,11.8-0.6c35.9,0,53.8,13.5,53.8,40.6c0,28.4-17.3,42.6-52,42.6c-1.5,0-3,0-4.6-0.1c-10.1-0.4-20.8-2-32-4.8
			c-5.2-1.3-10.1-2.8-14.8-4.4c-6.9-2.4-13.3-5.1-19-8.2v34c11.3,8.2,23.6,15.2,35.9,20.7c6.5,3,13.2,5.7,19.8,8.3
			c5.3,0.4,10.8,0.5,16.6,0.5c34.4,0,60.8-8.1,79.3-24.2c9.3-8.2,16.3-18,20.9-29.7c-2.6-4.4-4.5-9.1-5.2-14.2
			C510.6,474.9,515.7,463.2,524.1,455.6z"/>
		<path class="st9" d="M728.2,330.9c-16.4,11.8-29.5,27.8-44.8,41c1.7,12.3,2.5,27.1,2.5,44.6c0,20.3-1.1,37.1-3.4,50.3
			c9.9-8.3,18.6-18.2,25.9-28.9c14-20.6,23.2-44,30.8-67.8C736.7,355.4,733.1,342.3,728.2,330.9z"/>
		<path class="st9" d="M742.4,416.6c0,46.9-7.7,81.6-23,104.1c-15.4,22.5-39,33.8-71,33.8c-24.5,0-44.2-7.3-59.2-21.8
			c-4-3.8-7.6-8.2-10.9-13.1c-11.9-17.6-19.3-41.5-22.2-71.7c-0.9-9.8-1.4-20.2-1.4-31.3c0-47.4,7.7-82.3,23-104.8
			s38.9-33.7,70.7-33.7c31,0,54.4,11.8,70.2,35.3c3.6,5.3,6.8,11.2,9.5,17.6c-16.4,11.8-29.5,27.8-44.8,41
			c-1.5-10.8-3.6-19.6-6.4-26.4c-5.9-14.4-15.5-21.6-28.6-21.6c-13.3,0-22.9,7.2-28.6,21.6c-5.3,13.2-8.1,34.1-8.6,62.9
			c0,2.6-0.1,5.3-0.1,8.1c0,32.9,2.8,56.5,8.5,70.8c0.6,1.6,1.3,3,2,4.4c5.8,11.3,14.7,17,26.7,17c13.2,0,22.8-7.2,28.7-21.7
			c2.2-5.4,4-12.2,5.4-20.2c9.9-8.3,18.6-18.2,25.9-28.9c14-20.6,23.2-44,30.8-67.8C741.3,384.1,742.4,399.6,742.4,416.6z"/>
		<path class="st9" d="M908.5,503.1h-6.6c0.6,0.3,1.1,0.7,1.7,1c1.9,1.2,4.2,2.4,6.5,3.8c2.1,0.2,4.2,0.3,6.3,0.5
			C914,506.3,911.3,504.6,908.5,503.1z"/>
		<path class="st9" d="M958.6,503.1v20.3c-18.4,10.9-38,20-58.1,27.4H770.9v-39.5l43.8-44.2l20.7-20.9l2.5-2.5l0.4-0.4
			c20-20.5,33-34.6,39.1-42.5c1.8-2.4,3.5-4.7,5-6.9c3.6-5.3,6.3-10.3,8.2-15c2.7-6.7,4-13.7,4-20.9c0-10.8-3-18.8-8.9-24.1
			c-1.6-1.4-3.3-2.6-5.1-3.6c-1.4-4-3.5-8-7.1-10.2c-3.5-2.1-7.7-2.2-11.8-2.2c-22.8-0.1-49.1,1.3-63,19.4c-1.9,2.5-3.5,5.1-4.7,8
			L770.1,317c13.2-11.3,24.2-19.2,32.9-23.9c8.7-4.6,18.2-8.2,28.5-10.7s21.8-3.8,34.5-3.8c16.8,0,31.6,3.1,44.4,9.2
			c12.9,6.1,22.8,14.7,29.9,25.7c7.1,11,10.7,23.6,10.7,37.8c0,12.4-2.2,24-6.5,34.8s-11.1,22-20.2,33.3
			c-7.1,8.8-18.3,20.5-33.7,35.2c-4.5,4.3-9.3,8.8-14.5,13.5l-10.2,9.6l-2.2,2.1l-14,13.2l-8.1,7.6v2.6h60.3c0.6,0.3,1.1,0.7,1.7,1
			c1.9,1.2,4.2,2.4,6.5,3.8c2.1,0.2,4.2,0.3,6.3,0.5c-2.4-1.9-5.1-3.7-7.8-5.2h50V503.1z"/>
	</g>
	<g class="st1">
		<path class="st7" d="M740.2,366.7c-0.4,1.2-0.7,2.3-1.1,3.5c-7.6,23.7-16.8,47.2-30.8,67.8c-7.3,10.7-16,20.6-25.9,28.9
			c-10.1,8.5-21.5,15.2-34.1,19.4c-8.7,2.9-17.6,4.5-26.7,5.5c-0.7-1.4-1.4-2.9-2-4.4c-3.6-8.9-6-21.4-7.3-37.6c-0.1-1-0.2-2-0.2-3
			c-0.6-9-1-19.1-1-30.2c0-2.8,0-5.5,0.1-8.1c7.9-3,16.2-5.5,24-8.3c16.5-5.9,31.9-14.7,45.4-25.9c0.9-0.8,1.9-1.6,2.8-2.4
			c15.3-13.3,28.4-29.2,44.8-41c1.4-1,2.8-2,4.3-3c2.8-1.8,6.5-3.5,9.2-1.6c1.6,1.1,2.3,3.1,2.8,5
			C747.1,343.1,743.8,355.2,740.2,366.7z"/>
	</g>
	<g class="st1">
		<path class="st8" d="M398.3,507.3c-1.1-0.1-2.2-0.3-3.3-0.5c0.1-7.7-1.3-15.3-4.7-22.9c-6.3-13.9-17.3-25.3-28.2-35.7
			c-11.5-11-23.7-21.3-34.9-32.7c-20.3-20.7-37.8-46.9-36.4-77.1c0.1-1.9,3.1-1.9,3,0c-0.8,18.4,5.8,35.9,15.8,51.1
			c18.1,27.4,46.1,45.6,67.6,69.9c9,10.2,17,22,19.9,35.5C398,499,398.4,503.1,398.3,507.3z"/>
	</g>
	<g class="st1">
		<path class="st8" d="M569.9,504.4c-4.5-2.6-8.9-5.4-13.3-8.3c-7.6-5.1-15.1-10.3-20-18.2c-1-1.6,1.6-3.1,2.6-1.5
			c5.5,8.9,14.9,14.6,23.5,20.1c1.7,1.1,3.5,2.2,5.2,3.2C568.5,501.3,569.2,502.8,569.9,504.4z"/>
	</g>
	<g class="st1">
		<path class="st8" d="M717.2,373.5c-17.4,25.4-37.5,50.2-65.2,64.8c-12.5,6.6-25.6,10-39.6,11.5c-0.1-1-0.2-2-0.2-3
			c1.1-0.1,2.2-0.2,3.4-0.3c8.5-0.9,16.8-3,24.8-6.1c32.4-12.8,55.2-40.5,74.3-68.4C715.7,370.4,718.3,371.9,717.2,373.5z"/>
	</g>
	<g class="st1">
		<path class="st6" d="M917.3,544.1c-5.5,2.4-11.2,4.6-16.8,6.7c-6.3,2.3-12.6,4.5-18.9,6.5c-64.5,20.3-132.7,25.2-200.2,27.8
			c-94.8,3.8-192.8,2.7-280.8-31.2c38.7-9.2,76.9-21.5,114.3-34.3c48.8-16.8,103.9-34.3,150.2-11.4c15,7.4,27.7,18.6,42.1,27.2
			c28.3,16.8,62.8,22.7,95,16.2c24.4-4.9,47.6-16.6,72.5-16.7C889.3,534.9,903.5,538.9,917.3,544.1z"/>
	</g>
</g>
<g id="_x34_05">
	<g>
		<path class="st2" d="M1023.5,495.9c-7.1,22-25.7,38.4-45.5,50.4c-12,7.3-24.6,13.3-37.5,18.3c-43.1,16.7-90.7,22.2-137.1,25.6
			c-90.5,6.6-181.5,6.7-271.9,0.1c-54.3-3.9-111.5-11.6-157.5-38.6c-10.5-6.1-20.3-13.3-29.5-21.6c-32.1-29.2-51.7-71.5-54.2-114.9
			s11.9-87.3,38.8-121.4c26.3-33.2,63.3-56.5,101.7-74.4c12.6-5.8,25.4-11.2,38.4-16c41.5-15.2,87.4-13.2,127.5,5.5
			c0.2,0.1,0.3,0.1,0.5,0.2c100.7,46.8,212.2,68,310.3,119.9c46.7,24.7,91.9,58.8,111.5,107.9
			C1026.4,455.6,1029.7,476.8,1023.5,495.9z"/>
	</g>
	<g>
		<path class="st7" d="M983.3,442.9c-9.6,29.4-23.4,59.9-50,75.6c-8.1,4.8-17.4,8.2-25,13.5c-7.7-41.3,8.8-86.4,41.5-112.9
			c8.2-6.7,17.5-12.3,27.8-14.7c1.7-0.4,3.4-0.7,5-0.1c2.1,0.8,3.2,3.1,3.9,5.2C990,420.3,986.8,432,983.3,442.9z"/>
	</g>
	<g>
		<path class="st8" d="M965.9,430c-13.1,33.4-30,65.2-50.5,94.7c-1.1,1.6,1.5,3.1,2.6,1.5c20.7-29.7,37.7-61.7,50.8-95.4
			C969.5,429,966.6,428.3,965.9,430L965.9,430z"/>
	</g>
	<g>
		<path class="st7" d="M549.2,390c-0.3,8-4.8,15.1-9.3,21.8c-6.1,9.2-12.3,18.4-20.3,25.9c-11.1,10.4-25.6,17-40.7,18.8
			c-2.5-18.2,3.4-37.4,15.7-51c12.5-13.8,31.3-21.6,49.8-20.7c1.2,0,2.4,0.2,3.3,0.9C549,386.7,549.2,388.5,549.2,390z"/>
	</g>
	<g>
		<path class="st8" d="M527.2,401.7C509.1,420.8,491,439.9,473,459c-1.3,1.4,0.8,3.5,2.1,2.1c18.1-19.1,36.2-38.2,54.2-57.3
			C530.7,402.4,528.6,400.3,527.2,401.7L527.2,401.7z"/>
	</g>
	<g>
		<path class="st7" d="M485.1,522c-54.2-8.8-106-31.8-150.7-63.8c-16.7-12-33.8-27.5-35.3-48c-0.7-9.2,2-18.4,5.8-26.8
			c6-13.3,16.3-26.2,30.7-29.1c19.5-3.9,37.1,11.4,50.5,26.1C425,423.1,458.4,470.8,485.1,522z"/>
	</g>
	<g>
		<path class="st8" d="M334.8,402.2c24.3,21.5,50.7,40.3,76.5,59.9c13.4,10.2,26.7,20.6,39.4,31.7c6.2,5.4,12.2,11,18,16.7
			c5.4,5.4,10.6,10.9,17.3,14.7c1.7,0.9,3.2-1.6,1.5-2.6c-7.5-4.2-13.1-10.7-19.2-16.6c-5.9-5.7-11.9-11.2-18.1-16.6
			c-11.6-10-23.7-19.5-36-28.8c-26.1-19.8-52.8-38.8-77.3-60.5C335.5,398.8,333.4,400.9,334.8,402.2L334.8,402.2z"/>
	</g>
	<g>
		<path class="st9" d="M535.3,495.2H503v55.6h-55.5v-55.6H332.9v-39.5l117.7-173.4H503v168.8h32.3V495.2z M447.5,451.1v-45.5
			c0-7.6,0.3-18.6,0.9-33.1c0.6-14.4,1.1-22.8,1.5-25.2h-1.5c-4.5,10-10,19.8-16.3,29.4l-49.2,74.4L447.5,451.1L447.5,451.1z"/>
		<path class="st9" d="M619.7,487.4c-5.7-14.3-8.5-37.9-8.5-70.8c0-3.8,0-7.5,0.1-11c-1.3,1.7-2.6,3.5-3.6,5.3
			c-13.1,22.1-9.3,51.6,5.2,72.8c4.4,6.4,9.6,12.2,15.5,17.3C624.8,497.5,621.9,493,619.7,487.4z"/>
		<path class="st9" d="M718.7,313.3c-15.9-23.5-39.3-35.3-70.2-35.3c-31.8,0-55.4,11.2-70.7,33.7s-23,57.4-23,104.8
			c0,45.4,7.9,79.8,23.6,103c15.7,23.3,39.1,34.9,70.1,34.9s54.2-10.6,69.6-31.9c0.5-0.6,0.9-1.3,1.4-1.9
			c15.1-22.2,22.8-56.2,23-102.1c0-0.7,0-1.3,0-2C742.4,371.3,734.5,336.8,718.7,313.3z M673.7,493.9c-5.9,9.9-14.3,14.8-25.3,14.8
			c-6.4,0-11.9-1.6-16.6-4.8c-1.3-0.9-2.4-1.8-3.6-3c-5.9-5.1-11.1-10.8-15.5-17.3c-14.5-21.2-18.3-50.7-5.2-72.8
			c1.1-1.8,2.3-3.7,3.6-5.3c0.6-27.3,3.4-47.2,8.5-60c5.8-14.4,15.3-21.6,28.6-21.6c13.1,0,22.6,7.2,28.6,21.6
			c5.9,14.4,8.9,38,8.9,71c0,32.6-2.9,56.1-8.8,70.5C676,489.6,674.9,491.9,673.7,493.9z"/>
		<path class="st9" d="M868.6,379.3c26,0,46.6,7.3,62,21.9s23,34.5,23,59.9c0,30-9.2,53.1-27.7,69.2c-18.5,16.2-44.9,24.2-79.3,24.2
			c-29.9,0-54-4.8-72.4-14.5v-49c9.7,5.1,20.9,9.3,33.8,12.6c12.9,3.2,25,4.9,36.5,4.9c34.6,0,52-14.2,52-42.6
			c0-27.1-17.9-40.6-53.8-40.6c-6.5,0-13.7,0.6-21.5,1.9s-14.2,2.7-19.1,4.1l-22.6-12.1l10.1-136.8h145.6v48.1h-95.9l-5,52.7
			l6.4-1.3C848.3,380.1,857.6,379.3,868.6,379.3z"/>
	</g>
	<g>
		<path class="st7" d="M673.7,493.9c-4,6.6-9.1,11-15.3,13.2c-0.9,0.3-1.9,0.6-2.9,0.8c-2.2,0.5-4.6,0.8-7.1,0.8
			c-6.4,0-11.9-1.6-16.6-4.8c-1.2-1-2.4-1.9-3.6-3c-5.9-5.1-11.1-10.8-15.5-17.3c-14.5-21.2-18.3-50.7-5.2-72.8
			c1.1-1.8,2.3-3.7,3.6-5.3c3.2-4,7.1-7.4,11.8-9.3c5.7-2.4,12.2-2.4,18.2-0.9c11.6,2.9,21.3,11.3,27.5,21.6
			c6.1,10.3,8.8,22.3,9.7,34.2C679.5,465.5,677.8,480.1,673.7,493.9z"/>
	</g>
	<g>
		<path class="st7" d="M840.8,448.3C818.7,471,795.1,493,767,507.5c-15.2,7.8-32,13.3-48.9,15.1c0.5-0.6,0.9-1.3,1.4-1.9
			c0.4-0.6,0.8-1.2,1.2-1.9l0,0c1.5-2.3,2.9-4.8,4.3-7.3c11.5-22,17.4-53,17.5-92.9c2.1-9.5,3.2-19.3,8.4-27.5
			c6.3-10,17.8-15.9,29.5-17.7c11.7-1.8,23.6,0,35.2,2.5c9.9,2.1,19.8,4.7,28.3,10.2s15.4,14.2,16.4,24.2
			C861.8,425,851,437.7,840.8,448.3z"/>
	</g>
	<g>
		<path class="st8" d="M658.3,507.1c-0.9,0.3-1.9,0.6-2.9,0.8c-11.3-26.2-18-54.3-19.8-83c-0.1-1.9,2.9-1.9,3,0
			C640.4,453.3,647.1,481.2,658.3,507.1z"/>
	</g>
	<g>
		<path class="st8" d="M808.2,411.5c-15.2,25.3-32.5,49.3-52,71.5c-10.7,12.2-22.3,25.5-35.5,35.8c1.5-2.3,2.9-4.8,4.3-7.3
			c11.2-9.8,21.1-21.3,30.4-32c18.8-21.6,35.7-44.9,50.4-69.5C806.6,408.3,809.2,409.8,808.2,411.5z"/>
	</g>
	<g>
		<path class="st6" d="M940.5,564.6c-43.1,16.7-90.7,22.2-137.1,25.6c-90.5,6.6-181.5,6.7-271.9,0.1
			c-54.3-3.9-111.5-11.6-157.5-38.6c32-7.1,69.8-2.8,102.5-10c34.7-7.6,61.4-27.6,97.4-32c32.4-4,64.7,5.3,95.5,12.9
			C756.1,544.2,848.9,553.2,940.5,564.6z"/>
	</g>
</g>
<g id="_x35_04" class="st0">
	<g class="st1">
		<path class="st2" d="M1044,381.3c-1.2,42.3-34.7,70.3-64.4,91c-5,3.5-10,6.9-15,10.4c-6,4.2-12,8.3-18.1,12.5
			c-4.8,3.3-9.5,6.6-14.3,9.9C917.1,515.5,902,526,887,536.4c-3.4,2.3-6.8,4.7-10.2,7.1c-2.4,1.7-4.8,3.3-7.2,5
			c-51.2,35.1-103.8,68.5-160.9,83c-103.8,26.3-211.3-13.2-306.1-73.5c-2.3-1.4-4.5-2.9-6.8-4.3c-3.4-2.2-6.7-4.4-10-6.6
			c-14.6-9.8-29.8-21.3-41-36.2c-7-9.4-12.5-20.1-15.2-32.7c-4.8-22.2,0-45.9,7.3-67.1c6.1-17.7,14-34.3,23.4-49.6
			c21.2-34.6,49.9-62.1,82-79c20.4-10.7,42.1-17.3,64.3-18.7c28.9-1.8,59.1,4.1,85.8-9.6c15.5-8,28.5-21.9,42-34.4
			c0.8-0.8,1.7-1.5,2.5-2.3c40.4-36.5,94.4-37.9,136.5-4.5c2.2,1.8,4.4,3.4,6.7,5.1c51.4,37.3,111.4,50.1,169.4,66.3
			c21.7,6.1,43.8,13,62.3,28.3C1030.3,328,1044.8,353.6,1044,381.3z"/>
	</g>
	<g class="st1">
		<path class="st7" d="M943.7,458.7c-9.1,4.1-18.7,5.3-28.7,5.6c1.9-12.1,4.9-24.1,10.1-35.1c6-12.4,15.1-23.6,27.1-30.3
			c6.1-3.4,15.1-4.9,18.9,0.9c1.1,1.7,1.5,3.7,1.8,5.7C976,427.1,963.5,449.8,943.7,458.7z"/>
	</g>
	<g class="st1">
		<path class="st8" d="M958.3,414.8c-22.9,27.9-45.9,55.8-68.8,83.7c-1.2,1.5,0.9,3.6,2.1,2.1c22.9-27.9,45.9-55.8,68.8-83.7
			C961.7,415.4,959.6,413.3,958.3,414.8L958.3,414.8z"/>
	</g>
	<g class="st1">
		<path class="st7" d="M752.3,323.2c-14,12.8-31.2,21.1-49,27.8c0.2-15.5,1.3-31,5.3-45.9c6.2-23,20-45,41.3-55.4
			c6.7-3.3,15.6-5,20.9,0.3c2.1,2.1,3.3,5,4.1,7.9C781.7,281.2,770.2,306.8,752.3,323.2z"/>
	</g>
	<g class="st1">
		<path class="st8" d="M746.8,277.6c-17.6,33-40.2,63.1-67.1,89.1c-1.4,1.3,0.7,3.5,2.1,2.1c27.1-26.2,49.9-56.4,67.5-89.7
			C750.3,277.4,747.7,275.9,746.8,277.6L746.8,277.6z"/>
	</g>
	<g class="st1">
		<path class="st7" d="M549.3,334c0,17.6-11.5,33.8-26.5,43s-32.9,12.4-50.5,13.2c-10.3,0.5-20.5,0.2-30.8,0.1
			c-1.6-21.1,5.9-42.7,20.3-58.2c15.3-16.4,38.1-25.5,60.4-24.2c7.4,0.4,15.2,2.2,20.4,7.5C547.4,320.2,549.3,327.2,549.3,334z"/>
	</g>
	<g class="st1">
		<path class="st8" d="M518.5,330.2c-19.3,13.2-37.8,27.6-55.4,43c-15.1,13.3-32.5,27.8-36.7,48.5c-0.4,1.9,2.5,2.7,2.9,0.8
			c4.2-20.7,22.2-35.2,37.3-48.4c17-14.8,34.8-28.6,53.4-41.4C521.6,331.8,520.1,329.1,518.5,330.2L518.5,330.2z"/>
	</g>
	<g class="st1">
		<path class="st7" d="M450.9,500.1c-2.4,1.5-5,2.8-7.8,3.9c-1.1,0.4-2.1,0.8-3.3,1.1c-6.9,2.2-15.1,3.2-24.7,3.2
			c-6.4,0-13-0.5-19.9-1.5c-42-20.4-77.6-54.4-98.3-96.4c-5.2-10.5-9.5-21.6-11.2-33.2c-0.8-5.4-0.9-11.1,1.1-16.1
			c4.2-10.5,16.6-15.2,27.9-15.5c14.2-0.4,27.8,4.3,39.9,11.9c6.3,4,12.1,8.7,17.3,13.9c15.2,15.2,25.9,34.2,36.5,53
			c0.2,0.3,0.3,0.6,0.5,0.8C422.9,450.2,436.9,475.1,450.9,500.1z"/>
	</g>
	<path class="st14" d="M466.1,527c-24.6-2.4-48.6-9.4-70.8-20.2c6.8,1,13.5,1.5,19.9,1.5c15.3,0,27.2-2.8,35.8-8.3
		C456,509.1,461,518.1,466.1,527z"/>
	<path class="st14" d="M675.3,519.8c-7.5-3.7-15-7.5-22.4-11.3c7.2-1,13.1-4.4,17.8-10.2C672.7,505.3,674.3,512.5,675.3,519.8z"/>
	<path class="st14" d="M896.3,480.5c-19.1-7.5-37.2-17.4-53.8-29.5h34.4v-45.5c0-3.8,0.1-8.6,0.2-14.2c7.3,13.1,12.6,27.4,15.6,42.1
		c2.1,10.2,3.1,20.5,3.5,30.9C896.4,469.7,896.4,475.1,896.3,480.5z"/>
	<path class="st13" d="M501.2,401.1c-15.4-14.6-36-21.9-62-21.9c-11,0-20.3,0.9-27.7,2.6l-6.4,1.3l5-52.7H506v-48.1H360.3l-5.5,75.2
		c1.9,1.2,3.8,2.5,5.5,3.8c4.2,3.1,8.1,6.5,11.7,10.1c15.2,15.2,25.9,34.2,36.5,53c0.2,0.3,0.3,0.6,0.5,0.8c1.5-0.1,3-0.1,4.4-0.1
		c35.9,0,53.8,13.5,53.8,40.6c0,15.9-5.4,27.3-16.2,34.3c-8.5,5.5-20.5,8.3-35.8,8.3c-6.4,0-13-0.5-19.9-1.5
		c-5.4-0.8-11-1.9-16.7-3.4c-12.8-3.3-24.1-7.4-33.8-12.6v19.8c11.2,14.9,26.4,26.4,41,36.2c3.3,2.2,6.7,4.4,10,6.6
		c6.7,0.6,13.8,0.9,21.3,0.9c34.4,0,60.8-8.1,79.3-24.2c18.5-16.2,27.7-39.2,27.7-69.2C524.3,435.7,516.6,415.7,501.2,401.1z"/>
	<path class="st13" d="M718.7,313.3c-15.9-23.5-39.3-35.3-70.2-35.3c-31.8,0-55.4,11.2-70.7,33.7s-23,57.4-23,104.8
		c0,45.4,7.9,79.8,23.6,103c15.7,23.3,39.1,34.9,70.1,34.9c32,0,55.6-11.3,71-33.8c15.4-22.5,23-57.2,23-104.1
		C742.4,371.3,734.5,336.8,718.7,313.3z M677.1,487.1c-1.8,4.4-3.9,8.1-6.4,11.1c-4.7,5.9-10.6,9.3-17.8,10.2
		c-1.4,0.2-2.9,0.3-4.5,0.3c-12.5,0-21.6-6.1-27.4-18.3c-0.6-0.3-1.2-0.7-1.8-1.1c-15-9.3-29.9-19.7-39.7-34.3
		c-8.1-12.1-12.2-28.7-4.2-40.9c7.4-11.4,22.6-14.2,36-10.5c0.7-26.3,3.5-45.7,8.5-58.1c5.8-14.4,15.3-21.6,28.6-21.6
		c13.1,0,22.6,7.2,28.6,21.6c5.9,14.4,8.9,38,8.9,71C685.9,449.1,682.9,472.6,677.1,487.1z"/>
	<path class="st14" d="M670.7,498.2c-1.8,2.2-3.8,4.1-6,5.6c-0.8,0.6-1.6,1.1-2.5,1.5c-2.8,1.6-6,2.6-9.4,3
		c-10.8-5.7-21.5-11.6-31.9-18c-0.6-0.3-1.2-0.7-1.8-1.1c-15-9.3-29.9-19.7-39.7-34.3c-8.1-12.1-12.2-28.7-4.2-40.9
		c7.4-11.4,22.6-14.2,36-10.5c4.3,1.2,8.3,3,11.9,5.5c14.7,10.2,22.8,27.3,30.1,43.6C659.8,467.5,666.3,482.7,670.7,498.2z"/>
	<path class="st13" d="M932.3,451.1V282.3H880l-46.4,68.4c0.5,0.1,1.1,0.3,1.6,0.5c11.6,3.7,21.3,11.6,29.2,21.1
		c5.2-8.1,9.7-16.5,13.5-25h1.5c-0.4,2.3-0.9,10.7-1.5,25.2c-0.3,7.1-0.5,13.4-0.7,18.9c-0.2,5.6-0.2,10.3-0.2,14.2v45.5h-64.7
		l10.6-16c-5-4.5-9.7-9.2-14.2-14.1c-4.5-4.8-8.7-9.9-12.2-15.5l-34.1,50.2v39.5H877v48.3c3.4-2.3,6.8-4.7,10.2-7.1
		c15.1-10.4,30.2-20.9,45.2-31.3v-9.9h14.3c6-4.2,12-8.3,18.1-12.5v-31.6L932.3,451.1L932.3,451.1z"/>
	<path class="st14" d="M877.1,391.4c-0.2,5.6-0.2,10.3-0.2,14.2v45.5h-34.4c-6.8-5-13.4-10.3-19.7-16c-5-4.5-9.7-9.2-14.2-14.1
		c-4.5-4.8-8.7-9.9-12.2-15.5c-1.9-3-3.5-6.2-4.8-9.5c-3.7-9.4-4.4-20.5,0.1-29.5c7.2-14.5,26.2-20,41.9-15.8
		c0.5,0.1,1.1,0.3,1.6,0.5c11.6,3.7,21.3,11.6,29.2,21.1c2.9,3.5,5.6,7.3,8,11.1C874,386,875.6,388.6,877.1,391.4z"/>
	<g class="st1">
		<path class="st8" d="M443.1,504c-1.1,0.4-2.1,0.8-3.3,1.1c-34-30.2-66.2-62.3-98-94.7c-1.4-1.4,0.8-3.5,2.1-2.1
			c27.7,28.2,55.6,56.1,84.8,82.8C433.5,495.5,438.3,499.8,443.1,504z"/>
	</g>
	<g class="st1">
		<path class="st8" d="M664.8,503.9c-0.8,0.6-1.6,1.1-2.5,1.5c-17-23.9-39.5-44.3-59.8-64.7c-1.4-1.4,0.8-3.5,2.1-2.1
			C625.1,459.2,647.7,479.8,664.8,503.9z"/>
	</g>
	<g class="st1">
		<path class="st8" d="M876.9,444v4.4c-17.8-19.4-37.4-37.2-58.5-53.1c-1.5-1.1,0-3.8,1.5-2.6C840.3,408.1,859.4,425.3,876.9,444z"
			/>
	</g>
	<g class="st1">
		<path class="st6" d="M869.7,548.4c-51.2,35.1-103.8,68.5-160.9,83c-103.8,26.3-211.3-13.2-306.1-73.5c1.5-0.3,3.1-0.7,4.6-1.1
			c23.2-5.4,47.1-11.1,66.4-25.1c26.3-19.2,47.4-54.8,79.8-50.9c19.1,2.3,33.1,18.3,48.3,30.2c46.3,36.2,110.8,36.1,169.2,30
			c27.5-2.9,55.9-6.7,82.4,1.2C858.9,543.9,864.3,546,869.7,548.4z"/>
	</g>
</g>
<g id="_x35_03" class="st0">
	<g class="st1">
		<path class="st2" d="M1050,507.4c-75.8,59.8-171.5,94-268.1,95.5c-62.3,1-124.3-11.1-186.7-10.1c-10,0.2-20.2,0.7-30.3,1.8
			c-35.8,3.6-71.3-7.7-98.3-31.6c-1-0.8-1.9-1.7-2.9-2.5c-3.7-3.2-7.4-6.3-11.1-9.4c-19.6-16.2-40.1-31.2-61.5-44.9
			c-12.7-8.1-25.7-15.8-38.9-23c-26.7-14.5-55.3-27.9-74.2-51.7c-29.4-37.1-27.5-90.6-12.5-135.4c9-27,23.6-54.2,48.8-67.6
			c16.9-8.9,36.5-10.6,55.5-11.9c165.7-10.8,333.4,1.4,494.4,41.8c25.7,6.4,55.1,17.5,64.7,40.9c1,2.3,1.8,4.8,2.3,7.4
			c3.8,18-4.9,35.9-10.9,53.4c-4.1,12.2-6.5,26.5-3.1,38.3c1.5,5.1,4.1,9.8,8.1,13.7c5.2,5,12,7.7,18.7,10.4
			c32.3,12.9,64.5,25.8,96.8,38.7c10.9,4.3,23.5,11,24.3,22.7C1065.9,493.5,1057.7,501.4,1050,507.4z"/>
	</g>
	<g class="st1">
		<path class="st7" d="M1020.5,475.9c-8.7,10.2-20.4,17.5-32.7,22.7c-21.8,9.3-45.5,12.5-69.3,13.6c0.9-3,1.8-6.1,2.8-9.1
			c0.4-1.2,0.8-2.5,1.2-3.7c2.8-8.2,6.1-16.1,10.2-23.7c9.4-17.2,23.9-32.5,42.5-38.8c9.6-3.2,19.8-4,29.9-3.3
			c7.3,0.5,15.1,2.1,20,7.6C1033.7,450.7,1028.8,466.2,1020.5,475.9z"/>
	</g>
	<g class="st1">
		<path class="st8" d="M1003.4,455.3c-22.5,23.2-52.2,36.4-82.1,47.8c0.4-1.2,0.8-2.5,1.2-3.7c28.7-11,57.1-23.9,78.7-46.3
			C1002.6,451.8,1004.7,453.9,1003.4,455.3z"/>
	</g>
	<g class="st1">
		<path class="st7" d="M537.8,345.1c0,17.6-11.5,33.8-26.5,43s-32.9,12.4-50.5,13.2c-7.8,0.4-15.7,0.3-23.5,0.2
			c-1.4,0-2.7,0-4.1-0.1c-1.1,0-2.1,0-3.2,0c-1.6-21.1,5.9-42.7,20.3-58.2c15.3-16.4,38.1-25.5,60.5-24.2c7.4,0.4,15.2,2.2,20.4,7.5
			C535.9,331.3,537.8,338.3,537.8,345.1z"/>
	</g>
	<g class="st1">
		<path class="st8" d="M508.5,343.9c-18.6,12.7-36.4,26.5-53.4,41.4c-5.8,5.1-12.1,10.4-17.8,16.1c-1.4,0-2.7,0-4.1-0.1
			c5.8-6.1,12.3-11.6,18.4-17c17.6-15.5,36.1-29.8,55.4-43C508.6,340.3,510,342.9,508.5,343.9z"/>
	</g>
	<g class="st1">
		<path class="st7" d="M752.3,323.2c-14,12.8-31.2,21.1-49,27.8c0-1.6,0-3.3,0.1-4.9c0-1.6,0.1-3.2,0.2-4.8
			c0.5-12.2,1.9-24.4,5.1-36.2c6.2-23,20-45,41.3-55.4c6.7-3.3,15.6-5,20.9,0.3c2.1,2.1,3.3,5,4.1,7.9
			C781.7,281.2,770.2,306.8,752.3,323.2z"/>
	</g>
	<g class="st1">
		<path class="st8" d="M749.4,279.1c-12.8,24-28.2,46.5-46,67c0-1.6,0.1-3.2,0.2-4.8c16.6-19.6,31.1-40.9,43.2-63.7
			C747.7,275.9,750.3,277.4,749.4,279.1z"/>
	</g>
	<g class="st1">
		<path class="st9" d="M501.2,401.1c-15.4-14.6-36-21.9-62-21.9c-11,0-20.3,0.9-27.7,2.6l-6.4,1.3l5-52.7H506v-48.1H360.3
			l-10.1,136.8l22.6,12.1c4.9-1.5,11.3-2.9,19.1-4.1c7.8-1.3,15-1.9,21.5-1.9c35.9,0,53.8,13.5,53.8,40.6c0,28.4-17.3,42.6-52,42.6
			c-7.7,0-15.7-0.7-24-2.2c21.4,13.7,41.9,28.7,61.5,44.9c17.7-3.8,32.4-10.7,43.9-20.8c18.5-16.2,27.7-39.2,27.7-69.2
			C524.3,435.7,516.6,415.7,501.2,401.1z"/>
		<path class="st9" d="M718.7,313.3c-15.9-23.5-39.3-35.3-70.2-35.3c-31.8,0-55.4,11.2-70.7,33.7s-23,57.4-23,104.8
			c0,45.4,7.9,79.8,23.6,103c15.7,23.3,39.1,34.9,70.1,34.9c32,0,55.6-11.3,71-33.8c15.4-22.5,23-57.2,23-104.1
			C742.4,371.3,734.5,336.8,718.7,313.3z M677.1,487.1c-5.9,14.5-15.4,21.7-28.7,21.7c-13.5,0-23-7.1-28.7-21.4s-8.5-37.9-8.5-70.8
			s2.9-56.6,8.6-71c5.8-14.4,15.3-21.6,28.6-21.6c13.1,0,22.6,7.2,28.6,21.6c5.9,14.4,8.9,38,8.9,71
			C685.9,449.1,682.9,472.6,677.1,487.1z"/>
		<path class="st9" d="M956,472.6c0,25.8-9.4,45.9-28.1,60.3c-18.7,14.4-45.5,21.6-80.3,21.6c-29.1,0-55-4.8-77.5-14.5v-48.3
			c10.4,5.3,21.9,9.5,34.3,12.9c12.5,3.3,24.8,5,37.1,5c3.3,0,6.4-0.1,9.4-0.3c0.5,0,1-0.1,1.5-0.1s1-0.1,1.5-0.1
			c12.6-1.1,22.2-4.2,29.1-9c8.9-6.4,13.4-16.6,13.4-30.7c0-12.6-5.1-21.5-15.4-26.8c-10.3-5.3-26.6-7.9-49.1-7.9h-20.5V391h20.8
			c20.8,0,36-2.7,45.6-8.2s14.4-14.8,14.4-28c0-20.3-12.7-30.5-38.2-30.5c-8.8,0-17.8,1.5-26.9,4.4s-19.3,8-30.4,15.3l-26.3-39.1
			c24.5-17.6,53.7-26.4,87.6-26.4c27.8,0,49.7,5.6,65.8,16.9s24.2,26.9,24.2,47c0,16.8-5.1,31-15.3,42.8s-24.4,19.8-42.8,24.3v1.1
			c21.7,2.7,38.1,9.3,49.2,19.7C950.5,440.7,956,454.8,956,472.6z"/>
	</g>
	<g class="st1">
		<path class="st7" d="M450.9,500.1c-2.4,1.5-5,2.8-7.8,3.9c-1.1,0.4-2.1,0.8-3.3,1.1c-6.9,2.2-15.1,3.2-24.7,3.2
			c-6.4,0-13-0.5-19.9-1.5c-42-20.4-77.6-54.4-98.3-96.4c-5.2-10.5-9.5-21.6-11.2-33.2c-0.8-5.4-0.9-11.1,1.1-16.1
			c4.2-10.5,16.6-15.2,27.9-15.5c14.2-0.4,27.8,4.3,39.9,11.9c6.3,4,12.1,8.7,17.3,13.9c15.2,15.2,25.9,34.2,36.5,53
			c0.2,0.3,0.3,0.6,0.5,0.8C422.9,450.2,436.9,475.1,450.9,500.1z"/>
	</g>
	<g class="st1">
		<path class="st8" d="M443.1,504c-1.1,0.4-2.1,0.8-3.3,1.1c-34-30.2-66.2-62.3-98-94.7c-1.4-1.4,0.8-3.5,2.1-2.1
			c27.7,28.2,55.6,56.1,84.8,82.8C433.5,495.5,438.3,499.8,443.1,504z"/>
	</g>
	<g class="st1">
		<path class="st7" d="M867,506.8c-3.9,1-8.3,1.7-13,2.1c-1,0.1-2,0.2-3.1,0.2c-3,0.2-6.1,0.3-9.4,0.3c-4.5,0-9.1-0.2-13.6-0.7
			c-22.1-28.4-38.9-60.9-48.8-95.5c-5.7-19.9-9.1-41.1-3.9-61.1c2.2-8.3,6.1-16.3,11.5-23.1c7.5-9.5,17.8-16.5,29.7-18.4
			c5.9-0.9,12.2-0.5,17.2,2.7c3.8,2.5,6.5,6.4,8.9,10.2c0.3,0.5,0.6,0.9,0.9,1.4c11.8,19.1,19.9,40,24.8,61.8
			c-9.1,2.8-21.2,4.2-36.1,4.2h-20.8v43.5H832c18,0,32.1,1.7,42.3,5.1C874.5,462.2,872,484.9,867,506.8z"/>
	</g>
	<g class="st1">
		<path class="st8" d="M820.7,364c0.5,9.1,1.4,18.1,2.7,27h-3c-1.3-8.9-2.2-18-2.7-27C817.6,362,820.6,362.1,820.7,364z"/>
		<path class="st8" d="M854,509c-0.5,0-1,0.1-1.5,0.1s-1,0.1-1.5,0.1c-7.9-24.7-15.8-49.5-22-74.6h3
			C838.2,459.6,846.2,484.3,854,509z"/>
	</g>
	<g class="st1">
		<path class="st7" d="M556.8,366.7c0.4,1.2,0.7,2.3,1.1,3.5c7.6,23.7,16.8,47.2,30.8,67.8c7.3,10.7,16,20.6,25.9,28.9
			c10.1,8.5,21.5,15.2,34.1,19.4c8.7,2.9,17.6,4.5,26.7,5.5c0.7-1.4,1.4-2.9,2-4.4c3.6-8.9,6-21.4,7.3-37.6c0.1-1,0.2-2,0.2-3
			c0.6-9,1-19.1,1-30.2c0-2.8,0-5.5-0.1-8.1c-7.9-3-16.2-5.5-24-8.3c-16.5-5.9-31.9-14.7-45.4-25.9c-0.9-0.8-1.9-1.6-2.8-2.4
			c-15.3-13.3-28.4-29.2-44.8-41c-1.4-1-2.8-2-4.3-3c-2.8-1.8-6.5-3.5-9.2-1.6c-1.6,1.1-2.3,3.1-2.8,5
			C549.9,343.1,553.2,355.2,556.8,366.7z"/>
	</g>
	<g class="st1">
		<path class="st8" d="M579.8,373.5c17.4,25.4,37.5,50.2,65.2,64.8c12.5,6.6,25.6,10,39.6,11.5c0.1-1,0.2-2,0.2-3
			c-1.1-0.1-2.2-0.2-3.4-0.3c-8.5-0.9-16.8-3-24.8-6.1c-32.4-12.8-55.2-40.5-74.3-68.4C581.3,370.4,578.7,371.9,579.8,373.5z"/>
	</g>
	<g class="st1">
		<path class="st6" d="M1025,525.7c-71.3,48.5-156.9,75.8-243.1,77.2c-62.3,1-124.3-11.1-186.7-10.1c-10,0.2-20.2,0.7-30.3,1.8
			c-35.8,3.7-71.3-7.7-98.3-31.6c-1-0.8-1.9-1.7-2.9-2.5c-3.7-3.2-7.4-6.3-11.1-9.4c-0.7-0.6-1.5-1.2-2.2-1.8
			c12.8-1.9,25.4-4.7,36-12c10.8-7.4,18.3-18.8,27.6-28.1c29.2-29.1,74.8-35.5,115.4-28.8c40.6,6.7,78.4,24.5,117.4,37.9
			c38.9,13.5,81.4,22.7,121.1,11.6c23.4-6.5,45-19.9,69.1-22.7c21.5-2.5,43,3.7,63.5,10.3C1008.7,520.2,1016.9,522.9,1025,525.7z"/>
	</g>
</g>
<g id="Layer_3" class="st0">
	<g class="st1">
		<g>
			<path class="st3" d="M315.7,334.4c-0.1,0-0.1,0-0.2,0c-9.1,0-11.1-10.9-6.2-15.9c-2.8-0.4-4.7-1.9-6-3.8c-0.4,0-0.7,0.1-1.1,0.1
				c-12.4,0-14.2-16.5-5.3-21.2c-3.5-3-3.4-9.1,0.1-12.1c-5.1-9.5-11.3-19.1-18.7-28.8c-1.5,1-3.3,1.6-5.5,1.6
				c-7,0-10.3-5.8-9.8-11.2c-1.4,0.9-3.1,1.5-5.2,1.5c-4.2,0-6.9-2.2-8.2-5.1c-0.8,1.9-2.4,3.4-4.7,3.9c2.2,6.4-1.1,14.9-9.8,14.9
				c-0.7,3.4-2.7,6.4-6.2,7.8c0,2-1.2,4.1-3.8,4.1c-0.8,0-1.4-0.2-1.9-0.5c4.2,6.2,1.6,16.9-7.8,17.4c2.4,4.6,0.2,11.6-6.5,11.6
				c-2.4,0-4.2-0.9-5.4-2.2c-0.7,1.4-2.1,2.4-4.1,2.4c-0.7,0-1.3-0.1-1.8-0.3c-0.5,5-4,9.6-10.4,9.6c-1.4,0-2.6-0.2-3.7-0.6
				c-13.6,38.9-15.5,87.8,17.7,141.5c8.1,0.9,11.6,8.5,10.5,15.2c1-0.5,2.1-0.8,3.5-0.8c3,0,5.1,1.4,6.3,3.3
				c0.5-0.1,1.1-0.1,1.7-0.1c12.3,0,14.9,15,7.9,21.4c2.6,2.8,5.3,5.7,8.1,8.6c0.9,0.9,1.9,1.6,2.9,2.1v-58L217.5,416
				c-4.5,2.2-10.1,1.4-13.8-2.3c-4.8-4.8-4.8-12.5,0-17.2c4.8-4.8,12.5-4.8,17.2,0c3.8,3.7,4.5,9.3,2.3,13.8l18.7,18.7v-52.8l-24-24
				c-1.6-1.6-1.6-4.2,0-5.7c1.6-1.6,4.1-1.6,5.7,0l18.3,18.3v-44.2c-4.8-1.6-8.2-6.2-8.2-11.5c0-6.8,5.5-12.2,12.2-12.2
				s12.2,5.4,12.2,12.2c0,5.3-3.4,9.8-8.1,11.5v68l28.8-28.8c-2.2-4.5-1.4-10.1,2.3-13.9c4.8-4.8,12.5-4.8,17.2,0
				c4.8,4.8,4.8,12.5,0,17.3c-3.7,3.7-9.3,4.5-13.8,2.3l-34.6,34.6v46.8l12.7-12.7c4.9-4.9,7.5-11.3,7.5-18.1c0-2.2,1.8-4.1,4.1-4.1
				c2.2,0,4.1,1.8,4.1,4.1c0,9-3.5,17.5-9.9,23.9L250,458.4v30.3l0,0v39c0,0.6,0.5,1.1,1.1,1.1h5.9c0.6,0,1.1-0.5,1.1-1.1v-35.6
				C281.4,468.2,328.6,409.5,315.7,334.4z M214.9,343.3c-0.8,0.8-1.8,1.2-2.9,1.2c-1,0-2.1-0.4-2.8-1.2l-4.1-4.1
				c-1.6-1.5-1.6-4.1,0-5.7s4.1-1.6,5.7,0l4.1,4.1C216.5,339.2,216.5,341.8,214.9,343.3z M278.4,404.4c0,2.2-1.8,4.1-4.1,4.1
				c-2.2,0-4.1-1.8-4.1-4.1v-6.9c0-2.2,1.8-4.1,4.1-4.1c2.2,0,4.1,1.8,4.1,4.1V404.4z"/>
		</g>
	</g>
	<text transform="matrix(1 0 0 1 326.4658 550.8076)" class="st1 st20 st21">503</text>
</g>
</svg>
