<?xml version="1.0" encoding="utf-8"?>
<!-- Generator: Adobe Illustrator 22.1.0, SVG Export Plug-In . SVG Version: 6.00 Build 0)  -->
<svg version="1.1" xmlns="http://www.w3.org/2000/svg" xmlns:xlink="http://www.w3.org/1999/xlink" x="0px" y="0px"
	 viewBox="0 0 1366 768" style="enable-background:new 0 0 1366 768;" xml:space="preserve">
<style type="text/css">
	.st0{display:none;}
	.st1{display:inline;}
	.st2{fill:#E6E6E6;}
	.st3{fill:#4EB682;}
	.st4{fill:#37805B;}
	.st5{fill:#024661;}
	.st6{fill:#19ACA5;}
	.st7{fill:#71C598;}
	.st8{fill:#498062;}
	.st9{fill:#133A5F;}
	.st10{fill:#1D5870;}
	.st11{fill:#579976;}
	.st12{fill:#12807A;}
	.st13{display:inline;fill:#133A5F;}
	.st14{display:inline;fill:#71C598;}
	.st15{font-family:'PTSans-NarrowBold';}
	.st16{font-size:135.3899px;}
	.st17{fill:#1AB3AA;}
	.st18{fill:#128079;}
	.st19{font-family:'OpenSans-Bold';}
	.st20{font-size:376.118px;}
</style>
<g id="Layer_1" class="st0">
	<g class="st1">
		<g>
			<path class="st2" d="M1032.8,453.8c-12.2,37.7-43,66.8-76.8,87.5c-5,3.1-10.1,6-15.3,8.8c-22.3,12-45.7,21.3-69.8,28.4
				c-70.3,20.9-147.1,24.1-221.3,26.5c-12.3,0.4-24.5,0.8-36.8,1.2c-52.3,1.7-102.9-9-148.4-30c-17.5-8.1-34.2-17.6-50-28.6
				c-53-36.9-95.1-89.6-118.5-153.2c-0.7-1.8-1.4-3.7-2-5.5c-10.5-29.7-17.8-63.6-4.2-92c11-23.1,34.2-38.5,58.6-46.1
				s50.3-8.7,75.9-10.3c58.8-3.6,117.6-10.2,174.9-24.2c59.6-14.7,117.2-37.3,177.5-48.9c35.7-6.8,73.5-9.6,107.8,2.3
				c31.6,10.9,58,33.5,79.5,59c30.3,35.9,52.5,78.5,65.4,123.6C1038.9,385.4,1043.3,421.1,1032.8,453.8z"/>
		</g>
		<g>
			<g>
				<path class="st3" d="M737.9,363.2c-0.9,2.2-1.8,4.4-2.7,6.5c-9.8,22.6-23.1,43.4-35.8,64.5c-5.4,8.9-10.6,17.9-15.8,27
					c-8.6,15.2-16.9,30.5-24.9,46c-3.6,7-7.1,14-10.6,21.1c-1.1-6.5-2.1-13-3-19.6c-8.4-60.5-9.8-124.9,3.5-184.2
					c3.4-15.4,7.9-30.5,13.5-45c3.5-9,7.4-17.9,11.7-26.5c5.5-10.9,14.1-23,26.4-22.4c4.9,0.2,9.4,2.5,13.5,5.2
					c20.6,13.5,32.6,37.8,35,62.2C750.9,320.1,746.1,342.4,737.9,363.2z"/>
			</g>
			<g>
				<g>
					<path class="st4" d="M651.5,540.2c3.1-75.4,20.6-150,51.4-218.9c0.9-2-2.1-3.8-3-1.7c-31.1,69.5-48.8,144.5-51.9,220.6
						C648,542.4,651.4,542.4,651.5,540.2L651.5,540.2z"/>
				</g>
			</g>
			<g>
				<path class="st3" d="M629.9,552.5c-11.3-5.4-22.6-10.7-33.9-16c-16.8-7.9-33.8-16-48-28.1c-14.2-12-25.4-28.6-27-47.2
					c-1-11.4,2-23.4,9.4-32.2c2.4-2.9,5.5-5.5,9.2-5.7c2.8-0.2,5.6,1,8.1,2.3c13.3,7.1,23.7,18.6,33.1,30.4
					C601.3,481.5,616.5,520.1,629.9,552.5z"/>
			</g>
			<g>
				<g>
					<path class="st4" d="M549.8,474.2c19.4,28.9,47.3,50.3,70.8,75.6c1.5,1.6,3.9-0.8,2.4-2.4c-23.3-25.1-51.1-46.3-70.3-74.9
						C551.5,470.7,548.5,472.4,549.8,474.2L549.8,474.2z"/>
				</g>
			</g>
			<g>
				<path class="st3" d="M461.1,464.6c-1.5,21.7-3.8,44.2-12.3,63.9c-0.2-0.6-0.4-1.3-0.6-1.9c-3.4-10.9-8.7-21.4-14.7-31.3
					c-1.2-2-2.5-4.1-3.8-6c-8.5-13-18.2-25.2-27.1-37.9h45.6v-45.4c0-7.6,0.3-18.6,0.9-33c0-1.1,0.1-2.1,0.1-3.2
					c2.2,4.2,4.1,8.6,5.6,13C463.9,408.8,463,437.1,461.1,464.6z"/>
			</g>
			<g>
				<path class="st3" d="M1071.3,453.8c-10.5,16.2-26,28.6-42.6,38.3c-16.6,9.8-34.5,17.1-52,25.2c-15.6,7.2-30.9,15-45.8,23.4
					c-4.3,2.5-9,5.6-11.3,9.8c0.1-16.9,0-33.9,2.2-50.7c2.4-18,7.7-36.1,18.3-50.9c11.5-16.1,28.3-27.4,45.3-37.4
					c24.8-14.6,52.4-27.4,81-25.1c4,0.3,8.3,1.1,11.2,3.8c2.3,2.2,3.5,5.3,4.3,8.4C1086.7,417.2,1081.7,437.6,1071.3,453.8z"/>
			</g>
			<g>
				<g>
					<path class="st4" d="M921.1,541c12.4-26.3,32.4-48.8,54.1-67.7c21.1-18.3,45.1-33.2,70.8-44.2c2-0.9,0.3-3.8-1.7-3
						c-26,11.1-50.1,26.2-71.5,44.7c-22,19.1-42.2,41.9-54.7,68.4C917.1,541.2,920.1,543,921.1,541L921.1,541z"/>
				</g>
			</g>
			<g>
				<path class="st5" d="M393.2,436.9l-6.7,10.4l6.8-10.3C393.2,437,393.2,437,393.2,436.9z"/>
				<path class="st5" d="M503.6,451.4V282.9h-52.2l-21.7,32l-13.5,19.9l-40.7,60l-11,16.3l-30.5,44.9v39.4h114.4v55.5h55.3v-55.5
					h32.2v-44H503.6z M449.3,369.8c0,1-0.1,2.1-0.1,3.2c-0.6,14.4-0.9,25.4-0.9,33v45.4h-64.5l2.7-4.1l6.7-10.4l50.1-77.2
					c2.1-3.9,4.1-7.9,5.9-11.9h1.5C450.3,350,449.8,357.3,449.3,369.8z"/>
				<path class="st5" d="M737.9,363.2c-0.9,2.2-1.8,4.4-2.7,6.5c-9.8,22.6-23.1,43.4-35.8,64.5c-5.4,8.9-10.6,17.9-15.8,27
					c-1.5,10.6-3.6,19.3-6.3,26c-4.3,10.5-10.5,17.2-18.7,20c-3,1.1-6.4,1.6-9.9,1.6c-1.3,0-2.5-0.1-3.6-0.2
					c-11.5-1.2-19.9-8.2-25-21.2c-5.7-14.2-8.5-37.8-8.5-70.6c0-32.9,2.9-56.5,8.6-70.8c5.7-14.3,15.2-21.5,28.4-21.5
					c3.4-15.4,7.9-30.5,13.5-45c-4.3-0.5-8.7-0.8-13.3-0.8c-31.8,0-55.3,11.2-70.6,33.6c-15.3,22.4-22.9,57.3-22.9,104.5
					c0,45.3,7.8,79.6,23.6,102.8c15.7,23.2,39,34.8,69.9,34.8c31.9,0,55.5-11.2,70.8-33.7c15.3-22.5,23-57.1,23-103.9
					C742.6,396.9,741,379,737.9,363.2z"/>
				<path class="st5" d="M964.3,495.3H932v55.5h-55.3v-55.5H762.3v-39.4l117.5-173H932v168.4h32.3V495.3z M876.7,451.4v-45.4
					c0-7.6,0.3-18.6,0.9-33c0.6-14.4,1.1-22.8,1.5-25.1h-1.5c-4.5,10-10,19.8-16.3,29.3l-49.1,74.2H876.7z"/>
			</g>
			<g>
				<path class="st3" d="M449.3,384.7c0,0.8-0.1,1.7-0.1,2.6c-0.5,11.8-0.7,20.7-0.7,26.9v37.1h-37.2c-2.7-3.8-5.3-7.7-7.7-11.7
					c-0.4-0.7-0.8-1.4-1.2-2c-5.9-10-10.6-21.1-13.3-32.4c-3.4-14.1-3.7-28.8,0.7-42.5c1.4-4.3,3.5-8.8,7.5-10.8
					c3-1.5,6.7-1.4,10-0.8c5.3,0.9,10.3,2.7,15,5.2c8.8,4.7,16.3,11.9,22.2,20.4C446.2,379.2,447.8,381.9,449.3,384.7z"/>
				<g>
					<path class="st4" d="M448.4,446.6v4.7h-0.8c-0.2-0.2-0.5-0.4-0.6-0.7c-7.2-18-18.6-33.8-30.4-49.1c-1.1-1.4,0.9-3.4,2-2
						C430.1,414.3,441,429.5,448.4,446.6z"/>
				</g>
			</g>
		</g>
		<g>
			<path class="st6" d="M940.7,550.1c-22.3,12-45.7,21.3-69.8,28.4c-70.3,20.9-147.1,24.1-221.3,26.5c-12.3,0.4-24.5,0.8-36.8,1.2
				c-52.3,1.7-102.9-9-148.4-30c-17.5-8.1-34.2-17.6-50-28.6c7.4-4,15.6-7.5,25.2-10.2c38.5-10.7,85.6-4.1,128.4,0.7
				c42.8,4.8,94.9,5.9,122.7-11.3c6.9-4.3,12.7-9.8,23.2-11.1c7.6-0.9,15.4,0.7,22.6,2.3c29,6.7,57.3,14.4,87.5,19.5
				C861.7,544.2,901.5,546.5,940.7,550.1z"/>
		</g>
	</g>
</g>
<g id="Layer_4" class="st0">
	<g class="st1">
		<path class="st2" d="M1094.8,501.6c-10.8,30.1-40.9,48.5-70.3,61.2c-13.9,6-28,11.2-42.4,15.7c-0.2,0.1-0.3,0.1-0.5,0.2
			c-15.9,5-32,9.2-48.3,12.6c-53.8,11.4-109.5,15.2-164.6,15.7c-87.1,0.8-174.2-6.2-261.2-1.9c-10.3,0.5-20.8,1.2-31.2,2.2
			c-4.3,0.4-8.5,0.6-12.8,0.6c-14.2,0-28.3-2.2-41.6-6.5c-2.3-0.7-4.5-1.5-6.7-2.4c-11-4.2-21.4-9.7-31-16.6
			c-7.5-5.4-14.5-11.6-20.8-18.6c-0.2-0.2-0.3-0.4-0.5-0.5c-18.3-20.2-36-41.1-51.3-63.6c-2.5-3.7-4.9-7.4-7.3-11.2
			c-5.7-9.2-10.9-18.6-15.6-28.4c-18.4-38.3-27.4-82.4-18.2-123.9c12.1-54.5,54.4-98.7,103.7-124.8c49.3-26.1,105.4-36.5,160.8-43.4
			c120.8-15.1,251.6-13.4,353.7,53c9.2,6,18,12.4,26.5,19.1c13.8,11,26.9,22.9,39.5,35.4c9.1,9,18,18.4,26.7,27.9
			c19.3,21.1,37.9,42.9,57,64.1c13,14.5,26.5,28.8,37.5,44.8c3.4,5,6.6,10.1,9.5,15.4C1097.7,450.3,1103.4,477.5,1094.8,501.6z"/>
	</g>
	<g class="st1">
		<path class="st7" d="M1078.4,528.9c-23.9,28.4-59.4,46.6-96.4,49.7c-0.1,0-0.2,0-0.4,0c0.4-1.1,0.7-2.3,1.1-3.4
			c0.5-1.7,1.1-3.3,1.6-5c5.8-17.9,12.2-35.6,19.1-53.1c4.1-10.3,8.5-20.7,13.3-30.8c12.6-26.1,28.5-50.5,51.2-68.2
			c2.6-2,5.3-4,8.2-5.7c5.5-3.5,11.4-6.3,17.7-7.9c2.7-0.7,5.6-1.1,8.2-0.2c5,1.9,6.8,8,7.6,13.3
			C1115.7,456.9,1103.9,498.5,1078.4,528.9z"/>
	</g>
	<g class="st1">
		<path class="st8" d="M1079.9,446.8c-2.9,17.5-11.5,33.3-21.6,47.7c-17.8,25.5-39.8,49-62.9,69.9c-4.1,3.7-8.3,7.3-12.7,10.8
			c0.5-1.7,1.1-3.3,1.6-5c16.3-13.4,31-29,45.1-44.5c20.3-22.5,42.4-48.8,47.6-79.6C1077.4,444.1,1080.3,444.9,1079.9,446.8z"/>
	</g>
	<g class="st1">
		<path class="st7" d="M417,578.3c-0.3,4.6-0.6,9.2-1,13.8c-0.2,2.3-0.4,4.6-0.6,6.9c-0.3-0.1-0.6-0.2-0.9-0.3
			c-1.4-0.5-2.8-1.1-4.2-1.7c-9.1-3.9-17.8-8.8-26-14.6c-7.5-5.4-14.5-11.6-20.8-18.6c-0.2-0.2-0.3-0.4-0.5-0.5
			c-18.3-20.2-36-41.1-51.3-63.6c-2.5-3.7-4.9-7.4-7.3-11.2c-17.6-37.9-22.5-82.8-5.5-120.8c6.7-15.1,19-30.1,35.6-31
			c8.9-0.5,17.5,3.3,25,8.1c12.6,8,23.2,18.9,30.8,31.7c9.8,16.5,14.3,35.5,17.8,54.4C417,479.3,420,529,417,578.3z"/>
	</g>
	<g class="st1">
		<path class="st8" d="M414.5,598.6c-1.4-0.5-2.8-1.1-4.2-1.7c-12.6-26.4-23.5-53.8-34.1-81c-15.3-39.2-29.3-79-42.1-119
			c-0.6-1.9,2.3-2.6,2.9-0.8c7.1,22,14.5,44,22.3,65.8c14,39.1,28.9,77.9,45.7,115.9C408,584.7,411.2,591.7,414.5,598.6z"/>
	</g>
	<g class="st1">
		<path class="st9" d="M981.7,262.2v316.4c-68.2,21.4-141,27.7-212.8,28.4c-87.1,0.8-174.2-6.2-261.2-1.9
			c-10.3,0.5-20.8,1.2-31.2,2.2c-4.3,0.4-8.5,0.6-12.8,0.6c-28.6,0-56.4-9-79.4-25.5V262.2c0-2.7,0.5-5.2,1.3-7.6l252.2,208.2
			l2.2,1.8l30.8,25.4l5.9,4.8l2,1.7h0l4.2,3.4l0.8-0.7l1.5-1.3l1.4-1.2l2-1.6l6.3-5.3l10.2-8.4l28.2-23.3l1.2-1L955,275.5l25.4-20.9
			C981.2,257,981.7,259.5,981.7,262.2z"/>
		<path class="st10" d="M980.3,254.6L980.3,254.6L683,500L385.7,254.6v0c3.1-8.5,11.2-14.5,20.7-14.5h553.2
			C969.1,240.1,977.2,246.1,980.3,254.6z"/>
		<g>
			<path class="st11" d="M742.8,486.3c0,30.4-24.7,55.1-55.1,55.1c-18.5,0-34.9-9.1-44.9-23.1c-6.4-9-10.2-20-10.2-31.9
				c0-30.4,24.7-55.1,55.1-55.1c15.9,0,30.2,6.7,40.2,17.4c0,0,0,0,0,0C737.1,458.5,742.8,471.7,742.8,486.3z"/>
			<path class="st11" d="M738.1,480.5c0,30.4-24.7,55.1-55.1,55.1c-14.8,0-28.1-5.8-38-15.2c0,0,0,0,0-0.1c-6.4-9-10.2-20-10.2-31.9
				c0-30.4,24.7-55.1,55.1-55.1c14.7,0,28,5.8,37.9,15.1c0.1,0.1,0.1,0.1,0.2,0.2c0,0,0,0,0,0C734.3,457.6,738.1,468.6,738.1,480.5z
				"/>
			<path class="st11" d="M727.7,448.4c-9.9-9.4-23.2-15.1-37.9-15.1c-30.4,0-55.1,24.7-55.1,55.1c0,11.9,3.8,22.9,10.2,31.9
				c0,0,0,0,0,0.1c-0.7-0.7-1.4-1.4-2.1-2.2c-6.4-9-10.2-20-10.2-31.9c0-30.4,24.7-55.1,55.1-55.1
				C703.5,431.2,717.7,437.8,727.7,448.4z"/>
			<path class="st7" d="M738.1,480.5c0,30.4-24.7,55.1-55.1,55.1c-14.8,0-28.1-5.8-38-15.2c0,0,0,0,0-0.1c-6.4-9-10.2-20-10.2-31.9
				c0-30.4,24.7-55.1,55.1-55.1c14.7,0,28,5.8,37.9,15.1c0.1,0.1,0.1,0.1,0.2,0.2c0,0,0,0,0,0C734.3,457.6,738.1,468.6,738.1,480.5z
				"/>
			<g>
				<path class="st11" d="M705.2,481.7L705.2,481.7c-0.3-9.6-4.4-20.6-15.8-32.2c-0.9-1-2.5-1-3.5,0c-5.1,4.9-19,20.4-15,40.6v0
					c1.6,8,6.1,16.8,15.1,25.9c0.2,0.2,0.5,0.4,0.7,0.5v-14.1l-2.9-3l-3-3c-0.6,0.3-1.3,0.4-1.9,0.2h0c-0.5-0.1-1-0.4-1.4-0.8
					c-0.3-0.3-0.5-0.6-0.6-0.9c-0.5-1.1-0.3-2.4,0.6-3.3c1.2-1.2,3-1.2,4.2,0c0.9,0.9,1.1,2.3,0.6,3.4l3.2,3.1l1.4,1.4v-12.9
					l-5.8-5.8c-0.4-0.4-0.4-1,0-1.4c0.4-0.4,1-0.4,1.4,0l4.4,4.5v-10.8c-1.2-0.4-2-1.5-2-2.8c0-1.6,1.3-3,3-3c1.6,0,3,1.3,3,3
					c0,1.3-0.8,2.4-2,2.8v16.5l7-7c-0.5-1.1-0.3-2.5,0.6-3.4c1.2-1.2,3-1.2,4.2,0c1.2,1.2,1.2,3,0,4.2c-0.9,0.9-2.3,1.1-3.4,0.6
					l-8.4,8.4v11.4l3.1-3.1c1.2-1.2,1.8-2.8,1.8-4.4c0-0.5,0.4-1,1-1s1,0.4,1,1c0,2.2-0.9,4.3-2.4,5.8l-4.5,4.5v9.9
					c0.3-0.1,0.6-0.3,0.8-0.5c0.3-0.3,0.8-0.7,1.2-1.2C695.8,509.6,705.7,497.4,705.2,481.7z M680.1,478.7c-0.2,0.2-0.5,0.3-0.7,0.3
					s-0.5-0.1-0.7-0.3l-1-1c-0.4-0.4-0.4-1,0-1.4c0.4-0.4,1-0.4,1.4,0l1,1C680.5,477.7,680.5,478.3,680.1,478.7z M695.6,493.5
					c0,0.5-0.4,1-1,1s-1-0.4-1-1v-1.7c0-0.5,0.4-1,1-1s1,0.5,1,1V493.5z"/>
				<path class="st11" d="M690.7,514h-2v8.8c0,0.5,0.4,1,1,1l0,0c0.5,0,1-0.4,1-1V514z"/>
			</g>
		</g>
	</g>
	<g class="st1">
		<path class="st6" d="M1028.1,522.6c-8.2,19.6-23.7,35.1-39.2,49.6c-2.3,2.1-4.5,4.2-6.8,6.3c-0.1,0-0.1,0.1-0.1,0.1
			c-0.1,0-0.2,0-0.4,0c-15.9,5-32,9.2-48.3,12.6c0-0.2,0-0.4-0.1-0.6c-0.1-1.1-0.2-2.2-0.3-3.3c-2.3-24.6-1.2-49.2,6.6-72.5
			c5.4-15.9,15-31.8,30.6-37.9c15.4-6,33.2-0.7,46.5,9.3c1.4,1.1,2.8,2.2,4.2,3.4c4.3,3.8,8.3,8.3,9.8,13.8
			C1032.4,509.8,1030.7,516.5,1028.1,522.6z"/>
	</g>
	<g class="st1">
		<path class="st6" d="M422.1,601.3c-1.2-0.4-2.3-0.8-3.5-1.2c-1.1-0.4-2.2-0.8-3.2-1.2c-11-4.2-21.4-9.7-31-16.6
			c-7.5-5.4-14.5-11.6-20.8-18.6c-0.2-0.2-0.3-0.4-0.5-0.5c-18.3-20.2-36-41.1-51.3-63.6c2.1-0.9,4.2-1.6,6.4-2.2
			c14.8-4.1,30.6-2.6,45.7,0.5c12.7,2.7,25.8,6.9,34.8,16.3c13.2,13.8,14.3,34.6,16.8,53.5c0.5,3.5,1,7.1,1.6,10.6
			c1.2,7.1,2.8,14.1,4.6,21.1C421.8,600,421.9,600.7,422.1,601.3z"/>
	</g>
	<g class="st1">
		<path class="st12" d="M991.4,506.2c-7.8,29-24.1,55.4-46.5,75.3c-3.7,3.3-7.6,6.3-11.6,9.1c-0.1-1.1-0.2-2.2-0.3-3.3
			c2.5-1.8,5-3.8,7.4-5.8c23.3-19.8,40.1-46.5,48.1-76C989,503.6,991.9,504.4,991.4,506.2z"/>
	</g>
	<g class="st1">
		<path class="st12" d="M422.1,601.3c-1.2-0.4-2.3-0.8-3.5-1.2c-1-1.9-1.9-3.9-2.9-5.9c-5.8-12.7-11.3-25-20.9-35.4
			c-9.3-10.1-20.9-17.9-33.7-22.8c-1.8-0.7-1-3.6,0.8-2.9c23.1,8.9,40.9,26.2,51.4,48.5c2.8,5.9,5.3,11.9,8.3,17.7
			C421.8,600,421.9,600.7,422.1,601.3z"/>
	</g>
</g>
<g id="Layer_5" class="st0">
	<g class="st1">
		<path class="st2" d="M858.2,460.4c0,4.8-0.1,9.6-0.4,14.4c-1.9,31.3-11,62.5-31.4,85.9l0,0c0,0.1-0.1,0.1-0.2,0.2
			c-17.1,19.5-39.8,31.3-64.6,38.7c0,0,0,0,0,0c-7.5,2.3-15.1,4.1-22.9,5.7c-19.9,4-40.4,6-60.2,7.7c-15.5,1.3-31.1,2.5-46.8,3.5
			c-6,0.4-12.1,0.7-18.1,1c-0.5,0-1,0.1-1.5,0.1c-4.5,0.2-9-0.2-13.2-1.1c-20.5-4.4-37-21.2-39.7-42.8c-1-7.9-3.5-15.6-7.6-22.5
			c-14-23.8-41.4-35.3-64.1-51.1c-0.2-0.1-0.3-0.2-0.4-0.3c-25.3-17.6-47.1-50.1-33.6-77.8c4.6-9.5,12.8-16.7,21.1-23.2
			c64.7-50.6,149.5-68.9,231.6-70.5c40.6-0.8,84.8,3.6,114.8,31C848.2,384.1,858,423.4,858.2,460.4z"/>
	</g>
	<g class="st1">
		<path class="st7" d="M628.6,595.6c-0.8,3.3-1.8,6.5-3.1,9.7c-0.2-0.1-0.4-0.2-0.7-0.3c-1.2-0.6-2.5-1.3-3.7-1.9
			c-11.2-5.5-22.9-10.2-33.9-16.2c-27.8-15-50.9-38.3-65.8-66.1c-6-11.1-10.7-23.3-11.2-35.9c-0.5-12.6,3.7-25.9,13.1-34.3
			c13.8-12.2,34.5-11.5,52.8-9.8c7.1,0.7,14.5,1.5,20.5,5.3c7.7,4.9,11.7,13.8,14.8,22.4c5.7,15.8,9.8,32.1,13.4,48.5
			C630.5,542.8,634.8,569.9,628.6,595.6z"/>
	</g>
	<g class="st1">
		<path class="st8" d="M624.8,604.9c-1.2-0.6-2.5-1.3-3.7-1.9c-13.5-43-38.7-81.8-63.3-119.4c-1.1-1.6,1.5-3.1,2.6-1.5
			C585.6,520.7,611.5,560.5,624.8,604.9z"/>
	</g>
	<g class="st1">
		<path class="st7" d="M858.2,453.7c-1.5,9.8-5.7,19.1-10.5,27.8c-13.4,24.4-32.3,45.7-54.8,62c-14.4,10.4-30.5,18.9-45.3,28.9
			c-1.5,1-3,2.1-4.5,3.1c-0.6,0.4-1.2,0.9-1.8,1.3c3.9-21.5,3.6-43.7,6.5-65.4c3.5-26.2,13.4-53.7,35.8-67.7
			c16.1-10.1,36.1-11.5,55-10c7,0.5,15.1,2.2,18.5,8.4C858.9,445.5,858.8,449.7,858.2,453.7z"/>
	</g>
	<g class="st1">
		<path class="st8" d="M814.9,458c-19.5,16.7-35.6,37-47.3,59.9c-6,11.7-10.8,24-14.4,36.7c-1.7,6-3.3,12-5.5,17.8
			c-1.5,1-3,2.1-4.5,3.1c3.7-8.5,5.7-17.6,8.5-26.5c3.6-11.8,8.3-23.2,14.1-34.1c11.8-22.5,27.8-42.5,47.1-59
			C814.2,454.6,816.3,456.7,814.9,458z"/>
	</g>
	<path class="st13" d="M755.2,375.2L755.2,375.2c-1.1-39.8-18.1-85-65.2-132.6c-3.9-4-10.4-4.1-14.4-0.2
		c-21,20.2-78.6,84.2-61.8,167.4v0c3.9,19.5,11.9,40,25.4,61.2c6.9,10.9,15.2,21.9,25.1,33.1l0,32.3c0,1,0.4,2,1.2,2.7l7,6.5l-7,6.5
		c-0.7,0.7-1.2,1.6-1.2,2.7c0,1,0.4,2,1.2,2.7l7,6.5l-7,6.5c-0.7,0.7-1.2,1.7-1.2,2.7c0,1,0.3,1.9,1.2,2.7l7,6.5l-7,6.5
		c-0.8,0.7-1.2,1.7-1.2,2.8c0,0.9,0.4,1.8,1.1,2.4c0.1,0.1,0.2,0.2,0.3,0.3l11.5,9.2c1.6,1.2,3.8,1,5.1-0.5l11.5-13.8
		c0.5-0.6,0.8-1.5,1.5-2.3v-75.3c-0.2-0.2,0.4-0.4,0.9-0.7c6.4-6.6,14.4-15.7,22.5-26.8C737.5,457.9,756.5,420.1,755.2,375.2z
		 M641.9,352.9c1.6-1.6,4.2-1.6,5.7,0l4.1,4.1c1.6,1.6,1.6,4.2,0,5.8c-0.8,0.7-1.9,1.2-2.9,1.2c-1,0-2.1-0.4-2.9-1.2l-4.1-4.2
		C640.3,357.1,640.3,354.5,641.9,352.9z M715.5,424.1c0,2.3-1.8,4.1-4.1,4.1c-2.3,0-4.1-1.8-4.1-4.1v-7c0-2.2,1.8-4.1,4.1-4.1
		c2.3,0,4.1,1.9,4.1,4.1V424.1z M735.7,382.6c-3.8,3.8-9.4,4.5-13.9,2.3l-34.7,34.7v47l12.7-12.7c2.9-2.9,5-6.3,6.3-10.1
		c0.9-2.6,1.3-5.3,1.3-8.1c0-2.3,1.8-4.1,4.1-4.1c2.3,0,4.1,1.8,4.1,4.1c0,5.2-1.2,10.2-3.4,14.7c-1.6,3.4-3.9,6.5-6.6,9.2l-7.4,7.4
		l-11.1,11.1v40.7h0l0,29.2v30.5c-0.3,1.5-1.5,2.7-3,2.7c-0.8,0-3.7-0.3-4.2-0.8c-0.5-0.5-0.8-1.2-1-1.9l0-59.9c0,0,0,0,0,0v-58.3
		l-9.7-9.7l-2.4-2.4l-8.4-8.4l-4-4c-2.5,1.2-5.3,1.5-8,0.9h0c-2.2-0.4-4.2-1.5-5.9-3.3c-1.1-1.1-1.9-2.4-2.5-3.7
		c-2-4.5-1.2-9.9,2.5-13.6c4.8-4.8,12.5-4.8,17.3,0c3.8,3.8,4.5,9.4,2.3,13.9l6,6l6.9,6.9l2.2,2.1l3.7,3.7v-53l-24.1-24.1
		c-1.6-1.6-1.6-4.2,0-5.7c1.6-1.6,4.2-1.6,5.7,0l18.4,18.4v-44.4c-4.8-1.6-8.2-6.2-8.2-11.5c0-6.8,5.5-12.3,12.3-12.3
		c6.7,0,12.2,5.5,12.2,12.3c0,5.3-3.4,9.9-8.2,11.5v68.3l29-29c-2.2-4.6-1.4-10.1,2.4-13.9c4.8-4.7,12.5-4.7,17.3,0
		C740.5,370,740.5,377.7,735.7,382.6z"/>
	<path class="st14" d="M701.5,467.7c-0.1,0.2-0.1,0.3-0.2,0.5l0,0C701.4,468.1,701.5,467.9,701.5,467.7z"/>
	<g class="st1">
		<path class="st7" d="M699,519.3c-0.6,0.3-1.2,0.5-1,0.8v0.3C698.3,520,698.7,519.7,699,519.3z M688.5,562.4
			C688.5,562.4,688.5,562.4,688.5,562.4v-33.9V562.4z"/>
	</g>
	<text transform="matrix(0.8784 -0.478 0.478 0.8784 553.1656 396.3414)" class="st14 st15 st16">?</text>
	<text transform="matrix(0.9591 0.2831 -0.2831 0.9591 769.7636 373.3419)" class="st14 st15 st16">?</text>
	<g class="st1">
		<path class="st6" d="M897.4,495.3c-7.3,14.7-19.7,26.2-32.4,36.7c-12.4,10.2-25.4,19.7-38.6,28.7l0,0c-9.8,6.7-19.9,13.1-30,19.4
			c-11.2,7-22.8,13.9-34.8,19.5c0,0,0,0,0,0c-5.7,1.7-11.6,3.2-17.5,4.5c-1.2,0.3-2.4,0.5-3.6,0.8c-0.6,0.1-1.2,0.3-1.8,0.4
			c1.1-30.5,4.6-61.7,22.8-85.8c15.6-20.6,40.1-32.9,65.2-39.4c10.2-2.6,20.7-4.4,31.2-5.3c9.6-0.8,19.2-0.9,28.8-0.3
			c4,0.3,8.4,0.8,11.2,3.7C901.9,482.6,900.1,489.8,897.4,495.3z"/>
	</g>
	<g class="st1">
		<path class="st17" d="M631.7,616.5c-6,0.4-12.1,0.7-18.1,1c-4.9-0.4-9.8-0.7-14.8-1c-46.6-3.1-93.2-5.2-134.4-25.8
			c-12.2-6.1-24.3-14.6-29-27.4c-4.4-12-1.2-26,6.4-36.4c7.5-10.4,18.9-17.5,30.8-22.2c4.8-1.9,9.8-3.4,14.9-4.6
			c24.8-5.6,51.8-2.1,73.4,11.3c15.7,9.7,28.1,23.8,39,38.7c13.1,17.9,24.6,38,30.2,59.3c0.5,1.7,0.9,3.5,1.3,5.2
			C631.4,615.2,631.5,615.8,631.7,616.5z"/>
	</g>
	<g class="st1">
		<path class="st18" d="M631.2,614.5c-16.4-16-37.5-27.2-57.4-37.7c-29-15.1-59.4-27.7-90.6-37.8c-1.8-0.6-1-3.5,0.8-2.9
			c32,10.3,63.2,23.3,93,38.9c18.4,9.7,37.5,20.1,53,34.2C630.5,611,630.9,612.8,631.2,614.5z"/>
	</g>
	<g class="st1">
		<path class="st18" d="M858.7,507.6c-46.5,19.9-93.4,49.1-114.7,96.5c-1.2,0.3-2.4,0.5-3.6,0.8c21.2-49.1,69-79.3,116.8-99.8
			C859,504.3,860.5,506.9,858.7,507.6z"/>
	</g>
</g>
<g id="Layer_6">
	<g>
		<path class="st2" d="M980.1,475.2c-12.5,16-26.5,29.5-41.5,40.7c-8,6-16.3,11.4-24.8,16.3c-15,8.6-30.7,15.5-46.6,21.1
			c-19.6,6.9-39.8,12-59.7,15.8c-75.4,14.6-151.9,15.7-228.1,16.7c-51,0.7-102.2,1.3-152.6-8.9c-11.8-2.4-23.7-5.5-35.2-10.3
			c-12-4.9-23.4-11.6-33.5-21.1c-2.9-2.7-5.6-5.6-8.3-8.7c-1.8-2.1-3.5-4.3-5.1-6.6c-26.5-37.7-31.2-98.2-15.7-146
			c6.5-20.2,16-38.2,27.6-53.8c14.9-20.2,33.1-36.4,52.6-48.3c3.4-2.1,6.8-4,10.2-5.8c38.8-20.3,81-25.7,122.6-27.8
			c41.6-2.1,83.5-1.2,124.7-9.5c44.3-9,87.3-28.9,126.2-58.2c7.4-5.6,16.6-4.9,23.4,2c0.1,0.1,0.1,0.1,0.2,0.2
			c56.1,56.7,109.5,118.1,159.8,183.7c11.9,15.5,24.4,33.5,24.8,55.7C1001.6,443,991.3,461,980.1,475.2z"/>
	</g>
	<g>
		<path class="st7" d="M948.5,428.6c-8.6,10.5-17.6,20.6-26.9,30.5c-10.6,11.4-21.6,22.7-33,33.4c-2.7,2.5-5.4,5-8.1,7.4
			c-13.3,11.9-27.3,22.9-42.3,32.5c-1.6-8.1-2.8-16.3-3.7-24.5c-2.9-27.5-2-55.4,2.6-82.6c2.5-15.2,6.2-30.2,11-44.8
			c6-0.8,12.8-1.3,20.5-1.3c26,0,46.6,7.3,62,21.9C938.7,408.8,944.6,418,948.5,428.6z"/>
	</g>
	<g>
		<path class="st8" d="M836.8,524.3c17.5-48.8,41.2-95.4,70.6-138.1c2.5-3.7,5.2-7.4,7.8-11.1c11.5-15.9,23.7-31.2,36.6-45.9
			c1.3-1.4-0.8-3.6-2.1-2.1c-16.2,18.4-31.3,37.8-45.1,58c-24.7,36.1-45.5,74.8-61.9,115.3c-2.4,5.8-4.6,11.7-6.8,17.6L836.8,524.3z
			"/>
	</g>
	<g>
		<g>
			<path class="st7" d="M793.5,378.6c-6.2-2.5-12.2-5.5-18-8.8c-13.7-7.9-26.5-18.5-33.5-32.7c-7-14.2-7.1-32.6,2.8-44.9
				c1.9-2.4,4.6-4.7,7.7-4.6c4.2,0.2,6.7,4.6,8.4,8.4c10.8,24.1,20.7,48.7,29.5,73.6c0.9,2.5,1.8,5,2.6,7.5
				C793.2,377.6,793.4,378.1,793.5,378.6z"/>
		</g>
		<g>
			<path class="st8" d="M793,377.2c-15-16.6-28.3-34.7-39.9-53.9c-1-1.7,1.6-3.2,2.6-1.5c10.1,17,21.7,33,34.6,47.9
				C791.3,372.1,792.2,374.7,793,377.2z"/>
		</g>
	</g>
	<g>
		<g>
			<path class="st7" d="M494.5,342.8c-13.3,23.7-35.2,42.5-60.6,52.1c-15.6,5.9-32.2,8.4-48.9,9.2c-1.5,0.1-3,0.1-4.4,0.2
				c-0.4,0-0.8,0-1.2,0c10-43.5,25.8-85.7,47-125.1c6-11.1,12.6-22.2,22.4-30.1c8.6-6.9,19.5-10.9,30.5-11.3
				c5.8-0.2,11.9,0.7,16.8,4c7,4.8,10,13.7,11.5,22.1C512.5,290.7,507.8,319.1,494.5,342.8z"/>
		</g>
		<g>
			<path class="st8" d="M472.9,281.5c-18,48.2-51.8,86.8-87.9,122.6c-1.5,0.1-3,0.1-4.4,0.2c36.6-36,71.3-74.9,89.4-123.6
				C470.7,278.9,473.5,279.7,472.9,281.5z"/>
		</g>
	</g>
	<g>
		<g>
			<path class="st7" d="M381.2,525.4c-0.8-0.3-1.5-0.6-2.3-0.9c-1.7-0.6-3.3-1.3-5-1.9c-2.3-0.9-4.6-1.8-6.9-2.7
				c-15.6-6.1-31.6-12.4-43.8-23.8c-12.2-11.4-20-29.2-14.8-45.1c1.2-3.7,3.1-7.2,6.3-9.5c4.5-3.3,10.7-3.4,16.2-2.1
				c17.7,4.3,29.6,20.8,37.1,37.4C374.8,492.2,379.3,508.6,381.2,525.4z"/>
		</g>
		<g>
			<path class="st8" d="M379,524.5c-1.7-0.6-3.3-1.3-5-1.9c-13.7-19.4-30.8-36.6-43.8-56.5c-1-1.6,1.5-3.1,2.6-1.5
				C346.5,485.7,364.9,503.7,379,524.5z"/>
		</g>
	</g>
	<g>
		<path class="st9" d="M501.2,401.1c-15.4-14.6-36-21.9-62-21.9c-11,0-20.3,0.9-27.7,2.6l-6.4,1.3l5-52.7h95.9v-48.1H360.3
			l-3.6,48.3l-6.5,88.5l22.6,12.1c4.9-1.5,11.3-2.9,19.1-4.1c7.8-1.3,15-1.9,21.5-1.9c35.9,0,53.8,13.5,53.8,40.6
			c0,28.4-17.3,42.6-52,42.6c-11.5,0-23.7-1.6-36.5-4.9c-12.8-3.3-24.1-7.4-33.8-12.6v39.6c1.6,2.3,3.3,4.5,5.1,6.6
			c2.6,3.1,5.4,6,8.3,8.7c16.2,5.8,35.9,8.7,59,8.7c34.4,0,60.8-8.1,79.3-24.2c18.5-16.2,27.7-39.2,27.7-69.2
			C524.3,435.7,516.6,415.7,501.2,401.1z"/>
		<path class="st9" d="M597.7,291.8c-7.7,5.2-14.4,11.9-20,20c-15.3,22.5-23,57.4-23,104.8c0,1.9,0,3.9,0,5.8c0.8,1,1.7,1.9,2.5,2.8
			c16.7,18.4,36.4,33.3,57.8,45.9c-2.6-13.8-4-31.9-4-54.4c0-32.9,2.9-56.6,8.6-71c3.8-9.5,9.3-15.9,16.4-19.1
			C625.6,312.4,612.8,300,597.7,291.8z"/>
		<path class="st9" d="M742.4,416.6c0,46.9-7.7,81.6-23,104.1c-15.4,22.5-39,33.8-71,33.8c-31,0-54.3-11.6-70.1-34.9
			c-15.1-22.3-22.9-54.7-23.6-97.3c0.8,1,1.7,1.9,2.5,2.8c16.7,18.4,36.4,33.3,57.8,45.9c1.2,6.4,2.8,11.8,4.6,16.4
			c5.7,14.3,15.3,21.4,28.7,21.4c9.4,0,16.9-3.6,22.6-10.9c2.3-3,4.4-6.6,6.1-10.8c4.8-11.7,7.6-29.4,8.5-53.1
			c0.2-5.5,0.3-11.3,0.3-17.4c0-32.9-3-56.6-8.9-71c-5.9-14.4-15.5-21.6-28.6-21.6c-4.5,0-8.6,0.8-12.3,2.5
			c-10.5-14.1-23.3-26.5-38.5-34.7c13.6-9.1,30.5-13.7,50.8-13.7c31,0,54.4,11.8,70.2,35.3C734.5,336.8,742.4,371.3,742.4,416.6z"/>
		<path class="st9" d="M948.5,428.6c-3.8-10.7-9.8-19.8-17.9-27.5c-15.4-14.6-36-21.9-62-21.9c-7.7,0-14.5,0.4-20.5,1.3
			c-2.6,0.4-5,0.8-7.3,1.3l-6.4,1.3l5-52.7h30.4c3.3-6,6.8-11.9,10.5-17.6c7.1-11,15.5-22,25.4-30.5H789.6l-10.1,136.8l22.6,12.1
			c4.9-1.5,11.3-2.9,19.1-4.1c5.7-0.9,11-1.5,15.9-1.8c1.9-0.1,3.8-0.2,5.6-0.2c35.9,0,53.8,13.5,53.8,40.6c0,11.1-2.6,20-7.9,26.7
			c-2.2,2.9-4.9,5.3-8.1,7.4c-8.5,5.6-20.5,8.4-36,8.4c-3.3,0-6.6-0.1-10-0.4c-8.5-0.7-17.3-2.2-26.5-4.5
			c-12.9-3.3-24.1-7.4-33.8-12.6v49c18.4,9.7,42.5,14.5,72.4,14.5c7.2,0,14.1-0.4,20.6-1.1c25.1-8.9,49.3-20.8,71.4-37.5
			c10-14.6,15-32.9,15-55C953.6,449,951.9,438.2,948.5,428.6z"/>
	</g>
	<path class="st7" d="M990.7,362.8c-10.8,23.9-25.6,45.5-42.2,65.8c-3.8-10.7-9.8-19.8-17.9-27.5c-6.7-6.4-14.5-11.4-23.2-15
		c-0.9-0.4-1.9-0.7-2.8-1.1c-10.6-3.9-22.5-5.8-35.9-5.8c-7.7,0-14.5,0.4-20.5,1.3c5.7-17.3,12.9-34.1,21.7-50.1
		c3.3-6,6.8-11.9,10.5-17.6c7.1-11,15.5-22,25.4-30.5c8.7-7.4,18.5-13.1,29.8-15.4c27.9-5.7,58.6,14.3,64.5,42.3
		C1003.8,327.3,998.3,346,990.7,362.8z"/>
	<g>
		<g>
			<path class="st7" d="M685.6,433.9c-0.7,18.2-2.5,32.9-5.5,44.1c-0.3,1.2-0.6,2.3-1,3.4c-0.6,2-1.3,4-2,5.7
				c-1.7,4.2-3.7,7.8-6.1,10.8c-19.3-7.7-38.2-16.5-55.9-26.9c-21.4-12.5-41.1-27.5-57.8-45.9c-0.8-0.9-1.7-1.9-2.5-2.8
				c-10.3-11.8-19.2-25.2-23.4-40.3c-8.2-29.5,2.8-61.5,20.5-86.6c2.7-3.9,5.8-7.8,10-10c6.7-3.5,14.9-2.2,22,0.3
				c4.8,1.6,9.4,3.7,13.8,6.1c15.1,8.2,28,20.6,38.5,34.7c3.3,4.3,6.3,8.9,9.1,13.5c12.8,21.1,21.7,44.4,30.5,67.5
				C679.1,416.2,682.4,425.1,685.6,433.9z"/>
		</g>
		<g>
			<path class="st8" d="M680,478c-0.3,1.2-0.6,2.3-1,3.4c-36-38.5-68.6-80.1-97.4-124.3c-1.1-1.6,1.5-3.1,2.6-1.5
				C612.7,399,644.7,440,680,478z"/>
		</g>
	</g>
	<g>
		<path class="st8" d="M951.8,329.2c-12.9,14.7-25.2,30-36.6,45.9c-2.6,3.7-5.2,7.4-7.8,11.1c-0.9-0.4-1.9-0.7-2.8-1.1
			c13.8-20.2,28.9-39.6,45.1-58C951,325.6,953.1,327.8,951.8,329.2z"/>
	</g>
	<g>
		<path class="st6" d="M913.8,532.3c-15,8.6-30.7,15.5-46.6,21.1c-19.6,6.9-39.8,12-59.7,15.8c-75.4,14.6-151.9,15.7-228.1,16.7
			c-51,0.7-102.2,1.3-152.6-8.9c-11.8-2.4-23.7-5.5-35.2-10.3c3.9-0.7,7.8-1.7,11.6-2.9c16.5-5.2,31.2-14.9,47.3-21.4
			c27.6-11.1,58.2-12,87.9-12.4c60-0.9,120.2-0.3,180-5.4c46.7-4,93.6-11.5,140.1-5.5C877.4,521.7,895.8,526.3,913.8,532.3z"/>
	</g>
</g>
<g id="Layer_3" class="st0">
	<g class="st1">
		<g>
			<path class="st3" d="M315.7,334.4c-0.1,0-0.1,0-0.2,0c-9.1,0-11.1-10.9-6.2-15.9c-2.8-0.4-4.7-1.9-6-3.8c-0.4,0-0.7,0.1-1.1,0.1
				c-12.4,0-14.2-16.5-5.3-21.2c-3.5-3-3.4-9.1,0.1-12.1c-5.1-9.5-11.3-19.1-18.7-28.8c-1.5,1-3.3,1.6-5.5,1.6
				c-7,0-10.3-5.8-9.8-11.2c-1.4,0.9-3.1,1.5-5.2,1.5c-4.2,0-6.9-2.2-8.2-5.1c-0.8,1.9-2.4,3.4-4.7,3.9c2.2,6.4-1.1,14.9-9.8,14.9
				c-0.7,3.4-2.7,6.4-6.2,7.8c0,2-1.2,4.1-3.8,4.1c-0.8,0-1.4-0.2-1.9-0.5c4.2,6.2,1.6,16.9-7.8,17.4c2.4,4.6,0.2,11.6-6.5,11.6
				c-2.4,0-4.2-0.9-5.4-2.2c-0.7,1.4-2.1,2.4-4.1,2.4c-0.7,0-1.3-0.1-1.8-0.3c-0.5,5-4,9.6-10.4,9.6c-1.4,0-2.6-0.2-3.7-0.6
				c-13.6,38.9-15.5,87.8,17.7,141.5c8.1,0.9,11.6,8.5,10.5,15.2c1-0.5,2.1-0.8,3.5-0.8c3,0,5.1,1.4,6.3,3.3
				c0.5-0.1,1.1-0.1,1.7-0.1c12.3,0,14.9,15,7.9,21.4c2.6,2.8,5.3,5.7,8.1,8.6c0.9,0.9,1.9,1.6,2.9,2.1v-58L217.5,416
				c-4.5,2.2-10.1,1.4-13.8-2.3c-4.8-4.8-4.8-12.5,0-17.2c4.8-4.8,12.5-4.8,17.2,0c3.8,3.7,4.5,9.3,2.3,13.8l18.7,18.7v-52.8l-24-24
				c-1.6-1.6-1.6-4.2,0-5.7c1.6-1.6,4.1-1.6,5.7,0l18.3,18.3v-44.2c-4.8-1.6-8.2-6.2-8.2-11.5c0-6.8,5.5-12.2,12.2-12.2
				c6.7,0,12.2,5.4,12.2,12.2c0,5.3-3.4,9.8-8.1,11.5v68l28.8-28.8c-2.2-4.5-1.4-10.1,2.3-13.9c4.8-4.8,12.5-4.8,17.2,0
				c4.8,4.8,4.8,12.5,0,17.3c-3.7,3.7-9.3,4.5-13.8,2.3l-34.6,34.6v46.8l12.7-12.7c4.9-4.9,7.5-11.3,7.5-18.1c0-2.2,1.8-4.1,4.1-4.1
				c2.2,0,4.1,1.8,4.1,4.1c0,9-3.5,17.5-9.9,23.9l-18.4,18.4v30.3h0v39c0,0.6,0.5,1.1,1.1,1.1h5.9c0.6,0,1.1-0.5,1.1-1.1v-35.6
				C281.4,468.2,328.6,409.5,315.7,334.4z M214.9,343.3c-0.8,0.8-1.8,1.2-2.9,1.2c-1,0-2.1-0.4-2.8-1.2l-4.1-4.1
				c-1.6-1.5-1.6-4.1,0-5.7c1.6-1.6,4.1-1.6,5.7,0l4.1,4.1C216.5,339.2,216.5,341.8,214.9,343.3z M278.4,404.4
				c0,2.2-1.8,4.1-4.1,4.1c-2.2,0-4.1-1.8-4.1-4.1v-6.9c0-2.2,1.8-4.1,4.1-4.1c2.2,0,4.1,1.8,4.1,4.1V404.4z"/>
		</g>
	</g>
	<text transform="matrix(1 0 0 1 326.4658 550.8076)" class="st1 st19 st20">505</text>
</g>
<g id="Layer_2" class="st0">
	<g id="color" class="st1">
		<g>
			<circle class="st9" cx="71.6" cy="71.6" r="31.6"/>
			<circle class="st10" cx="71.6" cy="160.9" r="31.6"/>
			<circle class="st6" cx="71.6" cy="250.2" r="31.6"/>
			<circle class="st7" cx="71.6" cy="339.4" r="31.6"/>
		</g>
	</g>
</g>
</svg>
