<?xml version="1.0" encoding="utf-8"?>
<!-- Generator: Adobe Illustrator 22.1.0, SVG Export Plug-In . SVG Version: 6.00 Build 0)  -->
<svg version="1.1" xmlns="http://www.w3.org/2000/svg" xmlns:xlink="http://www.w3.org/1999/xlink" x="0px" y="0px"
	 viewBox="0 0 32 32" style="enable-background:new 0 0 32 32;" xml:space="preserve">
<style type="text/css">
	.st0{display:none;}
	.st1{display:inline;}
	.st2{fill:none;stroke:#FFFFFF;stroke-width:0.5;stroke-miterlimit:10;}
</style>
<g id="input-data" class="st0">
	<g class="st1">
		<g>
			<polygon points="32,29.1 11.5,29.1 11.5,21.3 14,21.3 14,26.6 29.5,26.6 29.5,5.4 14,5.4 14,10.7 11.5,10.7 11.5,2.9 32,2.9 			
				"/>
		</g>
		<g>
			<g>
				<g>
					<polygon points="16.6,22.8 16.6,18.3 0,18.3 0,13.7 16.6,13.7 16.6,9.2 28.4,16 					"/>
				</g>
			</g>
		</g>
	</g>
</g>
<g id="preprocess" class="st0">
	<g class="st1">
		<g>
			<rect x="0.9" width="30.2" height="4.4"/>
			<rect x="0.9" width="30.2" height="4.4"/>
			<polygon points="31.1,6.2 31.1,6.3 26.2,10.5 19.1,16.7 19.1,28.8 12.9,32 12.9,16.7 5.8,10.5 0.9,6.3 0.9,6.2 			"/>
		</g>
	</g>
</g>
<g id="modeling" class="st0">
	<g class="st1">
		<polygon points="31,0 31,4.4 5.3,4.4 5.3,32 1,32 1,0 		"/>
	</g>
	<g class="st1">
		<line class="st2" x1="5.3" y1="28.5" x2="3" y2="28.5"/>
		<line class="st2" x1="5.3" y1="25.1" x2="3" y2="25.1"/>
		<line class="st2" x1="5.3" y1="21.6" x2="3" y2="21.6"/>
		<line class="st2" x1="5.3" y1="18.2" x2="3" y2="18.2"/>
		<line class="st2" x1="5.3" y1="14.7" x2="3" y2="14.7"/>
		<line class="st2" x1="5.3" y1="11.3" x2="3" y2="11.3"/>
		<line class="st2" x1="5.3" y1="7.8" x2="3" y2="7.8"/>
	</g>
	<g class="st1">
		<line class="st2" x1="27.8" y1="2" x2="27.8" y2="4.4"/>
		<line class="st2" x1="24.6" y1="2" x2="24.6" y2="4.4"/>
		<line class="st2" x1="21.4" y1="2" x2="21.4" y2="4.4"/>
		<line class="st2" x1="18.2" y1="2" x2="18.2" y2="4.4"/>
		<line class="st2" x1="15" y1="2" x2="15" y2="4.4"/>
		<line class="st2" x1="11.8" y1="2" x2="11.8" y2="4.4"/>
		<line class="st2" x1="8.6" y1="2" x2="8.6" y2="4.4"/>
	</g>
	<g class="st1">
		<polygon points="30,12.8 20.6,17.8 11.1,12.8 20.6,7.8 		"/>
		<polygon points="19.7,19.4 19.7,32 10.1,26.9 10.1,14.3 		"/>
		<polygon points="31,14.3 31,26.9 21.5,32 21.5,19.4 		"/>
	</g>
</g>
<g id="visualization" class="st0">
	<g class="st1">
		<path d="M31.7,15c0.4,0.6,0.4,1.4,0,1.9c-2,2.8-8.3,10.6-15.7,10.6S2.3,19.7,0.3,17c-0.4-0.6-0.4-1.4,0-1.9
			C2.3,12.3,8.6,4.5,16,4.5S29.7,12.3,31.7,15z M16,7.5c-4.7,0-8.5,3.8-8.5,8.5s3.8,8.5,8.5,8.5s8.5-3.8,8.5-8.5S20.7,7.5,16,7.5z"
			/>
	</g>
	<circle class="st1" cx="16" cy="16" r="4.5"/>
</g>
<g id="api-management" class="st0">
	<g class="st1">
		<path d="M25.4,16c0,5.2-4.2,9.4-9.4,9.4S6.6,21.2,6.6,16s4.2-9.4,9.4-9.4S25.4,10.8,25.4,16z M14.4,0L14,2.7
			c-1.4,0.4-1.5,0.4-2.9,0.8L9.4,1.3C7.8,2.3,8.2,2,6.6,2.9l1,2.6c-1,1-1.1,1.1-2.1,2.1l-2.6-1C2,8.2,2.3,7.8,1.3,9.4l2.1,1.7
			c-0.4,1.4-0.4,1.5-0.8,2.9L0,14.4c0,1.8,0,1.4,0,3.2L2.7,18c0.4,1.4,0.4,1.5,0.8,2.9l-2.1,1.7c0.9,1.6,0.7,1.2,1.6,2.8l2.6-1
			c1,1,1.1,1.1,2.1,2.1l-1,2.6c1.6,0.9,1.2,0.7,2.8,1.6l1.7-2.1c1.4,0.4,1.5,0.4,2.9,0.8l0.4,2.7c1.8,0,1.4,0,3.2,0l0.4-2.7
			c1.4-0.4,1.5-0.4,2.9-0.8l1.7,2.1c1.6-0.9,1.2-0.7,2.8-1.6l-1-2.6c1-1,1.1-1.1,2.1-2.1l2.6,1c0.9-1.6,0.7-1.2,1.6-2.8l-2.1-1.7
			c0.4-1.4,0.4-1.5,0.8-2.9l2.7-0.4c0-1.8,0-1.4,0-3.2L29.3,14c-0.4-1.4-0.4-1.5-0.8-2.9l2.1-1.7c-0.9-1.6-0.7-1.2-1.6-2.8l-2.6,1
			c-1-1-1.1-1.1-2.1-2.1l1-2.6c-1.6-0.9-1.2-0.7-2.8-1.6l-1.7,2.1c-1.4-0.4-1.5-0.4-2.9-0.8L17.6,0C15.8,0,16.2,0,14.4,0z"/>
	</g>
	<g class="st1">
		<path d="M13.5,17.9h-2.2L10.9,19H9.4l2.2-5.9h1.7l2.2,5.9h-1.5L13.5,17.9z M13.1,16.8l-0.7-2.2l-0.7,2.2H13.1z"/>
		<path d="M17.4,16.9V19H16v-6h2.3c0.7,0,1.2,0.2,1.6,0.5c0.4,0.4,0.6,0.8,0.6,1.4c0,0.4-0.1,0.7-0.2,1c-0.2,0.3-0.4,0.5-0.7,0.7
			c-0.3,0.2-0.7,0.2-1.2,0.2H17.4z M19,15c0-0.5-0.3-0.8-0.9-0.8h-0.7v1.5h0.7C18.7,15.7,19,15.5,19,15z"/>
		<path d="M22.6,13v6h-1.4v-6H22.6z"/>
	</g>
</g>
<g id="api-alt">
	<g>
		<path d="M12,0v1.4H4.5v28.2h2V3.5H12V32l15.5-2.4V2.4L12,0z M14.5,17.1c-0.5,0-0.8-0.5-0.8-1.1c0-0.6,0.4-1.1,0.8-1.1
			s0.8,0.5,0.8,1.1C15.3,16.6,14.9,17.1,14.5,17.1L14.5,17.1z M14.5,17.1"/>
	</g>
</g>
</svg>
