<?xml version="1.0" encoding="utf-8"?>
<!-- Generator: Adobe Illustrator 22.1.0, SVG Export Plug-In . SVG Version: 6.00 Build 0)  -->
<svg version="1.1" id="Layer_1" xmlns="http://www.w3.org/2000/svg" xmlns:xlink="http://www.w3.org/1999/xlink" x="0px" y="0px"
	 viewBox="0 0 256 256" style="enable-background:new 0 0 256 256;" xml:space="preserve">
<style type="text/css">
	.st0{fill:#FFFFFF;}
</style>
<g>
	<path class="st0" d="M133.1,16.8c-2.9-2.9-7.6-3-10.6-0.2c-21.6,20.7-95.4,104.1,0.3,201.1c0.7,0.7,1.4,1.2,2.2,1.5v-42.8l-18-18
		c-3.3,1.6-7.4,1.1-10.2-1.7c-3.5-3.5-3.5-9.2,0-12.7c3.5-3.5,9.2-3.5,12.7,0c2.8,2.8,3.3,6.9,1.7,10.2l13.8,13.8v-38.9l-17.7-17.7
		c-1.2-1.2-1.2-3.1,0-4.2c1.2-1.2,3.1-1.2,4.2,0l13.4,13.5V88.2c-3.5-1.2-6-4.6-6-8.5c0-5,4-9,9-9c5,0,9,4,9,9c0,3.9-2.5,7.2-6,8.5
		v50.1l21.2-21.2c-1.6-3.3-1.1-7.4,1.7-10.2c3.5-3.5,9.2-3.5,12.7,0c3.5,3.5,3.5,9.2,0,12.7c-2.8,2.8-6.9,3.3-10.2,1.7L131,146.7
		v34.5l9.3-9.4c3.6-3.6,5.5-8.3,5.5-13.4c0-1.7,1.3-3,3-3s3,1.3,3,3c0,6.6-2.6,12.9-7.3,17.6L131,189.6v29.8
		c0.9-0.3,1.7-0.9,2.4-1.6C155,197.2,228.9,113.8,133.1,16.8z M97.9,97.7c1.2-1.1,3-1.1,4.2,0l3,3c1.2,1.1,1.2,3.1,0,4.2
		c-0.6,0.6-1.4,0.9-2.1,0.9c-0.7,0-1.5-0.3-2.1-0.9l-3-3C96.7,100.8,96.7,98.9,97.9,97.7z M151.9,150c0,1.7-1.3,3-3,3s-3-1.3-3-3
		v-5.1c0-1.7,1.3-3,3-3s3,1.3,3,3V150z"/>
	<path class="st0" d="M137,211.9h-6v28.4c0,0.6,0.5,1.1,1.1,1.1h3.7c0.6,0,1.1-0.5,1.1-1.1V211.9z"/>
</g>
</svg>
