<?xml version="1.0" encoding="utf-8"?>
<!-- Generator: Adobe Illustrator 22.1.0, SVG Export Plug-In . SVG Version: 6.00 Build 0)  -->
<svg version="1.1" xmlns="http://www.w3.org/2000/svg" xmlns:xlink="http://www.w3.org/1999/xlink" x="0px" y="0px"
	 viewBox="0 0 1366 768" style="enable-background:new 0 0 1366 768;" xml:space="preserve">
<style type="text/css">
	.st0{display:none;}
	.st1{display:inline;}
	.st2{fill:#E6E6E6;}
	.st3{fill:#4EB682;}
	.st4{fill:#37805B;}
	.st5{fill:#024661;}
	.st6{fill:#19ACA5;}
	.st7{fill:#71C598;}
	.st8{fill:#498062;}
	.st9{fill:#133A5F;}
	.st10{fill:#1D5870;}
	.st11{fill:#579976;}
	.st12{fill:#12807A;}
</style>
<g id="Layer_1" class="st0">
	<g class="st1">
		<g>
			<path class="st2" d="M1032.8,453.8c-12.2,37.7-43,66.8-76.8,87.5c-5,3.1-10.1,6-15.3,8.8c-22.3,12-45.7,21.3-69.8,28.4
				c-70.3,20.9-147.1,24.1-221.3,26.5c-12.3,0.4-24.5,0.8-36.8,1.2c-52.3,1.7-102.9-9-148.4-30c-17.5-8.1-34.2-17.6-50-28.6
				c-53-36.9-95.1-89.6-118.5-153.2c-0.7-1.8-1.4-3.7-2-5.5c-10.5-29.7-17.8-63.6-4.2-92c11-23.1,34.2-38.5,58.6-46.1
				s50.3-8.7,75.9-10.3c58.8-3.6,117.6-10.2,174.9-24.2c59.6-14.7,117.2-37.3,177.5-48.9c35.7-6.8,73.5-9.6,107.8,2.3
				c31.6,10.9,58,33.5,79.5,59c30.3,35.9,52.5,78.5,65.4,123.6C1038.9,385.4,1043.3,421.1,1032.8,453.8z"/>
		</g>
		<g>
			<g>
				<path class="st3" d="M737.9,363.2c-0.9,2.2-1.8,4.4-2.7,6.5c-9.8,22.6-23.1,43.4-35.8,64.5c-5.4,8.9-10.6,17.9-15.8,27
					c-8.6,15.2-16.9,30.5-24.9,46c-3.6,7-7.1,14-10.6,21.1c-1.1-6.5-2.1-13-3-19.6c-8.4-60.5-9.8-124.9,3.5-184.2
					c3.4-15.4,7.9-30.5,13.5-45c3.5-9,7.4-17.9,11.7-26.5c5.5-10.9,14.1-23,26.4-22.4c4.9,0.2,9.4,2.5,13.5,5.2
					c20.6,13.5,32.6,37.8,35,62.2C750.9,320.1,746.1,342.4,737.9,363.2z"/>
			</g>
			<g>
				<g>
					<path class="st4" d="M651.5,540.2c3.1-75.4,20.6-150,51.4-218.9c0.9-2-2.1-3.8-3-1.7c-31.1,69.5-48.8,144.5-51.9,220.6
						C648,542.4,651.4,542.4,651.5,540.2L651.5,540.2z"/>
				</g>
			</g>
			<g>
				<path class="st3" d="M629.9,552.5c-11.3-5.4-22.6-10.7-33.9-16c-16.8-7.9-33.8-16-48-28.1c-14.2-12-25.4-28.6-27-47.2
					c-1-11.4,2-23.4,9.4-32.2c2.4-2.9,5.5-5.5,9.2-5.7c2.8-0.2,5.6,1,8.1,2.3c13.3,7.1,23.7,18.6,33.1,30.4
					C601.3,481.5,616.5,520.1,629.9,552.5z"/>
			</g>
			<g>
				<g>
					<path class="st4" d="M549.8,474.2c19.4,28.9,47.3,50.3,70.8,75.6c1.5,1.6,3.9-0.8,2.4-2.4c-23.3-25.1-51.1-46.3-70.3-74.9
						C551.5,470.7,548.5,472.4,549.8,474.2L549.8,474.2z"/>
				</g>
			</g>
			<g>
				<path class="st3" d="M461.1,464.6c-1.5,21.7-3.8,44.2-12.3,63.9c-0.2-0.6-0.4-1.3-0.6-1.9c-3.4-10.9-8.7-21.4-14.7-31.3
					c-1.2-2-2.5-4.1-3.8-6c-8.5-13-18.2-25.2-27.1-37.9h45.6v-45.4c0-7.6,0.3-18.6,0.9-33c0-1.1,0.1-2.1,0.1-3.2
					c2.2,4.2,4.1,8.6,5.6,13C463.9,408.8,463,437.1,461.1,464.6z"/>
			</g>
			<g>
				<path class="st3" d="M1071.3,453.8c-10.5,16.2-26,28.6-42.6,38.3c-16.6,9.8-34.5,17.1-52,25.2c-15.6,7.2-30.9,15-45.8,23.4
					c-4.3,2.5-9,5.6-11.3,9.8c0.1-16.9,0-33.9,2.2-50.7c2.4-18,7.7-36.1,18.3-50.9c11.5-16.1,28.3-27.4,45.3-37.4
					c24.8-14.6,52.4-27.4,81-25.1c4,0.3,8.3,1.1,11.2,3.8c2.3,2.2,3.5,5.3,4.3,8.4C1086.7,417.2,1081.7,437.6,1071.3,453.8z"/>
			</g>
			<g>
				<g>
					<path class="st4" d="M921.1,541c12.4-26.3,32.4-48.8,54.1-67.7c21.1-18.3,45.1-33.2,70.8-44.2c2-0.9,0.3-3.8-1.7-3
						c-26,11.1-50.1,26.2-71.5,44.7c-22,19.1-42.2,41.9-54.7,68.4C917.1,541.2,920.1,543,921.1,541L921.1,541z"/>
				</g>
			</g>
			<g>
				<path class="st5" d="M393.2,436.9l-6.7,10.4l6.8-10.3C393.2,437,393.2,437,393.2,436.9z"/>
				<path class="st5" d="M503.6,451.4V282.9h-52.2l-21.7,32l-13.5,19.9l-40.7,60l-11,16.3l-30.5,44.9v39.4h114.4v55.5h55.3v-55.5
					h32.2v-44H503.6z M449.3,369.8c0,1-0.1,2.1-0.1,3.2c-0.6,14.4-0.9,25.4-0.9,33v45.4h-64.5l2.7-4.1l6.7-10.4l50.1-77.2
					c2.1-3.9,4.1-7.9,5.9-11.9h1.5C450.3,350,449.8,357.3,449.3,369.8z"/>
				<path class="st5" d="M737.9,363.2c-0.9,2.2-1.8,4.4-2.7,6.5c-9.8,22.6-23.1,43.4-35.8,64.5c-5.4,8.9-10.6,17.9-15.8,27
					c-1.5,10.6-3.6,19.3-6.3,26c-4.3,10.5-10.5,17.2-18.7,20c-3,1.1-6.4,1.6-9.9,1.6c-1.3,0-2.5-0.1-3.6-0.2
					c-11.5-1.2-19.9-8.2-25-21.2c-5.7-14.2-8.5-37.8-8.5-70.6c0-32.9,2.9-56.5,8.6-70.8c5.7-14.3,15.2-21.5,28.4-21.5
					c3.4-15.4,7.9-30.5,13.5-45c-4.3-0.5-8.7-0.8-13.3-0.8c-31.8,0-55.3,11.2-70.6,33.6c-15.3,22.4-22.9,57.3-22.9,104.5
					c0,45.3,7.8,79.6,23.6,102.8c15.7,23.2,39,34.8,69.9,34.8c31.9,0,55.5-11.2,70.8-33.7c15.3-22.5,23-57.1,23-103.9
					C742.6,396.9,741,379,737.9,363.2z"/>
				<path class="st5" d="M964.3,495.3H932v55.5h-55.3v-55.5H762.3v-39.4l117.5-173H932v168.4h32.3V495.3z M876.7,451.4v-45.4
					c0-7.6,0.3-18.6,0.9-33c0.6-14.4,1.1-22.8,1.5-25.1h-1.5c-4.5,10-10,19.8-16.3,29.3l-49.1,74.2H876.7z"/>
			</g>
			<g>
				<path class="st3" d="M449.3,384.7c0,0.8-0.1,1.7-0.1,2.6c-0.5,11.8-0.7,20.7-0.7,26.9v37.1h-37.2c-2.7-3.8-5.3-7.7-7.7-11.7
					c-0.4-0.7-0.8-1.4-1.2-2c-5.9-10-10.6-21.1-13.3-32.4c-3.4-14.1-3.7-28.8,0.7-42.5c1.4-4.3,3.5-8.8,7.5-10.8
					c3-1.5,6.7-1.4,10-0.8c5.3,0.9,10.3,2.7,15,5.2c8.8,4.7,16.3,11.9,22.2,20.4C446.2,379.2,447.8,381.9,449.3,384.7z"/>
				<g>
					<path class="st4" d="M448.4,446.6v4.7h-0.8c-0.2-0.2-0.5-0.4-0.6-0.7c-7.2-18-18.6-33.8-30.4-49.1c-1.1-1.4,0.9-3.4,2-2
						C430.1,414.3,441,429.5,448.4,446.6z"/>
				</g>
			</g>
		</g>
		<g>
			<path class="st6" d="M940.7,550.1c-22.3,12-45.7,21.3-69.8,28.4c-70.3,20.9-147.1,24.1-221.3,26.5c-12.3,0.4-24.5,0.8-36.8,1.2
				c-52.3,1.7-102.9-9-148.4-30c-17.5-8.1-34.2-17.6-50-28.6c7.4-4,15.6-7.5,25.2-10.2c38.5-10.7,85.6-4.1,128.4,0.7
				c42.8,4.8,94.9,5.9,122.7-11.3c6.9-4.3,12.7-9.8,23.2-11.1c7.6-0.9,15.4,0.7,22.6,2.3c29,6.7,57.3,14.4,87.5,19.5
				C861.7,544.2,901.5,546.5,940.7,550.1z"/>
		</g>
	</g>
</g>
<g id="Layer_4">
	<g>
		<path class="st2" d="M1094.8,501.6c-10.8,30.1-40.9,48.5-70.3,61.2c-13.9,6-28,11.2-42.4,15.7c-0.2,0.1-0.3,0.1-0.5,0.2
			c-15.9,5-32,9.2-48.3,12.6c-53.8,11.4-109.5,15.2-164.6,15.7c-87.1,0.8-174.2-6.2-261.2-1.9c-10.3,0.5-20.8,1.2-31.2,2.2
			c-4.3,0.4-8.5,0.6-12.8,0.6c-14.2,0-28.3-2.2-41.6-6.5c-2.3-0.7-4.5-1.5-6.7-2.4c-11-4.2-21.4-9.7-31-16.6
			c-7.5-5.4-14.5-11.6-20.8-18.6c-0.2-0.2-0.3-0.4-0.5-0.5c-18.3-20.2-36-41.1-51.3-63.6c-2.5-3.7-4.9-7.4-7.3-11.2
			c-5.7-9.2-10.9-18.6-15.6-28.4c-18.4-38.3-27.4-82.4-18.2-123.9c12.1-54.5,54.4-98.7,103.7-124.8c49.3-26.1,105.4-36.5,160.8-43.4
			c120.8-15.1,251.6-13.4,353.7,53c9.2,6,18,12.4,26.5,19.1c13.8,11,26.9,22.9,39.5,35.4c9.1,9,18,18.4,26.7,27.9
			c19.3,21.1,37.9,42.9,57,64.1c13,14.5,26.5,28.8,37.5,44.8c3.4,5,6.6,10.1,9.5,15.4C1097.7,450.3,1103.4,477.5,1094.8,501.6z"/>
	</g>
	<g>
		<path class="st7" d="M1078.4,528.9c-23.9,28.4-59.4,46.6-96.4,49.7c-0.1,0-0.2,0-0.4,0c0.4-1.1,0.7-2.3,1.1-3.4
			c0.5-1.7,1.1-3.3,1.6-5c5.8-17.9,12.2-35.6,19.1-53.1c4.1-10.3,8.5-20.7,13.3-30.8c12.6-26.1,28.5-50.5,51.2-68.2
			c2.6-2,5.3-4,8.2-5.7c5.5-3.5,11.4-6.3,17.7-7.9c2.7-0.7,5.6-1.1,8.2-0.2c5,1.9,6.8,8,7.6,13.3
			C1115.7,456.9,1103.9,498.5,1078.4,528.9z"/>
	</g>
	<g>
		<path class="st8" d="M1079.9,446.8c-2.9,17.5-11.5,33.3-21.6,47.7c-17.8,25.5-39.8,49-62.9,69.9c-4.1,3.7-8.3,7.3-12.7,10.8
			c0.5-1.7,1.1-3.3,1.6-5c16.3-13.4,31-29,45.1-44.5c20.3-22.5,42.4-48.8,47.6-79.6C1077.4,444.1,1080.3,444.9,1079.9,446.8z"/>
	</g>
	<g>
		<path class="st7" d="M417,578.3c-0.3,4.6-0.6,9.2-1,13.8c-0.2,2.3-0.4,4.6-0.6,6.9c-0.3-0.1-0.6-0.2-0.9-0.3
			c-1.4-0.5-2.8-1.1-4.2-1.7c-9.1-3.9-17.8-8.8-26-14.6c-7.5-5.4-14.5-11.6-20.8-18.6c-0.2-0.2-0.3-0.4-0.5-0.5
			c-18.3-20.2-36-41.1-51.3-63.6c-2.5-3.7-4.9-7.4-7.3-11.2c-17.6-37.9-22.5-82.8-5.5-120.8c6.7-15.1,19-30.1,35.6-31
			c8.9-0.5,17.5,3.3,25,8.1c12.6,8,23.2,18.9,30.8,31.7c9.8,16.5,14.3,35.5,17.8,54.4C417,479.3,420,529,417,578.3z"/>
	</g>
	<g>
		<path class="st8" d="M414.5,598.6c-1.4-0.5-2.8-1.1-4.2-1.7c-12.6-26.4-23.5-53.8-34.1-81c-15.3-39.2-29.3-79-42.1-119
			c-0.6-1.9,2.3-2.6,2.9-0.8c7.1,22,14.5,44,22.3,65.8c14,39.1,28.9,77.9,45.7,115.9C408,584.7,411.2,591.7,414.5,598.6z"/>
	</g>
	<g>
		<path class="st9" d="M981.7,262.2v316.4c-68.2,21.4-141,27.7-212.8,28.4c-87.1,0.8-174.2-6.2-261.2-1.9
			c-10.3,0.5-20.8,1.2-31.2,2.2c-4.3,0.4-8.5,0.6-12.8,0.6c-28.6,0-56.4-9-79.4-25.5V262.2c0-2.7,0.5-5.2,1.3-7.6l252.2,208.2
			l2.2,1.8l30.8,25.4l5.9,4.8l2,1.7h0l4.2,3.4l0.8-0.7l1.5-1.3l1.4-1.2l2-1.6l6.3-5.3l10.2-8.4l28.2-23.3l1.2-1L955,275.5l25.4-20.9
			C981.2,257,981.7,259.5,981.7,262.2z"/>
		<path class="st10" d="M980.3,254.6L980.3,254.6L683,500L385.7,254.6v0c3.1-8.5,11.2-14.5,20.7-14.5h553.2
			C969.1,240.1,977.2,246.1,980.3,254.6z"/>
		<g>
			<path class="st11" d="M742.8,486.3c0,30.4-24.7,55.1-55.1,55.1c-18.5,0-34.9-9.1-44.9-23.1c-6.4-9-10.2-20-10.2-31.9
				c0-30.4,24.7-55.1,55.1-55.1c15.9,0,30.2,6.7,40.2,17.4c0,0,0,0,0,0C737.1,458.5,742.8,471.7,742.8,486.3z"/>
			<path class="st11" d="M738.1,480.5c0,30.4-24.7,55.1-55.1,55.1c-14.8,0-28.1-5.8-38-15.2c0,0,0,0,0-0.1c-6.4-9-10.2-20-10.2-31.9
				c0-30.4,24.7-55.1,55.1-55.1c14.7,0,28,5.8,37.9,15.1c0.1,0.1,0.1,0.1,0.2,0.2c0,0,0,0,0,0C734.3,457.6,738.1,468.6,738.1,480.5z
				"/>
			<path class="st11" d="M727.7,448.4c-9.9-9.4-23.2-15.1-37.9-15.1c-30.4,0-55.1,24.7-55.1,55.1c0,11.9,3.8,22.9,10.2,31.9
				c0,0,0,0,0,0.1c-0.7-0.7-1.4-1.4-2.1-2.2c-6.4-9-10.2-20-10.2-31.9c0-30.4,24.7-55.1,55.1-55.1
				C703.5,431.2,717.7,437.8,727.7,448.4z"/>
			<path class="st7" d="M738.1,480.5c0,30.4-24.7,55.1-55.1,55.1c-14.8,0-28.1-5.8-38-15.2c0,0,0,0,0-0.1c-6.4-9-10.2-20-10.2-31.9
				c0-30.4,24.7-55.1,55.1-55.1c14.7,0,28,5.8,37.9,15.1c0.1,0.1,0.1,0.1,0.2,0.2c0,0,0,0,0,0C734.3,457.6,738.1,468.6,738.1,480.5z
				"/>
			<g>
				<path class="st11" d="M705.2,481.7L705.2,481.7c-0.3-9.6-4.4-20.6-15.8-32.2c-0.9-1-2.5-1-3.5,0c-5.1,4.9-19,20.4-15,40.6v0
					c1.6,8,6.1,16.8,15.1,25.9c0.2,0.2,0.5,0.4,0.7,0.5v-14.1l-2.9-3l-3-3c-0.6,0.3-1.3,0.4-1.9,0.2h0c-0.5-0.1-1-0.4-1.4-0.8
					c-0.3-0.3-0.5-0.6-0.6-0.9c-0.5-1.1-0.3-2.4,0.6-3.3c1.2-1.2,3-1.2,4.2,0c0.9,0.9,1.1,2.3,0.6,3.4l3.2,3.1l1.4,1.4v-12.9
					l-5.8-5.8c-0.4-0.4-0.4-1,0-1.4c0.4-0.4,1-0.4,1.4,0l4.4,4.5v-10.8c-1.2-0.4-2-1.5-2-2.8c0-1.6,1.3-3,3-3c1.6,0,3,1.3,3,3
					c0,1.3-0.8,2.4-2,2.8v16.5l7-7c-0.5-1.1-0.3-2.5,0.6-3.4c1.2-1.2,3-1.2,4.2,0c1.2,1.2,1.2,3,0,4.2c-0.9,0.9-2.3,1.1-3.4,0.6
					l-8.4,8.4v11.4l3.1-3.1c1.2-1.2,1.8-2.8,1.8-4.4c0-0.5,0.4-1,1-1s1,0.4,1,1c0,2.2-0.9,4.3-2.4,5.8l-4.5,4.5v9.9
					c0.3-0.1,0.6-0.3,0.8-0.5c0.3-0.3,0.8-0.7,1.2-1.2C695.8,509.6,705.7,497.4,705.2,481.7z M680.1,478.7c-0.2,0.2-0.5,0.3-0.7,0.3
					s-0.5-0.1-0.7-0.3l-1-1c-0.4-0.4-0.4-1,0-1.4c0.4-0.4,1-0.4,1.4,0l1,1C680.5,477.7,680.5,478.3,680.1,478.7z M695.6,493.5
					c0,0.5-0.4,1-1,1s-1-0.4-1-1v-1.7c0-0.5,0.4-1,1-1s1,0.5,1,1V493.5z"/>
				<path class="st11" d="M690.7,514h-2v8.8c0,0.5,0.4,1,1,1l0,0c0.5,0,1-0.4,1-1V514z"/>
			</g>
		</g>
	</g>
	<g>
		<path class="st6" d="M1028.1,522.6c-8.2,19.6-23.7,35.1-39.2,49.6c-2.3,2.1-4.5,4.2-6.8,6.3c-0.1,0-0.1,0.1-0.1,0.1
			c-0.1,0-0.2,0-0.4,0c-15.9,5-32,9.2-48.3,12.6c0-0.2,0-0.4-0.1-0.6c-0.1-1.1-0.2-2.2-0.3-3.3c-2.3-24.6-1.2-49.2,6.6-72.5
			c5.4-15.9,15-31.8,30.6-37.9c15.4-6,33.2-0.7,46.5,9.3c1.4,1.1,2.8,2.2,4.2,3.4c4.3,3.8,8.3,8.3,9.8,13.8
			C1032.4,509.8,1030.7,516.5,1028.1,522.6z"/>
	</g>
	<g>
		<path class="st6" d="M422.1,601.3c-1.2-0.4-2.3-0.8-3.5-1.2c-1.1-0.4-2.2-0.8-3.2-1.2c-11-4.2-21.4-9.7-31-16.6
			c-7.5-5.4-14.5-11.6-20.8-18.6c-0.2-0.2-0.3-0.4-0.5-0.5c-18.3-20.2-36-41.1-51.3-63.6c2.1-0.9,4.2-1.6,6.4-2.2
			c14.8-4.1,30.6-2.6,45.7,0.5c12.7,2.7,25.8,6.9,34.8,16.3c13.2,13.8,14.3,34.6,16.8,53.5c0.5,3.5,1,7.1,1.6,10.6
			c1.2,7.1,2.8,14.1,4.6,21.1C421.8,600,421.9,600.7,422.1,601.3z"/>
	</g>
	<g>
		<path class="st12" d="M991.4,506.2c-7.8,29-24.1,55.4-46.5,75.3c-3.7,3.3-7.6,6.3-11.6,9.1c-0.1-1.1-0.2-2.2-0.3-3.3
			c2.5-1.8,5-3.8,7.4-5.8c23.3-19.8,40.1-46.5,48.1-76C989,503.6,991.9,504.4,991.4,506.2z"/>
	</g>
	<g>
		<path class="st12" d="M422.1,601.3c-1.2-0.4-2.3-0.8-3.5-1.2c-1-1.9-1.9-3.9-2.9-5.9c-5.8-12.7-11.3-25-20.9-35.4
			c-9.3-10.1-20.9-17.9-33.7-22.8c-1.8-0.7-1-3.6,0.8-2.9c23.1,8.9,40.9,26.2,51.4,48.5c2.8,5.9,5.3,11.9,8.3,17.7
			C421.8,600,421.9,600.7,422.1,601.3z"/>
	</g>
</g>
<g id="Layer_3" class="st0">
	<g class="st1">
		<g>
			<path class="st3" d="M315.7,334.4c-0.1,0-0.1,0-0.2,0c-9.1,0-11.1-10.9-6.2-15.9c-2.8-0.4-4.7-1.9-6-3.8c-0.4,0-0.7,0.1-1.1,0.1
				c-12.4,0-14.2-16.5-5.3-21.2c-3.5-3-3.4-9.1,0.1-12.1c-5.1-9.5-11.3-19.1-18.7-28.8c-1.5,1-3.3,1.6-5.5,1.6
				c-7,0-10.3-5.8-9.8-11.2c-1.4,0.9-3.1,1.5-5.2,1.5c-4.2,0-6.9-2.2-8.2-5.1c-0.8,1.9-2.4,3.4-4.7,3.9c2.2,6.4-1.1,14.9-9.8,14.9
				c-0.7,3.4-2.7,6.4-6.2,7.8c0,2-1.2,4.1-3.8,4.1c-0.8,0-1.4-0.2-1.9-0.5c4.2,6.2,1.6,16.9-7.8,17.4c2.4,4.6,0.2,11.6-6.5,11.6
				c-2.4,0-4.2-0.9-5.4-2.2c-0.7,1.4-2.1,2.4-4.1,2.4c-0.7,0-1.3-0.1-1.8-0.3c-0.5,5-4,9.6-10.4,9.6c-1.4,0-2.6-0.2-3.7-0.6
				c-13.6,38.9-15.5,87.8,17.7,141.5c8.1,0.9,11.6,8.5,10.5,15.2c1-0.5,2.1-0.8,3.5-0.8c3,0,5.1,1.4,6.3,3.3
				c0.5-0.1,1.1-0.1,1.7-0.1c12.3,0,14.9,15,7.9,21.4c2.6,2.8,5.3,5.7,8.1,8.6c0.9,0.9,1.9,1.6,2.9,2.1v-58L217.5,416
				c-4.5,2.2-10.1,1.4-13.8-2.3c-4.8-4.8-4.8-12.5,0-17.2c4.8-4.8,12.5-4.8,17.2,0c3.8,3.7,4.5,9.3,2.3,13.8l18.7,18.7v-52.8l-24-24
				c-1.6-1.6-1.6-4.2,0-5.7c1.6-1.6,4.1-1.6,5.7,0l18.3,18.3v-44.2c-4.8-1.6-8.2-6.2-8.2-11.5c0-6.8,5.5-12.2,12.2-12.2
				c6.7,0,12.2,5.4,12.2,12.2c0,5.3-3.4,9.8-8.1,11.5v68l28.8-28.8c-2.2-4.5-1.4-10.1,2.3-13.9c4.8-4.8,12.5-4.8,17.2,0
				c4.8,4.8,4.8,12.5,0,17.3c-3.7,3.7-9.3,4.5-13.8,2.3l-34.6,34.6v46.8l12.7-12.7c4.9-4.9,7.5-11.3,7.5-18.1c0-2.2,1.8-4.1,4.1-4.1
				c2.2,0,4.1,1.8,4.1,4.1c0,9-3.5,17.5-9.9,23.9l-18.4,18.4v30.3h0v39c0,0.6,0.5,1.1,1.1,1.1h5.9c0.6,0,1.1-0.5,1.1-1.1v-35.6
				C281.4,468.2,328.6,409.5,315.7,334.4z M214.9,343.3c-0.8,0.8-1.8,1.2-2.9,1.2c-1,0-2.1-0.4-2.8-1.2l-4.1-4.1
				c-1.6-1.5-1.6-4.1,0-5.7c1.6-1.6,4.1-1.6,5.7,0l4.1,4.1C216.5,339.2,216.5,341.8,214.9,343.3z M278.4,404.4
				c0,2.2-1.8,4.1-4.1,4.1c-2.2,0-4.1-1.8-4.1-4.1v-6.9c0-2.2,1.8-4.1,4.1-4.1c2.2,0,4.1,1.8,4.1,4.1V404.4z"/>
		</g>
	</g>
</g>
<g id="Layer_2" class="st0">
	<g id="color" class="st1">
		<g>
			<circle class="st9" cx="71.6" cy="71.6" r="31.6"/>
			<circle class="st10" cx="71.6" cy="160.9" r="31.6"/>
			<circle class="st6" cx="71.6" cy="250.2" r="31.6"/>
			<circle class="st7" cx="71.6" cy="339.4" r="31.6"/>
		</g>
	</g>
</g>
</svg>
