<?xml version="1.0" encoding="utf-8"?>
<!-- Generator: Adobe Illustrator 22.1.0, SVG Export Plug-In . SVG Version: 6.00 Build 0)  -->
<svg version="1.1" id="Layer_1" xmlns="http://www.w3.org/2000/svg" xmlns:xlink="http://www.w3.org/1999/xlink" x="0px" y="0px"
	 viewBox="0 0 32 32" style="enable-background:new 0 0 32 32;" xml:space="preserve">
<style type="text/css">
	.st0{display:none;}
	.st1{display:inline;}
	.st2{fill:#4EB682;}
	.st3{fill:none;stroke:#FFFFFF;stroke-width:0.5;stroke-miterlimit:10;}
</style>
<g id="input-data" class="st0">
	<g class="st1">
		<g>
			<polygon points="32,29.1 11.5,29.1 11.5,21.3 14,21.3 14,26.6 29.5,26.6 29.5,5.4 14,5.4 14,10.7 11.5,10.7 11.5,2.9 32,2.9 			
				"/>
		</g>
		<g>
			<g>
				<g>
					<polygon points="16.6,22.8 16.6,18.3 0,18.3 0,13.7 16.6,13.7 16.6,9.2 28.4,16 					"/>
				</g>
			</g>
		</g>
	</g>
</g>
<g id="Layer_7">
	<g>
		<path class="st2" d="M13.5,16.5c0.2,0,0.3,0,0.5,0c0.2,0,0.5,0,0.7,0c0.2,0,0.5,0,0.7,0c0.2,0,0.4,0,0.5,0s0.1,0,0.2,0
			c6-0.2,10.5-1.6,11.9-3v-5c-2.6,1.8-8.1,2.7-13.4,2.7S4,10.1,1.4,8.3v5c1.4,1.5,5.9,2.8,11.9,3C13.4,16.5,13.5,16.5,13.5,16.5
			L13.5,16.5z"/>
		<path class="st2" d="M28.2,6.4V5.2c0-0.1,0-0.2-0.1-0.2c-0.6-2.3-5.2-4.6-13.3-4.6C6.7,0.4,2.1,2.6,1.5,4.9c0,0.1-0.1,0.2-0.1,0.3
			v1.2C2.9,8,8,9.5,14.8,9.5C21.6,9.5,26.7,8,28.2,6.4L28.2,6.4z"/>
		<path class="st2" d="M15.4,23.5c0.3-2.2,1.4-4.1,3.1-5.5c-0.7,0.1-1.5,0.1-2.3,0.1c-0.5,0-0.9,0-1.4,0s-0.9,0-1.4,0
			c-3.9-0.1-7.1-0.7-9.3-1.5c-1.1-0.4-2-0.8-2.7-1.3v5c1.5,1.6,6.6,3.1,13.4,3.1C15,23.5,15.2,23.5,15.4,23.5L15.4,23.5z"/>
		<path class="st2" d="M15.3,25.1c-0.2,0-0.4,0-0.6,0c-6.6,0-11.2-1.2-13.4-2.8v4.4c0,0.1,0,0.2,0.1,0.2c0.6,2.6,6.3,4.6,13.3,4.6
			c1.3,0,2.6-0.1,3.9-0.2C16.8,30,15.5,27.6,15.3,25.1L15.3,25.1z"/>
	</g>
	<g>
		<g>
			<g>
				<g>
					<path class="st2" d="M17.9,26.7c-0.2,0-0.4-0.1-0.4-0.3c-0.2-0.6-0.3-1.3-0.3-1.9c0-3.7,3-6.8,6.8-6.8c1.6,0,3.2,0.6,4.3,1.6
						c0.2,0.2,0.2,0.5,0,0.6c-0.2,0.2-0.5,0.2-0.6,0c-0.9-0.9-2.4-1.4-3.7-1.4c-3.2,0-5.8,2.6-5.8,5.8c0,0.5,0.1,1.1,0.3,1.7
						c0.1,0.2,0,0.5-0.3,0.6C18,26.7,18,26.7,17.9,26.7z"/>
				</g>
				<g>
					<polygon class="st2" points="26.6,20.3 29.2,21 28.6,18.4 					"/>
				</g>
			</g>
		</g>
		<g>
			<g>
				<g>
					<path class="st2" d="M23.9,31.1c-1.6,0-3.2-0.6-4.3-1.6c-0.2-0.2-0.2-0.5,0-0.6c0.2-0.2,0.5-0.2,0.6,0c0.9,0.9,2.4,1.4,3.7,1.4
						c3.2,0,5.8-2.6,5.8-5.8c0-0.5-0.1-1.1-0.3-1.7c-0.1-0.2,0-0.5,0.3-0.6c0.2-0.1,0.5,0,0.6,0.3c0.2,0.6,0.3,1.3,0.3,1.9
						C30.7,28.1,27.6,31.1,23.9,31.1z"/>
				</g>
				<g>
					<polygon class="st2" points="21.2,28.5 18.6,27.8 19.2,30.4 					"/>
				</g>
			</g>
		</g>
	</g>
</g>
<g id="Layer_8" class="st0">
	<g class="st1">
		<path d="M18.3,17.4c0.9,0,1.7,0.7,1.7,1.7c0,0.9-0.7,1.7-1.7,1.7c-0.9,0-1.7-0.7-1.7-1.7C16.7,18.2,17.4,17.4,18.3,17.4L18.3,17.4
			z M13.6,16.6c-0.9,0-1.6,0.7-1.6,1.6s0.7,1.6,1.6,1.6c0.9,0,1.6-0.7,1.6-1.6C15.2,17.3,14.5,16.6,13.6,16.6L13.6,16.6z M18.1,15.3
			c0-0.7-0.5-1.2-1.2-1.2s-1.2,0.5-1.2,1.2s0.5,1.2,1.2,1.2C17.6,16.5,18.1,16,18.1,15.3L18.1,15.3z M27.4,32H4.5
			c-3.2,0-4.3-2.7-3.3-5.7c0,0,4-7.4,10.4-18V2.1h-0.4c-0.6,0-1.1-0.5-1.1-1c0-0.6,0.5-1.1,1.1-1.1h9.5c0.6,0,1.1,0.5,1.1,1.1
			s-0.5,1-1.1,1h-0.4v6.2c6.5,10.6,10.4,18,10.4,18C31.8,29.2,30.7,32,27.4,32L27.4,32z M25.7,21.9c-1.1-1.9-5.8-10-7.3-12.5L18.1,9
			h-4.4l-0.3,0.4c-1.6,2.7-6.6,11.4-7.3,12.5H25.7z"/>
	</g>
</g>
<g id="preprocess" class="st0">
	<g class="st1">
		<g>
			<rect x="0.9" y="0" width="30.2" height="4.4"/>
			<rect x="0.9" y="0" width="30.2" height="4.4"/>
			<polygon points="31.1,6.2 31.1,6.3 26.2,10.5 19.1,16.7 19.1,28.8 12.9,32 12.9,16.7 5.8,10.5 0.9,6.3 0.9,6.2 			"/>
		</g>
	</g>
</g>
<g id="modeling" class="st0">
	<g class="st1">
		<polygon points="31,0 31,4.4 5.3,4.4 5.3,32 1,32 1,0 		"/>
	</g>
	<g class="st1">
		<line class="st3" x1="5.3" y1="28.5" x2="3" y2="28.5"/>
		<line class="st3" x1="5.3" y1="25.1" x2="3" y2="25.1"/>
		<line class="st3" x1="5.3" y1="21.6" x2="3" y2="21.6"/>
		<line class="st3" x1="5.3" y1="18.2" x2="3" y2="18.2"/>
		<line class="st3" x1="5.3" y1="14.7" x2="3" y2="14.7"/>
		<line class="st3" x1="5.3" y1="11.3" x2="3" y2="11.3"/>
		<line class="st3" x1="5.3" y1="7.8" x2="3" y2="7.8"/>
	</g>
	<g class="st1">
		<line class="st3" x1="27.8" y1="2" x2="27.8" y2="4.4"/>
		<line class="st3" x1="24.6" y1="2" x2="24.6" y2="4.4"/>
		<line class="st3" x1="21.4" y1="2" x2="21.4" y2="4.4"/>
		<line class="st3" x1="18.2" y1="2" x2="18.2" y2="4.4"/>
		<line class="st3" x1="15" y1="2" x2="15" y2="4.4"/>
		<line class="st3" x1="11.8" y1="2" x2="11.8" y2="4.4"/>
		<line class="st3" x1="8.6" y1="2" x2="8.6" y2="4.4"/>
	</g>
	<g class="st1">
		<polygon points="30,12.8 20.6,17.8 11.1,12.8 20.6,7.8 		"/>
		<polygon points="19.7,19.4 19.7,32 10.1,26.9 10.1,14.3 		"/>
		<polygon points="31,14.3 31,26.9 21.5,32 21.5,19.4 		"/>
	</g>
</g>
<g id="visualization" class="st0">
	<g class="st1">
		<path d="M31.7,15c0.4,0.6,0.4,1.4,0,1.9c-2,2.8-8.3,10.6-15.7,10.6S2.3,19.7,0.3,17c-0.4-0.6-0.4-1.4,0-1.9
			C2.3,12.3,8.6,4.5,16,4.5S29.7,12.3,31.7,15z M16,7.5c-4.7,0-8.5,3.8-8.5,8.5s3.8,8.5,8.5,8.5s8.5-3.8,8.5-8.5S20.7,7.5,16,7.5z"
			/>
	</g>
	<circle class="st1" cx="16" cy="16" r="4.5"/>
</g>
<g id="api-management" class="st0">
	<g class="st1">
		<path d="M25.4,16c0,5.2-4.2,9.4-9.4,9.4S6.6,21.2,6.6,16s4.2-9.4,9.4-9.4S25.4,10.8,25.4,16z M14.4,0L14,2.7
			c-1.4,0.4-1.5,0.4-2.9,0.8L9.4,1.3C7.8,2.3,8.2,2,6.6,2.9l1,2.6c-1,1-1.1,1.1-2.1,2.1l-2.6-1C2,8.2,2.3,7.8,1.3,9.4l2.1,1.7
			C3,12.5,3,12.6,2.6,14L0,14.4c0,1.8,0,1.4,0,3.2L2.7,18c0.4,1.4,0.4,1.5,0.8,2.9l-2.1,1.7c0.9,1.6,0.7,1.2,1.6,2.8l2.6-1
			c1,1,1.1,1.1,2.1,2.1l-1,2.6c1.6,0.9,1.2,0.7,2.8,1.6l1.7-2.1c1.4,0.4,1.5,0.4,2.9,0.8l0.4,2.7c1.8,0,1.4,0,3.2,0l0.4-2.7
			c1.4-0.4,1.5-0.4,2.9-0.8l1.7,2.1c1.6-0.9,1.2-0.7,2.8-1.6l-1-2.6c1-1,1.1-1.1,2.1-2.1l2.6,1c0.9-1.6,0.7-1.2,1.6-2.8l-2.1-1.7
			c0.4-1.4,0.4-1.5,0.8-2.9l2.7-0.4c0-1.8,0-1.4,0-3.2L29.3,14c-0.4-1.4-0.4-1.5-0.8-2.9l2.1-1.7c-0.9-1.6-0.7-1.2-1.6-2.8l-2.6,1
			c-1-1-1.1-1.1-2.1-2.1l1-2.6c-1.6-0.9-1.2-0.7-2.8-1.6l-1.7,2.1C19.4,3,19.3,3,17.9,2.6L17.6,0C15.8,0,16.2,0,14.4,0z"/>
	</g>
	<g class="st1">
		<path d="M13.5,17.9h-2.2L10.9,19H9.4l2.2-5.9h1.7l2.2,5.9H14L13.5,17.9z M13.1,16.8l-0.7-2.2l-0.7,2.2H13.1z"/>
		<path d="M17.4,16.9V19H16v-6h2.3c0.7,0,1.2,0.2,1.6,0.5c0.4,0.4,0.6,0.8,0.6,1.4c0,0.4-0.1,0.7-0.2,1c-0.2,0.3-0.4,0.5-0.7,0.7
			c-0.3,0.2-0.7,0.2-1.2,0.2L17.4,16.9L17.4,16.9z M19,15c0-0.5-0.3-0.8-0.9-0.8h-0.7v1.5h0.7C18.7,15.7,19,15.5,19,15z"/>
		<path d="M22.6,13v6h-1.4v-6H22.6z"/>
	</g>
</g>
<g id="api-alt" class="st0">
	<g class="st1">
		<path d="M12,0v1.4H4.5v28.2h2V3.5H12V32l15.5-2.4V2.4L12,0z M14.5,17.1c-0.5,0-0.8-0.5-0.8-1.1s0.4-1.1,0.8-1.1s0.8,0.5,0.8,1.1
			S14.9,17.1,14.5,17.1L14.5,17.1z"/>
	</g>
</g>
</svg>
