<?xml version="1.0" encoding="utf-8"?>
<!-- Generator: Adobe Illustrator 22.1.0, SVG Export Plug-In . SVG Version: 6.00 Build 0)  -->
<svg version="1.1" id="Layer_1" xmlns="http://www.w3.org/2000/svg" xmlns:xlink="http://www.w3.org/1999/xlink" x="0px" y="0px"
	 viewBox="0 0 36 36" style="enable-background:new 0 0 36 36;" xml:space="preserve">
<style type="text/css">
	.st0{fill:#044661;}
	.st1{fill:#FFFFFF;}
</style>
<g>
	<path class="st0" d="M30.4,12.4c0,5.1-6.9,16.8-10.4,22.5c-0.9,1.5-3.1,1.5-4,0C12.5,29.2,5.6,17.5,5.6,12.4C5.6,5.5,11.2,0,18,0
		S30.4,5.5,30.4,12.4z"/>
</g>
<g>
	<path class="st1" d="M18.5,4.5c-0.3-0.3-0.7-0.3-1,0c-2,1.9-8.9,9.7,0,18.7c0.1,0.1,0.1,0.1,0.2,0.1v-4L16,17.7
		c-0.3,0.2-0.7,0.1-0.9-0.2c-0.3-0.3-0.3-0.9,0-1.2c0.3-0.3,0.9-0.3,1.2,0c0.3,0.3,0.3,0.6,0.2,0.9l1.3,1.3V15l-1.7-1.7
		c-0.1-0.1-0.1-0.3,0-0.4c0.1-0.1,0.3-0.1,0.4,0l1.3,1.3v-3c-0.3-0.1-0.6-0.4-0.6-0.8c0-0.5,0.4-0.8,0.8-0.8c0.5,0,0.8,0.4,0.8,0.8
		c0,0.4-0.2,0.7-0.6,0.8v4.7l2-2c-0.1-0.3-0.1-0.7,0.2-0.9c0.3-0.3,0.9-0.3,1.2,0c0.3,0.3,0.3,0.9,0,1.2c-0.3,0.3-0.6,0.3-0.9,0.2
		l-2.4,2.4v3.2l0.9-0.9c0.3-0.3,0.5-0.8,0.5-1.2c0-0.2,0.1-0.3,0.3-0.3c0.2,0,0.3,0.1,0.3,0.3c0,0.6-0.2,1.2-0.7,1.6l-1.3,1.3v4.7
		c0,0.1,0.1,0.2,0.2,0.2h0.2c0.1,0,0.2-0.1,0.2-0.2v-2.4C21.1,20.5,27,13.1,18.5,4.5z M15.9,12.7c-0.1,0.1-0.1,0.1-0.2,0.1
		c-0.1,0-0.1,0-0.2-0.1l-0.3-0.3c-0.1-0.1-0.1-0.3,0-0.4c0.1-0.1,0.3-0.1,0.4,0l0.3,0.3C16,12.4,16,12.6,15.9,12.7z M20.2,16.9
		c0,0.2-0.1,0.3-0.3,0.3c-0.2,0-0.3-0.1-0.3-0.3v-0.5c0-0.2,0.1-0.3,0.3-0.3c0.2,0,0.3,0.1,0.3,0.3V16.9z"/>
</g>
</svg>
