<?xml version="1.0" encoding="utf-8"?>
<!-- Generator: Adobe Illustrator 22.1.0, SVG Export Plug-In . SVG Version: 6.00 Build 0)  -->
<svg version="1.1" id="Layer_1" xmlns="http://www.w3.org/2000/svg" xmlns:xlink="http://www.w3.org/1999/xlink" x="0px" y="0px"
	 viewBox="0 0 256 86" style="enable-background:new 0 0 256 86;" xml:space="preserve">
<style type="text/css">
	.st0{fill:#FFFFFF;}
</style>
<g>
	<path class="st0" d="M11,22.8h7.3l1,4.7h0.2c1.3-2,2.7-3.4,4.2-4.3c1.6-0.9,3.5-1.4,5.8-1.4c4.2,0,7.3,1.6,9.4,4.7
		c2.1,3.2,3.2,8.4,3.2,15.8c0,7.4-1.3,13-4,16.9c-2.6,3.9-6.5,5.9-11.5,5.9c-1.3,0-2.4-0.1-3.4-0.3c-0.9-0.2-1.8-0.6-2.6-1.1v16.7
		H11V22.8z M20.8,54.8c0.5,0.6,1.2,1,1.9,1.2c0.7,0.3,1.6,0.4,2.7,0.4c2.2,0,3.9-1.1,5-3.3c1.2-2.2,1.7-5.9,1.7-11.1
		c0-3.9-0.4-6.8-1.3-8.7c-0.9-1.9-2.3-2.8-4.4-2.8c-2.7,0-4.6,1.6-5.6,4.9V54.8z"/>
	<path class="st0" d="M47.5,11.2c0-1.6,0.5-3,1.6-4.1c1-1.1,2.5-1.6,4.5-1.6c1.9,0,3.5,0.5,4.6,1.6c1.2,1,1.7,2.4,1.7,4.1
		c0,1.7-0.6,3-1.7,4c-1.2,1-2.7,1.5-4.6,1.5c-1.9,0-3.4-0.5-4.5-1.5C48,14.2,47.5,12.8,47.5,11.2z M48.7,22.8h9.8V64h-9.8V22.8z"/>
	<path class="st0" d="M86.8,64V39c0-3-0.4-5.1-1.1-6.3c-0.7-1.2-1.9-1.8-3.6-1.8c-1.4,0-2.7,0.4-3.7,1.3c-1,0.9-1.8,2-2.2,3.3V64
		h-9.8V22.8h7.8l1.2,4.8h0.2c1-1.6,2.3-3,4-4.1c1.7-1.1,3.9-1.7,6.7-1.7c1.6,0,3.1,0.2,4.4,0.7c1.3,0.5,2.4,1.3,3.3,2.4
		c0.9,1.1,1.5,2.6,2,4.5c0.4,1.9,0.7,4.2,0.7,7V64H86.8z"/>
	<path class="st0" d="M100.2,22.8h4.5v-7.7l9.8-3v10.8h8v8.7h-8v18c0,2.4,0.2,4,0.7,5c0.5,1,1.3,1.5,2.5,1.5c0.8,0,1.6-0.1,2.2-0.2
		c0.7-0.2,1.4-0.4,2.1-0.7l1.2,7.8c-1.2,0.6-2.6,1.1-4.2,1.5c-1.6,0.4-3.3,0.6-5,0.6c-3.1,0-5.5-0.9-7-2.7c-1.6-1.8-2.3-4.9-2.3-9.1
		V31.5h-4.5V22.8z"/>
	<path class="st0" d="M127.5,25.3c1.6-1,3.7-1.8,6.2-2.4c2.5-0.6,5.3-0.9,8.4-0.9c4.7,0,7.9,1.2,9.8,3.6c1.8,2.4,2.8,5.9,2.8,10.3
		c0,2.6-0.1,5.1-0.2,7.6c-0.1,2.5-0.2,4.9-0.3,7.3c-0.1,2.4,0,4.7,0.1,6.9c0.1,2.2,0.5,4.3,1.1,6.3h-8l-1.6-5h-0.3
		c-0.9,1.6-2.1,2.9-3.7,4c-1.6,1-3.6,1.6-6,1.6c-3.2,0-5.8-1.1-7.7-3.3c-1.9-2.2-2.8-5.1-2.8-8.7c0-4.9,1.8-8.5,5.3-10.6
		c3.5-2.1,8.3-3,14.3-2.6c0.3-3.2,0.1-5.5-0.6-6.9c-0.7-1.4-2.2-2.1-4.4-2.1c-1.6,0-3.4,0.2-5.1,0.6c-1.8,0.4-3.3,0.9-4.7,1.6
		L127.5,25.3z M139.3,56.2c1.5,0,2.7-0.4,3.6-1.1c0.9-0.7,1.6-1.6,2.1-2.4v-6.8c-1.3-0.2-2.5-0.2-3.6-0.1c-1.2,0.1-2.2,0.4-3,0.7
		c-0.9,0.4-1.6,0.9-2.1,1.7c-0.5,0.7-0.8,1.7-0.8,2.8c0,1.7,0.3,3,1,3.9C137.1,55.7,138,56.2,139.3,56.2z"/>
	<path class="st0" d="M180.9,32.5c-1.3-0.5-2.5-0.7-3.6-0.7c-1.5,0-2.8,0.4-3.8,1.2c-1.1,0.8-1.8,2-2.2,3.5V64h-9.8V22.8h7.5
		l1.2,4.9h0.3c0.7-1.8,1.7-3.2,3.1-4.2c1.3-1,2.9-1.5,4.7-1.5c1.3,0,2.6,0.3,3.9,0.8L180.9,32.5z"/>
	<path class="st0" d="M180.7,58.7c0-2,0.5-3.6,1.6-4.6c1.1-1,2.5-1.6,4.2-1.6c1.9,0,3.4,0.5,4.5,1.6c1,1,1.6,2.6,1.6,4.6
		c0,2-0.5,3.5-1.6,4.6c-1.1,1.1-2.5,1.6-4.4,1.6c-1.8,0-3.2-0.6-4.3-1.6C181.2,62.2,180.7,60.6,180.7,58.7z"/>
	<path class="st0" d="M199,25.3c1.6-1,3.7-1.8,6.2-2.4c2.5-0.6,5.3-0.9,8.4-0.9c4.7,0,7.9,1.2,9.8,3.6c1.8,2.4,2.8,5.9,2.8,10.3
		c0,2.6-0.1,5.1-0.2,7.6c-0.1,2.5-0.2,4.9-0.3,7.3c-0.1,2.4,0,4.7,0.1,6.9c0.1,2.2,0.5,4.3,1.1,6.3h-8l-1.6-5H217
		c-0.9,1.6-2.1,2.9-3.7,4c-1.6,1-3.6,1.6-6,1.6c-3.2,0-5.8-1.1-7.7-3.3c-1.9-2.2-2.8-5.1-2.8-8.7c0-4.9,1.8-8.5,5.3-10.6
		c3.5-2.1,8.3-3,14.3-2.6c0.3-3.2,0.1-5.5-0.6-6.9c-0.7-1.4-2.2-2.1-4.4-2.1c-1.6,0-3.4,0.2-5.1,0.6c-1.8,0.4-3.3,0.9-4.7,1.6
		L199,25.3z M210.8,56.2c1.5,0,2.7-0.4,3.6-1.1c0.9-0.7,1.6-1.6,2.1-2.4v-6.8c-1.3-0.2-2.5-0.2-3.6-0.1c-1.2,0.1-2.2,0.4-3,0.7
		c-0.9,0.4-1.6,0.9-2.1,1.7c-0.5,0.7-0.8,1.7-0.8,2.8c0,1.7,0.3,3,1,3.9C208.6,55.7,209.6,56.2,210.8,56.2z"/>
	<path class="st0" d="M232.6,11.2c0-1.6,0.5-3,1.6-4.1c1-1.1,2.5-1.6,4.5-1.6c1.9,0,3.5,0.5,4.6,1.6c1.2,1,1.7,2.4,1.7,4.1
		c0,1.7-0.6,3-1.7,4c-1.2,1-2.7,1.5-4.6,1.5c-1.9,0-3.4-0.5-4.5-1.5C233.2,14.2,232.6,12.8,232.6,11.2z M233.8,22.8h9.8V64h-9.8
		V22.8z"/>
</g>
</svg>
