<?xml version="1.0" encoding="utf-8"?>
<!-- Generator: Adobe Illustrator 22.1.0, SVG Export Plug-In . SVG Version: 6.00 Build 0)  -->
<svg version="1.1" id="Layer_1" xmlns="http://www.w3.org/2000/svg" xmlns:xlink="http://www.w3.org/1999/xlink" x="0px" y="0px"
	 viewBox="0 0 1366 768" style="enable-background:new 0 0 1366 768;" xml:space="preserve">
<style type="text/css">
	.st0{display:none;}
	.st1{display:inline;}
	.st2{fill:#19ACA5;}
	.st3{fill:#1D5870;}
	.st4{fill:#FFFFFF;}
	.st5{fill:#71C598;}
	.st6{fill:#133A5F;}
	.st7{fill:#FEE56D;}
	.st8{display:inline;fill:#19ACA5;}
</style>
<g id="holo" class="st0">
	<g class="st1">
		<path class="st2" d="M1042.1,484.1c-3.9,7-8.3,13.7-13.1,20c-2,2.6-4,5.2-6.1,7.8c-2.4,2.9-4.8,5.7-7.4,8.5
			c-1.1,1.2-2.1,2.3-3.2,3.5c-11.7,12.3-24.7,23.3-38.4,33.3c-7.6,5.6-15.5,10.9-23.5,15.9c-5,3.2-10.1,6.2-15.2,9.2
			c-1.5,0.9-3,1.7-4.5,2.6c-1.8,1-3.7,2.1-5.5,3.1c-1.7,0.9-3.4,1.9-5.2,2.8c-2.2,1.2-4.4,2.3-6.5,3.4c-1.7,0.9-3.4,1.7-5,2.5
			s-3.3,1.6-5,2.4c-0.4,0.2-0.9,0.4-1.3,0.6c-1.6,0.8-3.2,1.5-4.8,2.3c-0.1,0-0.2,0.1-0.3,0.1c-1.5,0.7-3.1,1.4-4.7,2.1
			c-0.4,0.2-0.9,0.4-1.3,0.6c-1.3,0.6-2.5,1.1-3.8,1.7c-0.8,0.4-1.6,0.7-2.4,1c-1,0.5-2.1,0.9-3.1,1.3c-0.1,0-0.3,0.1-0.4,0.2
			c-1.6,0.7-3.3,1.4-5,2c-1.7,0.7-3.3,1.3-5,2c-0.3,0.1-0.6,0.2-0.9,0.3c-1.4,0.5-2.8,1.1-4.2,1.6c-0.5,0.2-1,0.4-1.6,0.6
			c-1.3,0.5-2.7,1-4.1,1.5c-0.4,0.1-0.7,0.3-1.1,0.4c-1.5,0.5-3,1.1-4.5,1.6c-1.6,0.6-3.3,1.2-4.9,1.7c-1.2,0.4-2.3,0.8-3.5,1.2
			c-2.7,0.9-5.5,1.8-8.2,2.7c-5.8,1.8-11.5,3.5-17.4,5.1c-1.1,0.3-2.1,0.6-3.2,0.9c-1.3,0.3-2.6,0.7-3.9,1c-1.5,0.4-3.1,0.8-4.6,1.2
			c-0.8,0.2-1.6,0.4-2.4,0.6c-1.2,0.3-2.4,0.6-3.7,0.9c-0.8,0.2-1.6,0.4-2.5,0.6c-1.5,0.3-3,0.7-4.4,1c-0.3,0.1-0.5,0.1-0.8,0.2
			c-2.1,0.5-4.1,0.9-6.2,1.3c-4.9,1-9.8,2-14.8,2.9c-0.8,0.1-1.7,0.3-2.5,0.4c-1.4,0.2-2.8,0.5-4.2,0.7c-2.4,0.4-4.8,0.8-7.2,1.1
			c-1.2,0.2-2.4,0.4-3.6,0.5c-1.3,0.2-2.7,0.4-4,0.6c-1.1,0.2-2.1,0.3-3.2,0.4c-1.2,0.2-2.4,0.3-3.6,0.5c-1.1,0.1-2.2,0.3-3.3,0.4
			c-0.2,0-0.3,0-0.5,0.1c-1.1,0.1-2.2,0.3-3.4,0.4c-1.2,0.1-2.4,0.3-3.6,0.4c-2.3,0.2-4.5,0.5-6.8,0.7c-1.4,0.1-2.7,0.3-4.1,0.4
			C671,651.4,616.7,648,564,637c-0.3-0.1-0.7-0.1-1-0.2c-8.2-1.7-16.4-3.6-24.6-5.7c-0.7-0.2-1.3-0.3-2-0.5c-0.5-0.1-1-0.3-1.6-0.4
			c-23.6-6.2-46.7-14-69.2-23.3c-6.6-2.7-13.1-5.6-19.5-8.5c-12.4-5.8-24.6-12.1-36.3-19.2c-1.3-0.8-2.6-1.6-3.9-2.4
			c-1.1-0.7-2.2-1.4-3.2-2c-0.5-0.3-0.9-0.6-1.4-0.9c-0.9-0.6-1.8-1.2-2.7-1.8c-0.2-0.1-0.4-0.3-0.6-0.4c-1.1-0.7-2.2-1.5-3.3-2.2
			c-1-0.7-2-1.4-2.9-2.1c-0.6-0.5-1.3-0.9-1.9-1.4c-1.1-0.8-2.2-1.6-3.3-2.4c-0.8-0.6-1.6-1.2-2.4-1.8c-0.4-0.3-0.8-0.6-1.2-0.9
			c-1-0.8-2-1.5-2.9-2.3c-1-0.8-2-1.6-3-2.5c-0.2-0.2-0.5-0.4-0.7-0.6c-1-0.9-2.1-1.7-3.1-2.6l-0.1-0.1c-1.1-0.9-2.1-1.8-3.2-2.8
			c-0.1-0.1-0.3-0.3-0.4-0.4c-1-0.9-2-1.9-3-2.8l-0.1-0.1c-1-1-2.1-2-3.1-3c-0.1-0.1-0.2-0.2-0.4-0.3c-1-1-2-2-3-3l-0.1-0.1
			c-1-1-1.9-2-2.8-2.9c-1.1-1.2-2.2-2.4-3.3-3.6c-0.5-0.6-1-1.1-1.5-1.7c-12.6-14.3-22.9-30.6-30.8-47.9
			c-11.1-24.3-17.3-50.9-18.5-77.6c-1.2-28.6,3.4-57.3,14.3-83.8c10.7-26.1,28.6-51.1,55.1-60.9c13-4.8,26.9-5.5,41-5.6
			c5.8,0,11.6,0,17.3-0.1c4.2,0,8.4-0.2,12.5-0.4c0.6,0,1.3-0.1,1.9-0.1c0.3,0,0.6,0,0.9-0.1c4.9-0.4,9.7-1.1,14.4-2.2
			c5.2-1.2,10.4-2.9,15.3-5.4c0.1,0,0.1-0.1,0.2-0.1c1-0.5,1.9-1,2.8-1.5c5.2-2.9,9.8-6.5,14-10.6c1.9-1.8,3.7-3.7,5.4-5.7
			c5.4-6.1,10-13,14.4-20.2c5.1-8.4,9.9-17.2,14.8-25.5c0.1-0.2,0.3-0.4,0.4-0.7c2.2-3.7,4.5-7.2,7.1-10.6c1.1-1.5,2.2-2.9,3.4-4.3
			c8.3-9.9,18.3-18.2,29.3-24.5c18.1-10.4,39.1-15.5,60.6-14.4l0,0c3.4,0.2,6.8,0.5,10.2,1c7.6,1.1,15.1,2.3,22.7,3.5
			c3.6,0.6,7.1,1.2,10.7,1.8c11.1,1.9,22.1,3.8,33.2,6c3.6,0.7,7.1,1.4,10.7,2.1c0.1,0,0.2,0,0.3,0.1c11,2.2,22,4.6,32.9,7.1
			c22.1,5.1,44.1,10.8,65.8,17.4c1,0.3,2.1,0.6,3.1,1c20.5,6.3,40.8,13.3,60.6,21.6c0.2,0.1,0.4,0.2,0.6,0.3
			c0.9,0.4,1.7,0.7,2.6,1.1c3.5,1.5,7,3,10.5,4.6c6,2.7,11.9,5.6,17.7,8.5c7,3.6,14,7.4,20.8,11.4c11.3,6.7,22.2,14,32.7,21.9
			c2.7,2.1,5.4,4.2,8,6.3c19.7,16.1,37.2,34.9,51.8,55.7c1,1.4,2,2.8,2.9,4.3c1,1.5,2,3,3,4.5c0.8,1.2,1.6,2.4,2.3,3.7
			c3.6,5.8,7,11.7,10.2,17.8c12.2,23.4,20.8,49.1,21.4,75.5C1063.6,433.7,1055.5,460.4,1042.1,484.1z"/>
		<path class="st3" d="M935.2,582.2c-1.5,0.9-3,1.7-4.5,2.6c-29.3,16.5-60.3,29.7-92.3,39.8c-36.8,11.6-75.1,18.9-113.7,22.2
			c-53.5,4.5-107.8,1.1-160.5-9.9c-0.3-0.1-0.7-0.1-1-0.2c-8.2-1.7-16.4-3.6-24.6-5.7c-0.7-0.2-1.3-0.3-2-0.5
			c-0.5-0.1-1-0.3-1.6-0.4c-23.6-6.2-46.7-14-69.2-23.3c-6.6-2.7-13.1-5.6-19.5-8.5c-12.4-5.8-24.6-12.1-36.3-19.2
			c-6.8-4.1-13.5-8.5-19.9-13.2c-13.1-9.5-25.3-20.1-36.1-32.2c-0.5-0.6-1-1.1-1.5-1.7c-12.6-14.3-22.9-30.6-30.8-47.9
			c-11.1-24.3-17.3-50.9-18.5-77.6l101.6,28.3l48.3,13.4l7.1,2l0.5,0.2l54,15l2,0.5l17,4.7l9,2.5L935.2,582.2z"/>
		<g>
			<polygon class="st3" points="803.4,475.4 619.5,414.6 626.5,270.6 827.4,236.4 			"/>
			<polygon class="st4" points="635.5,335.6 656.4,334.9 655.5,344.6 634.5,343.6 			"/>
			<polygon class="st5" points="712.2,333.3 711,347.3 675.5,345.6 676.5,334.3 			"/>
			<polygon class="st4" points="801.5,330.6 798.5,351.6 738.3,348.6 739.7,332.4 			"/>
			<polygon class="st4" points="748,441.4 682.5,422.6 688.5,385.6 752.5,395.6 			"/>
			<polygon class="st5" points="805.5,289.6 667.5,301.6 669.5,277.6 809.5,253.6 			"/>
			<polygon class="st4" points="800.5,285.6 673.1,298.1 673.5,280.6 804.1,258.5 			"/>
			
				<ellipse transform="matrix(0.1683 -0.9857 0.9857 0.1683 248.0923 878.2092)" class="st5" cx="644.5" cy="292.1" rx="13.5" ry="9"/>
			
				<ellipse transform="matrix(0.1683 -0.9857 0.9857 0.1683 225.0532 1116.2068)" class="st5" cx="774" cy="424.7" rx="24.3" ry="16.2"/>
		</g>
		<g>
			<path class="st3" d="M622.9,192.6v21.3c0,0.9,0.7,1.6,1.6,1.6h267.8c0.9,0,1.6-0.7,1.6-1.6v-11c-0.2-6.3-5.2-11.6-11.6-11.9
				H624.5C623.6,191,622.9,191.8,622.9,192.6z"/>
			<g>
				<path class="st6" d="M881.7,191v58.2h8.6c1.2,0,2.5,0.1,3.6,0.3v-46.3c0-0.1,0-0.2,0-0.3c-0.2-6.3-5.2-11.6-11.6-11.9
					C882.1,191,881.9,191,881.7,191z"/>
				<path class="st3" d="M869.4,203.3v46.3c1.2-0.2,2.4-0.3,3.6-0.3h8.6V191C874.9,191,869.4,196.6,869.4,203.3z"/>
			</g>
			<g>
				<path class="st3" d="M881.7,249.2v245.2h32.7V273.3c0-12.1-8.8-22.1-20.5-23.8c-1.2-0.2-2.4-0.3-3.6-0.3L881.7,249.2
					L881.7,249.2z"/>
				<path class="st5" d="M849,273.3v221.2h32.7V249.2H873c-1.2,0-2.5,0.1-3.6,0.3C857.8,251.2,849,261.2,849,273.3z"/>
			</g>
			<g>
				<path class="st5" d="M973.9,518.5v38.7c-7.6,5.6-15.5,10.9-23.5,15.9c-5,3.2-10.1,6.2-15.2,9.2c-1.5,0.9-3,1.7-4.5,2.6
					c-15.9,8.9-32.2,16.9-49,23.9V494.5h68.2C963.2,494.5,973.9,505.3,973.9,518.5z"/>
				<path class="st4" d="M881.7,494.5v114.3c-14.2,6-28.6,11.2-43.3,15.8c-16.1,5.1-32.5,9.3-49,12.8V518.5c0-13.2,10.8-24,24-24
					H881.7z"/>
			</g>
			<g>
				<path class="st6" d="M841.3,412.7c0,2.8,2.3,5.1,5.1,5.1H917c2.8,0,5.1-2.3,5.1-5.1c0-2.8-2.3-5.1-5.1-5.1h-70.6
					C843.6,407.7,841.3,409.9,841.3,412.7z"/>
				<path class="st3" d="M841.3,412.7c0,2.8,2.3,5.1,5.1,5.1h35.3v-10.2h-35.3C843.6,407.7,841.3,409.9,841.3,412.7z"/>
			</g>
			<g>
				<path class="st6" d="M841.3,331c0,2.8,2.3,5.1,5.1,5.1H917c2.8,0,5.1-2.3,5.1-5.1c0-2.8-2.3-5.1-5.1-5.1h-70.6
					C843.6,325.9,841.3,328.2,841.3,331z"/>
				<path class="st3" d="M841.3,331c0,2.8,2.3,5.1,5.1,5.1h35.3v-10.2h-35.3C843.6,325.9,841.3,328.2,841.3,331z"/>
			</g>
			<g>
				<path class="st5" d="M579,179.3v47.8c0,7.2,5.8,13.1,13.1,13.1h61.7c7.2,0,13-5.8,13-13.1v-47.8c0-7.2-5.8-13-13-13H592
					C584.8,166.3,579,172.2,579,179.3z"/>
				<path class="st3" d="M622.9,179.3v47.8c0,7.2,5.8,13.1,13,13.1h17.8c7.2,0,13-5.8,13-13.1v-47.8c0-7.2-5.8-13-13-13h-17.8
					C628.7,166.3,622.9,172.2,622.9,179.3z"/>
				<circle class="st5" cx="644.8" cy="203.3" r="8.2"/>
				<circle class="st4" cx="600.7" cy="203.3" r="8.2"/>
				<circle class="st3" cx="600.7" cy="203.3" r="4.7"/>
				<circle class="st3" cx="644.8" cy="203.3" r="4.7"/>
			</g>
		</g>
		<g>
			<g>
				<path class="st7" d="M658.8,359.8c16.1-13.7,25-19.2,35-21.2s-10.7,13-12,17.2c-1.6,5.2,2.1,8.9-2.2,12.3l-11.6,5.6L658.8,359.8
					z"/>
				<path class="st5" d="M673.7,374.7c-2.7,2.2-58.7,45.9-87.2,68.2c-9.8,7.7-16.4,12.8-16.4,12.8c-1.2,0.9-8.9,6.1-19.6,13.2
					c-29.7,19.8-78.5-3.3-78.5-3.3s-9.7,0.9-19.3-1.9c0-1.1,0-2.2,0-3.3c0.2-25,1.6-31.8,20.8-43l4.7-2.7c6.2-3.6,10-6.2,13.3-7.4
					c4.3,0.2,8.6,0.7,12.7,1.6c4.7,1,9.2,2.4,13.4,3.9c15.3,5.6,26.2,13.6,26.2,13.6s116.6-79.4,118.6-70c0,0.1,0,0.1,0,0.2l0,0
					c0.1,0.3,0.1,0.4,0.2,0.7c1.9,6,8,10.5,10.5,13.7c0.2,0.2,0.3,0.5,0.5,0.7C674.5,373,674.7,373.9,673.7,374.7z"/>
			</g>
			<g>
				<polygon class="st7" points="487.1,369.2 453.9,370 452.9,327.8 452.5,312.9 452.4,304.8 485.4,304 486.2,333.6 486.3,340.2 
					486.3,340.6 				"/>
				<path class="st6" d="M486.3,340.2c-11,2.4-24.5-2.1-33.4-12.4l-0.4-14.9l22.8-7.2l10.9,27.9L486.3,340.2z"/>
				<path class="st7" d="M502.3,281.3c2.4,7.6,3.4,15.3,3.1,22.3c0,2-0.3,4-0.6,5.9c-2,12.9-8.5,23.2-18.5,26.9l-1.2,0.4
					c-10.3,3.2-21.7-1-30.9-10.3c-0.5-0.4-0.9-0.9-1.3-1.4c-5.8-6.1-10.7-14.4-13.7-23.9c-8-25.1-0.3-49.9,17.1-55.4
					c11.4-3.6,24.1,1.9,33.6,13.1C495.2,264.8,499.6,272.5,502.3,281.3z"/>
				<path class="st6" d="M452.6,332.4c10-23.3-17.4-60.5,0.7-45.8c14.2,11.5,12.6-4.4,29-18.2c10.1-8.6,14.5-22.1,10.1-34.6
					l-1.2-3.3c-2.4-6.8-10.6-9.2-16.5-5.1C436.4,251.8,388.9,264.3,452.6,332.4z"/>
				<path class="st7" d="M495.5,302.8l13.7-4.6c2.6-0.9,3.6-4,2.1-6.2l-10.8-15.9l-12.5,4.2L495.5,302.8z"/>
			</g>
			<path class="st5" d="M536.6,630.4c-0.5-0.1-1-0.3-1.6-0.4c-23.6-6.2-46.7-14-69.2-23.3c-6.6-2.7-13.1-5.6-19.5-8.5
				c-12.4-5.8-24.6-12.1-36.3-19.2c-6.8-4.1-13.5-8.5-19.9-13.2c6.4-52.9,12.8-98.1,14.8-131.1c0.3-4.5,0.5-8.9,0.5-12.9
				c0-1.1,0-2.2,0-3.3c0.2-25,12.6-47.8,31.8-59l4.7-2.7c5.1-3,8.6-5.3,11.5-6.7c0.6-0.3,1.2-0.5,1.8-0.8c3.9-1.4,7.1-1,12.7,1.6
				c1.7,0.8,3.5,1.7,5.7,2.9l13.2,7.1l17.8,9.5l2.2,6.5c9.6,5.1,17.3,13.5,22.3,23.7c3.1,6.2,5.1,13.1,6,20.4l0,0
				c0.6,5,0.7,10.1,0.1,15.2c-0.2,2.2-0.4,4.7-0.8,7c-0.8,8.1-1,17.3-0.9,27.1c0,1.7,0,3.4,0.1,5.1c0.3,19.2,1.4,40.6,0.9,62l0,0
				c0,1.4-0.1,2.8-0.1,4.2c0,0.5,0,1,0,1.5s0,0.9-0.1,1.4c0,0.7-0.1,1.3-0.1,2c0,0.1,0,0.3,0,0.4c-0.3,7.6-0.5,15.3-0.6,23l0,0v2
				c0,1,0,2,0,3c0,0.3,0,0.6,0,0.9c0,0.4,0,0.7,0,1.1C533.5,595.6,534.7,613.4,536.6,630.4z"/>
			<path class="st7" d="M576.3,573.1c5.1,4,2.7,5.1,3,2.6c0.2-2,22.6,7.8,20.9,10.9c-1.7,3.2-4,1-7.5,5.1s-8.9,5.1-13,4.7
				c-5.2-0.5-10.5-8.2-14.5-11.6v-0.5L576.3,573.1z"/>
			<path class="st3" d="M534.4,546.9c0,0.5,0,1,0,1.5c-0.1,1.2-0.1,2.5-0.2,3.7c-0.3,8.3-0.5,16.6-0.6,25
				c-21.5-11.1-62.1-30.6-62.1-30.6l-0.1-0.1c-13.5-16.9-11.6-45.3-11.6-69.2c0-14.1,0.7-28.2,2.4-42.2c1-8.5,2.3-17,3.9-22.9
				c4.3-16.4,21.5-34.8,44.9-11.2c7.8,7.8,11.8,18.7,11.2,29.8c-1.9,34.2-21.7,92.9-21.7,92.9S517.9,535,534.4,546.9z"/>
			<path class="st5" d="M522.2,421.7c-1.9,34.2-21.7,92.9-21.7,92.9s89.3,58.8,80.5,61.2s-13.7,14.8-16.6,11.5
				c-2.9-3.3-93-49.8-93-49.8l-0.1-0.1c-13.4-16.9-11.6-45.3-11.6-69.2c0-14.1,0.7-28.2,2.4-42.2c1-8.5,2.3-17,3.9-22.9
				c4.3-16.4,21.5-34.8,44.9-11.2C518.8,399.7,522.8,410.6,522.2,421.7z"/>
		</g>
		<g>
			<path class="st5" d="M277.8,403.5c6.2,23.3,8.5,48.5,22,68.5c9.3,13.7,23.7,23.4,39.7,27.8c10.5,2.9,20.8-5.4,20-16.3
				c-3.3-42.4,22-88.6,14-131.3c-5.6-29.8-27-54.2-49.6-74.4c-7.8-7-16.1-13.9-25.9-17.7c-9.8-3.8-21.5-4.1-30.3,1.6
				c-9.5,6.1-14,17.8-15.5,29.1C246.8,329.3,267.9,366,277.8,403.5z"/>
			<g>
				<path class="st3" d="M348.6,527.4c-2.4-8-4.4-16.9-5.9-26.9c-2.3-15-3.4-32.2-2.8-51.9c0.1-4.8,0.1-9.5-0.1-14.2
					c-0.2-3.7-0.4-7.3-0.8-10.9l0,0c-0.2-2.5-0.5-4.9-0.8-7.3c-1.1-8-2.5-15.7-4.3-23.1c-0.1-0.3-0.1-0.6-0.2-0.9
					c-3.3-13.8-7.6-26.4-12-37.4c-0.7-1.8-1.4-3.5-2.2-5.2c-2.2-5.3-4.5-10.1-6.6-14.3c-7.3-14.8-13.2-23.6-13.4-23.8
					c-0.6-0.9-1.9-1.1-2.8-0.5s-1.1,1.9-0.5,2.8c0.2,0.3,7,10.3,15,27.1c6,12.8,12.7,29.4,17.6,48.5c0.4,1.7,0.9,3.5,1.3,5.2
					c1.5,6.6,2.9,13.5,3.8,20.6c0.9,6.2,1.5,12.5,1.8,19c0,0.1,0,0.2,0,0.3c0.2,4.7,0.3,9.4,0.1,14.2c-0.5,19.8,0.5,36.7,2.5,51.1
					c1,7,2.2,13.4,3.6,19.3L348.6,527.4z"/>
			</g>
			<g>
				<path class="st3" d="M319.4,356.6c-0.3,0-0.6-0.1-0.9-0.2c-1-0.5-1.4-1.7-0.9-2.7c0.1-0.1,7.5-15.1,4.7-27.2
					c-0.2-1.1,0.4-2.1,1.5-2.4c1.1-0.2,2.1,0.4,2.4,1.5c3.1,13.5-4.7,29.2-5,29.9C320.9,356.2,320.2,356.6,319.4,356.6z"/>
			</g>
			<g>
				<path class="st3" d="M331.8,395c-0.3,0-0.5-0.1-0.8-0.2c-0.8-0.4-20.8-9-29.1-28.6c-0.4-1,0-2.2,1.1-2.6c1-0.4,2.2,0,2.6,1.1
					c7.6,18,26.7,26.4,26.9,26.4c1,0.4,1.5,1.6,1.1,2.6C333.3,394.5,332.6,395,331.8,395z"/>
			</g>
			<g>
				<path class="st3" d="M337.6,436c-0.2,0-0.5,0-0.7-0.1c-1-0.4-1.5-1.6-1.1-2.6c0.1-0.3,10.8-28.1,5.1-49.2
					c-0.3-1.1,0.3-2.2,1.4-2.5s2.2,0.3,2.5,1.4c6.1,22.4-4.8,50.5-5.2,51.7C339.2,435.5,338.4,436,337.6,436z"/>
			</g>
		</g>
		<g>
			<path class="st5" d="M976.2,338.5c4.8-11.5,9.5-23.1,14.3-34.6c5.8-14.1,12.2-29,24.4-38.2c7.5-5.7,16.7-8.8,25.8-11.3
				c12.3-3.5,25.2-6.2,37.8-3.9c12.6,2.3,24.8,10.5,28.4,22.7c3.4,11.7-1.5,24.4-9.1,33.8c-7.7,9.4-17.9,16.4-27.2,24.2
				c-9.3,7.8-18.1,17.1-21.5,28.8c-4.1,14.4,0.7,29.8-0.3,44.7c-1.1,15.4-8.8,30.2-20.7,40c0,0-0.1,0-0.1,0.1
				c-4.9,4-11.4,5.5-17.6,4.4c-3.7-0.7-7.4-1.5-11-2.3c-6.4-1.5-12.9-3.3-18.5-6.8c-9.4-5.9-15.4-16.2-18.1-26.9
				C956.4,388.1,966.4,362.2,976.2,338.5z"/>
			<g>
				<g>
					<path class="st3" d="M1054,291.8c-0.2,0.1-10.9,6.2-22.6,21.6c-5.6,7.4-11.4,16.9-16.4,28.9c-3.7,8.8-7.1,19.5-9.6,32.3
						c-0.4,2.2-0.9,4.5-1.2,6.9c-5.3,32.9-4.6,78.2,11.5,139c-1.1,1.2-2.1,2.3-3.2,3.5c-10.4-38.3-15.5-73.6-15.3-105.1
						c0-0.5,0-1,0-1.5c0-2.4,0.1-4.7,0.2-7.1c0.4-10.4,1.4-20.5,3-30v-0.1c2.4-14.3,6.1-27.5,11.2-39.6c3.3-7.8,6.8-14.5,10.5-20.4
						l0,0c1.1-1.8,2.2-3.4,3.3-5c1.3-1.9,2.6-3.6,3.9-5.3c11.8-15.1,22.3-21.1,23-21.4c1-0.5,2.2-0.2,2.7,0.8
						C1055.3,290,1054.9,291.2,1054,291.8z"/>
				</g>
				<g>
					<path class="st3" d="M1024,322.3c-0.8,0-1.6-0.5-1.9-1.4c-0.1-0.4-3.2-10.2,2-22.7c0.4-1,1.6-1.5,2.6-1.1s1.5,1.6,1.1,2.6
						c-4.6,11.1-1.9,19.9-1.9,20c0.3,1.1-0.2,2.2-1.3,2.5C1024.5,322.3,1024.2,322.3,1024,322.3z"/>
				</g>
				<g>
					<path class="st3" d="M1002.1,382.4c-0.5,0-1.1-0.2-1.5-0.7c-0.7-0.8-0.7-2.1,0.2-2.8c0.2-0.2,22.4-20.2,25.7-39.8
						c0.2-1.1,1.2-1.8,2.3-1.6c1.1,0.2,1.8,1.2,1.6,2.3c-3.6,20.9-26,41.2-27,42.1C1003.1,382.3,1002.6,382.4,1002.1,382.4z"/>
				</g>
				<g>
					<path class="st3" d="M999,418.5c-0.6,0-1.2-0.3-1.6-0.8c-0.6-0.8-15.6-20.5-11.4-38.2c0.3-1.1,1.3-1.7,2.4-1.5
						c1.1,0.3,1.7,1.3,1.5,2.4c-3.7,15.9,10.5,34.6,10.7,34.8c0.7,0.9,0.5,2.1-0.4,2.8C999.9,418.4,999.5,418.5,999,418.5z"/>
				</g>
			</g>
		</g>
	</g>
	<path class="st8" d="M596.8,95c9.2,1.1,9.7,14.2,0.5,15.9c-0.2,0-0.3,0.1-0.5,0.1c-8.9,1.7-17.6,4.9-25.8,8.8
		c-26.4,12.5-49.1,32.9-63.9,58.1c-3,5.2-5.8,10.6-10,15c-0.5,0.5-0.9,0.9-1.4,1.4c-22.8,20.9-59.7,1.9-55.7-28.8
		c0-0.2,0-0.4,0.1-0.5c1-6.8,3.7-13.3,7.1-19.3c12.9-22.4,35.9-37.8,60.6-45.4c24.7-7.6,51.1-8.2,76.8-6.3
		C588.6,94.2,592.7,94.5,596.8,95z"/>
</g>
<g id="API">
	<path class="st2" d="M1145,464c-1.9,29.1-6.5,58.4-18.1,85.3c-12.6,29.1-32.8,53.7-57.4,73.5c-10.7,8.6-22.2,16.3-34.2,23
		c-20.5,11.6-42.7,20.5-65.1,26.7c-44.7,12.3-90.9,15.6-137.4,15.9c-22.5,0.2-45.1-0.4-67.5-0.9c-25.1-0.6-50.2-1.2-75.3-2.2
		c-0.1,0-0.1,0-0.2,0c-22.1-0.8-44.1-2-66.1-3.8l-0.4,0c-3.5-0.3-7-0.6-10.5-0.9c-25.6-2.3-51.2-5.4-76.6-9.8
		c-18.4-3.2-36.8-7.1-55-11.8c-0.1,0-0.1,0-0.2,0c-31.1-8.1-61.7-18.7-90.7-32.3c-17.2-8.1-33.9-17.2-49.9-27.4
		c-5.7-3.6-11.2-7.4-16.7-11.3c-3-2.1-5.9-4.3-8.8-6.5c-1.8-1.4-3.6-2.8-5.5-4.3c-23.7-19-44.8-41.3-59.5-67.8
		c-21.5-38.6-28.2-83.8-29.5-128c-0.6-18.3-0.3-36.7,1.3-55c0,0,0,0,0,0c2.7-30.8,9.1-61.2,21.2-89.7c5.2-12.1,11.4-23.8,18.5-34.8
		c0-0.1,0.1-0.1,0.1-0.2c39.7-61.1,107.2-104,179.5-117.3C526.4,68.7,616.6,92,688.9,140c0.9,0.6,1.9,1.2,2.8,1.9
		c4.6,3.1,9.2,6.4,13.7,9.7c0.1,0.1,0.2,0.1,0.2,0.2c2.7,2,5.4,4,8,6c3,2.3,5.9,4.5,8.9,6.7c3,2.2,6,4.4,8.9,6.6c0,0,0,0,0,0
		c6.3,4.4,12.5,8.8,18.9,12.9c0,0,0,0,0.1,0c0.1,0.1,0.3,0.2,0.4,0.3c0.2,0.1,0.3,0.2,0.4,0.2c2.3,1.5,4.7,3,7,4.5c0,0,0,0,0,0
		c19.9,12.5,40.6,23.8,61.8,33.8c0,0,0.1,0,0.1,0c14,6.6,28.2,12.5,42.8,17.9h0c0.2,0.1,0.4,0.2,0.6,0.2
		c10.3,3.8,20.7,7.3,31.2,10.5c10.5,3.2,21.1,6.1,31.8,8.6c0.1,0,0.2,0.1,0.3,0.1c16.1,3.9,32.5,6.9,49,9.4c5,0.7,10,1.6,15.1,2.6
		c67.9,13.5,134,59.4,150.3,126.7C1146.5,420.1,1146.5,442.2,1145,464z"/>
	<path class="st6" d="M1069.5,622.8c-10.7,8.6-22.2,16.3-34.2,23c-20.5,11.6-42.7,20.5-65.1,26.7c-44.7,12.3-90.9,15.6-137.4,15.9
		c-18.2-0.2-36.4-0.7-54.5-1.1c-29.3-0.8-58.6-1.4-87.9-2.5c-2.1-0.1-4.2-0.2-6.3-0.2c-20.1-0.8-40.2-1.8-60.3-3.1l-0.4,0
		c-11.9-0.8-23.8-1.7-35.7-2.7c-32.1-2.8-64-6.7-95.8-12.2c-6.4-1.1-12.7-2.3-19-3.5c2.8-1.3,5.6-2.6,8.2-4
		c-31.1-8.1-61.7-18.7-90.7-32.3c-17.2-8.1-33.9-17.2-49.9-27.4l183.8-72.6h0l14.2-5.6l19.6-7.8h0l0,0h0l33.1-13.1h0l8.6-3.4h0
		l0.6-0.3l3.1,0.8l0,0l18,4.8l18.4,4.9h0l26.1,7h0l2.2,0.6l0.2,0c0,0,0,0,0,0l75.1,20.2l37.9,10.2l27,7.3l19.1,5.1l12.9,3.5h0
		L1069.5,622.8z"/>
	<g>
		<path class="st3" d="M758.5,189l-19,1.9l0,0l-1.6,0.2l-1.5-1.6l-0.9-0.9l-0.5-0.5l-3.3-3.4L730,183l-4.6-4.7l-25.4-26l5.6-0.7
			c2.7,2,5.4,4,8,6c5.9,4.5,11.9,8.9,17.9,13.3c6.3,4.4,12.6,8.8,19,12.9c0.3,0.2,0.6,0.4,0.8,0.5C753.8,186,756.1,187.5,758.5,189z
			"/>
		<path class="st3" d="M731.5,171c6.3,4.4,12.6,8.8,19,12.9l-0.7,0.5l-10.4,6.5l0,0l-3.1-1.4l-1.3-0.6l-13.3-6l3.7-4.5L731.5,171z"
			/>
		<polygon class="st6" points="538.4,598.9 743.6,657.3 743.6,565.8 538.4,529.2 		"/>
		<path class="st3" d="M538.4,598.9l39.8-31.3c30.3-23.8,47.9-60.1,47.9-98.6V320.7c0-24.8-17.6-46.1-42-50.8l-45.7-18V598.9z"/>
		<path class="st7" d="M775.8,605c0,5.8-13.5,19.6-32.2,36.1c-4.5,3.9-9.2,8-14.1,12.1c-12.4,10.5-26.1,21.4-39,31.6
			c-0.2,0.1-0.4,0.3-0.6,0.5c-9.3,7.3-18.3,14.2-26.3,20.3c-18.2,13.9-34.7,15.1-34.7,15.1l-175.7-50c0,0,10-3.3,19.8-7.7h0
			c2.8-1.3,5.6-2.6,8.2-4c2.4-1.3,4.5-2.6,6.2-4c6.3-5,42.6-33.4,66.1-51.9c11.8-9.2,20.3-15.9,20.3-15.9
			c8.4-6.6,15.6-14.3,21.6-22.9l148.4,33.4L775.8,605z"/>
		<path class="st3" d="M743.6,657.3l39.8-31.3c30.3-23.8,47.9-60.1,47.9-98.6V379.1c0-24.8-17.6-46.1-42-50.8l-45.7-18V657.3z"/>
		<path class="st6" d="M820.2,222.8v123.6c0,0.2,0,0.5,0,0.7c-0.3,8-5,14.7-11.7,17.9c-3.7,1.8-8,2.5-12.5,1.7l-14.5-2.6l-37.9-6.8
			l-6.7-1.2l-16.6-3l-51.1-9.1l-4.9-0.9l-32.3-5.8c-2.1-0.4-4-1-5.8-2c-4.7-2.4-8.2-6.5-10-11.5c-0.5-1.4-0.8-2.8-1-4.3
			c-0.1-0.5-0.1-1.1-0.1-1.7c0-0.3,0-0.6,0-0.9v-97.2c0-10.8,8.4-19.8,19.2-20.5l89.2-6c4.2-0.3,8.3-1.9,11.5-4.5
			c0.1-0.1,0.3-0.2,0.4-0.3l0.1-0.1l-0.7-0.4l-7.6-4.8l-0.7-0.4l3.4,0.2l19.9,1.3l1.6,0.1c2.3,1.5,4.7,3,7,4.5
			C778.4,201.5,799,212.8,820.2,222.8z"/>
		<path class="st3" d="M719.4,361.1l-164.1-29.3c-9.8-1.8-17-10.3-17-20.3v-91.7c0-10.8,8.4-19.8,19.2-20.5l164.1-16.5
			c11.9-0.8,22,8.6,22,20.5v137.4C743.6,353.7,732,363.4,719.4,361.1z"/>
		<g>
			<polygon class="st5" points="808.5,577.4 421.5,508.4 421.5,256.4 808.5,230.4 			"/>
			<polygon class="st6" points="781.5,553.2 448.5,493.8 448.5,277 781.5,254.6 			"/>
			<polygon class="st3" points="781.5,553.2 459.5,495.8 459.5,286.1 781.5,264.5 			"/>
			<path class="st3" d="M944.5,299.2v177.5c0,19.5-10.9,37.3-28.3,46.1l-92.1,46.7l-15.6,7.9v-347l11.7,2.2l43.5,8.3l0,0
				c20.6,7.6,41.6,14,63,19.1C937.7,269.7,944.5,283.7,944.5,299.2z"/>
			<g>
				<g>
					<path class="st5" d="M910.5,381.8c-5.6-19.3-18.5-37.1-30.2-53.1c-2-2.8-5.3-4.1-7.3-3c-44.1,26.4-43.8,109.9-2.7,139.7
						c0,0,0.1,0.1,0.1,0.1c0.8,0.6,1.6,1.1,2.4,1.7c0.5,0.3,1,0.5,1.6,0.5c0,0,0.1,0,0.1,0v-20.8c-3.7-2.9-5.6-4.5-9.3-7.8
						c-3.3-2.9-5-7.3-5-12.3c0-1.2,0.9-2.3,2.1-2.5c1.1-0.1,2.1,0.8,2.1,2c0,3.7,1.4,7,3.8,9.2c2.6,2.3,3.9,3.4,6.4,5.5v-24.1
						c-7-6.6-10.5-10.3-17.6-18.2c-2.3,1.2-5.1,0.7-7-1.5c-2.4-2.9-2.4-7.5,0-10c2.4-2.6,6.3-2.2,8.8,0.7c1.9,2.3,2.3,5.3,1.2,7.8
						c5.9,6.6,8.8,9.7,14.6,15.4v-34.9c-2.4-1.2-4.1-3.9-4.1-6.7c0-3.5,2.8-5.8,6.2-5.1c3.4,0.7,6.2,4,6.2,7.3c0,2.6-1.7,4.5-4.1,5
						v22.2c3.7-3.6,5.6-5.3,9.3-8.5c0.8-0.7,2.1-0.6,2.9,0.2c0.8,0.8,0.8,2,0,2.7c-4.9,4.2-7.3,6.4-12.2,11.3v26.5
						c3.8-4.3,5.7-6.4,9.5-10.3c-1.1-2-0.7-4.8,1.2-6.7c2.4-2.4,6.4-2.5,8.8-0.5c2.4,2,2.4,5.3,0,7.7c-1.9,1.9-4.7,2.6-7,1.8
						c-5,5.1-7.4,7.9-12.4,13.7V466c0.5-0.4,1-0.9,1.5-1.5C897.8,440.8,919.6,413.5,910.5,381.8z M860,416.6c0-1.2,0.9-2.3,2.1-2.4
						c1.1-0.1,2.1,0.9,2.1,2.1v3.8c0,1.2-0.9,2.3-2.1,2.4c-1.1,0.1-2.1-0.8-2.1-2V416.6z M897.3,388c-0.8,0.7-1.3,1-2.1,1.7
						c-0.4,0.3-0.9,0.5-1.5,0.4c-0.5,0-1.1-0.3-1.5-0.7c-0.8-0.8-0.8-2,0-2.7s1.3-1,2.1-1.7c0.8-0.6,2.1-0.5,2.9,0.3
						C898.1,386.2,898.1,387.4,897.3,388z"/>
					<path class="st5" d="M870.3,463.7c1.6-0.5,2.5-0.8,4.1-1.3c0,7.9,0,11.9,0,19.8c0,0.4-0.3,0.9-0.8,1.1c-1,0.4-1.6,0.7-2.6,1.1
						c-0.4,0.2-0.8,0-0.8-0.5C870.3,475.9,870.3,471.8,870.3,463.7z"/>
				</g>
			</g>
			<g>
				<g>
					<path class="st5" d="M491.3,425.6c-0.7-0.4-1.9,0.1-2.7,1.1c-14.1,19.1-14,31,0.1,50.1c0.2,0.2,0.3,0.4,0.5,0.6v-10.8
						c-1.8-2.1-2.8-3.2-4.6-5.1c-0.8,0.3-1.9,0-2.6-0.7c-0.9-0.9-0.9-2.1,0-2.8s2.3-0.7,3.2,0.2c0.7,0.7,0.8,1.7,0.4,2.4
						c1.4,1.5,2.1,2.2,3.5,3.8v-9.8c-1.8-1.8-2.7-2.6-4.5-4.2c-0.3-0.3-0.3-0.7,0-1c0.3-0.3,0.8-0.3,1.1-0.1c1.4,1.2,2,1.8,3.4,3.1
						v-8.2c-0.9-0.2-1.5-0.9-1.5-1.9c0-1.2,1-2.4,2.3-2.7c1.3-0.3,2.3,0.6,2.3,1.9c0,1-0.6,2-1.5,2.5v13c2.2-2.1,3.2-3.2,5.4-5.7
						c-0.4-0.9-0.3-2,0.4-2.9c0.9-1,2.3-1.2,3.2-0.3c0.9,1,0.9,2.7,0,3.7c-0.7,0.8-1.8,1-2.6,0.6c-2.6,2.9-3.9,4.3-6.5,6.7v8.9
						c0.9-0.8,1.4-1.2,2.4-2c0.9-0.8,1.4-2,1.4-3.4c0-0.5,0.3-0.8,0.8-0.7c0.4,0,0.8,0.5,0.8,0.9c0,1.8-0.7,3.5-1.9,4.5
						c-1.4,1.2-2.1,1.8-3.4,2.9v7.7c0,0,0.1,0,0.1,0c0.2,0,0.3-0.1,0.5-0.2c0.3-0.2,0.6-0.4,0.9-0.6c0,0,0.1,0,0.1-0.1
						C507.1,466,507.9,435.5,491.3,425.6z M484.2,449c-0.2,0.1-0.3,0.2-0.5,0.3c-0.2,0-0.4,0-0.5-0.2c-0.3-0.3-0.5-0.4-0.8-0.6
						c-0.3-0.2-0.3-0.7,0-0.9c0.3-0.3,0.8-0.4,1.1-0.1c0.3,0.2,0.5,0.4,0.8,0.6C484.5,448.3,484.5,448.8,484.2,449z M496.1,460.5
						c0,0.5-0.3,0.8-0.8,0.8c-0.4,0-0.8-0.4-0.8-0.9V459c0-0.5,0.3-0.8,0.8-0.8c0.4,0,0.8,0.4,0.8,0.9V460.5z"/>
					<path class="st5" d="M492.3,476.5c-0.6-0.2-0.9-0.3-1.5-0.5c0,2.8,0,4.2,0,7c0,0.3,0.3,0.7,0.6,0.8c0.2,0.1,0.2,0.1,0.4,0.2
						c0.3,0.1,0.6,0,0.6-0.3C492.3,480.8,492.3,479.3,492.3,476.5z"/>
				</g>
			</g>
			<g>
				<g>
					<path class="st6" d="M641.5,297.3c0.1,1.7-1.2,3.1-2.9,3.1l-160.4,6.9h-0.1c-0.2,0-0.5,0-0.7-0.1c-1.3-0.3-2.2-1.4-2.3-2.8
						c-0.1-1.7,1.2-3.1,2.9-3.1l160.4-6.9c1.3-0.1,2.3,0.7,2.8,1.7C641.4,296.5,641.5,296.9,641.5,297.3z"/>
				</g>
				<g>
					<path class="st6" d="M641.5,320.4c0,1.7-1.3,3-2.9,3.1l-160.4,3.3h-0.1c-0.3,0-0.5,0-0.7-0.1c-1.3-0.3-2.3-1.5-2.3-2.8
						c0-1.7,1.3-3,2.9-3.1l160.4-3.3c1.2,0,2.3,0.7,2.8,1.7C641.4,319.5,641.5,319.9,641.5,320.4z"/>
				</g>
				<g>
					<path class="st6" d="M641.5,343.5c0,1.7-1.3,3-3,3l-160.4-0.2c-0.2,0-0.5,0-0.7-0.1c-1.3-0.3-2.3-1.5-2.3-2.9c0-1.6,1.4-3,3-3
						l0,0l160.4,0.2c1.2,0,2.2,0.7,2.7,1.7C641.4,342.6,641.5,343,641.5,343.5z"/>
				</g>
				<g>
					<path class="st6" d="M641.5,366.6c0,1.6-1.4,2.9-3,2.9c0,0,0,0-0.1,0L478,365.7c-0.2,0-0.4,0-0.6-0.1c-1.3-0.3-2.3-1.5-2.3-3
						c0-1.7,1.4-3,3.1-2.9l160.4,3.8c1.2,0,2.2,0.7,2.6,1.7C641.4,365.6,641.5,366.1,641.5,366.6z"/>
				</g>
				<g>
					<path class="st6" d="M641.5,389.7c-0.1,1.6-1.4,2.9-3,2.9h-0.1L478,385.2c-0.2,0-0.4,0-0.6-0.1c-1.4-0.3-2.4-1.6-2.3-3
						c0.1-1.7,1.5-2.9,3.1-2.9l160.4,7.3c1.1,0.1,2.1,0.7,2.6,1.7C641.4,388.6,641.5,389.1,641.5,389.7z"/>
				</g>
				<g>
					<path class="st6" d="M641.5,412.7c-0.1,1.6-1.4,2.8-3,2.8c-0.1,0-0.1,0-0.2,0L525,407.8c-0.1,0-0.1,0-0.2,0l-46.9-3.2
						c-0.2,0-0.4,0-0.5-0.1c-1.4-0.3-2.4-1.6-2.3-3.1c0.1-1.7,1.5-2.9,3.2-2.8l46.9,3.2l113.5,7.7c1.1,0.1,2.1,0.8,2.5,1.7
						C641.4,411.7,641.5,412.2,641.5,412.7z"/>
				</g>
				<g>
					<path class="st6" d="M641.5,435.8c-0.1,1.6-1.5,2.7-3,2.7c-0.1,0-0.2,0-0.3,0l-113.5-10.2c-0.1,0-0.3,0-0.4-0.1
						c-1.4-0.3-2.4-1.7-2.3-3.2c0.1-1.6,1.6-2.8,3.3-2.7l113.5,10.2c1.1,0.1,2,0.8,2.4,1.7C641.4,434.8,641.5,435.3,641.5,435.8z"/>
				</g>
				<g>
					<path class="st6" d="M641.5,458.9c-0.2,1.5-1.5,2.7-3,2.7c-0.1,0-0.2,0-0.3,0l-113.5-12.8c-0.1,0-0.3,0-0.4-0.1
						c-1.4-0.3-2.4-1.7-2.3-3.2c0.2-1.7,1.7-2.8,3.3-2.7l113.5,12.8c1.1,0.1,2,0.8,2.4,1.7C641.4,457.8,641.5,458.3,641.5,458.9z"/>
				</g>
				<g>
					<path class="st6" d="M641.5,482c-0.2,1.5-1.5,2.6-3,2.6c-0.1,0-0.3,0-0.4,0l-113.5-15.3c-0.1,0-0.2,0-0.3-0.1
						c-1.5-0.3-2.5-1.8-2.3-3.3c0.2-1.6,1.7-2.8,3.4-2.6l113.5,15.3c1,0.1,1.9,0.8,2.3,1.7l0,0C641.5,480.8,641.5,481.4,641.5,482z"
						/>
				</g>
				<g>
					<path class="st6" d="M641.5,505.1c-0.2,1.5-1.5,2.5-3,2.5c-0.2,0-0.3,0-0.5,0l-113.5-17.8c-0.1,0-0.2,0-0.3-0.1
						c-1.5-0.4-2.5-1.8-2.2-3.4s1.8-2.8,3.4-2.5L639,501.7c1,0.2,1.8,0.8,2.3,1.7l0,0C641.5,503.9,641.6,504.5,641.5,505.1z"/>
				</g>
			</g>
			<g>
				<g>
					<path class="st5" d="M641.5,297.3c0.1,1.7-1.2,3.1-2.9,3.1l-160.4,6.9h-0.1c-0.2,0-0.5,0-0.7-0.1c-0.2-0.3-0.3-0.7-0.3-1.2
						c-0.1-1.7,1.2-3,2.9-3.1l160.4-6.9c0.3,0,0.6,0,0.8,0.1C641.4,296.5,641.5,296.9,641.5,297.3z"/>
				</g>
				<g>
					<path class="st5" d="M641.5,320.4c0,1.7-1.3,3-2.9,3.1l-160.4,3.3h-0.1c-0.3,0-0.5,0-0.7-0.1c-0.2-0.4-0.3-0.8-0.3-1.2
						c0-1.7,1.3-3,2.9-3.1l160.4-3.3c0.3,0,0.5,0,0.8,0.1C641.4,319.5,641.5,319.9,641.5,320.4z"/>
				</g>
				<g>
					<path class="st5" d="M641.5,343.5c0,1.7-1.3,3-3,3l-160.4-0.2c-0.2,0-0.5,0-0.7-0.1c-0.2-0.4-0.3-0.8-0.3-1.3c0-1.7,1.4-3,3-3
						l0,0l160.4,0.2c0.2,0,0.5,0,0.7,0.1C641.4,342.6,641.5,343,641.5,343.5z"/>
				</g>
				<g>
					<path class="st5" d="M641.5,366.6c0,1.6-1.4,2.9-3,2.9c0,0,0,0-0.1,0L478,365.7c-0.2,0-0.4,0-0.6-0.1c-0.2-0.4-0.3-0.9-0.3-1.4
						c0-1.7,1.4-3,3.1-2.9l160.4,3.8c0.2,0,0.4,0,0.6,0.1C641.4,365.6,641.5,366.1,641.5,366.6z"/>
				</g>
				<g>
					<path class="st5" d="M641.5,389.7c-0.1,1.6-1.4,2.9-3,2.9h-0.1L478,385.2c-0.2,0-0.4,0-0.6-0.1c-0.2-0.4-0.3-0.9-0.3-1.4
						c0.1-1.7,1.5-2.9,3.1-2.9l160.4,7.4c0.2,0,0.4,0,0.6,0.1C641.4,388.6,641.5,389.1,641.5,389.7z"/>
				</g>
				<g>
					<path class="st5" d="M641.5,412.7c-0.1,1.6-1.4,2.8-3,2.8c-0.1,0-0.1,0-0.2,0L525,407.8c-0.1,0-0.1,0-0.2,0l-46.9-3.2
						c-0.2,0-0.4,0-0.5-0.1c-0.2-0.4-0.3-1-0.3-1.5c0.1-1.6,1.5-2.9,3.2-2.8l46.9,3.2l113.5,7.7c0.2,0,0.3,0,0.5,0.1
						C641.4,411.7,641.5,412.2,641.5,412.7z"/>
				</g>
				<g>
					<path class="st5" d="M641.5,435.8c-0.1,1.6-1.5,2.7-3,2.7c-0.1,0-0.2,0-0.3,0l-113.5-10.2c-0.1,0-0.3,0-0.4-0.1
						c-0.2-0.5-0.3-1-0.3-1.5c0.1-1.7,1.6-2.9,3.3-2.7l113.5,10.2c0.1,0,0.3,0,0.4,0.1C641.4,434.8,641.5,435.3,641.5,435.8z"/>
				</g>
				<g>
					<path class="st5" d="M641.5,458.9c-0.2,1.5-1.5,2.7-3,2.7c-0.1,0-0.2,0-0.3,0l-113.5-12.8c-0.1,0-0.3,0-0.4-0.1
						c-0.2-0.5-0.3-1-0.3-1.6c0.2-1.7,1.7-2.8,3.3-2.7l113.5,12.8c0.1,0,0.3,0,0.4,0.1C641.4,457.8,641.5,458.3,641.5,458.9z"/>
				</g>
				<g>
					<path class="st5" d="M641.5,482c-0.2,1.5-1.5,2.6-3,2.6c-0.1,0-0.3,0-0.4,0l-113.5-15.3c-0.1,0-0.2,0-0.3-0.1
						c-0.2-0.5-0.3-1.1-0.3-1.7c0.2-1.7,1.7-2.8,3.4-2.6l113.5,15.3c0.1,0,0.2,0,0.3,0l0,0C641.5,480.8,641.5,481.4,641.5,482z"/>
				</g>
				<g>
					<path class="st5" d="M641.5,505.1c-0.2,1.5-1.5,2.5-3,2.5c-0.2,0-0.3,0-0.5,0l-113.5-17.8c-0.1,0-0.2,0-0.3-0.1
						c-0.2-0.5-0.3-1.1-0.2-1.7c0.3-1.6,1.8-2.8,3.4-2.5L641,503.3c0.1,0,0.2,0,0.3,0.1l0,0C641.5,503.9,641.6,504.5,641.5,505.1z"
						/>
				</g>
			</g>
			<g>
				<path class="st6" d="M716.1,358.6c-10.1,11.1-24.6,12.9-36.2,5.9c-3.3-2-6.5-4.8-9.1-8.3c-12-15.6-11.1-39.8,2-54
					c13-14.3,33.3-13.2,45.3,2.4c0.7,0.9,1.3,1.8,2,2.8l0,0C729.9,323,728.4,345.2,716.1,358.6z"/>
				<path class="st5" d="M716.1,358.6c-10.1,11.1-24.6,12.9-36.2,5.9c-13.5-13.8-15.8-37.3-5.2-53c10.8-16,31.1-17.9,45.1-4.2
					l0.1,0.1l0,0C729.9,323,728.4,345.2,716.1,358.6z"/>
			</g>
			<g>
				<path class="st6" d="M764.7,345.8c-5.5,6-13.4,7-19.7,3.2c-1.8-1.1-3.5-2.6-5-4.5c-6.5-8.5-6-21.6,1.1-29.4s18.1-7.2,24.7,1.3
					c0.4,0.5,0.7,1,1.1,1.5l0,0C772.2,326.4,771.4,338.5,764.7,345.8z"/>
				<path class="st5" d="M764.7,345.8c-5.5,6-13.4,7-19.7,3.2c-7.3-7.5-8.6-20.3-2.8-28.9c5.9-8.7,16.9-9.7,24.6-2.3
					c0,0,0,0,0.1,0.1l0,0C772.2,326.4,771.4,338.5,764.7,345.8z"/>
			</g>
			<g>
				<g>
					<path class="st6" d="M671.6,396.5v114.9c0,1.9-1.5,3.4-3.3,3.5c-0.1,0-0.1,0-0.2,0c-1.9,0-3.5-1.6-3.5-3.5V396.5
						c0-1.9,1.6-3.5,3.5-3.5c1.5,0,2.8,1,3.3,2.4C671.6,395.7,671.6,396.1,671.6,396.5z"/>
					<path class="st6" d="M691.4,395.7v119.7c0,1.9-1.5,3.4-3.3,3.5c-0.1,0-0.1,0-0.2,0c-1.9,0-3.5-1.6-3.5-3.5V395.7
						c0-1.9,1.6-3.5,3.5-3.5c1.5,0,2.9,1,3.3,2.4C691.3,394.9,691.4,395.3,691.4,395.7z"/>
					<path class="st6" d="M711.1,394.9v124.5c0,1.9-1.5,3.4-3.3,3.5c-0.1,0-0.1,0-0.2,0c-1.9,0-3.5-1.6-3.5-3.5V394.9
						c0-1.9,1.6-3.5,3.5-3.5c1.5,0,2.9,1,3.3,2.4C711.1,394.1,711.1,394.5,711.1,394.9z"/>
					<path class="st6" d="M730.9,394.1v129.3c0,1.9-1.5,3.4-3.3,3.5c-0.1,0-0.1,0-0.2,0c-1.9,0-3.5-1.6-3.5-3.5V394.1
						c0-1.9,1.6-3.5,3.5-3.5c1.5,0,2.9,1,3.3,2.4C730.8,393.3,730.9,393.7,730.9,394.1z"/>
					<path class="st6" d="M750.6,393.3v134.1c0,1.9-1.5,3.4-3.3,3.5c-0.1,0-0.1,0-0.2,0c-1.9,0-3.5-1.6-3.5-3.5V393.3
						c0-1.9,1.6-3.5,3.5-3.5c1.5,0,2.9,1,3.3,2.4C750.6,392.6,750.6,392.9,750.6,393.3z"/>
					<path class="st6" d="M770.4,392.5v138.9c0,1.9-1.5,3.4-3.3,3.5c-0.1,0-0.1,0-0.2,0c-1.9,0-3.5-1.6-3.5-3.5V392.5
						c0-1.9,1.6-3.5,3.5-3.5c1.5,0,2.9,1,3.3,2.4C770.3,391.8,770.4,392.1,770.4,392.5z"/>
				</g>
			</g>
			<g>
				<g>
					<path class="st3" d="M671.6,396.5v114.9c0,1.9-1.5,3.4-3.3,3.5c-0.1-0.3-0.2-0.7-0.2-1.1V398.9c0-1.9,1.5-3.4,3.3-3.5
						C671.6,395.7,671.6,396.1,671.6,396.5z"/>
					<path class="st3" d="M691.4,395.7v119.7c0,1.9-1.5,3.4-3.3,3.5c-0.1-0.3-0.2-0.7-0.2-1.1V398.1c0-1.9,1.5-3.4,3.3-3.5
						C691.3,394.9,691.4,395.3,691.4,395.7z"/>
					<path class="st3" d="M711.1,394.9v124.5c0,1.9-1.5,3.4-3.3,3.5c-0.1-0.3-0.2-0.7-0.2-1.1V397.3c0-1.9,1.5-3.4,3.3-3.5
						C711.1,394.1,711.1,394.5,711.1,394.9z"/>
					<path class="st3" d="M730.9,394.1v129.3c0,1.9-1.5,3.4-3.3,3.5c-0.1-0.3-0.2-0.7-0.2-1.1V396.5c0-1.9,1.5-3.4,3.3-3.5
						C730.8,393.3,730.9,393.7,730.9,394.1z"/>
					<path class="st3" d="M750.6,393.3v134.1c0,1.9-1.5,3.4-3.3,3.5c-0.1-0.3-0.2-0.7-0.2-1.1V395.7c0-1.9,1.5-3.4,3.3-3.5
						C750.6,392.6,750.6,392.9,750.6,393.3z"/>
					<path class="st3" d="M770.4,392.5v138.9c0,1.9-1.5,3.4-3.3,3.5c-0.1-0.3-0.2-0.7-0.2-1.1V394.9c0-1.9,1.5-3.4,3.3-3.5
						C770.3,391.8,770.4,392.1,770.4,392.5z"/>
				</g>
			</g>
			<g>
				<polygon class="st3" points="698.6,336.6 692.9,335.6 694.5,309.6 697.5,309.6 				"/>
			</g>
			<g>
				<polygon class="st3" points="756.5,331.2 755.5,333.4 745,329.9 745.4,328.7 				"/>
			</g>
		</g>
		<path class="st5" d="M731.5,171l-6.1,7.4l-3.7,4.5l-121.2,12.3l0,0l-37.8-38.6l129-14.6c4.7,3.2,9.4,6.5,13.9,9.9c2.7,2,5.4,4,8,6
			C719.5,162.3,725.5,166.7,731.5,171z"/>
		<g>
			<g>
				<path class="st6" d="M590.5,233.8c-2.5,2.7-5.8,3.6-8.9,2.7l-3.7-0.5v-1.6c-0.4-0.4-0.8-0.8-1.1-1.2c-3.6-4.7-3.3-12,0.6-16.3
					c0.3-0.3,0.5-0.5,0.8-0.8l1.3-3l3.7,0.7c0.4,0.1,0.9,0.1,1.3,0.1c2.4,0.2,4.8,1.4,6.5,3.7c0.2,0.3,0.4,0.5,0.6,0.8l0,0
					C594.7,223.1,594.2,229.8,590.5,233.8z"/>
			</g>
			<g>
				<path class="st7" d="M584.8,232.9c-3.1,3.3-7.4,3.9-10.9,1.8c-1-0.6-1.9-1.4-2.8-2.5c-3.6-4.7-3.3-12,0.6-16.3
					c3.9-4.3,10-4,13.7,0.7c0.2,0.3,0.4,0.6,0.6,0.8l0,0C588.9,222.2,588.5,228.9,584.8,232.9z"/>
			</g>
		</g>
		<g>
			<g>
				<path class="st6" d="M722.6,223c-3,3.9-7.4,5.5-11.5,4.7l-5-0.3l-0.2-2.2c-0.6-0.4-1.1-0.9-1.6-1.5c-5.4-5.8-5.9-15.6-1.2-21.8
					c0.3-0.4,0.6-0.8,0.9-1.1l1.4-4.2l5,0.4c0.6,0,1.2,0,1.8,0c3.2-0.1,6.5,1.3,9.2,4.2c0.3,0.3,0.6,0.7,0.9,1.1l0,0
					C726.8,208.1,727,217.1,722.6,223z"/>
			</g>
			<g>
				<path class="st5" d="M714.8,222.5c-3.7,4.8-9.4,6.1-14.3,3.7c-1.4-0.7-2.8-1.7-4-3c-5.4-5.8-5.9-15.6-1.2-21.8
					s12.9-6.5,18.3-0.7c0.3,0.3,0.6,0.7,0.9,1.1l0,0C719.1,207.6,719.3,216.6,714.8,222.5z"/>
			</g>
		</g>
		<g>
			<path class="st3" d="M592.5,604.5l-10.1,6.9l0,0l-51.5,35.1l12.9,3.9l11.1-7.8l19.1,5.8l-4.7,9.7l13.1,4l20.5-44.8l0,0l3.9-8.5
				L592.5,604.5z M578.8,638.6l-12.7-3.8l22.3-15.7L578.8,638.6z"/>
			<path class="st3" d="M660.2,629.9c-0.6-3.8-3.9-6.6-10-8.4l-19.9-6l-6.9,7.6l0,0L587,663.5l12.3,3.7l15.2-16.8l7.6,2.3
				c4,1.2,8,1.6,11.9,1.1c4-0.5,7.7-1.7,11.3-3.6c3.5-1.9,6.6-4.4,9.3-7.3c3-3.3,4.8-6.4,5.4-9.3c0,0,0-0.1,0-0.1
				C660.4,632.2,660.4,631.1,660.2,629.9z M642.2,639c-3.7,4.1-8,5.4-13,3.9l-6.3-1.9l11.3-12.5l6.3,1.9
				C645.4,632,646,634.8,642.2,639z"/>
			<path class="st3" d="M674.8,629l-6.3,7l-37,41l12.3,3.7l37.1-41.1l6.2-6.8L674.8,629z"/>
		</g>
	</g>
	<g>
		<path class="st5" d="M361.6,332.4c-7.4-17.9-14.8-35.8-22.1-53.6c-9-21.9-18.9-44.9-37.8-59.2c-11.7-8.8-25.9-13.6-39.9-17.6
			c-19.1-5.4-39.1-9.5-58.6-6.1c-19.5,3.5-38.4,16.3-44,35.2c-5.3,18.1,2.3,37.8,14.2,52.4s27.7,25.4,42.1,37.5s28.1,26.5,33.3,44.6
			c6.4,22.3-1.1,46.1,0.5,69.3c1.7,23.9,13.6,46.9,32.1,62l0.1,0.1c7.6,6.2,17.6,8.6,27.3,6.8c5.7-1.1,11.4-2.2,17.1-3.6
			c10-2.3,20-5.1,28.6-10.6c14.5-9.1,23.9-25,28.1-41.7C392.2,409.2,376.7,369.2,361.6,332.4z"/>
		<g>
			<g>
				<path class="st3" d="M329.3,456.6c0.1,13.9-0.5,28.2-1.8,43c-2.2,26-6.4,53.3-12.7,81.8c-1.8-1.4-3.6-2.8-5.5-4.3
					c5.9-27.6,9.6-52.9,11.7-76.1c3.5-40.5,1.8-74.3-2.8-102.3c-0.6-3.6-1.2-7.2-1.9-10.6l0,0c-3.9-19.8-9.2-36.3-14.9-50
					c-7.8-18.6-16.8-33.3-25.4-44.8c-18.1-23.9-34.7-33.3-35-33.5c-1.5-0.8-2-2.7-1.2-4.2s2.7-2.1,4.2-1.2c1,0.5,17.4,9.8,35.6,33.2
					c2,2.5,4,5.3,6,8.2c1.7,2.5,3.4,5.1,5.1,7.8l0,0l0,0c5.6,9,11.2,19.5,16.2,31.5c7.9,18.7,13.6,39.2,17.4,61.3v0.1
					c0,0.1,0,0.2,0.1,0.3c2.5,14.7,4,30.1,4.6,46.2l0,0c0.1,3.6,0.2,7.3,0.2,11l0,0C329.3,455.1,329.3,455.9,329.3,456.6z"/>
			</g>
			<g>
				<path class="st3" d="M287.4,307.4c1.3,0,2.5-0.8,2.9-2.1c0.2-0.6,5-15.8-3.1-35.2c-0.7-1.6-2.5-2.3-4.1-1.7
					c-1.6,0.7-2.3,2.5-1.7,4.1c7.2,17.2,3,30.8,2.9,30.9c-0.5,1.6,0.4,3.4,2,3.9C286.8,307.4,287.1,307.4,287.4,307.4z"/>
			</g>
			<g>
				<path class="st3" d="M321.4,400.5c0.9,0,1.7-0.3,2.3-1c1.1-1.3,1-3.2-0.2-4.4c-0.3-0.3-34.7-31.3-39.9-61.7
					c-0.3-1.7-1.9-2.8-3.6-2.5s-2.8,1.9-2.5,3.6c5.5,32.5,40.4,63.9,41.8,65.2C319.9,400.3,320.6,400.5,321.4,400.5z"/>
			</g>
			<g>
				<path class="st3" d="M326.2,456.4c0.9,0,1.8-0.4,2.5-1.2c1-1.3,24.1-31.7,17.6-59.2c-0.4-1.7-2.1-2.7-3.7-2.3
					c-1.7,0.4-2.7,2.1-2.3,3.7c5.8,24.6-16.3,53.7-16.5,54c-1,1.4-0.8,3.3,0.6,4.3C324.9,456.2,325.5,456.4,326.2,456.4z"/>
			</g>
		</g>
	</g>
</g>
<g id="data-processing" class="st0">
</g>
</svg>
