<?xml version="1.0" encoding="utf-8"?>
<!-- Generator: Adobe Illustrator 22.1.0, SVG Export Plug-In . SVG Version: 6.00 Build 0)  -->
<svg version="1.1" id="Layer_1" xmlns="http://www.w3.org/2000/svg" xmlns:xlink="http://www.w3.org/1999/xlink" x="0px" y="0px"
	 viewBox="0 0 841.9 595.3" style="enable-background:new 0 0 841.9 595.3;" xml:space="preserve">
<style type="text/css">
	.st0{fill:#4EB682;}
	.st1{fill:#044661;}
</style>
<path class="st0" d="M537.4,114.4H492c-13.3,0-24,10.7-24,24v40h16v-40c0-4.4,3.6-8,8-8h45.4c-0.3-2.5-0.5-5.1-0.5-7.7
	C536.8,119.8,537,117.1,537.4,114.4z"/>
<path class="st0" d="M356,410.8v47.5c0,4.4-3.6,8-8,8h-45.6c0.1,0.8,0.2,1.5,0.3,2.3c0.1,0.9,0.2,1.9,0.2,2.8v0.1
	c0,0.9,0.1,1.8,0.1,2.8v0.5c0,0.4,0,0.8,0,1.1c0,0,0,0.1,0,0.1c0,0.5,0,1-0.1,1.5c-0.1,1.6-0.2,3.2-0.4,4.7H348
	c13.3,0,24-10.7,24-24v-47.5H356z"/>
<path class="st0" d="M348,114.4h-45.6c0.1,0.8,0.2,1.5,0.3,2.3c0.1,0.9,0.2,1.9,0.2,2.8v0.1c0,0.9,0.1,1.8,0.1,2.8v0.5
	c0,0.4,0,0.8,0,1.1c0,0,0,0.1,0,0.1c0,0.5,0,1-0.1,1.5c-0.1,1.6-0.2,3.2-0.4,4.7H348c4.4,0,8,3.6,8,8v40h16v-40
	C372,125.1,361.3,114.4,348,114.4z"/>
<path class="st1" d="M500,352.8v-105l-68.5,37.4c-1.1,0.5-2.3,1-3.5,1.4v110.3l67.8-37C498.4,358.4,500,355.7,500,352.8L500,352.8z
	 M500,352.8"/>
<path class="st1" d="M423.8,197.5c-2.4-1.3-5.3-1.3-7.7,0l-67.4,36.8l67.4,36.8c2.4,1.3,5.3,1.3,7.7,0l67.5-36.8L423.8,197.5z
	 M423.8,197.5"/>
<path class="st1" d="M340,247.8v105c0,2.9,1.6,5.6,4.2,7l67.8,37V286.5c-1.2-0.4-2.4-0.8-3.5-1.4L340,247.8z M340,247.8"/>
<path class="st0" d="M537.4,466.3H492c-4.4,0-8-3.6-8-8v-48h-16v48c0,13.3,10.7,24,24,24h45.4c-0.3-2.5-0.5-5.1-0.5-7.7
	C536.8,471.7,537,469,537.4,466.3z"/>
<path class="st1" d="M600,170.2c-24.9,2.1-47.2-15.2-51.3-39.8h-0.5c3.7,22.9,23.6,40.4,47.6,40.4c25.8,0,46.9-20.3,48.1-45.7
	C642.6,148.8,624,168.2,600,170.2z M593.5,74.4c-22.8,1.1-41.4,18-45.2,39.9h0.4C552.5,91.9,571.3,75.6,593.5,74.4z"/>
<path class="st1" d="M643.9,120.1L643.9,120.1c0-0.8-0.1-1.6-0.2-2.4c-2.4-23.6-21.6-42.1-45.5-43.3c-0.8,0-1.5-0.1-2.3-0.1h-0.2
	c-0.4,0-0.8,0-1.2,0c-0.4,0-0.7,0-1.1,0c-22.1,1.2-41,17.5-44.8,39.9h-0.4c-0.5,2.7-0.7,5.4-0.7,8.2c0,2.7,0.2,5.3,0.6,7.8h0.5
	c4.2,24.6,26.5,41.9,51.3,39.8c24-2,42.6-21.4,43.9-45.1c0-0.4,0-0.8,0-1.2c0,0,0,0,0-0.1c0-0.3,0-0.6,0-0.9v-0.4
	C644,121.6,644,120.8,643.9,120.1z M612,130.4c0,4.4-3.6,8-8,8h-16c-4.4,0-8-3.6-8-8v-16c0-4.4,3.6-8,8-8h16c4.4,0,8,3.6,8,8V130.4z
	"/>
<path class="st1" d="M643.9,472L643.9,472c0-0.8-0.1-1.6-0.2-2.4c-2.4-23.6-21.6-42.1-45.5-43.3c-0.8,0-1.5-0.1-2.3-0.1h-0.2
	c-0.4,0-0.8,0-1.2,0c-0.4,0-0.7,0-1.1,0c-22.1,1.2-41,17.5-44.8,39.9h-0.4c-0.5,2.7-0.7,5.4-0.7,8.2c0,2.7,0.2,5.3,0.6,7.8h0.5
	c4.2,24.6,26.5,41.9,51.3,39.8c24-2,42.6-21.4,43.9-45.1c0-0.4,0-0.8,0-1.2c0,0,0,0,0-0.1c0-0.3,0-0.6,0-0.9v-0.4
	C644,473.5,644,472.8,643.9,472z M612,482.3c0,4.4-3.6,8-8,8h-16c-4.4,0-8-3.6-8-8v-16c0-4.4,3.6-8,8-8h16c4.4,0,8,3.6,8,8V482.3z"
	/>
<path class="st1" d="M292.2,472L292.2,472c0-0.8-0.1-1.6-0.2-2.4c-2.4-23.6-21.6-42.1-45.5-43.3c-0.8,0-1.5-0.1-2.3-0.1H244
	c-0.4,0-0.8,0-1.2,0c-0.4,0-0.7,0-1.1,0c-22.1,1.2-41,17.5-44.8,39.9h-0.4c-0.5,2.7-0.7,5.4-0.7,8.2c0,2.7,0.2,5.3,0.6,7.8h0.5
	c4.2,24.6,26.5,41.9,51.3,39.8c24-2,42.6-21.4,43.9-45.1c0-0.4,0-0.8,0-1.2c0,0,0,0,0-0.1c0-0.3,0-0.6,0-0.9v-0.4
	C292.2,473.5,292.2,472.8,292.2,472z M260.2,482.3c0,4.4-3.6,8-8,8h-16c-4.4,0-8-3.6-8-8v-16c0-4.4,3.6-8,8-8h16c4.4,0,8,3.6,8,8
	V482.3z"/>
<path class="st1" d="M292.2,120.1L292.2,120.1c0-0.8-0.1-1.6-0.2-2.4c-2.4-23.6-21.6-42.1-45.5-43.3c-0.8,0-1.5-0.1-2.3-0.1H244
	c-0.4,0-0.8,0-1.2,0c-0.4,0-0.7,0-1.1,0c-22.1,1.2-41,17.5-44.8,39.9h-0.4c-0.5,2.7-0.7,5.4-0.7,8.2c0,2.7,0.2,5.3,0.6,7.8h0.5
	c4.2,24.6,26.5,41.9,51.3,39.8c24-2,42.6-21.4,43.9-45.1c0-0.4,0-0.8,0-1.2c0,0,0,0,0-0.1c0-0.3,0-0.6,0-0.9v-0.4
	C292.2,121.6,292.2,120.8,292.2,120.1z M260.2,130.4c0,4.4-3.6,8-8,8h-16c-4.4,0-8-3.6-8-8v-16c0-4.4,3.6-8,8-8h16c4.4,0,8,3.6,8,8
	V130.4z"/>
</svg>
