<?xml version="1.0" encoding="utf-8"?>
<!-- Generator: Adobe Illustrator 22.1.0, SVG Export Plug-In . SVG Version: 6.00 Build 0)  -->
<svg version="1.1" id="Layer_1" xmlns="http://www.w3.org/2000/svg" xmlns:xlink="http://www.w3.org/1999/xlink" x="0px" y="0px"
	 viewBox="0 0 1000 1000" style="enable-background:new 0 0 1000 1000;" xml:space="preserve">
<style type="text/css">
	.st0{fill:#4EB682;}
</style>
<g>
	<path class="st0" d="M519.5,62.5c-11.3-11.5-30-11.8-41.7-0.6c-85,81.5-375.8,410.1,1.2,791.9c2.6,2.6,5.5,4.6,8.5,6V691.4
		l-70.9-70.9c-13.1,6.2-29.3,4.2-40.1-6.8c-13.9-13.8-13.9-36.2,0-50c13.8-13.9,36.2-13.9,50,0c10.9,10.8,13.1,27,6.8,40.1
		l54.3,54.3V505L418,435.4c-4.6-4.6-4.6-12,0-16.6c4.6-4.6,12.1-4.6,16.6,0l53,53V343.6c-13.8-4.8-23.7-17.9-23.7-33.3
		c0-19.6,15.9-35.4,35.4-35.4c19.5,0,35.4,15.8,35.4,35.4c0,15.3-9.9,28.5-23.6,33.3v197.2l83.6-83.6c-6.3-13.2-4.2-29.3,6.8-40.2
		c13.8-13.8,36.2-13.8,50,0c13.9,13.9,13.9,36.2,0,50.1c-10.8,10.8-27,13-40.1,6.8L511.1,574v135.9l36.8-36.8
		c14.1-14.1,21.8-32.8,21.8-52.6c0-6.5,5.3-11.8,11.8-11.8s11.8,5.3,11.8,11.8c0,26.2-10.2,50.8-28.8,69.2l-53.4,53.4v87.7h0V946
		c0,0.6,0.5,1.1,1.1,1.1h21.3c0.6,0,1.1-0.5,1.1-1.1V840.7C632.6,740.7,878.1,425.8,519.5,62.5z M409.1,409.9
		c-2.3,2.3-5.4,3.5-8.4,3.5c-2.9,0-6-1.2-8.2-3.5l-11.9-12c-4.6-4.5-4.6-12,0-16.6c4.6-4.5,12-4.5,16.6,0l12,12
		C413.7,397.8,413.7,405.3,409.1,409.9z M593.3,587c0,6.5-5.3,11.8-11.8,11.8s-11.8-5.3-11.8-11.8v-20.1c0-6.5,5.3-11.8,11.8-11.8
		s11.8,5.3,11.8,11.8V587z"/>
</g>
</svg>
