<?xml version="1.0" encoding="utf-8"?>
<!-- Generator: Adobe Illustrator 22.1.0, SVG Export Plug-In . SVG Version: 6.00 Build 0)  -->
<svg version="1.1" id="Layer_1" xmlns="http://www.w3.org/2000/svg" xmlns:xlink="http://www.w3.org/1999/xlink" x="0px" y="0px"
	 viewBox="0 0 1000 1000" style="enable-background:new 0 0 1000 1000;" xml:space="preserve">
<style type="text/css">
	.st0{fill:#4EB682;}
</style>
<g>
	<path class="st0" d="M823.2,205.1c0.1-16.2-12.9-29.5-29-29.9c-117.7-2.5-555.7,24.3-559.1,560.8c0,3.7,0.6,7.1,1.8,10.2
		l119.1-119.1V526.9c-13.7-4.8-23.7-17.8-23.6-33.1c-0.1-19.5,15.8-35.4,35.4-35.4c19.5-0.1,35.4,15.8,35.4,35.4
		c0.1,15.4-9.9,28.4-23.6,33.1v76.7l108.3-108.3v-98.4c0-6.5,5.3-11.8,11.8-11.8c6.5,0,11.8,5.3,11.8,11.8l-0.1,74.9l90.6-90.6
		c-6.4-13.1-4-29.4,6.8-40.3c13.8-13.8,36.2-13.8,50.1,0.1c13.8,13.8,13.8,36.1,0,50c-10.8,10.8-27.1,13.2-40.2,6.9L479.2,537.3
		h118.3c4.8-13.8,17.8-23.7,33.2-23.7c19.5,0,35.3,15.9,35.4,35.4c0,19.6-15.8,35.4-35.4,35.4c-15.3,0-28.3-9.9-33.1-23.6l-141.8,0
		l-96.1,96.1l52-0.1c20,0,38.6-7.7,52.6-21.8c4.6-4.6,12.1-4.6,16.7,0s4.6,12.1,0,16.7c-18.5,18.5-43.1,28.7-69.3,28.6h-75.5l-62,62
		l0,0l-81.4,81.4c-0.4,0.4-0.4,1.1,0,1.6l15.1,15.1c0.4,0.4,1.1,0.4,1.6,0l74.4-74.4C423.7,764.6,819.9,715.5,823.2,205.1z
		 M499.6,372.6c-3.3-0.1-6.3-1.3-8.4-3.5c-2.1-2.1-3.4-5.1-3.4-8.3l0-16.9c-0.1-6.4,5.3-11.8,11.8-11.8c6.4,0.1,11.6,5.3,11.7,11.7
		l0,16.9C511.4,367.3,506.1,372.6,499.6,372.6z M504.5,628.1c-4.6,4.6-12.1,4.6-16.7,0s-4.6-12.1,0-16.7l14.2-14.2
		c4.6-4.6,12.1-4.6,16.7,0s4.6,12.1,0,16.7L504.5,628.1z"/>
</g>
</svg>
