<?xml version="1.0" encoding="utf-8"?>
<!-- Generator: Adobe Illustrator 22.1.0, SVG Export Plug-In . SVG Version: 6.00 Build 0)  -->
<svg version="1.1" id="Layer_1" xmlns="http://www.w3.org/2000/svg" xmlns:xlink="http://www.w3.org/1999/xlink" x="0px" y="0px"
	 viewBox="0 0 1000 1000" style="enable-background:new 0 0 1000 1000;" xml:space="preserve">
<style type="text/css">
	.st0{fill:#4EB682;}
</style>
<g>
	<path class="st0" d="M204,176.5c-16.2-0.1-29.5,12.9-29.9,29c-2.5,117.7,24.3,555.7,560.8,559.1c3.7,0,7.1-0.6,10.2-1.8
		L626.1,643.8H525.8c-4.8,13.7-17.8,23.7-33.1,23.6c-19.5,0.1-35.4-15.8-35.4-35.4c-0.1-19.5,15.8-35.4,35.4-35.4
		c15.4-0.1,28.4,9.9,33.1,23.6h76.7L494.2,511.9h-98.4c-6.5,0-11.8-5.3-11.8-11.8c0-6.5,5.3-11.8,11.8-11.8l74.9,0.1l-90.6-90.6
		c-13.1,6.4-29.4,4-40.3-6.8c-13.8-13.8-13.8-36.2,0.1-50.1c13.8-13.8,36.1-13.8,50,0c10.8,10.8,13.2,27.1,6.9,40.2l139.4,139.4
		V402.3c-13.8-4.8-23.7-17.8-23.7-33.2c0-19.5,15.9-35.3,35.4-35.4c19.6,0,35.4,15.8,35.4,35.4c0,15.3-9.9,28.3-23.6,33.1v141.8
		l96.1,96.1l-0.1-52c0-20-7.7-38.6-21.8-52.6c-4.6-4.6-4.6-12.1,0-16.7s12.1-4.6,16.7,0c18.5,18.5,28.7,43.1,28.6,69.3v75.5l62,62
		l0,0l81.4,81.4c0.4,0.4,1.1,0.4,1.6,0l15.1-15.1c0.4-0.4,0.4-1.1,0-1.6l-74.4-74.4C763.5,576.1,714.3,179.8,204,176.5z
		 M371.5,500.2c-0.1,3.3-1.3,6.3-3.5,8.4c-2.1,2.1-5.1,3.4-8.3,3.4l-16.9,0c-6.4,0.1-11.8-5.3-11.8-11.8c0.1-6.4,5.3-11.6,11.7-11.7
		l16.9,0C366.2,488.3,371.5,493.7,371.5,500.2z M627,495.2c4.6,4.6,4.6,12.1,0,16.7s-12.1,4.6-16.7,0l-14.2-14.2
		c-4.6-4.6-4.6-12.1,0-16.7c4.6-4.6,12.1-4.6,16.7,0L627,495.2z"/>
</g>
</svg>
