<?xml version="1.0" encoding="utf-8"?>
<!-- Generator: Adobe Illustrator 22.1.0, SVG Export Plug-In . SVG Version: 6.00 Build 0)  -->
<svg version="1.1"
	 id="svg7766" inkscape:version="0.92.3 (2405546, 2018-03-11)" sodipodi:docname="dst_logo2_white.svg" xmlns:cc="http://creativecommons.org/ns#" xmlns:dc="http://purl.org/dc/elements/1.1/" xmlns:inkscape="http://www.inkscape.org/namespaces/inkscape" xmlns:rdf="http://www.w3.org/1999/02/22-rdf-syntax-ns#" xmlns:sodipodi="http://sodipodi.sourceforge.net/DTD/sodipodi-0.dtd" xmlns:svg="http://www.w3.org/2000/svg"
	 xmlns="http://www.w3.org/2000/svg" xmlns:xlink="http://www.w3.org/1999/xlink" x="0px" y="0px" viewBox="0 0 1870.7 425.7"
	 style="enable-background:new 0 0 1870.7 425.7;" xml:space="preserve">
<style type="text/css">
	.st0{fill:#FFFFFF;}
</style>
<sodipodi:namedview  bordercolor="#666666" borderopacity="1.0" id="base" inkscape:current-layer="layer1" inkscape:cx="433.60606" inkscape:cy="328.09842" inkscape:document-units="mm" inkscape:pageopacity="0.0" inkscape:pageshadow="2" inkscape:window-height="715" inkscape:window-maximized="1" inkscape:window-width="1366" inkscape:window-x="-8" inkscape:window-y="22" inkscape:zoom="0.39990234" pagecolor="#ffffff" showgrid="false">
	</sodipodi:namedview>
<g id="layer1" transform="translate(753.17076,180.28524)" inkscape:groupmode="layer" inkscape:label="Layer 1">
	<path id="path8457" inkscape:connector-curvature="0" class="st0" d="M-134.4,22.2c0,7.9-1.7,14.9-5,21c-3.3,6-8.2,10.8-14.5,14.2
		c-6.3,3.3-13.8,5-22.5,5h-28.5v-80.1h28.5c8.7,0,16.2,1.7,22.5,5c6.4,3.3,11.2,7.9,14.5,14C-136,7.2-134.4,14.2-134.4,22.2z
		 M-177.7,48.1c8.6,0,15.3-2.3,20-6.8c4.8-4.5,7.1-10.9,7.1-19.1S-153,7.6-157.7,3c-4.7-4.5-11.3-6.8-20-6.8h-11.1V48h11.1V48.1z"/>
	<path id="path8459" inkscape:connector-curvature="0" class="st0" d="M-97.8-1.2c5.3,0,9.8,1.2,13.6,3.7c3.8,2.5,6.5,5.9,8.1,10.1
		v-13h15.9v62.8h-15.9V49.2c-1.6,4.2-4.3,7.6-8.1,10.2c-3.8,2.5-8.3,3.7-13.6,3.7c-5.3,0-10.1-1.3-14.3-3.9
		c-4.2-2.6-7.6-6.3-10-11.1c-2.3-4.9-3.5-10.7-3.5-17.2c0-6.6,1.2-12.3,3.5-17.1c2.4-4.9,5.7-8.7,10-11.2
		C-107.9,0-103.1-1.2-97.8-1.2z M-92.8,12.7c-5,0-9,1.6-12,4.9s-4.5,7.7-4.5,13.4s1.5,10.1,4.5,13.4c3,3.2,7,4.8,12,4.8
		c4.8,0,8.8-1.6,11.9-4.9c3.2-3.3,4.8-7.8,4.8-13.3c0-5.6-1.6-10-4.8-13.3C-84,14.4-88,12.7-92.8,12.7L-92.8,12.7z"/>
	<path id="path8461" inkscape:connector-curvature="0" class="st0" d="M-12.2,48.7v13.7h-8.4c-7,0-12.4-1.7-16.2-5.1
		c-3.7-3.4-5.6-9.1-5.6-17V13.1h-8.7V-0.4h8.7V-16h16v15.5h14.1V13h-14.1v27.4c0,3,0.6,5.1,1.8,6.4c1.2,1.2,3.3,1.8,6.1,1.8
		L-12.2,48.7z"/>
	<path id="path8463" inkscape:connector-curvature="0" class="st0" d="M23.8-1.2c5.3,0,9.8,1.2,13.6,3.7c3.8,2.5,6.5,5.9,8.1,10.1
		v-13h15.9v62.8H45.5V49.2c-1.6,4.2-4.3,7.6-8.1,10.2c-3.8,2.5-8.3,3.7-13.6,3.7s-10.1-1.3-14.3-3.9s-7.5-6.1-9.9-11S-4,37.6-4,31
		s1.2-12.3,3.5-17.1c2.5-5,5.8-8.7,10-11.3S18.5-1.2,23.8-1.2z M28.8,12.7c-5,0-9,1.6-12,4.9s-4.5,7.7-4.5,13.4s1.5,10.1,4.5,13.4
		c3,3.2,7,4.8,12,4.8c4.8,0,8.8-1.6,11.9-4.9c3.2-3.3,4.8-7.8,4.8-13.3c0-5.6-1.6-10-4.8-13.3C37.6,14.4,33.7,12.7,28.8,12.7
		L28.8,12.7z"/>
	<path id="path8465" inkscape:connector-curvature="0" class="st0" d="M97.5-1.2c7.6,0,13.8,1.9,18.4,5.8s7.5,9,8.6,15.4h-15
		c-0.6-3-2-5.4-4.1-7.3c-2.1-1.8-4.9-2.7-8.3-2.7c-2.7,0-4.8,0.6-6.4,1.9c-1.5,1.3-2.3,3-2.3,5.2c0,1.7,0.6,3.1,1.8,4.2
		c1.2,1.1,2.7,1.9,4.5,2.5s4.4,1.3,7.8,2.2c4.8,1.1,8.6,2.2,11.6,3.4c3,1.1,5.6,3,7.7,5.6c2.2,2.5,3.3,5.9,3.3,10.2
		c0,5.4-2.1,9.7-6.4,13c-4.2,3.3-9.8,5-16.9,5c-8.2,0-14.7-1.8-19.6-5.4c-4.9-3.7-7.9-9-9-15.8h15.3c0.4,3.1,1.7,5.6,4.1,7.4
		c2.3,1.7,5.4,2.6,9.2,2.6c2.7,0,4.8-0.6,6.2-1.9c1.4-1.4,2.2-3.1,2.2-5.2c0-1.8-0.6-3.3-1.9-4.4c-1.2-1.1-2.8-2-4.7-2.6
		c-1.8-0.6-4.4-1.3-7.8-2.2c-4.7-1.1-8.5-2.1-11.5-3.2c-2.9-1.1-5.4-2.9-7.5-5.3c-2-2.4-3.1-5.7-3.1-10c0-5.4,2.1-9.9,6.2-13.3
		C84.5,0.5,90.2-1.2,97.5-1.2L97.5-1.2z"/>
	<path id="path8467" inkscape:connector-curvature="0" class="st0" d="M148-0.4l17.1,42.6L181-0.4h17.6l-38.5,92.8h-17.7l14.2-31.8
		l-26.4-61C130.2-0.4,148-0.4,148-0.4z"/>
	<path id="path8469" inkscape:connector-curvature="0" class="st0" d="M243.6-1.4c7.3,0,13,2.4,17.4,7.1s6.5,11.5,6.5,20.1v36.5
		h-15.9V27.7c0-5-1.3-8.8-3.9-11.6c-2.6-2.8-6.1-4.2-10.5-4.2c-4.5,0-8.2,1.5-10.9,4.4s-4.1,7.2-4.1,12.7v33.3h-16V-0.4h16v12.6
		c1.7-4.2,4.4-7.5,8.2-9.9C234.2-0.1,238.6-1.4,243.6-1.4L243.6-1.4z"/>
	<path id="path8471" inkscape:connector-curvature="0" class="st0" d="M315,48.7v13.7h-8.4c-7,0-12.4-1.7-16.2-5.1
		c-3.7-3.4-5.6-9.1-5.6-17V13.1h-8.7V-0.4h8.7V-16h16v15.5h14.1V13h-14.1v27.4c0,3,0.6,5.1,1.8,6.4c1.2,1.2,3.3,1.8,6.1,1.8
		L315,48.7z"/>
	<path id="path8473" inkscape:connector-curvature="0" class="st0" d="M363.9-1.4c7.3,0,13,2.4,17.4,7.1c4.3,4.8,6.5,11.5,6.5,20.1
		v36.5h-15.9V27.7c0-5-1.3-8.8-3.9-11.6s-6.1-4.2-10.5-4.2c-4.5,0-8.2,1.5-10.9,4.4c-2.7,2.9-4.1,7.2-4.1,12.7v33.3h-16v-83.9h16
		v33.7c1.7-4.2,4.4-7.5,8.2-9.9C354.4-0.1,358.9-1.4,363.9-1.4L363.9-1.4z"/>
	<path id="path8475" inkscape:connector-curvature="0" class="st0" d="M460.9,28.6c0,1.6-0.2,3.4-0.6,5.4h-46.1
		c0.2,5.6,1.7,9.7,4.5,12.4c2.8,2.6,6.3,4,10.4,4c3.7,0,6.8-0.9,9.2-2.7c2.5-1.8,4.1-4.3,4.8-7.4H460c-0.8,4.4-2.6,8.3-5.3,11.8
		c-2.7,3.5-6.2,6.2-10.5,8.2c-4.2,2-9,2.9-14.2,2.9c-6.1,0-11.6-1.3-16.3-3.9c-4.8-2.6-8.5-6.4-11.1-11.2s-4-10.5-4-17.1
		s1.3-12.3,4-17.1c2.6-4.9,6.4-8.7,11.1-11.2c4.8-2.6,10.2-3.9,16.3-3.9c6.2,0,11.6,1.3,16.2,3.9c4.7,2.6,8.3,6.1,10.8,10.7
		C459.6,17.7,460.9,22.8,460.9,28.6L460.9,28.6z M444.7,27c0.2-5.1-1.1-9-4.1-11.7c-2.9-2.6-6.4-4-10.7-4c-4.3,0-7.9,1.3-10.9,4
		c-2.9,2.6-4.6,6.5-4.9,11.7H444.7z"/>
	<path id="path8477" inkscape:connector-curvature="0" class="st0" d="M493.9-1.2c7.6,0,13.8,1.9,18.4,5.8c4.6,3.9,7.5,9,8.6,15.4
		h-15c-0.6-3-2-5.4-4.1-7.3c-2.1-1.8-4.9-2.7-8.3-2.7c-2.7,0-4.8,0.6-6.4,1.9s-2.3,3-2.3,5.2c0,1.7,0.6,3.1,1.8,4.2
		c1.2,1.1,2.7,1.9,4.5,2.5s4.4,1.3,7.8,2.2c4.8,1.1,8.6,2.2,11.6,3.4c3,1.1,5.6,3,7.7,5.6c2.2,2.5,3.3,5.9,3.3,10.2
		c0,5.4-2.1,9.7-6.4,13c-4.2,3.3-9.8,5-16.9,5c-8.2,0-14.7-1.8-19.6-5.4c-4.9-3.7-7.9-9-9-15.8h15.3c0.4,3.1,1.7,5.6,4.1,7.4
		c2.3,1.7,5.4,2.6,9.2,2.6c2.7,0,4.8-0.6,6.2-1.9c1.4-1.4,2.2-3.1,2.2-5.2c0-1.8-0.6-3.3-1.9-4.4c-1.2-1.1-2.8-2-4.7-2.6
		c-1.8-0.6-4.4-1.3-7.8-2.2c-4.7-1.1-8.5-2.1-11.5-3.2c-2.9-1.1-5.4-2.9-7.5-5.3c-2-2.4-3.1-5.7-3.1-10c0-5.4,2.1-9.9,6.2-13.3
		C480.8,0.5,486.5-1.2,493.9-1.2L493.9-1.2z"/>
	<path id="path8479" inkscape:connector-curvature="0" class="st0" d="M531.8-18.5c0-2.6,0.9-4.7,2.7-6.2c1.8-1.7,4.2-2.5,7.1-2.5
		c2.9,0,5.3,0.8,7.1,2.5c1.8,1.6,2.7,3.7,2.7,6.2s-0.9,4.6-2.7,6.2s-4.2,2.4-7.1,2.4c-2.9,0-5.3-0.8-7.1-2.4S531.8-16,531.8-18.5z
		 M549.6-0.4v62.8h-16V-0.4H549.6z"/>
	<path id="path8481" inkscape:connector-curvature="0" class="st0" d="M585.8-1.2c7.6,0,13.8,1.9,18.4,5.8c4.6,3.9,7.5,9,8.6,15.4
		h-15c-0.6-3-2-5.4-4.1-7.3c-2.1-1.8-4.9-2.7-8.3-2.7c-2.7,0-4.8,0.6-6.4,1.9s-2.3,3-2.3,5.2c0,1.7,0.6,3.1,1.8,4.2s2.7,1.9,4.5,2.5
		s4.4,1.3,7.8,2.2c4.8,1.1,8.6,2.2,11.6,3.4c3,1.1,5.6,3,7.7,5.6c2.2,2.5,3.3,5.9,3.3,10.2c0,5.4-2.1,9.7-6.4,13
		c-4.2,3.3-9.8,5-16.9,5c-8.2,0-14.7-1.8-19.6-5.4c-4.9-3.7-7.9-9-9-15.8h15.3c0.4,3.1,1.7,5.6,4.1,7.4c2.3,1.7,5.4,2.6,9.2,2.6
		c2.7,0,4.8-0.6,6.2-1.9c1.4-1.4,2.2-3.1,2.2-5.2c0-1.8-0.6-3.3-1.9-4.4c-1.2-1.1-2.8-2-4.7-2.6c-1.8-0.6-4.4-1.3-7.8-2.2
		c-4.7-1.1-8.5-2.1-11.5-3.2c-2.9-1.1-5.4-2.9-7.5-5.3c-2-2.4-3.1-5.7-3.1-10c0-5.4,2.1-9.9,6.2-13.3C572.7,0.5,578.5-1.2,585.8-1.2
		z"/>
</g>
<g>
	<g>
		
			<path id="path1682_1_" inkscape:connector-curvature="0" sodipodi:nodetypes="ccccccccccccccccccsssccscccccccscccccccsc" class="st0" d="
			M245.8,278.8c-17.8-8.8-33.6-21.4-46-37.2c-4.4-5.4-9.3-11.3-14.3-14.8c-4.6-3.1-9.9-4.1-15.7-4.1l-27.2-0.2
			c-2.2-3.6-6.2-5.8-10.5-5.8c-6.8,0-12.3,5.5-12.3,12.3s5.5,12.3,12.3,12.3c4.2,0,8.1-2.2,10.3-5.7l27.3,0.2c4.7,0,6.2,0.3,8.4,1.8
			c5.7,4.4,8.2,8,11.8,12.6c27.2,34.3,69,55.2,114.2,55.2v-13C283.5,292.3,263.6,287.5,245.8,278.8z M244.6,209.2L244.6,209.2
			c0-0.5,0.1-1.1,0.1-1.6C244.7,208.1,244.7,208.6,244.6,209.2z M169.9,189.9c-0.1,0-0.2,0-0.3,0h2.6
			C171.5,190,170.7,189.9,169.9,189.9z"/>
		<path class="st0" d="M244.8,207.6c0,0.5-0.1,1.1-0.1,1.6l0,0C244.7,208.6,244.7,208.1,244.8,207.6z"/>
		<g>
			<path class="st0" d="M195.7,189.9h53.4c4.5-10.8,12.1-20,21.7-26.5s21.1-10.3,33.5-10.3v13.1c-25.9,0-46.7,20.8-46.7,46.7
				c0,12.9,5.2,24.6,13.6,33.1c8.5,8.4,20.1,13.6,33.1,13.6v13.1c-24.8,0-46.2-15.3-55.2-36.9h-37.6c-1.8,0-3.3-1.5-3.3-3.3
				c0-0.5,0.1-1,0.4-1.5c0.5-1,1.6-1.8,2.9-1.8h35.3c-1.2-4.1-1.9-8.3-2.2-12.7l0,0c-0.1-2.4-0.1-4.9,0-7.4l0,0
				c0-0.5,0.1-1.1,0.1-1.6v-0.1c0-0.5,0.1-1.1,0.2-1.6c0.4-3.2,1-6.4,1.9-9.4h-80.2c-1.3,0-2.5-0.8-3-1.9c-0.2-0.4-0.3-0.9-0.3-1.3
				c0-1.8,1.4-3.2,3.1-3.2h2.9h0.1h2.6c2,0,3.3-0.2,6.1-1.9c4.8-3.4,12.2-12.9,12.2-12.9c27.2-34.1,68.8-54.9,113.9-54.9v13.1
				C260.4,133.4,220.1,155,195.7,189.9z"/>
		</g>
	</g>
	<g>
		
			<path id="path1679_1_" inkscape:connector-curvature="0" sodipodi:nodetypes="ccccccccccccccccccsssccscccccccscccccccsc" class="st0" d="
			M359.4,190C359.4,190,359.5,190,359.4,190L359.4,190L359.4,190L359.4,190z M476.3,184.6c-4.2,0-8.1,2.1-10.3,5.7l-27.3-0.2
			c-4.7,0-6.2-0.3-8.4-1.8c-5.7-4.4-8.2-8-11.8-12.6c-27.2-34.3-69-55.2-114.2-55.3v13.1c20.7,0,40.6,4.8,58.5,13.6
			c17.8,8.8,33.6,21.4,46,37.2c4.4,5.3,9.3,11.3,14.3,14.8c4.6,3.1,9.9,4.1,15.7,4.1l27.2,0.2c2.2,3.6,6.2,5.8,10.5,5.9
			c6.8,0,12.3-5.5,12.3-12.3C488.6,190.1,483.1,184.6,476.3,184.6z"/>
		<g>
			<path class="st0" d="M169.5,190h-0.1h-2.9c0,0,0.1,0,0.2,0H169.5z"/>
			<path class="st0" d="M445.1,232.5c0,1.8-1.5,3.3-3.3,3.3h-2.7c-0.2,0-0.3,0-0.5,0c-3.5,0-4.5-0.4-8.4,1.9
				c-4.8,3.3-12.2,12.9-12.2,12.9c-27.2,34.1-68.8,54.9-113.9,54.9v-13c43.8,0,84.1-21.7,108.6-56.6h-53.4
				c-4.5,10.8-12.1,20-21.7,26.5s-21.1,10.3-33.5,10.3v-13.1c25.9,0,46.7-20.8,46.7-46.7c0-13-5.2-24.6-13.6-33.1
				c-8.5-8.4-20.1-13.7-33.1-13.7V153c24.8,0,46.2,15.3,55.2,36.9l0,0l0,0H397c1.7,0.1,3.1,1.5,3.1,3.2c0,0.5-0.1,1.1-0.4,1.5
				c-0.6,1-1.6,1.7-2.9,1.7h-35.3c1.2,4.1,1.9,8.3,2.2,12.7l0,0c0.2,2.4,0.2,4.9,0,7.4l0,0c-0.3,4.4-1,8.6-2.2,12.7h80.2
				c1.3,0,2.5,0.8,3,1.9C445,231.5,445.1,232,445.1,232.5z"/>
			<path class="st0" d="M397.2,190h-37.7l0,0H397C397.1,190,397.1,190,397.2,190z"/>
		</g>
	</g>
</g>
<g>
	<path class="st0" d="M1465.4,169c6.4,4.8,10.6,11.3,12.4,19.5h-16.8c-1.6-3.6-4.1-6.5-7.5-8.7c-3.4-2.2-7.5-3.2-12.2-3.2
		c-4.6,0-8.7,1.1-12.3,3.2c-3.6,2.1-6.3,5.1-8.3,9.1c-2,3.9-3,8.6-3,13.8c0,8.4,2.3,14.9,6.8,19.6c4.5,4.7,10.7,7,18.4,7
		c5.8,0,10.7-1.7,14.8-5.1c4.1-3.4,6.8-8.1,8-14.2h-27.1v-11.5h40.5V214c-1.1,5.3-3.3,10.2-6.6,14.6c-3.3,4.5-7.6,8-12.9,10.7
		c-5.3,2.7-11.4,4-18.3,4c-7.9,0-14.8-1.7-20.8-5.2c-6-3.4-10.7-8.2-14-14.4c-3.3-6.2-4.9-13.2-4.9-21.2c0-7.9,1.6-15,4.9-21.2
		c3.3-6.2,7.9-11,13.9-14.5c6-3.5,12.9-5.2,20.8-5.2C1450.8,161.8,1458.9,164.2,1465.4,169z"/>
	<path class="st0" d="M1516.4,182.4c3.9-2.3,8.2-3.5,12.9-3.5V196h-4.7c-11.7,0-17.6,5.4-17.6,16.3v30.3h-16v-62.9h16v12
		C1509.5,187.8,1512.6,184.7,1516.4,182.4z"/>
	<path class="st0" d="M1583.8,182.9c4.9,2.6,8.7,6.3,11.5,11.2c2.8,4.9,4.2,10.6,4.2,17.2c0,6.6-1.4,12.3-4.2,17.1
		c-2.8,4.8-6.6,8.6-11.5,11.2c-4.9,2.6-10.4,3.9-16.5,3.9c-6.1,0-11.6-1.3-16.5-3.9c-4.9-2.6-8.7-6.3-11.5-11.2
		c-2.8-4.8-4.2-10.6-4.2-17.1c0-6.6,1.4-12.3,4.2-17.2c2.8-4.9,6.6-8.6,11.5-11.2c4.9-2.6,10.4-3.9,16.5-3.9
		C1573.4,179,1578.9,180.3,1583.8,182.9z M1555.9,197.6c-3.1,3.1-4.7,7.7-4.7,13.7c0,6,1.6,10.5,4.7,13.7c3.1,3.1,6.9,4.7,11.4,4.7
		c4.5,0,8.2-1.6,11.4-4.7c3.1-3.1,4.7-7.7,4.7-13.7c0-6-1.6-10.5-4.7-13.7c-3.1-3.1-6.9-4.7-11.4-4.7
		C1562.8,192.9,1559,194.4,1555.9,197.6z"/>
	<path class="st0" d="M1671,179.8v62.9h-16V230c-1.7,4.2-4.4,7.5-8.2,9.9c-3.8,2.4-8.2,3.6-13.2,3.6c-7.3,0-13.1-2.4-17.4-7.2
		s-6.5-11.4-6.5-20v-36.6h15.9v34.7c0,5,1.3,8.9,3.9,11.6c2.6,2.8,6.1,4.1,10.4,4.1c4.6,0,8.3-1.5,11-4.4c2.7-3,4.1-7.2,4.1-12.7
		v-33.4H1671z"/>
	<path class="st0" d="M1737.4,182.9c4.2,2.6,7.5,6.3,9.9,11.2s3.6,10.6,3.6,17.2c0,6.6-1.2,12.3-3.6,17.2c-2.4,4.9-5.7,8.6-9.9,11.2
		c-4.2,2.6-9,3.9-14.3,3.9c-5.3,0-9.8-1.3-13.6-3.8c-3.7-2.5-6.4-5.9-8-10.2v43.1h-16v-92.9h16v13.1c1.6-4.2,4.3-7.6,8-10.1
		c3.7-2.5,8.3-3.7,13.6-3.7C1728.4,179,1733.2,180.3,1737.4,182.9z M1706.2,197.9c-3.1,3.3-4.7,7.7-4.7,13.3c0,5.5,1.6,9.9,4.7,13.2
		c3.1,3.3,7.1,4.9,12,4.9c5,0,9-1.6,12-4.8c3-3.2,4.5-7.7,4.5-13.3s-1.5-10.1-4.5-13.4c-3-3.3-7-4.9-12-4.9
		C1713.3,193,1709.3,194.6,1706.2,197.9z"/>
</g>
</svg>
