<?xml version="1.0" encoding="utf-8"?>
<!-- Generator: Adobe Illustrator 22.1.0, SVG Export Plug-In . SVG Version: 6.00 Build 0)  -->
<svg version="1.1" id="Layer_1" xmlns="http://www.w3.org/2000/svg" xmlns:xlink="http://www.w3.org/1999/xlink" x="0px" y="0px"
	 viewBox="0 0 1366 768" style="enable-background:new 0 0 1366 768;" xml:space="preserve">
<style type="text/css">
	.st0{display:none;}
	.st1{display:inline;}
	.st2{fill:#19ACA5;}
	.st3{fill:#1D5870;}
	.st4{fill:#FFFFFF;}
	.st5{fill:#71C598;}
	.st6{fill:#133A5F;}
	.st7{fill:#FEE56D;}
	.st8{display:inline;fill:#19ACA5;}
	.st9{fill:none;stroke:#71C598;stroke-width:9.1177;stroke-linecap:round;stroke-linejoin:round;stroke-miterlimit:10;}
	.st10{fill:#66B38A;}
	.st11{fill:#E6CF62;}
	.st12{opacity:0.3;fill:#FFFFFF;}
</style>
<g id="holo" class="st0">
	<g class="st1">
		<path class="st2" d="M1042.1,484.1c-3.9,7-8.3,13.7-13.1,20c-2,2.6-4,5.2-6.1,7.8c-2.4,2.9-4.8,5.7-7.4,8.5
			c-1.1,1.2-2.1,2.3-3.2,3.5c-11.7,12.3-24.7,23.3-38.4,33.3c-7.6,5.6-15.5,10.9-23.5,15.9c-5,3.2-10.1,6.2-15.2,9.2
			c-1.5,0.9-3,1.7-4.5,2.6c-1.8,1-3.7,2.1-5.5,3.1c-1.7,0.9-3.4,1.9-5.2,2.8c-2.2,1.2-4.4,2.3-6.5,3.4c-1.7,0.9-3.4,1.7-5,2.5
			s-3.3,1.6-5,2.4c-0.4,0.2-0.9,0.4-1.3,0.6c-1.6,0.8-3.2,1.5-4.8,2.3c-0.1,0-0.2,0.1-0.3,0.1c-1.5,0.7-3.1,1.4-4.7,2.1
			c-0.4,0.2-0.9,0.4-1.3,0.6c-1.3,0.6-2.5,1.1-3.8,1.7c-0.8,0.4-1.6,0.7-2.4,1c-1,0.5-2.1,0.9-3.1,1.3c-0.1,0-0.3,0.1-0.4,0.2
			c-1.6,0.7-3.3,1.4-5,2c-1.7,0.7-3.3,1.3-5,2c-0.3,0.1-0.6,0.2-0.9,0.3c-1.4,0.5-2.8,1.1-4.2,1.6c-0.5,0.2-1,0.4-1.6,0.6
			c-1.3,0.5-2.7,1-4.1,1.5c-0.4,0.1-0.7,0.3-1.1,0.4c-1.5,0.5-3,1.1-4.5,1.6c-1.6,0.6-3.3,1.2-4.9,1.7c-1.2,0.4-2.3,0.8-3.5,1.2
			c-2.7,0.9-5.5,1.8-8.2,2.7c-5.8,1.8-11.5,3.5-17.4,5.1c-1.1,0.3-2.1,0.6-3.2,0.9c-1.3,0.3-2.6,0.7-3.9,1c-1.5,0.4-3.1,0.8-4.6,1.2
			c-0.8,0.2-1.6,0.4-2.4,0.6c-1.2,0.3-2.4,0.6-3.7,0.9c-0.8,0.2-1.6,0.4-2.5,0.6c-1.5,0.3-3,0.7-4.4,1c-0.3,0.1-0.5,0.1-0.8,0.2
			c-2.1,0.5-4.1,0.9-6.2,1.3c-4.9,1-9.8,2-14.8,2.9c-0.8,0.1-1.7,0.3-2.5,0.4c-1.4,0.2-2.8,0.5-4.2,0.7c-2.4,0.4-4.8,0.8-7.2,1.1
			c-1.2,0.2-2.4,0.4-3.6,0.5c-1.3,0.2-2.7,0.4-4,0.6c-1.1,0.2-2.1,0.3-3.2,0.4c-1.2,0.2-2.4,0.3-3.6,0.5c-1.1,0.1-2.2,0.3-3.3,0.4
			c-0.2,0-0.3,0-0.5,0.1c-1.1,0.1-2.2,0.3-3.4,0.4c-1.2,0.1-2.4,0.3-3.6,0.4c-2.3,0.2-4.5,0.5-6.8,0.7c-1.4,0.1-2.7,0.3-4.1,0.4
			C671,651.4,616.7,648,564,637c-0.3-0.1-0.7-0.1-1-0.2c-8.2-1.7-16.4-3.6-24.6-5.7c-0.7-0.2-1.3-0.3-2-0.5c-0.5-0.1-1-0.3-1.6-0.4
			c-23.6-6.2-46.7-14-69.2-23.3c-6.6-2.7-13.1-5.6-19.5-8.5c-12.4-5.8-24.6-12.1-36.3-19.2c-1.3-0.8-2.6-1.6-3.9-2.4
			c-1.1-0.7-2.2-1.4-3.2-2c-0.5-0.3-0.9-0.6-1.4-0.9c-0.9-0.6-1.8-1.2-2.7-1.8c-0.2-0.1-0.4-0.3-0.6-0.4c-1.1-0.7-2.2-1.5-3.3-2.2
			c-1-0.7-2-1.4-2.9-2.1c-0.6-0.5-1.3-0.9-1.9-1.4c-1.1-0.8-2.2-1.6-3.3-2.4c-0.8-0.6-1.6-1.2-2.4-1.8c-0.4-0.3-0.8-0.6-1.2-0.9
			c-1-0.8-2-1.5-2.9-2.3c-1-0.8-2-1.6-3-2.5c-0.2-0.2-0.5-0.4-0.7-0.6c-1-0.9-2.1-1.7-3.1-2.6l-0.1-0.1c-1.1-0.9-2.1-1.8-3.2-2.8
			c-0.1-0.1-0.3-0.3-0.4-0.4c-1-0.9-2-1.9-3-2.8l-0.1-0.1c-1-1-2.1-2-3.1-3c-0.1-0.1-0.2-0.2-0.4-0.3c-1-1-2-2-3-3l-0.1-0.1
			c-1-1-1.9-2-2.8-2.9c-1.1-1.2-2.2-2.4-3.3-3.6c-0.5-0.6-1-1.1-1.5-1.7c-12.6-14.3-22.9-30.6-30.8-47.9
			c-11.1-24.3-17.3-50.9-18.5-77.6c-1.2-28.6,3.4-57.3,14.3-83.8c10.7-26.1,28.6-51.1,55.1-60.9c13-4.8,26.9-5.5,41-5.6
			c5.8,0,11.6,0,17.3-0.1c4.2,0,8.4-0.2,12.5-0.4c0.6,0,1.3-0.1,1.9-0.1c0.3,0,0.6,0,0.9-0.1c4.9-0.4,9.7-1.1,14.4-2.2
			c5.2-1.2,10.4-2.9,15.3-5.4c0.1,0,0.1-0.1,0.2-0.1c1-0.5,1.9-1,2.8-1.5c5.2-2.9,9.8-6.5,14-10.6c1.9-1.8,3.7-3.7,5.4-5.7
			c5.4-6.1,10-13,14.4-20.2c5.1-8.4,9.9-17.2,14.8-25.5c0.1-0.2,0.3-0.4,0.4-0.7c2.2-3.7,4.5-7.2,7.1-10.6c1.1-1.5,2.2-2.9,3.4-4.3
			c8.3-9.9,18.3-18.2,29.3-24.5c18.1-10.4,39.1-15.5,60.6-14.4l0,0c3.4,0.2,6.8,0.5,10.2,1c7.6,1.1,15.1,2.3,22.7,3.5
			c3.6,0.6,7.1,1.2,10.7,1.8c11.1,1.9,22.1,3.8,33.2,6c3.6,0.7,7.1,1.4,10.7,2.1c0.1,0,0.2,0,0.3,0.1c11,2.2,22,4.6,32.9,7.1
			c22.1,5.1,44.1,10.8,65.8,17.4c1,0.3,2.1,0.6,3.1,1c20.5,6.3,40.8,13.3,60.6,21.6c0.2,0.1,0.4,0.2,0.6,0.3
			c0.9,0.4,1.7,0.7,2.6,1.1c3.5,1.5,7,3,10.5,4.6c6,2.7,11.9,5.6,17.7,8.5c7,3.6,14,7.4,20.8,11.4c11.3,6.7,22.2,14,32.7,21.9
			c2.7,2.1,5.4,4.2,8,6.3c19.7,16.1,37.2,34.9,51.8,55.7c1,1.4,2,2.8,2.9,4.3c1,1.5,2,3,3,4.5c0.8,1.2,1.6,2.4,2.3,3.7
			c3.6,5.8,7,11.7,10.2,17.8c12.2,23.4,20.8,49.1,21.4,75.5C1063.6,433.7,1055.5,460.4,1042.1,484.1z"/>
		<path class="st3" d="M935.2,582.2c-1.5,0.9-3,1.7-4.5,2.6c-29.3,16.5-60.3,29.7-92.3,39.8c-36.8,11.6-75.1,18.9-113.7,22.2
			c-53.5,4.5-107.8,1.1-160.5-9.9c-0.3-0.1-0.7-0.1-1-0.2c-8.2-1.7-16.4-3.6-24.6-5.7c-0.7-0.2-1.3-0.3-2-0.5
			c-0.5-0.1-1-0.3-1.6-0.4c-23.6-6.2-46.7-14-69.2-23.3c-6.6-2.7-13.1-5.6-19.5-8.5c-12.4-5.8-24.6-12.1-36.3-19.2
			c-6.8-4.1-13.5-8.5-19.9-13.2c-13.1-9.5-25.3-20.1-36.1-32.2c-0.5-0.6-1-1.1-1.5-1.7c-12.6-14.3-22.9-30.6-30.8-47.9
			c-11.1-24.3-17.3-50.9-18.5-77.6l101.6,28.3l48.3,13.4l7.1,2l0.5,0.2l54,15l2,0.5l17,4.7l9,2.5L935.2,582.2z"/>
		<g>
			<polygon class="st3" points="803.4,475.4 619.5,414.6 626.5,270.6 827.4,236.4 			"/>
			<polygon class="st4" points="635.5,335.6 656.4,334.9 655.5,344.6 634.5,343.6 			"/>
			<polygon class="st5" points="712.2,333.3 711,347.3 675.5,345.6 676.5,334.3 			"/>
			<polygon class="st4" points="801.5,330.6 798.5,351.6 738.3,348.6 739.7,332.4 			"/>
			<polygon class="st4" points="748,441.4 682.5,422.6 688.5,385.6 752.5,395.6 			"/>
			<polygon class="st5" points="805.5,289.6 667.5,301.6 669.5,277.6 809.5,253.6 			"/>
			<polygon class="st4" points="800.5,285.6 673.1,298.1 673.5,280.6 804.1,258.5 			"/>
			
				<ellipse transform="matrix(0.1683 -0.9857 0.9857 0.1683 248.0923 878.2092)" class="st5" cx="644.5" cy="292.1" rx="13.5" ry="9"/>
			
				<ellipse transform="matrix(0.1683 -0.9857 0.9857 0.1683 225.0532 1116.2068)" class="st5" cx="774" cy="424.7" rx="24.3" ry="16.2"/>
		</g>
		<g>
			<path class="st3" d="M622.9,192.6v21.3c0,0.9,0.7,1.6,1.6,1.6h267.8c0.9,0,1.6-0.7,1.6-1.6v-11c-0.2-6.3-5.2-11.6-11.6-11.9
				H624.5C623.6,191,622.9,191.8,622.9,192.6z"/>
			<g>
				<path class="st6" d="M881.7,191v58.2h8.6c1.2,0,2.5,0.1,3.6,0.3v-46.3c0-0.1,0-0.2,0-0.3c-0.2-6.3-5.2-11.6-11.6-11.9
					C882.1,191,881.9,191,881.7,191z"/>
				<path class="st3" d="M869.4,203.3v46.3c1.2-0.2,2.4-0.3,3.6-0.3h8.6V191C874.9,191,869.4,196.6,869.4,203.3z"/>
			</g>
			<g>
				<path class="st3" d="M881.7,249.2v245.2h32.7V273.3c0-12.1-8.8-22.1-20.5-23.8c-1.2-0.2-2.4-0.3-3.6-0.3L881.7,249.2
					L881.7,249.2z"/>
				<path class="st5" d="M849,273.3v221.2h32.7V249.2H873c-1.2,0-2.5,0.1-3.6,0.3C857.8,251.2,849,261.2,849,273.3z"/>
			</g>
			<g>
				<path class="st5" d="M973.9,518.5v38.7c-7.6,5.6-15.5,10.9-23.5,15.9c-5,3.2-10.1,6.2-15.2,9.2c-1.5,0.9-3,1.7-4.5,2.6
					c-15.9,8.9-32.2,16.9-49,23.9V494.5h68.2C963.2,494.5,973.9,505.3,973.9,518.5z"/>
				<path class="st4" d="M881.7,494.5v114.3c-14.2,6-28.6,11.2-43.3,15.8c-16.1,5.1-32.5,9.3-49,12.8V518.5c0-13.2,10.8-24,24-24
					H881.7z"/>
			</g>
			<g>
				<path class="st6" d="M841.3,412.7c0,2.8,2.3,5.1,5.1,5.1H917c2.8,0,5.1-2.3,5.1-5.1c0-2.8-2.3-5.1-5.1-5.1h-70.6
					C843.6,407.7,841.3,409.9,841.3,412.7z"/>
				<path class="st3" d="M841.3,412.7c0,2.8,2.3,5.1,5.1,5.1h35.3v-10.2h-35.3C843.6,407.7,841.3,409.9,841.3,412.7z"/>
			</g>
			<g>
				<path class="st6" d="M841.3,331c0,2.8,2.3,5.1,5.1,5.1H917c2.8,0,5.1-2.3,5.1-5.1c0-2.8-2.3-5.1-5.1-5.1h-70.6
					C843.6,325.9,841.3,328.2,841.3,331z"/>
				<path class="st3" d="M841.3,331c0,2.8,2.3,5.1,5.1,5.1h35.3v-10.2h-35.3C843.6,325.9,841.3,328.2,841.3,331z"/>
			</g>
			<g>
				<path class="st5" d="M579,179.3v47.8c0,7.2,5.8,13.1,13.1,13.1h61.7c7.2,0,13-5.8,13-13.1v-47.8c0-7.2-5.8-13-13-13H592
					C584.8,166.3,579,172.2,579,179.3z"/>
				<path class="st3" d="M622.9,179.3v47.8c0,7.2,5.8,13.1,13,13.1h17.8c7.2,0,13-5.8,13-13.1v-47.8c0-7.2-5.8-13-13-13h-17.8
					C628.7,166.3,622.9,172.2,622.9,179.3z"/>
				<circle class="st5" cx="644.8" cy="203.3" r="8.2"/>
				<circle class="st4" cx="600.7" cy="203.3" r="8.2"/>
				<circle class="st3" cx="600.7" cy="203.3" r="4.7"/>
				<circle class="st3" cx="644.8" cy="203.3" r="4.7"/>
			</g>
		</g>
		<g>
			<g>
				<path class="st7" d="M658.8,359.8c16.1-13.7,25-19.2,35-21.2s-10.7,13-12,17.2c-1.6,5.2,2.1,8.9-2.2,12.3l-11.6,5.6L658.8,359.8
					z"/>
				<path class="st5" d="M673.7,374.7c-2.7,2.2-58.7,45.9-87.2,68.2c-9.8,7.7-16.4,12.8-16.4,12.8c-1.2,0.9-8.9,6.1-19.6,13.2
					c-29.7,19.8-78.5-3.3-78.5-3.3s-9.7,0.9-19.3-1.9c0-1.1,0-2.2,0-3.3c0.2-25,1.6-31.8,20.8-43l4.7-2.7c6.2-3.6,10-6.2,13.3-7.4
					c4.3,0.2,8.6,0.7,12.7,1.6c4.7,1,9.2,2.4,13.4,3.9c15.3,5.6,26.2,13.6,26.2,13.6s116.6-79.4,118.6-70c0,0.1,0,0.1,0,0.2l0,0
					c0.1,0.3,0.1,0.4,0.2,0.7c1.9,6,8,10.5,10.5,13.7c0.2,0.2,0.3,0.5,0.5,0.7C674.5,373,674.7,373.9,673.7,374.7z"/>
			</g>
			<g>
				<polygon class="st7" points="487.1,369.2 453.9,370 452.9,327.8 452.5,312.9 452.4,304.8 485.4,304 486.2,333.6 486.3,340.2 
					486.3,340.6 				"/>
				<path class="st6" d="M486.3,340.2c-11,2.4-24.5-2.1-33.4-12.4l-0.4-14.9l22.8-7.2l10.9,27.9L486.3,340.2z"/>
				<path class="st7" d="M502.3,281.3c2.4,7.6,3.4,15.3,3.1,22.3c0,2-0.3,4-0.6,5.9c-2,12.9-8.5,23.2-18.5,26.9l-1.2,0.4
					c-10.3,3.2-21.7-1-30.9-10.3c-0.5-0.4-0.9-0.9-1.3-1.4c-5.8-6.1-10.7-14.4-13.7-23.9c-8-25.1-0.3-49.9,17.1-55.4
					c11.4-3.6,24.1,1.9,33.6,13.1C495.2,264.8,499.6,272.5,502.3,281.3z"/>
				<path class="st6" d="M452.6,332.4c10-23.3-17.4-60.5,0.7-45.8c14.2,11.5,12.6-4.4,29-18.2c10.1-8.6,14.5-22.1,10.1-34.6
					l-1.2-3.3c-2.4-6.8-10.6-9.2-16.5-5.1C436.4,251.8,388.9,264.3,452.6,332.4z"/>
				<path class="st7" d="M495.5,302.8l13.7-4.6c2.6-0.9,3.6-4,2.1-6.2l-10.8-15.9l-12.5,4.2L495.5,302.8z"/>
			</g>
			<path class="st5" d="M536.6,630.4c-0.5-0.1-1-0.3-1.6-0.4c-23.6-6.2-46.7-14-69.2-23.3c-6.6-2.7-13.1-5.6-19.5-8.5
				c-12.4-5.8-24.6-12.1-36.3-19.2c-6.8-4.1-13.5-8.5-19.9-13.2c6.4-52.9,12.8-98.1,14.8-131.1c0.3-4.5,0.5-8.9,0.5-12.9
				c0-1.1,0-2.2,0-3.3c0.2-25,12.6-47.8,31.8-59l4.7-2.7c5.1-3,8.6-5.3,11.5-6.7c0.6-0.3,1.2-0.5,1.8-0.8c3.9-1.4,7.1-1,12.7,1.6
				c1.7,0.8,3.5,1.7,5.7,2.9l13.2,7.1l17.8,9.5l2.2,6.5c9.6,5.1,17.3,13.5,22.3,23.7c3.1,6.2,5.1,13.1,6,20.4l0,0
				c0.6,5,0.7,10.1,0.1,15.2c-0.2,2.2-0.4,4.7-0.8,7c-0.8,8.1-1,17.3-0.9,27.1c0,1.7,0,3.4,0.1,5.1c0.3,19.2,1.4,40.6,0.9,62l0,0
				c0,1.4-0.1,2.8-0.1,4.2c0,0.5,0,1,0,1.5s0,0.9-0.1,1.4c0,0.7-0.1,1.3-0.1,2c0,0.1,0,0.3,0,0.4c-0.3,7.6-0.5,15.3-0.6,23l0,0v2
				c0,1,0,2,0,3c0,0.3,0,0.6,0,0.9c0,0.4,0,0.7,0,1.1C533.5,595.6,534.7,613.4,536.6,630.4z"/>
			<path class="st7" d="M576.3,573.1c5.1,4,2.7,5.1,3,2.6c0.2-2,22.6,7.8,20.9,10.9c-1.7,3.2-4,1-7.5,5.1s-8.9,5.1-13,4.7
				c-5.2-0.5-10.5-8.2-14.5-11.6v-0.5L576.3,573.1z"/>
			<path class="st3" d="M534.4,546.9c0,0.5,0,1,0,1.5c-0.1,1.2-0.1,2.5-0.2,3.7c-0.3,8.3-0.5,16.6-0.6,25
				c-21.5-11.1-62.1-30.6-62.1-30.6l-0.1-0.1c-13.5-16.9-11.6-45.3-11.6-69.2c0-14.1,0.7-28.2,2.4-42.2c1-8.5,2.3-17,3.9-22.9
				c4.3-16.4,21.5-34.8,44.9-11.2c7.8,7.8,11.8,18.7,11.2,29.8c-1.9,34.2-21.7,92.9-21.7,92.9S517.9,535,534.4,546.9z"/>
			<path class="st5" d="M522.2,421.7c-1.9,34.2-21.7,92.9-21.7,92.9s89.3,58.8,80.5,61.2s-13.7,14.8-16.6,11.5
				c-2.9-3.3-93-49.8-93-49.8l-0.1-0.1c-13.4-16.9-11.6-45.3-11.6-69.2c0-14.1,0.7-28.2,2.4-42.2c1-8.5,2.3-17,3.9-22.9
				c4.3-16.4,21.5-34.8,44.9-11.2C518.8,399.7,522.8,410.6,522.2,421.7z"/>
		</g>
		<g>
			<path class="st5" d="M277.8,403.5c6.2,23.3,8.5,48.5,22,68.5c9.3,13.7,23.7,23.4,39.7,27.8c10.5,2.9,20.8-5.4,20-16.3
				c-3.3-42.4,22-88.6,14-131.3c-5.6-29.8-27-54.2-49.6-74.4c-7.8-7-16.1-13.9-25.9-17.7c-9.8-3.8-21.5-4.1-30.3,1.6
				c-9.5,6.1-14,17.8-15.5,29.1C246.8,329.3,267.9,366,277.8,403.5z"/>
			<g>
				<path class="st3" d="M348.6,527.4c-2.4-8-4.4-16.9-5.9-26.9c-2.3-15-3.4-32.2-2.8-51.9c0.1-4.8,0.1-9.5-0.1-14.2
					c-0.2-3.7-0.4-7.3-0.8-10.9l0,0c-0.2-2.5-0.5-4.9-0.8-7.3c-1.1-8-2.5-15.7-4.3-23.1c-0.1-0.3-0.1-0.6-0.2-0.9
					c-3.3-13.8-7.6-26.4-12-37.4c-0.7-1.8-1.4-3.5-2.2-5.2c-2.2-5.3-4.5-10.1-6.6-14.3c-7.3-14.8-13.2-23.6-13.4-23.8
					c-0.6-0.9-1.9-1.1-2.8-0.5s-1.1,1.9-0.5,2.8c0.2,0.3,7,10.3,15,27.1c6,12.8,12.7,29.4,17.6,48.5c0.4,1.7,0.9,3.5,1.3,5.2
					c1.5,6.6,2.9,13.5,3.8,20.6c0.9,6.2,1.5,12.5,1.8,19c0,0.1,0,0.2,0,0.3c0.2,4.7,0.3,9.4,0.1,14.2c-0.5,19.8,0.5,36.7,2.5,51.1
					c1,7,2.2,13.4,3.6,19.3L348.6,527.4z"/>
			</g>
			<g>
				<path class="st3" d="M319.4,356.6c-0.3,0-0.6-0.1-0.9-0.2c-1-0.5-1.4-1.7-0.9-2.7c0.1-0.1,7.5-15.1,4.7-27.2
					c-0.2-1.1,0.4-2.1,1.5-2.4c1.1-0.2,2.1,0.4,2.4,1.5c3.1,13.5-4.7,29.2-5,29.9C320.9,356.2,320.2,356.6,319.4,356.6z"/>
			</g>
			<g>
				<path class="st3" d="M331.8,395c-0.3,0-0.5-0.1-0.8-0.2c-0.8-0.4-20.8-9-29.1-28.6c-0.4-1,0-2.2,1.1-2.6c1-0.4,2.2,0,2.6,1.1
					c7.6,18,26.7,26.4,26.9,26.4c1,0.4,1.5,1.6,1.1,2.6C333.3,394.5,332.6,395,331.8,395z"/>
			</g>
			<g>
				<path class="st3" d="M337.6,436c-0.2,0-0.5,0-0.7-0.1c-1-0.4-1.5-1.6-1.1-2.6c0.1-0.3,10.8-28.1,5.1-49.2
					c-0.3-1.1,0.3-2.2,1.4-2.5s2.2,0.3,2.5,1.4c6.1,22.4-4.8,50.5-5.2,51.7C339.2,435.5,338.4,436,337.6,436z"/>
			</g>
		</g>
		<g>
			<path class="st5" d="M976.2,338.5c4.8-11.5,9.5-23.1,14.3-34.6c5.8-14.1,12.2-29,24.4-38.2c7.5-5.7,16.7-8.8,25.8-11.3
				c12.3-3.5,25.2-6.2,37.8-3.9c12.6,2.3,24.8,10.5,28.4,22.7c3.4,11.7-1.5,24.4-9.1,33.8c-7.7,9.4-17.9,16.4-27.2,24.2
				c-9.3,7.8-18.1,17.1-21.5,28.8c-4.1,14.4,0.7,29.8-0.3,44.7c-1.1,15.4-8.8,30.2-20.7,40c0,0-0.1,0-0.1,0.1
				c-4.9,4-11.4,5.5-17.6,4.4c-3.7-0.7-7.4-1.5-11-2.3c-6.4-1.5-12.9-3.3-18.5-6.8c-9.4-5.9-15.4-16.2-18.1-26.9
				C956.4,388.1,966.4,362.2,976.2,338.5z"/>
			<g>
				<g>
					<path class="st3" d="M1054,291.8c-0.2,0.1-10.9,6.2-22.6,21.6c-5.6,7.4-11.4,16.9-16.4,28.9c-3.7,8.8-7.1,19.5-9.6,32.3
						c-0.4,2.2-0.9,4.5-1.2,6.9c-5.3,32.9-4.6,78.2,11.5,139c-1.1,1.2-2.1,2.3-3.2,3.5c-10.4-38.3-15.5-73.6-15.3-105.1
						c0-0.5,0-1,0-1.5c0-2.4,0.1-4.7,0.2-7.1c0.4-10.4,1.4-20.5,3-30v-0.1c2.4-14.3,6.1-27.5,11.2-39.6c3.3-7.8,6.8-14.5,10.5-20.4
						l0,0c1.1-1.8,2.2-3.4,3.3-5c1.3-1.9,2.6-3.6,3.9-5.3c11.8-15.1,22.3-21.1,23-21.4c1-0.5,2.2-0.2,2.7,0.8
						C1055.3,290,1054.9,291.2,1054,291.8z"/>
				</g>
				<g>
					<path class="st3" d="M1024,322.3c-0.8,0-1.6-0.5-1.9-1.4c-0.1-0.4-3.2-10.2,2-22.7c0.4-1,1.6-1.5,2.6-1.1s1.5,1.6,1.1,2.6
						c-4.6,11.1-1.9,19.9-1.9,20c0.3,1.1-0.2,2.2-1.3,2.5C1024.5,322.3,1024.2,322.3,1024,322.3z"/>
				</g>
				<g>
					<path class="st3" d="M1002.1,382.4c-0.5,0-1.1-0.2-1.5-0.7c-0.7-0.8-0.7-2.1,0.2-2.8c0.2-0.2,22.4-20.2,25.7-39.8
						c0.2-1.1,1.2-1.8,2.3-1.6c1.1,0.2,1.8,1.2,1.6,2.3c-3.6,20.9-26,41.2-27,42.1C1003.1,382.3,1002.6,382.4,1002.1,382.4z"/>
				</g>
				<g>
					<path class="st3" d="M999,418.5c-0.6,0-1.2-0.3-1.6-0.8c-0.6-0.8-15.6-20.5-11.4-38.2c0.3-1.1,1.3-1.7,2.4-1.5
						c1.1,0.3,1.7,1.3,1.5,2.4c-3.7,15.9,10.5,34.6,10.7,34.8c0.7,0.9,0.5,2.1-0.4,2.8C999.9,418.4,999.5,418.5,999,418.5z"/>
				</g>
			</g>
		</g>
	</g>
	<path class="st8" d="M596.8,95c9.2,1.1,9.7,14.2,0.5,15.9c-0.2,0-0.3,0.1-0.5,0.1c-8.9,1.7-17.6,4.9-25.8,8.8
		c-26.4,12.5-49.1,32.9-63.9,58.1c-3,5.2-5.8,10.6-10,15c-0.5,0.5-0.9,0.9-1.4,1.4c-22.8,20.9-59.7,1.9-55.7-28.8
		c0-0.2,0-0.4,0.1-0.5c1-6.8,3.7-13.3,7.1-19.3c12.9-22.4,35.9-37.8,60.6-45.4c24.7-7.6,51.1-8.2,76.8-6.3
		C588.6,94.2,592.7,94.5,596.8,95z"/>
</g>
<g id="data-processing" class="st0">
</g>
<g>
	<path class="st2" d="M1176.3,435.3c-3.1,34.2-14.3,67.7-33.7,96.2c-15.3,22.5-34.4,41.1-56,56.9c-19.8,14.5-41.8,26.6-64.8,36.9
		c-6.3,2.8-12.7,5.5-19.1,8.1c-27.6,11.1-56.2,20-84.3,28.1c-1.7,0.5-3.4,1-5.1,1.5c-2.7,0.8-5.4,1.5-8.1,2.2
		c-20.9,5.6-42.2,9.7-63.5,12.4c-51.2,6.4-103.1,4.5-153.9-5.7c-9.2-1.9-18.4-4-27.5-6.4l-1.5-0.4c-21.5-5.7-43.6-11.6-61.7-24.6
		c-6-4.3-11.4-9.2-16.4-14.5c-3.7-3.9-7.2-8-10.6-12.2l0,0c-2.8-3.4-5.5-7-8.2-10.5c-4-5.2-8-10.5-12.1-15.7
		c-1.5-1.9-3.1-3.8-4.6-5.6c-21.7-25.6-49.2-46.2-79.9-59.7c-13.9-6.1-28.5-10.9-43.5-15.1c-12.8-3.6-25.8-6.7-38.8-9.8
		c-2.1-0.5-4.2-1-6.3-1.5c-5.5-1.3-11.1-2.7-16.6-4.1c-0.8-0.2-1.6-0.4-2.4-0.6c-1.4-0.4-2.8-0.7-4.1-1.1c-0.1,0-0.3-0.1-0.4-0.1
		c-24.8-6.7-48.7-14.8-69.5-27.9c-9.4-5.8-18.1-12.7-26.1-20.8c-13.3-13.5-23-29.7-29.3-47.2c-12.5-34.6-11.9-74.7,0.4-110.1
		c1.7-4.8,3.6-9.6,5.7-14.3c14.7-32.5,38.2-59.9,66.3-82.2c20.2-16,42.7-29.3,66.1-40c80.3-36.5,171.2-44.4,259.1-36.8
		c10.8,0.9,21.5,2.1,32.2,3.4c76.7,9.7,151.9,29.4,226.8,48.8c39.8,10.3,79.7,20.7,117.9,35.7c8.8,3.4,17.4,7.1,26,11.1
		c45.8,21.4,88.4,52.1,116.1,94.4c14.3,21.8,23.8,46.3,28.6,71.8c2,10.2,3.1,20.5,3.6,30.9c0,0.7,0.1,1.4,0.1,2.1
		C1177.4,417.7,1177.1,426.5,1176.3,435.3z"/>
	<path class="st3" d="M1176.3,435.3c-3.1,34.2-14.3,67.7-33.7,96.2c-15.3,22.5-34.4,41.1-56,56.9c-19.8,14.5-41.8,26.6-64.8,36.9
		c-6.3,2.8-12.7,5.5-19.1,8.1V198.5c8.8,3.4,17.4,7.1,26,11.1c45.8,21.4,88.4,52.1,116.1,94.4c14.3,21.8,23.8,46.3,28.6,71.8
		c2,10.2,3.1,20.5,3.6,30.9c0,0.7,0.1,1.4,0.1,2.1C1177.4,417.7,1177.1,426.5,1176.3,435.3z"/>
	<path class="st3" d="M1021.8,625.2c-33.3,14.9-68.8,26.3-103.5,36.2c-1.7,0.5-3.4,1-5.1,1.5c-2.7,0.8-5.4,1.5-8.1,2.2
		c-20.9,5.6-42.2,9.7-63.5,12.4c-51.2,6.4-103.1,4.5-153.9-5.7c-9.2-1.9-18.4-4-27.5-6.4l-1.5-0.4c-21.5-5.7-43.6-11.6-61.7-24.6
		c-6-4.3-11.4-9.2-16.4-14.5c-3.7-3.9-7.2-8-10.6-12.2l0,0c-2.8-3.4-5.5-7-8.2-10.5l347.3-99L1021.8,625.2z"/>
	<g>
		<path class="st6" d="M747.4,124.9l-12.9,178.4c-0.6,7.7-6.1,14-13.7,15.6l-287,60.3c-10.7,2.3-20.8-5.9-20.8-16.9V104.1
			c0-10,8.4-17.9,18.4-17.2l300,19.6C740.9,107.1,748.1,115.4,747.4,124.9z"/>
		<path class="st3" d="M797.2,179.8l-12.9,178.4c-0.6,7.7-6.1,14-13.7,15.6l-287,60.3c-10.7,2.3-20.8-5.9-20.8-16.9V159
			c0-10,8.4-17.9,18.4-17.2l300,19.6C790.7,162,797.9,170.3,797.2,179.8z"/>
		<polyline class="st9" points="536.3,344.3 601.9,289.5 656.9,224.6 701.1,240.4 769.3,176.6 		"/>
		<g>
			<path class="st4" d="M544.3,343.2c-0.1,5.4-3.7,10.2-8.1,10.9c-4.4,0.6-7.9-3.3-7.9-8.7s3.7-10.3,8.1-10.9
				C540.8,333.9,544.3,337.8,544.3,343.2z"/>
			<path class="st4" d="M610,288.8c-0.1,5-3.8,9.4-8.3,9.8s-7.9-3.4-7.8-8.5s3.8-9.5,8.3-9.8S610.1,283.8,610,288.8z"/>
			<path class="st4" d="M665,224.5c-0.2,4.7-4,8.6-8.4,8.7c-4.5,0.1-8-3.7-7.8-8.5c0.2-4.8,3.9-8.7,8.4-8.7
				C661.7,215.9,665.2,219.8,665,224.5z"/>
			<path class="st4" d="M709.2,240.1c-0.2,4.5-4,8.3-8.5,8.5c-4.5,0.2-7.9-3.3-7.7-7.9c0.2-4.6,4-8.4,8.5-8.5
				S709.4,235.7,709.2,240.1z"/>
			<path class="st4" d="M777.5,177c-0.3,4.1-4.2,7.4-8.7,7.2c-4.5-0.2-8-3.7-7.7-7.9c0.3-4.2,4.2-7.4,8.7-7.2
				C774.3,169.3,777.8,172.8,777.5,177z"/>
		</g>
		<g>
			<g>
				<path class="st4" d="M486.4,176.9c0,1.2-0.8,2.2-1.8,2.2l-10.5-0.3v-4.6l10.5,0.4C485.6,174.7,486.4,175.7,486.4,176.9z"/>
			</g>
			<g>
				<path class="st4" d="M486.4,212.5c0,1.2-0.8,2.3-1.8,2.3l-10.5,0v-4.6l10.5,0C485.6,210.3,486.4,211.3,486.4,212.5z"/>
			</g>
			<g>
				<path class="st4" d="M486.3,248.1c0,1.2-0.8,2.3-1.8,2.3l-10.4,0.4v-4.6l10.4-0.3C485.5,245.9,486.3,246.9,486.3,248.1z"/>
			</g>
			<g>
				<path class="st4" d="M486.2,283.7c0,1.2-0.8,2.3-1.8,2.4l-10.4,0.7v-4.6l10.4-0.7C485.4,281.5,486.2,282.4,486.2,283.7z"/>
			</g>
			<g>
				<path class="st4" d="M486.2,319.3c0,1.2-0.8,2.3-1.8,2.4l-10.3,1.1v-4.6l10.3-1C485.4,317.1,486.2,318,486.2,319.3z"/>
			</g>
			<g>
				<path class="st4" d="M486.1,354.9c0,1.2-0.8,2.4-1.7,2.5l-10.2,1.4v-4.6l10.2-1.4C485.3,352.7,486.1,353.6,486.1,354.9z"/>
			</g>
			<g>
				<path class="st4" d="M486,390.4c0,1.2-0.8,2.4-1.7,2.6l-10.2,1.8v-4.6l10.2-1.8C485.2,388.3,486,389.2,486,390.4z"/>
			</g>
		</g>
		<g>
			<g>
				<path class="st4" d="M514.6,407.2l-0.1,12.9l-3.5,0.7l0.1-12.9c0-1.2,0.8-2.3,1.7-2.5C513.9,405.1,514.6,406,514.6,407.2z"/>
			</g>
			<g>
				<path class="st4" d="M553.4,399.5l-0.2,12.4l-3.5,0.7l0.2-12.4c0-1.2,0.8-2.3,1.8-2.4C552.7,397.6,553.5,398.4,553.4,399.5z"/>
			</g>
			<g>
				<path class="st4" d="M592.3,391.9l-0.3,11.8l-3.5,0.7l0.3-11.9c0-1.1,0.8-2.2,1.8-2.4C591.5,390,592.3,390.8,592.3,391.9z"/>
			</g>
			<g>
				<path class="st4" d="M631.1,384.3l-0.3,11.3l-3.5,0.7l0.3-11.4c0-1.1,0.8-2.1,1.8-2.3C630.3,382.5,631.1,383.2,631.1,384.3z"/>
			</g>
			<g>
				<path class="st4" d="M669.9,376.6l-0.4,10.8l-3.5,0.7l0.4-10.9c0-1,0.8-2,1.8-2.2C669.2,374.9,669.9,375.6,669.9,376.6z"/>
			</g>
			<g>
				<path class="st4" d="M708.7,369l-0.5,10.3l-3.5,0.7l0.5-10.4c0-1,0.9-1.9,1.8-2.1C708,367.4,708.7,368,708.7,369z"/>
			</g>
			<g>
				<path class="st4" d="M747.5,361.4l-0.6,9.8l-3.5,0.7l0.6-9.9c0.1-0.9,0.9-1.8,1.8-2S747.5,360.4,747.5,361.4z"/>
			</g>
		</g>
	</g>
	<g>
		<g>
			<path class="st7" d="M725.5,414.7c-18.9-28-40.3-63.8-53.5-72.3c-13.2-8.5,14.9,40,15.1,47c0.3,8.8-23.1,20-0.3,43.2l15.4,13.6
				L725.5,414.7z"/>
			<path class="st10" d="M1032.6,542.9c0,0-91.6,43-143.3,67c-7.6,3.5-20.8,4.6-33.8,4.7c-22.3,0.1-43.4-10.5-56.6-28.4
				c-20.4-27.6-52.7-71.3-76.2-103.1c-4.6-6.3-8.9-12-12.7-17.2c-9.2-12.5-15.5-20.9-16.4-22.2c-1.2-1.6-0.5-2.9,1.2-4.5
				c4.6-4.1,20.5-22.4,26.3-31.4c0.3-0.5,0.4-0.8,0.7-1.3c1.9-3.6,12.1,6,26.2,21.9c4.3,4.9,9,10.3,13.8,16.1
				c25.9,30.8,58,72.2,76.8,93.5c7.1,8.1,19.6,8.5,27.1,0.8c8.1-8.4,21.5-19.9,43.5-34.7c19.1-12.9,38.4-25.3,54.8-34.5
				c24.5-6.3,52.3-3.1,77.2,9.2C1061.2,504.6,1032.6,542.9,1032.6,542.9z"/>
			<path class="st4" d="M761.8,444.6l-39.2,38.6c-4.6-6.3-8.9-12-12.7-17.2l38-37.5C752.2,433.3,756.9,438.8,761.8,444.6z"/>
		</g>
		<g>
			<polygon class="st11" points="974.3,363.4 976.3,420.5 977.8,465.3 1029.6,463.5 1027.2,397.5 1026.6,374.2 1026,361.6 			"/>
			<path class="st6" d="M990.3,365l-14,55.5c18,4.6,37.1-5,51-23.1l-0.7-23.3L990.3,365z"/>
			<path class="st11" d="M945.9,329.5c-3.1,12.1-3.9,24.2-2.7,35.1c0.2,3.1,0.8,6.2,1.5,9.2c4.3,19.9,15.4,35.4,31.4,40.3l1.8,0.5
				c16.4,4.1,33.8-3.6,47.3-18.8c0.7-0.7,1.3-1.4,1.9-2.4c8.5-10.1,15.4-23.4,19.2-38.6c10.2-40-4.2-77.9-31.9-84.9
				c-18.1-4.6-37.5,5.1-51.3,23.5C955.4,303.1,949.3,315.5,945.9,329.5z"/>
			<path class="st6" d="M1028.1,404.6c-17.8-35.5,21.7-96-5.3-71.5c-21.1,19.2-20-5.7-46.9-25.8c-16.6-12.4-21-29.7-11.9-40.6
				C991.8,239.2,1121.3,292.5,1028.1,404.6z"/>
		</g>
		<g>
			<path class="st5" d="M971.2,358.5l-40.5-10.3l13.9-54.8l40.5,10.3c4.7,1.2,7.6,6,6.4,10.8l-9.5,37.6
				C980.8,356.8,976,359.7,971.2,358.5z"/>
			<path class="st6" d="M923.8,346.4l6.9,1.8l13.9-54.8l-6.9-1.8c-1.7-0.4-3.5,0.6-3.9,2.4l-12.3,48.5
				C921,344.2,922.1,346,923.8,346.4z"/>
			<path class="st3" d="M952.6,317.6l84.3,21.4c1.2,0.3,2.3-0.4,2.6-1.6l2.3-9.2c0.3-1.2-0.4-2.3-1.6-2.6L956,304.3
				c-1.2-0.3-2.3,0.4-2.6,1.6L951,315C950.7,316.2,951.4,317.3,952.6,317.6z"/>
			<path class="st6" d="M962.4,317.1l22.3,5.7c0.7,0.2,1.3-0.2,1.5-0.9l1.3-5.2c0.2-0.7-0.2-1.3-0.9-1.5l-22.3-5.7
				c-0.7-0.2-1.3,0.2-1.5,0.9l-1.3,5.2C961.4,316.2,961.8,316.9,962.4,317.1z"/>
			<circle class="st3" cx="1016.5" cy="355.7" r="13.8"/>
			<circle class="st5" cx="1016.5" cy="355.7" r="7.7"/>
			<path class="st5" d="M1030.4,315.2l-6.8-1.7c-0.9-0.2-1.7,0.3-1.9,1.2l-10.1,39.8l9.9,2.5l10.1-39.8
				C1031.8,316.3,1031.3,315.4,1030.4,315.2z"/>
			<g>
				<circle class="st6" cx="947.7" cy="340.8" r="2.5"/>
				<circle class="st3" cx="955.6" cy="342.8" r="2.5"/>
			</g>
		</g>
		<path class="st5" d="M1086.7,588.4c-48.5,35.4-109.6,56.3-168.3,73.1c-1.7,0.5-3.4,1-5.1,1.5c-2.7,0.8-5.4,1.5-8.1,2.2
			c0.1-1.6,0.2-3.1,0.4-4.4c0-0.7-0.1-1.3,0-2c0.3-7.4,0.6-14.4,0.8-21c0.5-13.5,0.8-25.5,1.3-36.3c0-0.9,0.1-1.9,0.1-2.8
			c0.3-7.1,0.7-13.7,1.3-19.8c0.7-6.7,1.5-12.7,2.6-18.3c0.8-3.9,1.8-7.6,2.9-11.1c0.2-0.6,0.4-1.2,0.6-1.8c2.1-6.6,4.3-14.1,6.6-22
			c3.6-12.2,7.6-25.5,12.7-38.2c4.2-10.7,9.1-20.9,15.1-29.9c4.1-6.2,8.8-11.8,14.1-16.4c2.2-2,4.6-3.8,7.1-5.4c4-2.6,0-3.7-0.3-5.7
			c-0.1-1,0.7-2.4,4-4.2l0.1,0c0.5-0.3,1.2-0.5,2-0.7h0c1.4-0.3,3.3-0.3,5.6-0.3c0.3,0,0.6,0,1,0c6.1,0,14.5,0.2,23.8-2.8
			c11.4-3.7,17.6-6.8,21.1-8.4c3.3-1.5,4.2-1.6,4.8,0.8c0.5,1.7,0.2,3.9-0.2,6.1c0,0.2-0.1,0.4-0.1,0.6v0c-1.3,5.3-3.6,10.9,0,12.5
			C1068.2,449.4,1091.4,494.9,1086.7,588.4z"/>
		<path class="st4" d="M970.4,430.1c9.9,2.3,20.3,2.7,30.9,1.3c11.2-1.5,21.7-5.1,31.1-10.2c0.5-2.4,0.9-4.9,0.3-6.7
			c-9.9,5.9-21.1,9.9-33.4,11.6c-8.5,1.1-16.7,1-24.8-0.2l-0.1,0C971.1,427.8,970.2,429.1,970.4,430.1z"/>
		<path class="st6" d="M1054.3,539.5c0,2.3-0.2,4.5-0.5,6.7c0,0,0,0,0,0c-2.5,15.6-13.6,28.9-28.2,35.6l-119.3,55.9
			c0.5-14.7,0.9-27.6,1.4-39.1l-2.4,0.5c-0.5-13.1-1.7-23.8,0.9-34.8c1.8-1.2,3.6-2.5,5.4-3.8c13.1-9.2,27.9-19.4,42.4-28.9
			c2.1-1.4,4.1-2.7,6.2-4c1.8-1.1,3.5-2.3,5.3-3.4c7.4-4.7,14.6-9.1,21.3-12.9c5.1-2.9,9.9-5.5,14.2-7.6
			C1043.7,505.1,1054.3,522.4,1054.3,539.5z"/>
		<g>
			<path class="st6" d="M1056.7,531.7c0,5-1.2,9.9-2.9,14.5c0,0,0,0,0,0c-0.2,0.5-0.4,1-0.6,1.4c-5.7,13.5-17.9,23.2-32.2,26.4
				l-12.4,2.7l-23.8,5.2l-6,1.3l-7,1.5l-64.1,14l-2.4,0.5l-38.3,8.3c-1.6,0.3-3.9-0.1-6.6-1.1c-10.3-3.8-17.3-12.3-19.9-22.2
				c-0.1-5.1,1-10.3,3.4-15.2l63.2-128.3l11.3-17.9l11.7-18.7c3.9-6.2,11.6-8.7,18.2-6.3c0.7,0.3,1.5,0.6,2.2,1
				c0.4,0.2,0.8,0.5,1.2,0.7l0.6,0.4l24.3,16c0.1,0.1,0.2,0.1,0.3,0.2c1.1,0.7,2,1.6,2.8,2.5c0.1,0.1,0.1,0.1,0.2,0.2
				c0.8,1,1.5,2,2.1,3.2c0.1,0.3,0.3,0.6,0.4,0.9c0,0,0,0,0,0.1c0.8,1.9,1.2,4,1.1,6.1c0,1.1-0.2,2.3-0.5,3.4
				c-0.1,0.6-0.3,1.1-0.5,1.7c-0.2,0.6-0.5,1.2-0.8,1.7l-1.7,3.3l-2.2,4.3l-5.1,9.9l-9.8,18.8l-20.2,38.9l-5.4,10.3
				c3-1.5,6.5-2.8,10.5-3.9c2.2-0.7,4.5-1.3,6.8-1.9c2-0.5,3.9-1.1,5.9-1.5c8-2.3,16-4.3,23.5-6.3c10.5-2.7,20.2-5.1,28.5-7.1
				C1041.4,508.1,1053.3,519.7,1056.7,531.7z"/>
			<path class="st6" d="M963.2,432.4c28.2-35.9,44.4-22.4,51.2-33.5c7.8-27-7.7-0.6-6-8.6s23.8-30.7,6.4-45.7
				c-5.4-1.3-12-1-20.9,2.2c-11.2,4-20.6,11.8-27.5,21.4l-33.8,45.6L963.2,432.4z"/>
			<path class="st7" d="M962.6,428.1c28.2-35.9,44.4-22.4,51.2-33.5c10.2-23.7-7.7-0.6-6-8.6c1.2-5.8,13.1-19.2,13-31.9
				c0-8-7.6-13.9-15.5-12.4c-3.7,0.7-8,1.8-11.8,3.1c-11.2,4-20.6,11.8-27.5,21.4l-34.2,43.3L962.6,428.1z"/>
			<path class="st5" d="M1056.7,531.7c0,5-1.2,9.9-2.9,14.5c0,0,0,0,0,0c-0.2,0.5-0.4,1-0.6,1.4c-5.7,13.5-17.9,23.2-32.2,26.4
				l-12.4,2.7l-23.8,5.2l-6,1.3l-7,1.5l-64.1,14l-2.4,0.5l-38.3,8.3c-1.6,0.3-3.9-0.1-6.6-1.1c-10.3-3.8-17.3-12.3-19.9-22.2
				c-1.9-7.4-1.3-15.5,2.4-22.9L906,433.1l11.3-17.9l11.7-18.7c3.9-6.2,11.6-8.7,18.2-6.3c0.7,0.3,1.5,0.6,2.2,1
				c0.4,0.2,0.8,0.5,1.2,0.7l0.6,0.4l24.3,16c0.1,0.1,0.2,0.1,0.3,0.2c1.1,0.7,2,1.6,2.8,2.5c0.1,0.1,0.1,0.1,0.2,0.2
				c0.8,1,1.5,2,2.1,3.2c0.1,0.3,0.3,0.6,0.4,0.9c0.8,2,1.2,4.1,1.2,6.2c0,0.5,0,1-0.1,1.6c-0.1,0.6-0.2,1.2-0.3,1.8
				c-0.1,0.6-0.3,1.1-0.5,1.7c-0.2,0.6-0.5,1.2-0.8,1.7l-1.7,3.3l-2.2,4.3l-5.1,9.9l-9.8,18.8l-25.6,49.2c2-1,4.1-1.9,6.4-2.6
				c1.3-0.4,2.6-0.9,4.1-1.2c2.2-0.7,4.5-1.3,6.8-1.9c2-0.5,3.9-1.1,5.9-1.5c8-2.3,16-4.3,23.5-6.3c10.5-2.7,20.2-5.1,28.5-7.1
				C1046.5,502,1056.7,517.2,1056.7,531.7z"/>
			<path class="st4" d="M959.4,506.5l25.3,75.4l23.8-5.2l-25.6-76.5C975.4,502.2,967.4,504.2,959.4,506.5z"/>
			<path class="st4" d="M946.7,509.9l25,74.8l7-1.5L953.6,508C951.2,508.6,948.9,509.2,946.7,509.9z"/>
			<polygon class="st4" points="917.3,415.2 906,433.1 961.9,464.6 971.7,445.8 			"/>
		</g>
		<g>
			<path class="st4" d="M974.6,335.9c-0.1-0.2-0.4-0.3-0.7-0.2c-1.7,1-7.6,5.1-3.1,12.7c0,0.1,0.1,0.1,0.1,0.1l0.7-2.7l-0.9-1.4
				c-0.2,0-0.5,0-0.6-0.3c-0.2-0.3-0.1-0.6,0.2-0.8c0.3-0.2,0.6-0.1,0.8,0.2c0.1,0.2,0.1,0.5,0,0.7l0.7,1.1l0.6-2.5l-0.8-1.4
				c-0.1-0.1,0-0.2,0.1-0.3c0.1-0.1,0.2,0,0.3,0.1l0.6,1.1l0.5-2.1c-0.2-0.1-0.3-0.4-0.2-0.6c0.1-0.3,0.4-0.5,0.7-0.4
				c0.3,0.1,0.5,0.4,0.4,0.7c-0.1,0.2-0.3,0.4-0.5,0.4l-0.8,3.2l1.7-1c0-0.2,0-0.5,0.3-0.6c0.3-0.2,0.6-0.1,0.8,0.2
				c0.2,0.3,0.1,0.6-0.2,0.8c-0.2,0.1-0.5,0.1-0.7,0l-2,1.2l-0.5,2.2l0.7-0.4c0.3-0.2,0.5-0.4,0.6-0.8c0-0.1,0.1-0.2,0.2-0.1
				c0.1,0,0.2,0.1,0.1,0.2c-0.1,0.4-0.4,0.8-0.7,1l-1.1,0.6l-0.5,1.9c0.1,0,0.1,0,0.2-0.1C973.2,347.6,979.1,343.4,974.6,335.9z
				 M971.1,340.4c0.1-0.1,0.2,0,0.3,0.1l0.1,0.2c0.1,0.1,0,0.2-0.1,0.3c0,0-0.1,0-0.1,0c0,0-0.1,0-0.1-0.1l-0.1-0.2
				C971,340.6,971,340.5,971.1,340.4z M973.7,344.5c0,0.1-0.1,0.2-0.2,0.1c-0.1,0-0.2-0.1-0.1-0.2l0.1-0.3c0-0.1,0.1-0.2,0.2-0.1
				c0.1,0,0.2,0.1,0.1,0.2L973.7,344.5z"/>
			<path class="st4" d="M971.8,348.2l-0.4-0.1l-0.4,1.7c0,0.1,0,0.2,0.1,0.2l0,0c0.1,0,0.2,0,0.2-0.1L971.8,348.2z"/>
		</g>
	</g>
	<g>
		<path class="st5" d="M421.7,507.1c-12.8-3.6-25.8-6.7-38.8-9.8c-2.1-0.5-4.2-1-6.3-1.5c-5.5-1.3-11.1-2.7-16.6-4.1
			c-0.8-0.2-1.6-0.4-2.4-0.6c-0.4,0.2-0.9,0.3-1.4,0.3c-0.8,0-1.5-0.2-2.2-0.8c-0.1-0.1-0.3-0.3-0.6-0.6c-0.1,0-0.3-0.1-0.4-0.1
			c-24.8-6.7-48.7-14.8-69.5-27.9c-0.4-2.1-0.9-4.2-1.5-6.3c-5.3-18.5-19.3-33.2-34-45.6c-6.5-5.5-13.3-10.7-19.9-16.1
			c-8.3-6.8-16.3-13.9-23.1-22.2c-12.2-14.9-19.9-35.1-14.5-53.6c5.1-17.1,20.7-29.3,38-34.3c2.3-0.7,4.6-1.2,6.9-1.6
			c19.9-3.5,40.4,0.7,59.9,6.2c14.3,4.1,28.8,9,40.8,18c19.3,14.6,29.4,38.1,38.6,60.5c7.5,18.2,15,36.5,22.6,54.8
			C408.7,449,420.1,478,421.7,507.1z"/>
		<g>
			<g>
				<path class="st3" d="M351.1,478.4c-2-10.1-4.3-19.3-6.9-27.7c-2.6-8.5-5.4-16.2-8.3-23.2c-5.2-12.4-10.9-23-16.7-32.2
					c0,0,0,0,0,0c-0.2-0.4-0.5-0.8-0.7-1.2c0,0,0,0,0,0c-2.9-4.5-5.7-8.6-8.5-12.4c-5.4-7.1-10.7-13-15.5-17.8
					c-11.5-11.5-20.1-16.3-20.3-16.5c-1.5-0.8-2-2.8-1.2-4.3c0.8-1.5,2.8-2.1,4.3-1.2c0.7,0.3,8.8,5,19.9,15.6
					c5,4.8,10.7,10.9,16.5,18.4c2,2.5,4,5.3,6.1,8.3c0,0,0,0,0,0c0,0,0,0.1,0.1,0.1c1.7,2.6,3.5,5.2,5.2,8c0,0,0,0,0,0.1
					c0,0,0,0,0,0c2.8,4.6,5.7,9.5,8.5,14.9c2.8,5.4,5.5,11.1,8.1,17.2c8.1,19.1,13.9,40.1,17.8,62.7c0,0,0,0,0,0v0.1
					c0,0.1,0,0.2,0.1,0.3c0,0,0,0.1,0,0.1c0,0.1,0,0.1,0,0.2c0.2,1.3,0.4,2.5,0.6,3.8c-0.8-0.2-1.6-0.4-2.4-0.6
					c-0.4,0.2-0.9,0.3-1.4,0.3c-0.8,0-1.5-0.2-2.2-0.8c-0.1-0.1-0.3-0.3-0.6-0.6c-0.1,0-0.3-0.1-0.4-0.1c0-0.1,0-0.2-0.1-0.3v0
					c-0.6-3.7-1.2-7.3-1.9-10.8L351.1,478.4C351.1,478.4,351.1,478.4,351.1,478.4z"/>
			</g>
			<g>
				<path class="st3" d="M321.6,396.1c1.3,0,2.6-0.8,3-2.1c0.2-0.6,5.1-16.2-3.2-36c-0.7-1.6-2.6-2.4-4.2-1.7
					c-1.6,0.7-2.4,2.6-1.7,4.2c7.4,17.6,3.1,31.5,3,31.6c-0.5,1.6,0.4,3.5,2,4C321,396.1,321.3,396.1,321.6,396.1z"/>
			</g>
			<g>
				<path class="st3" d="M359.5,487.8c0.1,0.8-0.2,1.7-0.8,2.4c-0.3,0.3-0.6,0.6-1,0.7c-0.4,0.2-0.9,0.3-1.4,0.3
					c-0.8,0-1.5-0.2-2.2-0.8c-0.1-0.1-0.3-0.3-0.6-0.6c-0.1-0.1-0.3-0.3-0.5-0.5v0c-6.3-5.9-36.5-35.3-41.6-65.6
					c-0.3-1.7,0.8-3.4,2.6-3.7c1.7-0.3,3.4,0.8,3.7,2.6c3.8,22.1,22.7,44.6,33.4,55.8c4.3,4.5,7.3,7.2,7.4,7.3
					c0.4,0.4,0.7,0.8,0.8,1.3c0,0,0,0,0,0c0,0.1,0.1,0.2,0.1,0.4c0,0,0,0,0,0c0,0,0,0.1,0,0.1C359.5,487.7,359.5,487.7,359.5,487.8z
					"/>
			</g>
			<g>
				<path class="st3" d="M383,497.2c-2.1-0.5-4.2-1-6.3-1.5c-0.1-2.6-0.4-5.1-1-7.6c-0.4-1.6,0.6-3.4,2.3-3.8
					c1.6-0.4,3.4,0.6,3.8,2.4C382.6,490.1,383,493.7,383,497.2z"/>
			</g>
		</g>
	</g>
	<polygon class="st12" points="933.8,293.7 798.8,162.7 783.3,371.9 922.5,338.3 	"/>
	<path class="st12" d="M931.9,299.2L477.8,146.7c-7.3-2.5-14.9,3-14.9,10.7v260.3c0,10.8,9.9,18.8,20.5,16.6l438.1-91.6L931.9,299.2
		z"/>
</g>
</svg>
