<?xml version="1.0" encoding="utf-8"?>
<!-- Generator: Adobe Illustrator 22.1.0, SVG Export Plug-In . SVG Version: 6.00 Build 0)  -->
<svg version="1.1" id="Layer_1" xmlns="http://www.w3.org/2000/svg" xmlns:xlink="http://www.w3.org/1999/xlink" x="0px" y="0px"
	 viewBox="0 0 841.9 595.3" style="enable-background:new 0 0 841.9 595.3;" xml:space="preserve">
<style type="text/css">
	.st0{fill:#044661;}
	.st1{fill:#4EB682;}
</style>
<path class="st0" d="M301.8,334.5c1-2.9,3.6-5,6.6-5.4l47.5-5.9v-49.9l-47.5-5.9c-3.1-0.4-5.6-2.4-6.6-5.4c-1.5-4.5-3.3-8.8-5.4-13
	c-1.3-2.7-1-5.9,0.9-8.3l29.4-37.8l-35.2-35.4l-37.9,29.4c-2.4,1.8-5.6,2.2-8.3,0.9c-4.2-2.1-8.6-3.9-13-5.4c-2.9-1-5-3.6-5.4-6.6
	l-5.9-47.5h-17v-80h-16v480h16v-80h17l5.9-47.5c0.4-3.1,2.4-5.6,5.4-6.6c4.5-1.5,8.8-3.3,13-5.4c2.7-1.3,5.9-1,8.3,0.9l37.8,29.4
	l35.4-35.2l-29.4-37.9c-1.9-2.4-2.2-5.6-0.9-8.3C298.6,343.3,300.4,339,301.8,334.5z M204,373.4V215.2c14.2,2.1,27.1,7.9,37.7,16.3
	c18.7,14.8,30.4,37.6,30.4,62.8C272.2,333.9,243.2,367.5,204,373.4z"/>
<path class="st0" d="M626.5,314.2c1-2.9,3.5-5,6.6-5.4l19-2.4v-16.3l-19-2.4c-3-0.4-5.6-2.5-6.6-5.4c-0.7-1.9-1.5-3.8-2.4-5.7
	c-1.4-2.7-1-6,0.9-8.4l11.8-15.1l-11.6-11.6L610,253.3c-2.4,1.9-5.7,2.3-8.4,0.9c-1.8-0.9-3.8-1.7-5.7-2.4c-2.9-1-5-3.5-5.4-6.6
	l-2.4-19h-16.3l-2.4,19c-0.4,3-2.5,5.6-5.4,6.6c-1.9,0.7-3.8,1.5-5.7,2.4c-2.7,1.4-6,1-8.4-0.9l-15.1-11.8l-11.6,11.6l11.8,15.1
	c1.9,2.4,2.3,5.7,0.9,8.4c-0.9,1.8-1.7,3.8-2.4,5.7c-1,2.9-3.5,5-6.6,5.4l-19,2.4v16.3l19,2.4c3,0.4,5.6,2.5,6.6,5.4
	c0.7,1.9,1.5,3.8,2.4,5.7c1.4,2.7,1,6-0.9,8.4l-11.8,15.1l11.6,11.6l15.1-11.8c2.4-1.9,5.7-2.3,8.4-0.9c1.8,0.9,3.8,1.7,5.7,2.4
	c2.9,1,5,3.5,5.4,6.6l2.4,19h16.3l2.4-19c0.4-3,2.5-5.6,5.4-6.6c1.9-0.7,3.8-1.5,5.7-2.4c2.7-1.4,6-1,8.4,0.9l15.1,11.8l11.6-11.6
	L625,328.3c-1.9-2.4-2.3-5.7-0.9-8.4C625,318,625.8,316.1,626.5,314.2L626.5,314.2z M580,338.3c-22.1,0-40-17.9-40-40s17.9-40,40-40
	s40,17.9,40,40C620,320.4,602.1,338.2,580,338.3L580,338.3z M580,338.3"/>
<path class="st1" d="M604,298.3c0,13.3-10.7,24-24,24s-24-10.7-24-24s10.7-24,24-24S604,285,604,298.3L604,298.3z M604,298.3"/>
<path class="st0" d="M429.5,162.2c0.7,1.9,1.5,3.8,2.4,5.7c1.4,2.7,1,6-0.9,8.4l-11.8,15.1l11.6,11.6l15.1-11.8
	c2.4-1.9,5.7-2.3,8.4-0.9c1.8,0.9,3.8,1.7,5.7,2.4c2.9,1,5,3.5,5.4,6.6l2.4,19h16.3l2.4-19c0.4-3,2.5-5.6,5.4-6.6
	c1.9-0.7,3.8-1.5,5.7-2.4c2.7-1.4,6-1,8.4,0.9l15.1,11.8l11.6-11.6L521,176.3c-1.9-2.4-2.3-5.7-0.9-8.4c0.9-1.8,1.7-3.8,2.4-5.7
	c1-2.9,3.5-5,6.6-5.4l19-2.4v-16.3l-19-2.4c-3-0.4-5.6-2.5-6.6-5.4c-0.7-1.9-1.5-3.8-2.4-5.7c-1.4-2.7-1-6,0.9-8.4l11.8-15.1
	l-11.6-11.6L506,101.3c-2.4,1.9-5.7,2.3-8.4,0.9c-1.8-0.9-3.8-1.7-5.7-2.4c-2.9-1-5-3.5-5.4-6.6l-2.4-19h-16.3l-2.4,19
	c-0.4,3-2.5,5.6-5.4,6.6c-1.9,0.7-3.8,1.5-5.7,2.4c-2.7,1.4-6,1-8.4-0.9l-15.1-11.8l-11.6,11.6l11.8,15.1c1.9,2.4,2.3,5.7,0.9,8.4
	c-0.9,1.8-1.7,3.8-2.4,5.7c-1,2.9-3.5,5-6.6,5.4l-19,2.4v16.3l19,2.4C426,157.2,428.5,159.3,429.5,162.2L429.5,162.2z M476,106.3
	c22.1,0,40,17.9,40,40c0,22.1-17.9,40-40,40s-40-17.9-40-40C436,124.2,453.9,106.3,476,106.3L476,106.3z M476,106.3"/>
<path class="st1" d="M500,146.3c0,13.3-10.7,24-24,24s-24-10.7-24-24s10.7-24,24-24S500,133,500,146.3L500,146.3z M500,146.3"/>
<path class="st1" d="M476,426.3c-13.3,0-24,10.7-24,24c0,6.2,2.4,12.1,6.7,16.5l0.1,0.1c4.5,4.8,10.7,7.4,17.3,7.4
	c13.3,0,24-10.7,24-24S489.3,426.3,476,426.3L476,426.3z M476,426.3"/>
<path class="st0" d="M522.3,434.2c-0.6-1.9-1.3-3.8-2.2-5.6c-1.3-2.7-1-5.9,0.9-8.3l11.8-15.1l-11.6-11.6L506,405.3
	c-2.4,1.8-5.6,2.2-8.3,0.9c-1.8-0.9-3.7-1.7-5.6-2.2c-3-1-5.2-3.6-5.5-6.7l-2.4-19h-16.3l-2.4,19c-0.4,3.1-2.5,5.7-5.5,6.7
	c-1.9,0.6-3.8,1.3-5.6,2.2c-2.7,1.3-5.9,1-8.3-0.9l-15.1-11.8l-11.6,11.6l11.8,15.1c1.9,2.4,2.2,5.6,0.9,8.3
	c-0.9,1.8-1.7,3.7-2.2,5.6c-1,3-3.6,5.1-6.7,5.5l-19,2.4v16.3l19,2.4c3.1,0.4,5.7,2.5,6.7,5.5c0.6,1.9,1.3,3.8,2.2,5.6
	c1.3,2.7,1,5.9-0.9,8.3l-11.8,15.1l11.6,11.6l15.1-11.8c2.4-1.8,5.6-2.2,8.3-0.9c1.8,0.9,3.7,1.7,5.6,2.2c3,1,5.1,3.6,5.5,6.7
	l2.4,19h16.3l2.4-19c0.4-3.1,2.5-5.7,5.5-6.7c1.9-0.6,3.8-1.3,5.6-2.2c2.7-1.3,5.9-1,8.3,0.9l15.1,11.8l11.6-11.6L521,480.3
	c-1.9-2.4-2.2-5.6-0.9-8.3c0.9-1.8,1.7-3.7,2.2-5.6c1-3,3.6-5.1,6.7-5.5l19-2.4v-16.3l-19-2.4C525.9,439.3,523.3,437.2,522.3,434.2
	L522.3,434.2z M476,490.3c-10.9,0-21.4-4.5-28.9-12.4l-0.1,0c-13.1-13.8-14.7-34.8-3.8-50.4c10.9-15.6,31.2-21.4,48.6-13.9
	c17.5,7.5,27.2,26.2,23.4,44.8C511.4,477,495,490.3,476,490.3L476,490.3z M476,490.3"/>
<path d="M526.2,368.9"/>
<path class="st1" d="M328.5,182l59.5-23.8v-17.3l-71.8,28.8L328.5,182z M328.5,182"/>
<path class="st1" d="M319.3,423.8l68.7,29.4v-17.4l-56.5-24.2L319.3,423.8z M319.3,423.8"/>
<path class="st1" d="M256,294.3c0,30.7-21.8,57.1-52,62.8V231.5C234.2,237.2,256,263.6,256,294.3z"/>
</svg>
