<?xml version="1.0" encoding="utf-8"?>
<!-- Generator: Adobe Illustrator 22.1.0, SVG Export Plug-In . SVG Version: 6.00 Build 0)  -->
<svg version="1.1" id="Layer_1" xmlns="http://www.w3.org/2000/svg" xmlns:xlink="http://www.w3.org/1999/xlink" x="0px" y="0px"
	 viewBox="0 0 1366 768" style="enable-background:new 0 0 1366 768;" xml:space="preserve">
<style type="text/css">
	.st0{display:none;}
	.st1{display:inline;}
	.st2{fill:#19ACA5;}
	.st3{fill:#1D5870;}
	.st4{fill:#FFFFFF;}
	.st5{fill:#71C598;}
	.st6{fill:#133A5F;}
	.st7{fill:#FEE56D;}
	.st8{display:inline;fill:#19ACA5;}
	.st9{fill:#4EB682;}
	.st10{fill:#66B38A;}
	.st11{fill:#191345;}
</style>
<g id="holo" class="st0">
	<g class="st1">
		<path class="st2" d="M1042.1,484.1c-3.9,7-8.3,13.7-13.1,20c-2,2.6-4,5.2-6.1,7.8c-2.4,2.9-4.8,5.7-7.4,8.5
			c-1.1,1.2-2.1,2.3-3.2,3.5c-11.7,12.3-24.7,23.3-38.4,33.3c-7.6,5.6-15.5,10.9-23.5,15.9c-5,3.2-10.1,6.2-15.2,9.2
			c-1.5,0.9-3,1.7-4.5,2.6c-1.8,1-3.7,2.1-5.5,3.1c-1.7,0.9-3.4,1.9-5.2,2.8c-2.2,1.2-4.4,2.3-6.5,3.4c-1.7,0.9-3.4,1.7-5,2.5
			s-3.3,1.6-5,2.4c-0.4,0.2-0.9,0.4-1.3,0.6c-1.6,0.8-3.2,1.5-4.8,2.3c-0.1,0-0.2,0.1-0.3,0.1c-1.5,0.7-3.1,1.4-4.7,2.1
			c-0.4,0.2-0.9,0.4-1.3,0.6c-1.3,0.6-2.5,1.1-3.8,1.7c-0.8,0.4-1.6,0.7-2.4,1c-1,0.5-2.1,0.9-3.1,1.3c-0.1,0-0.3,0.1-0.4,0.2
			c-1.6,0.7-3.3,1.4-5,2c-1.7,0.7-3.3,1.3-5,2c-0.3,0.1-0.6,0.2-0.9,0.3c-1.4,0.5-2.8,1.1-4.2,1.6c-0.5,0.2-1,0.4-1.6,0.6
			c-1.3,0.5-2.7,1-4.1,1.5c-0.4,0.1-0.7,0.3-1.1,0.4c-1.5,0.5-3,1.1-4.5,1.6c-1.6,0.6-3.3,1.2-4.9,1.7c-1.2,0.4-2.3,0.8-3.5,1.2
			c-2.7,0.9-5.5,1.8-8.2,2.7c-5.8,1.8-11.5,3.5-17.4,5.1c-1.1,0.3-2.1,0.6-3.2,0.9c-1.3,0.3-2.6,0.7-3.9,1c-1.5,0.4-3.1,0.8-4.6,1.2
			c-0.8,0.2-1.6,0.4-2.4,0.6c-1.2,0.3-2.4,0.6-3.7,0.9c-0.8,0.2-1.6,0.4-2.5,0.6c-1.5,0.3-3,0.7-4.4,1c-0.3,0.1-0.5,0.1-0.8,0.2
			c-2.1,0.5-4.1,0.9-6.2,1.3c-4.9,1-9.8,2-14.8,2.9c-0.8,0.1-1.7,0.3-2.5,0.4c-1.4,0.2-2.8,0.5-4.2,0.7c-2.4,0.4-4.8,0.8-7.2,1.1
			c-1.2,0.2-2.4,0.4-3.6,0.5c-1.3,0.2-2.7,0.4-4,0.6c-1.1,0.2-2.1,0.3-3.2,0.4c-1.2,0.2-2.4,0.3-3.6,0.5c-1.1,0.1-2.2,0.3-3.3,0.4
			c-0.2,0-0.3,0-0.5,0.1c-1.1,0.1-2.2,0.3-3.4,0.4c-1.2,0.1-2.4,0.3-3.6,0.4c-2.3,0.2-4.5,0.5-6.8,0.7c-1.4,0.1-2.7,0.3-4.1,0.4
			C671,651.4,616.7,648,564,637c-0.3-0.1-0.7-0.1-1-0.2c-8.2-1.7-16.4-3.6-24.6-5.7c-0.7-0.2-1.3-0.3-2-0.5c-0.5-0.1-1-0.3-1.6-0.4
			c-23.6-6.2-46.7-14-69.2-23.3c-6.6-2.7-13.1-5.6-19.5-8.5c-12.4-5.8-24.6-12.1-36.3-19.2c-1.3-0.8-2.6-1.6-3.9-2.4
			c-1.1-0.7-2.2-1.4-3.2-2c-0.5-0.3-0.9-0.6-1.4-0.9c-0.9-0.6-1.8-1.2-2.7-1.8c-0.2-0.1-0.4-0.3-0.6-0.4c-1.1-0.7-2.2-1.5-3.3-2.2
			c-1-0.7-2-1.4-2.9-2.1c-0.6-0.5-1.3-0.9-1.9-1.4c-1.1-0.8-2.2-1.6-3.3-2.4c-0.8-0.6-1.6-1.2-2.4-1.8c-0.4-0.3-0.8-0.6-1.2-0.9
			c-1-0.8-2-1.5-2.9-2.3c-1-0.8-2-1.6-3-2.5c-0.2-0.2-0.5-0.4-0.7-0.6c-1-0.9-2.1-1.7-3.1-2.6l-0.1-0.1c-1.1-0.9-2.1-1.8-3.2-2.8
			c-0.1-0.1-0.3-0.3-0.4-0.4c-1-0.9-2-1.9-3-2.8l-0.1-0.1c-1-1-2.1-2-3.1-3c-0.1-0.1-0.2-0.2-0.4-0.3c-1-1-2-2-3-3l-0.1-0.1
			c-1-1-1.9-2-2.8-2.9c-1.1-1.2-2.2-2.4-3.3-3.6c-0.5-0.6-1-1.1-1.5-1.7c-12.6-14.3-22.9-30.6-30.8-47.9
			c-11.1-24.3-17.3-50.9-18.5-77.6c-1.2-28.6,3.4-57.3,14.3-83.8c10.7-26.1,28.6-51.1,55.1-60.9c13-4.8,26.9-5.5,41-5.6
			c5.8,0,11.6,0,17.3-0.1c4.2,0,8.4-0.2,12.5-0.4c0.6,0,1.3-0.1,1.9-0.1c0.3,0,0.6,0,0.9-0.1c4.9-0.4,9.7-1.1,14.4-2.2
			c5.2-1.2,10.4-2.9,15.3-5.4c0.1,0,0.1-0.1,0.2-0.1c1-0.5,1.9-1,2.8-1.5c5.2-2.9,9.8-6.5,14-10.6c1.9-1.8,3.7-3.7,5.4-5.7
			c5.4-6.1,10-13,14.4-20.2c5.1-8.4,9.9-17.2,14.8-25.5c0.1-0.2,0.3-0.4,0.4-0.7c2.2-3.7,4.5-7.2,7.1-10.6c1.1-1.5,2.2-2.9,3.4-4.3
			c8.3-9.9,18.3-18.2,29.3-24.5c18.1-10.4,39.1-15.5,60.6-14.4l0,0c3.4,0.2,6.8,0.5,10.2,1c7.6,1.1,15.1,2.3,22.7,3.5
			c3.6,0.6,7.1,1.2,10.7,1.8c11.1,1.9,22.1,3.8,33.2,6c3.6,0.7,7.1,1.4,10.7,2.1c0.1,0,0.2,0,0.3,0.1c11,2.2,22,4.6,32.9,7.1
			c22.1,5.1,44.1,10.8,65.8,17.4c1,0.3,2.1,0.6,3.1,1c20.5,6.3,40.8,13.3,60.6,21.6c0.2,0.1,0.4,0.2,0.6,0.3
			c0.9,0.4,1.7,0.7,2.6,1.1c3.5,1.5,7,3,10.5,4.6c6,2.7,11.9,5.6,17.7,8.5c7,3.6,14,7.4,20.8,11.4c11.3,6.7,22.2,14,32.7,21.9
			c2.7,2.1,5.4,4.2,8,6.3c19.7,16.1,37.2,34.9,51.8,55.7c1,1.4,2,2.8,2.9,4.3c1,1.5,2,3,3,4.5c0.8,1.2,1.6,2.4,2.3,3.7
			c3.6,5.8,7,11.7,10.2,17.8c12.2,23.4,20.8,49.1,21.4,75.5C1063.6,433.7,1055.5,460.4,1042.1,484.1z"/>
		<path class="st3" d="M935.2,582.2c-1.5,0.9-3,1.7-4.5,2.6c-29.3,16.5-60.3,29.7-92.3,39.8c-36.8,11.6-75.1,18.9-113.7,22.2
			c-53.5,4.5-107.8,1.1-160.5-9.9c-0.3-0.1-0.7-0.1-1-0.2c-8.2-1.7-16.4-3.6-24.6-5.7c-0.7-0.2-1.3-0.3-2-0.5
			c-0.5-0.1-1-0.3-1.6-0.4c-23.6-6.2-46.7-14-69.2-23.3c-6.6-2.7-13.1-5.6-19.5-8.5c-12.4-5.8-24.6-12.1-36.3-19.2
			c-6.8-4.1-13.5-8.5-19.9-13.2c-13.1-9.5-25.3-20.1-36.1-32.2c-0.5-0.6-1-1.1-1.5-1.7c-12.6-14.3-22.9-30.6-30.8-47.9
			c-11.1-24.3-17.3-50.9-18.5-77.6l101.6,28.3l48.3,13.4l7.1,2l0.5,0.2l54,15l2,0.5l17,4.7l9,2.5L935.2,582.2z"/>
		<g>
			<polygon class="st3" points="803.4,475.4 619.5,414.6 626.5,270.6 827.4,236.4 			"/>
			<polygon class="st4" points="635.5,335.6 656.4,334.9 655.5,344.6 634.5,343.6 			"/>
			<polygon class="st5" points="712.2,333.3 711,347.3 675.5,345.6 676.5,334.3 			"/>
			<polygon class="st4" points="801.5,330.6 798.5,351.6 738.3,348.6 739.7,332.4 			"/>
			<polygon class="st4" points="748,441.4 682.5,422.6 688.5,385.6 752.5,395.6 			"/>
			<polygon class="st5" points="805.5,289.6 667.5,301.6 669.5,277.6 809.5,253.6 			"/>
			<polygon class="st4" points="800.5,285.6 673.1,298.1 673.5,280.6 804.1,258.5 			"/>
			
				<ellipse transform="matrix(0.1683 -0.9857 0.9857 0.1683 248.0923 878.2092)" class="st5" cx="644.5" cy="292.1" rx="13.5" ry="9"/>
			
				<ellipse transform="matrix(0.1683 -0.9857 0.9857 0.1683 225.0532 1116.2068)" class="st5" cx="774" cy="424.7" rx="24.3" ry="16.2"/>
		</g>
		<g>
			<path class="st3" d="M622.9,192.6v21.3c0,0.9,0.7,1.6,1.6,1.6h267.8c0.9,0,1.6-0.7,1.6-1.6v-11c-0.2-6.3-5.2-11.6-11.6-11.9
				H624.5C623.6,191,622.9,191.8,622.9,192.6z"/>
			<g>
				<path class="st6" d="M881.7,191v58.2h8.6c1.2,0,2.5,0.1,3.6,0.3v-46.3c0-0.1,0-0.2,0-0.3c-0.2-6.3-5.2-11.6-11.6-11.9
					C882.1,191,881.9,191,881.7,191z"/>
				<path class="st3" d="M869.4,203.3v46.3c1.2-0.2,2.4-0.3,3.6-0.3h8.6V191C874.9,191,869.4,196.6,869.4,203.3z"/>
			</g>
			<g>
				<path class="st3" d="M881.7,249.2v245.2h32.7V273.3c0-12.1-8.8-22.1-20.5-23.8c-1.2-0.2-2.4-0.3-3.6-0.3L881.7,249.2
					L881.7,249.2z"/>
				<path class="st5" d="M849,273.3v221.2h32.7V249.2H873c-1.2,0-2.5,0.1-3.6,0.3C857.8,251.2,849,261.2,849,273.3z"/>
			</g>
			<g>
				<path class="st5" d="M973.9,518.5v38.7c-7.6,5.6-15.5,10.9-23.5,15.9c-5,3.2-10.1,6.2-15.2,9.2c-1.5,0.9-3,1.7-4.5,2.6
					c-15.9,8.9-32.2,16.9-49,23.9V494.5h68.2C963.2,494.5,973.9,505.3,973.9,518.5z"/>
				<path class="st4" d="M881.7,494.5v114.3c-14.2,6-28.6,11.2-43.3,15.8c-16.1,5.1-32.5,9.3-49,12.8V518.5c0-13.2,10.8-24,24-24
					H881.7z"/>
			</g>
			<g>
				<path class="st6" d="M841.3,412.7c0,2.8,2.3,5.1,5.1,5.1H917c2.8,0,5.1-2.3,5.1-5.1c0-2.8-2.3-5.1-5.1-5.1h-70.6
					C843.6,407.7,841.3,409.9,841.3,412.7z"/>
				<path class="st3" d="M841.3,412.7c0,2.8,2.3,5.1,5.1,5.1h35.3v-10.2h-35.3C843.6,407.7,841.3,409.9,841.3,412.7z"/>
			</g>
			<g>
				<path class="st6" d="M841.3,331c0,2.8,2.3,5.1,5.1,5.1H917c2.8,0,5.1-2.3,5.1-5.1c0-2.8-2.3-5.1-5.1-5.1h-70.6
					C843.6,325.9,841.3,328.2,841.3,331z"/>
				<path class="st3" d="M841.3,331c0,2.8,2.3,5.1,5.1,5.1h35.3v-10.2h-35.3C843.6,325.9,841.3,328.2,841.3,331z"/>
			</g>
			<g>
				<path class="st5" d="M579,179.3v47.8c0,7.2,5.8,13.1,13.1,13.1h61.7c7.2,0,13-5.8,13-13.1v-47.8c0-7.2-5.8-13-13-13H592
					C584.8,166.3,579,172.2,579,179.3z"/>
				<path class="st3" d="M622.9,179.3v47.8c0,7.2,5.8,13.1,13,13.1h17.8c7.2,0,13-5.8,13-13.1v-47.8c0-7.2-5.8-13-13-13h-17.8
					C628.7,166.3,622.9,172.2,622.9,179.3z"/>
				<circle class="st5" cx="644.8" cy="203.3" r="8.2"/>
				<circle class="st4" cx="600.7" cy="203.3" r="8.2"/>
				<circle class="st3" cx="600.7" cy="203.3" r="4.7"/>
				<circle class="st3" cx="644.8" cy="203.3" r="4.7"/>
			</g>
		</g>
		<g>
			<g>
				<path class="st7" d="M658.8,359.8c16.1-13.7,25-19.2,35-21.2s-10.7,13-12,17.2c-1.6,5.2,2.1,8.9-2.2,12.3l-11.6,5.6L658.8,359.8
					z"/>
				<path class="st5" d="M673.7,374.7c-2.7,2.2-58.7,45.9-87.2,68.2c-9.8,7.7-16.4,12.8-16.4,12.8c-1.2,0.9-8.9,6.1-19.6,13.2
					c-29.7,19.8-78.5-3.3-78.5-3.3s-9.7,0.9-19.3-1.9c0-1.1,0-2.2,0-3.3c0.2-25,1.6-31.8,20.8-43l4.7-2.7c6.2-3.6,10-6.2,13.3-7.4
					c4.3,0.2,8.6,0.7,12.7,1.6c4.7,1,9.2,2.4,13.4,3.9c15.3,5.6,26.2,13.6,26.2,13.6s116.6-79.4,118.6-70c0,0.1,0,0.1,0,0.2l0,0
					c0.1,0.3,0.1,0.4,0.2,0.7c1.9,6,8,10.5,10.5,13.7c0.2,0.2,0.3,0.5,0.5,0.7C674.5,373,674.7,373.9,673.7,374.7z"/>
			</g>
			<g>
				<polygon class="st7" points="487.1,369.2 453.9,370 452.9,327.8 452.5,312.9 452.4,304.8 485.4,304 486.2,333.6 486.3,340.2 
					486.3,340.6 				"/>
				<path class="st6" d="M486.3,340.2c-11,2.4-24.5-2.1-33.4-12.4l-0.4-14.9l22.8-7.2l10.9,27.9L486.3,340.2z"/>
				<path class="st7" d="M502.3,281.3c2.4,7.6,3.4,15.3,3.1,22.3c0,2-0.3,4-0.6,5.9c-2,12.9-8.5,23.2-18.5,26.9l-1.2,0.4
					c-10.3,3.2-21.7-1-30.9-10.3c-0.5-0.4-0.9-0.9-1.3-1.4c-5.8-6.1-10.7-14.4-13.7-23.9c-8-25.1-0.3-49.9,17.1-55.4
					c11.4-3.6,24.1,1.9,33.6,13.1C495.2,264.8,499.6,272.5,502.3,281.3z"/>
				<path class="st6" d="M452.6,332.4c10-23.3-17.4-60.5,0.7-45.8c14.2,11.5,12.6-4.4,29-18.2c10.1-8.6,14.5-22.1,10.1-34.6
					l-1.2-3.3c-2.4-6.8-10.6-9.2-16.5-5.1C436.4,251.8,388.9,264.3,452.6,332.4z"/>
				<path class="st7" d="M495.5,302.8l13.7-4.6c2.6-0.9,3.6-4,2.1-6.2l-10.8-15.9l-12.5,4.2L495.5,302.8z"/>
			</g>
			<path class="st5" d="M536.6,630.4c-0.5-0.1-1-0.3-1.6-0.4c-23.6-6.2-46.7-14-69.2-23.3c-6.6-2.7-13.1-5.6-19.5-8.5
				c-12.4-5.8-24.6-12.1-36.3-19.2c-6.8-4.1-13.5-8.5-19.9-13.2c6.4-52.9,12.8-98.1,14.8-131.1c0.3-4.5,0.5-8.9,0.5-12.9
				c0-1.1,0-2.2,0-3.3c0.2-25,12.6-47.8,31.8-59l4.7-2.7c5.1-3,8.6-5.3,11.5-6.7c0.6-0.3,1.2-0.5,1.8-0.8c3.9-1.4,7.1-1,12.7,1.6
				c1.7,0.8,3.5,1.7,5.7,2.9l13.2,7.1l17.8,9.5l2.2,6.5c9.6,5.1,17.3,13.5,22.3,23.7c3.1,6.2,5.1,13.1,6,20.4l0,0
				c0.6,5,0.7,10.1,0.1,15.2c-0.2,2.2-0.4,4.7-0.8,7c-0.8,8.1-1,17.3-0.9,27.1c0,1.7,0,3.4,0.1,5.1c0.3,19.2,1.4,40.6,0.9,62l0,0
				c0,1.4-0.1,2.8-0.1,4.2c0,0.5,0,1,0,1.5s0,0.9-0.1,1.4c0,0.7-0.1,1.3-0.1,2c0,0.1,0,0.3,0,0.4c-0.3,7.6-0.5,15.3-0.6,23l0,0v2
				c0,1,0,2,0,3c0,0.3,0,0.6,0,0.9c0,0.4,0,0.7,0,1.1C533.5,595.6,534.7,613.4,536.6,630.4z"/>
			<path class="st7" d="M576.3,573.1c5.1,4,2.7,5.1,3,2.6c0.2-2,22.6,7.8,20.9,10.9c-1.7,3.2-4,1-7.5,5.1s-8.9,5.1-13,4.7
				c-5.2-0.5-10.5-8.2-14.5-11.6v-0.5L576.3,573.1z"/>
			<path class="st3" d="M534.4,546.9c0,0.5,0,1,0,1.5c-0.1,1.2-0.1,2.5-0.2,3.7c-0.3,8.3-0.5,16.6-0.6,25
				c-21.5-11.1-62.1-30.6-62.1-30.6l-0.1-0.1c-13.5-16.9-11.6-45.3-11.6-69.2c0-14.1,0.7-28.2,2.4-42.2c1-8.5,2.3-17,3.9-22.9
				c4.3-16.4,21.5-34.8,44.9-11.2c7.8,7.8,11.8,18.7,11.2,29.8c-1.9,34.2-21.7,92.9-21.7,92.9S517.9,535,534.4,546.9z"/>
			<path class="st5" d="M522.2,421.7c-1.9,34.2-21.7,92.9-21.7,92.9s89.3,58.8,80.5,61.2s-13.7,14.8-16.6,11.5
				c-2.9-3.3-93-49.8-93-49.8l-0.1-0.1c-13.4-16.9-11.6-45.3-11.6-69.2c0-14.1,0.7-28.2,2.4-42.2c1-8.5,2.3-17,3.9-22.9
				c4.3-16.4,21.5-34.8,44.9-11.2C518.8,399.7,522.8,410.6,522.2,421.7z"/>
		</g>
		<g>
			<path class="st5" d="M277.8,403.5c6.2,23.3,8.5,48.5,22,68.5c9.3,13.7,23.7,23.4,39.7,27.8c10.5,2.9,20.8-5.4,20-16.3
				c-3.3-42.4,22-88.6,14-131.3c-5.6-29.8-27-54.2-49.6-74.4c-7.8-7-16.1-13.9-25.9-17.7c-9.8-3.8-21.5-4.1-30.3,1.6
				c-9.5,6.1-14,17.8-15.5,29.1C246.8,329.3,267.9,366,277.8,403.5z"/>
			<g>
				<path class="st3" d="M348.6,527.4c-2.4-8-4.4-16.9-5.9-26.9c-2.3-15-3.4-32.2-2.8-51.9c0.1-4.8,0.1-9.5-0.1-14.2
					c-0.2-3.7-0.4-7.3-0.8-10.9l0,0c-0.2-2.5-0.5-4.9-0.8-7.3c-1.1-8-2.5-15.7-4.3-23.1c-0.1-0.3-0.1-0.6-0.2-0.9
					c-3.3-13.8-7.6-26.4-12-37.4c-0.7-1.8-1.4-3.5-2.2-5.2c-2.2-5.3-4.5-10.1-6.6-14.3c-7.3-14.8-13.2-23.6-13.4-23.8
					c-0.6-0.9-1.9-1.1-2.8-0.5s-1.1,1.9-0.5,2.8c0.2,0.3,7,10.3,15,27.1c6,12.8,12.7,29.4,17.6,48.5c0.4,1.7,0.9,3.5,1.3,5.2
					c1.5,6.6,2.9,13.5,3.8,20.6c0.9,6.2,1.5,12.5,1.8,19c0,0.1,0,0.2,0,0.3c0.2,4.7,0.3,9.4,0.1,14.2c-0.5,19.8,0.5,36.7,2.5,51.1
					c1,7,2.2,13.4,3.6,19.3L348.6,527.4z"/>
			</g>
			<g>
				<path class="st3" d="M319.4,356.6c-0.3,0-0.6-0.1-0.9-0.2c-1-0.5-1.4-1.7-0.9-2.7c0.1-0.1,7.5-15.1,4.7-27.2
					c-0.2-1.1,0.4-2.1,1.5-2.4c1.1-0.2,2.1,0.4,2.4,1.5c3.1,13.5-4.7,29.2-5,29.9C320.9,356.2,320.2,356.6,319.4,356.6z"/>
			</g>
			<g>
				<path class="st3" d="M331.8,395c-0.3,0-0.5-0.1-0.8-0.2c-0.8-0.4-20.8-9-29.1-28.6c-0.4-1,0-2.2,1.1-2.6c1-0.4,2.2,0,2.6,1.1
					c7.6,18,26.7,26.4,26.9,26.4c1,0.4,1.5,1.6,1.1,2.6C333.3,394.5,332.6,395,331.8,395z"/>
			</g>
			<g>
				<path class="st3" d="M337.6,436c-0.2,0-0.5,0-0.7-0.1c-1-0.4-1.5-1.6-1.1-2.6c0.1-0.3,10.8-28.1,5.1-49.2
					c-0.3-1.1,0.3-2.2,1.4-2.5s2.2,0.3,2.5,1.4c6.1,22.4-4.8,50.5-5.2,51.7C339.2,435.5,338.4,436,337.6,436z"/>
			</g>
		</g>
		<g>
			<path class="st5" d="M976.2,338.5c4.8-11.5,9.5-23.1,14.3-34.6c5.8-14.1,12.2-29,24.4-38.2c7.5-5.7,16.7-8.8,25.8-11.3
				c12.3-3.5,25.2-6.2,37.8-3.9c12.6,2.3,24.8,10.5,28.4,22.7c3.4,11.7-1.5,24.4-9.1,33.8c-7.7,9.4-17.9,16.4-27.2,24.2
				c-9.3,7.8-18.1,17.1-21.5,28.8c-4.1,14.4,0.7,29.8-0.3,44.7c-1.1,15.4-8.8,30.2-20.7,40c0,0-0.1,0-0.1,0.1
				c-4.9,4-11.4,5.5-17.6,4.4c-3.7-0.7-7.4-1.5-11-2.3c-6.4-1.5-12.9-3.3-18.5-6.8c-9.4-5.9-15.4-16.2-18.1-26.9
				C956.4,388.1,966.4,362.2,976.2,338.5z"/>
			<g>
				<g>
					<path class="st3" d="M1054,291.8c-0.2,0.1-10.9,6.2-22.6,21.6c-5.6,7.4-11.4,16.9-16.4,28.9c-3.7,8.8-7.1,19.5-9.6,32.3
						c-0.4,2.2-0.9,4.5-1.2,6.9c-5.3,32.9-4.6,78.2,11.5,139c-1.1,1.2-2.1,2.3-3.2,3.5c-10.4-38.3-15.5-73.6-15.3-105.1
						c0-0.5,0-1,0-1.5c0-2.4,0.1-4.7,0.2-7.1c0.4-10.4,1.4-20.5,3-30v-0.1c2.4-14.3,6.1-27.5,11.2-39.6c3.3-7.8,6.8-14.5,10.5-20.4
						l0,0c1.1-1.8,2.2-3.4,3.3-5c1.3-1.9,2.6-3.6,3.9-5.3c11.8-15.1,22.3-21.1,23-21.4c1-0.5,2.2-0.2,2.7,0.8
						C1055.3,290,1054.9,291.2,1054,291.8z"/>
				</g>
				<g>
					<path class="st3" d="M1024,322.3c-0.8,0-1.6-0.5-1.9-1.4c-0.1-0.4-3.2-10.2,2-22.7c0.4-1,1.6-1.5,2.6-1.1s1.5,1.6,1.1,2.6
						c-4.6,11.1-1.9,19.9-1.9,20c0.3,1.1-0.2,2.2-1.3,2.5C1024.5,322.3,1024.2,322.3,1024,322.3z"/>
				</g>
				<g>
					<path class="st3" d="M1002.1,382.4c-0.5,0-1.1-0.2-1.5-0.7c-0.7-0.8-0.7-2.1,0.2-2.8c0.2-0.2,22.4-20.2,25.7-39.8
						c0.2-1.1,1.2-1.8,2.3-1.6c1.1,0.2,1.8,1.2,1.6,2.3c-3.6,20.9-26,41.2-27,42.1C1003.1,382.3,1002.6,382.4,1002.1,382.4z"/>
				</g>
				<g>
					<path class="st3" d="M999,418.5c-0.6,0-1.2-0.3-1.6-0.8c-0.6-0.8-15.6-20.5-11.4-38.2c0.3-1.1,1.3-1.7,2.4-1.5
						c1.1,0.3,1.7,1.3,1.5,2.4c-3.7,15.9,10.5,34.6,10.7,34.8c0.7,0.9,0.5,2.1-0.4,2.8C999.9,418.4,999.5,418.5,999,418.5z"/>
				</g>
			</g>
		</g>
	</g>
	<path class="st8" d="M596.8,95c9.2,1.1,9.7,14.2,0.5,15.9c-0.2,0-0.3,0.1-0.5,0.1c-8.9,1.7-17.6,4.9-25.8,8.8
		c-26.4,12.5-49.1,32.9-63.9,58.1c-3,5.2-5.8,10.6-10,15c-0.5,0.5-0.9,0.9-1.4,1.4c-22.8,20.9-59.7,1.9-55.7-28.8
		c0-0.2,0-0.4,0.1-0.5c1-6.8,3.7-13.3,7.1-19.3c12.9-22.4,35.9-37.8,60.6-45.4c24.7-7.6,51.1-8.2,76.8-6.3
		C588.6,94.2,592.7,94.5,596.8,95z"/>
</g>
<g id="data-processing" class="st0">
</g>
<g>
	<path class="st2" d="M1086.3,398.4c0,2.4-0.1,4.7-0.3,7.1c-0.9,17.7-4,35.4-9.2,52.3c-3.3,10.7-7.5,21.2-12.7,31.3
		c-10,19.7-23,37.6-38.1,53.5c-0.1,0.1-0.3,0.3-0.4,0.4c-1,1.1-2.1,2.1-3.1,3.2c-6.8,6.9-14.1,13.4-21.7,19.6
		c-10.7,8.7-22.2,16.5-34.1,23.6c-7.4,4.4-15,8.5-22.8,12.3c-10.7,5.2-21.8,9.9-33,13.9c-6.5,2.3-13,4.5-19.6,6.4
		c-9.6,2.8-19.4,5.3-29.1,7.4c-13.6,2.9-27.3,5.2-41.1,6.8c-50.2,6.1-101.5,4.6-152.1,0.7c-40.6-3.2-81.1-7.9-121.2-15
		c-5.3-1-10.7-1.9-16-3c-4.7-0.9-9.5-1.9-14.2-2.9c-34.6-7.2-68.8-16.4-102.3-28c-0.2-0.1-0.3-0.1-0.5-0.2c-1.3-0.5-2.6-0.9-3.9-1.4
		c-3-1.1-6-2.2-9-3.3c-24.1-9.1-47.9-20.2-68.7-34.9c-1.7-1.2-3.4-2.5-5.1-3.7c-14.7-11.1-27.6-24.2-37.7-39.9
		c-15-23.3-22.1-49.9-24.5-77.6c-1.5-17.9-1-36.2,0.7-54.4c0,0,0,0,0,0c1-11.1,2.5-22.1,4.3-32.9c2.1-12.9,4.8-26.2,9.6-38.5
		c0.7-1.9,1.5-3.7,2.3-5.6c5.1-11.2,12.2-21.2,22.3-28.4c5.9-4.2,12.4-7.1,19.3-9.1h0c9.1-2.7,18.8-4,28.4-4.6
		c40.6-2.7,82.6,3.8,122-3.2c8.9-1.6,17.7-3.8,26.3-7c2.6-1,5.1-2,7.6-3.1c30-13.3,54.5-36.9,76.1-61.8c1.5-1.8,3.8-4,6.7-6.5
		c7.7-6.7,16-12.6,24.7-17.5c13.4-7.7,28-13.2,43-16.6c13.3-3,27-4.2,40.8-3.6c3.3,0.1,6.6,0.4,9.9,0.7c37.1,4,74.1,9.3,110.9,16
		c1.5,0.3,3,0.5,4.5,0.8c24.7,4.6,49.5,10,73.7,17.3c2,0.6,4.1,1.2,6.1,1.9c1.9,0.6,3.9,1.2,5.8,1.9c2.7,0.9,5.5,1.8,8.2,2.8
		c1.2,0.4,2.5,0.9,3.7,1.3c3.5,1.3,6.9,2.6,10.3,3.9c3.6,1.4,7.2,2.9,10.8,4.5c0,0,0,0,0,0c3.6,1.6,7.2,3.2,10.8,4.9l0,0
		c23.9,11.4,46.1,25.7,65.5,44.1c6.1,5.7,11.7,11.8,17,18.2c21.8,26.6,36.7,58.7,44,92.4c0.7,3,1.2,6,1.8,9
		C1085.4,368.7,1086.6,383.5,1086.3,398.4z"/>
	<path class="st3" d="M966.6,589.3c-7.4,4.4-15,8.5-22.8,12.3c-10.7,5.2-21.8,9.9-33,13.9c-6.5,2.3-13,4.5-19.6,6.4
		c-9.6,2.8-19.4,5.3-29.1,7.4c-13.6,2.9-27.3,5.2-41.1,6.8c-50.2,6.1-101.5,4.6-152.1,0.7c-40.6-3.2-81.1-7.9-121.2-15
		c-5.3-1-10.7-1.9-16-3c-4.7-0.9-9.5-1.9-14.2-2.9c-34.6-7.2-68.8-16.4-102.3-28c-0.2-0.1-0.3-0.1-0.5-0.2c-1.3-0.5-2.6-0.9-3.9-1.4
		c-3-1.1-6-2.2-9-3.3c-24.1-9.1-47.9-20.2-68.7-34.9c-1.7-1.2-3.4-2.5-5.1-3.7c-14.7-11.1-27.6-24.2-37.7-39.9
		c-15-23.3-22.1-49.9-24.5-77.6L966.6,589.3z"/>
	<g>
		<g>
			<path class="st3" d="M771.4,494c-69.7-30-139.5-60-209.2-90c6.6-45,13.3-89.9,19.9-134.9c75.4-8.5,150.9-17.1,226.3-25.6
				C796.1,327,783.8,410.5,771.4,494z"/>
			<g>
				<path class="st4" d="M787.1,301c0.1-0.5,0.1-1,0.1-1.4c0-0.1,0-0.2,0-0.2c0-0.4,0.1-0.8,0.1-1.1c0,0,0-0.1,0-0.1
					c0-0.1,0-0.2,0-0.3c0-0.2,0-0.3,0-0.5c0-0.3,0-0.6,0-0.9c0-0.1,0-0.2,0-0.3c0,0,0-0.1,0-0.2c0-0.3,0-0.6,0-1c0-0.3,0-0.6,0-0.9
					c0-1,0-1.9-0.1-2.9c0-0.5-0.1-1-0.1-1.4c0-0.4-0.1-0.7-0.1-1.1c0-0.1,0-0.2,0-0.3c0-0.4-0.1-0.9-0.2-1.3
					c-0.1-0.4-0.1-0.8-0.2-1.2c0-0.1,0-0.1,0-0.2c-0.1-0.3-0.1-0.6-0.2-0.9c0-0.2-0.1-0.4-0.1-0.6c-0.1-0.2-0.1-0.5-0.2-0.7
					c-0.1-0.4-0.2-0.8-0.3-1.2c-0.1-0.4-0.2-0.8-0.3-1.2c0-0.1,0-0.1-0.1-0.2c-1.9-5.7-5.2-9.7-9.3-11c-1.2-0.4-2.5-0.5-3.8-0.4
					c-0.3,0-0.6,0-0.9,0.1c-0.1,0-0.2,0-0.3,0c-0.3,0.1-0.6,0.1-0.9,0.2c-0.2,0.1-0.5,0.1-0.7,0.2c0,0,0,0,0,0
					c-0.1,0-0.3,0.1-0.4,0.1c-0.2,0.1-0.4,0.2-0.7,0.2c-0.2,0.1-0.3,0.1-0.5,0.2c-0.2,0.1-0.4,0.2-0.5,0.2c-0.2,0.1-0.4,0.2-0.5,0.3
					c-0.3,0.2-0.6,0.3-0.9,0.5c-0.1,0.1-0.2,0.1-0.4,0.2c-0.1,0.1-0.3,0.2-0.4,0.2c-0.5,0.3-1.1,0.7-1.7,1.1
					c-0.3,0.2-0.6,0.5-0.9,0.7c-0.7,0.6-1.4,1.3-2.1,2c-0.1,0.1-0.3,0.3-0.4,0.4c-0.2,0.2-0.5,0.5-0.7,0.8c-0.3,0.3-0.5,0.6-0.8,0.9
					c-0.2,0.2-0.4,0.5-0.6,0.8c-0.1,0.1-0.2,0.3-0.3,0.4c-0.2,0.2-0.3,0.4-0.5,0.6c-0.2,0.2-0.3,0.4-0.5,0.7
					c-0.1,0.2-0.3,0.4-0.4,0.6c-0.1,0.2-0.3,0.4-0.4,0.6c-0.1,0.2-0.2,0.4-0.3,0.5c-3.7,5.7-6.5,13-7.6,20.8
					c-1.6,11.7,1.5,32.5,14.4,33.7c13.6,1.3,22.5-21.1,24.3-33.4C786.9,302.4,787,301.7,787.1,301z M764.4,323.8
					c-6.2,0.1-10.6-9.8-8.9-21c0.7-5,2.5-9.5,4.8-13.1c2.9-4.5,6.6-7.5,10.4-7.7c3.7-0.1,6.6,2.7,8.2,7.3c1.2,3.7,1.5,8.5,0.8,13.7
					C778.4,311.1,773.5,323.7,764.4,323.8z"/>
				<path class="st2" d="M786.8,303.1c-2.9,0-4.4,0-7.3-0.1c0.8-5.2,0.4-10.1-0.8-13.7c-1.5-4.6-4.4-7.4-8.2-7.3
					c-3.7,0.1-7.5,3.1-10.4,7.7c-1.8-3.1-2.7-4.7-4.4-7.7c0,0,0,0,0,0c0.1-0.2,0.2-0.3,0.3-0.5c0.1-0.2,0.3-0.4,0.4-0.6
					c0.1-0.2,0.3-0.4,0.4-0.6c0.1-0.2,0.3-0.5,0.5-0.7c0.1-0.2,0.3-0.4,0.5-0.6c0.1-0.1,0.2-0.3,0.3-0.4c0.2-0.3,0.4-0.5,0.6-0.8
					c0.3-0.3,0.5-0.6,0.8-0.9c0.2-0.3,0.5-0.5,0.7-0.8c0.1-0.1,0.3-0.3,0.4-0.4c0.7-0.7,1.4-1.4,2.1-2c0.3-0.2,0.6-0.5,0.9-0.7
					c0.5-0.4,1.1-0.8,1.7-1.1c0.1-0.1,0.3-0.2,0.4-0.2c0.1-0.1,0.2-0.1,0.4-0.2c0.3-0.2,0.6-0.3,0.9-0.5c0.2-0.1,0.4-0.2,0.5-0.3
					c0.2-0.1,0.4-0.2,0.5-0.2c0.2-0.1,0.3-0.1,0.5-0.2c0.2-0.1,0.4-0.2,0.7-0.2c0.1,0,0.3-0.1,0.4-0.1c0,0,0,0,0,0
					c0.2-0.1,0.5-0.1,0.7-0.2c0.3-0.1,0.6-0.1,0.9-0.2c0.1,0,0.2,0,0.3,0c0.3,0,0.6-0.1,0.9-0.1c1.3-0.1,2.6,0.1,3.8,0.4
					c4.1,1.3,7.4,5.2,9.3,11c1.4,4.2,2.1,9.5,1.9,15.2c0,0.4,0,0.8-0.1,1.2c0,0.1,0,0.2,0,0.2c0,0.1,0,0.2,0,0.3c0,0.1,0,0.2,0,0.3
					c0,0,0,0.1,0,0.1c0,0.4-0.1,0.8-0.1,1.1c0,0.1,0,0.2,0,0.2c0,0.5-0.1,1-0.1,1.4C787,301.7,787,302.4,786.8,303.1z"/>
				<path class="st5" d="M786.8,303.1c-2.9,0-4.4,0-7.3-0.1c0.8-5.2,0.4-10.1-0.8-13.7c2.7-3.4,4.1-5,6.8-8.5c0,0,0,0,0,0
					c0,0,0,0,0,0c0,0.1,0,0.2,0.1,0.2c0.1,0.4,0.2,0.8,0.3,1.2c0.1,0.4,0.2,0.8,0.3,1.2c0.1,0.2,0.1,0.5,0.2,0.7
					c0,0.2,0.1,0.4,0.1,0.6c0.1,0.3,0.1,0.6,0.2,0.9c0,0.1,0,0.1,0,0.2c0.1,0.4,0.1,0.8,0.2,1.2c0.1,0.4,0.1,0.9,0.2,1.3
					c0,0.1,0,0.2,0,0.3c0,0.4,0.1,0.7,0.1,1.1c0,0.5,0.1,1,0.1,1.4c0,1,0.1,1.9,0.1,2.9c0,0.3,0,0.6,0,0.9c0,0.3,0,0.6,0,1
					c0,0,0,0.1,0,0.2c0,0.1,0,0.2,0,0.3c0,0.3,0,0.6,0,0.9c0,0.1,0,0.2,0,0.2c0,0.2,0,0.4,0,0.6c0,0,0,0.1,0,0.1
					c0,0.4-0.1,0.8-0.1,1.1c0,0.1,0,0.2,0,0.2c0,0.5-0.1,1-0.1,1.4C787,301.7,787,302.4,786.8,303.1z"/>
			</g>
			<g>
				<path class="st5" d="M614.4,408.8c-0.1,0.5-0.1,0.8-0.2,1.3c-12.7-4.7-25.3-9.5-38-14.2c2-13.4,4-26.8,6-40.3
					c0.4,0.1,0.6,0.1,1,0.2c-1.9,13.1-3.9,26.2-5.8,39.3C589.7,399.6,602.1,404.2,614.4,408.8z"/>
				<path class="st4" d="M587.9,382.9c-1.9-0.6-2.8-0.9-4.7-1.5c-0.9,6-1.3,8.9-2.2,14.9c1.9,0.7,2.8,1,4.7,1.7
					C586.6,392,587,389,587.9,382.9z"/>
				<path class="st4" d="M596,379.1c-1.9-0.5-2.8-0.8-4.7-1.4c-1.3,8.5-1.9,12.7-3.1,21.2c1.9,0.7,2.8,1,4.7,1.7
					C594.1,392.1,594.7,387.8,596,379.1z"/>
				<path class="st4" d="M604.7,372.3c-1.9-0.5-2.8-0.7-4.7-1.2c-1.5,10.2-3,20.4-4.5,30.6c1.9,0.7,2.8,1,4.7,1.7
					C601.6,393,603.1,382.7,604.7,372.3z"/>
				<path class="st4" d="M613.8,369.3c-1.9-0.5-2.8-0.7-4.7-1.1c-1.8,12.2-3.6,24.4-5.4,36.6c1.9,0.7,2.8,1,4.7,1.7
					C610.2,394.1,612,381.7,613.8,369.3z"/>
			</g>
			<path class="st5" d="M735.4,302.7c-1.8,11.6-11.1,30.6-23.7,29.5c-12.2-1-16.6-18.7-14.9-29.9c1.7-11.4,10.6-29.1,23.7-29.5
				C734,272.4,737,292.3,735.4,302.7z"/>
			<g>
				<path class="st3" d="M730.9,296.7c-0.3,0-0.5-0.2-0.5-0.6c-0.6-8.7-7.7-20.1-17.7-13.4c-2.8,1.9-6.1,6.7-9,13.5
					c-0.2,0.5-0.6,0.7-0.9,0.5c-0.3-0.2-0.4-0.8-0.2-1.2c3.1-7.3,6.7-12.5,9.9-14.6c10.8-7.2,18.5,4.9,19.2,14.3
					c0,0.5-0.2,1.1-0.5,1.3C731,296.7,730.9,296.7,730.9,296.7z"/>
			</g>
			<path class="st5" d="M771.3,303c-0.5,3.7-2.7,6.6-4.8,6.5c-2.1,0-3.4-3-2.8-6.6c0.5-3.6,2.7-6.5,4.8-6.5
				C770.6,296.4,771.9,299.3,771.3,303z"/>
			<path class="st4" d="M762.8,465.7c-45.5-17-91-34.1-136.5-51.1c2.4-16,4.7-32.1,7.1-48.1c46.5,10,93.1,19.9,139.6,29.9
				C769.7,419.5,766.2,442.6,762.8,465.7z M769.1,400.8c-44.3-10-88.7-20-133-30c-2,13.8-4.1,27.5-6.1,41.3
				c43.5,15.8,87,31.5,130.4,47.3C763.3,439.9,766.2,420.4,769.1,400.8z"/>
			<path class="st3" d="M716.7,302.2c0.1,0.8-0.3,1.8-0.9,2.2c-0.6,0.4-1.2,0-1.3-0.9c-0.1-0.8-1.2-17.4-1.2-17.4
				S716.6,301.4,716.7,302.2z"/>
			<path class="st4" d="M603.8,346.8c-6.1-1-9.2-1.5-15.3-2.6c-2.5-0.4-4.2-2.9-3.8-5.6l0,0c0.4-2.7,2.8-4.6,5.3-4.3
				c6.2,0.8,9.2,1.2,15.4,2c2.5,0.3,4.2,3,3.8,5.9l0,0C608.7,345.2,606.3,347.2,603.8,346.8z"/>
			<path class="st5" d="M640.6,353c-6.1-1-9.2-1.5-15.3-2.6c-2.5-0.4-4.2-3.2-3.7-6.3l0,0c0.5-3.1,2.9-5.3,5.4-4.9
				c6.2,0.8,9.2,1.2,15.4,2c2.5,0.3,4.2,3.3,3.7,6.6l0,0C645.6,351,643.1,353.4,640.6,353z"/>
			<path class="st5" d="M607.2,323.4c-6.2-0.5-9.3-0.8-15.5-1.3c-2.5-0.2-4.3-2.6-3.9-5.3l0,0c0.4-2.7,2.8-4.8,5.3-4.6
				c6.2,0.3,9.3,0.4,15.6,0.7c2.5,0.1,4.3,2.6,3.8,5.5l0,0C612.2,321.4,609.8,323.6,607.2,323.4z"/>
			<path class="st5" d="M610.7,300c-6.3,0-9.4,0-15.7-0.1c-2.6,0-4.3-2.2-3.9-4.9l0,0c0.4-2.7,2.8-4.9,5.4-5
				c6.3-0.2,9.5-0.3,15.8-0.5c2.6-0.1,4.3,2.2,3.9,5.2l0,0C615.7,297.7,613.3,300,610.7,300z"/>
			<path class="st4" d="M764.9,373.7c-6.1-1-9.2-1.5-15.3-2.6c-2.5-0.4-4-4.3-3.4-8.6l0,0c0.6-4.3,3.2-7.5,5.7-7.2
				c6.2,0.8,9.2,1.2,15.4,2c2.5,0.3,4,4.3,3.3,8.9l0,0C770,370.8,767.4,374.2,764.9,373.7z"/>
			<path class="st5" d="M714.6,365.3c-6.1-1-9.2-1.5-15.3-2.6c-2.5-0.4-4.1-3.8-3.5-7.7l0,0c0.6-3.8,3.1-6.6,5.6-6.3
				c6.2,0.8,9.2,1.2,15.4,2c2.5,0.3,4.1,3.9,3.5,7.9l0,0C719.6,362.8,717.1,365.8,714.6,365.3z"/>
			<path class="st4" d="M656.6,327.6c-8.6-0.7-17.3-1.5-25.9-2.2c-3.4-0.3-5.7-3.8-5-8c1.5-10.5,3.1-20.9,4.6-31.4
				c0.6-4.1,3.9-7.6,7.4-7.8c8.8-0.6,17.7-1.2,26.5-1.7c3.5-0.2,5.7,3.3,5,8c-1.7,11.8-3.5,23.5-5.2,35.3
				C663.3,324.3,659.9,327.9,656.6,327.6z"/>
			<path class="st3" d="M643.3,289.3c-0.3,2.3-2.2,4.3-4,4.3s-3.1-1.8-2.8-4.1c0.3-2.3,2.1-4.2,4-4.3S643.6,286.9,643.3,289.3z"/>
			<path class="st2" d="M635.4,318.5L635.4,318.5c-1.8-0.1-2.9-2-2.6-4.1c0.7-5,1.1-7.5,1.9-12.6c0.3-2.2,2-3.9,3.8-3.9l0,0
				c1.8,0,3,1.8,2.6,4c-0.8,5.1-1.1,7.7-1.9,12.8C638.8,316.9,637.1,318.6,635.4,318.5z"/>
			<g>
				<path class="st9" d="M656.7,284.8c-0.3-0.4-0.8-0.4-1.3,0c-7.4,7.9-11.3,21.2-4.5,30.9c0.1,0.1,0.1,0.2,0.2,0.2
					c0.4-2.6,0.6-3.9,1-6.6c-0.7-1.1-1-1.7-1.7-2.8c-0.4,0.2-0.9,0.1-1.2-0.3c-0.3-0.5-0.2-1.4,0.3-1.9c0.5-0.5,1.2-0.5,1.5,0
					c0.3,0.4,0.2,1.1,0,1.6c0.5,0.9,0.8,1.3,1.3,2.1c0.4-2.4,0.5-3.6,0.9-6c-0.7-1.1-1-1.6-1.7-2.7c-0.1-0.2-0.1-0.5,0.1-0.6
					c0.2-0.2,0.4-0.2,0.5,0c0.5,0.8,0.8,1.2,1.3,2.1c0.3-2,0.4-3,0.7-5c-0.4-0.2-0.6-0.7-0.5-1.3c0.1-0.8,0.7-1.4,1.3-1.4
					c0.6,0,1,0.6,0.9,1.4c-0.1,0.6-0.5,1.1-0.9,1.3c-0.5,3.1-0.7,4.6-1.1,7.7c1.2-1.3,1.8-1.9,3-3.3c-0.1-0.5,0-1.2,0.4-1.6
					c0.5-0.5,1.2-0.5,1.5,0c0.3,0.5,0.2,1.4-0.3,2c-0.4,0.4-0.9,0.5-1.2,0.3c-1.4,1.6-2.2,2.4-3.6,3.9c-0.3,2.1-0.5,3.2-0.8,5.3
					c0.5-0.6,0.8-0.8,1.3-1.4c0.5-0.5,0.9-1.3,1-2.1c0-0.2,0.2-0.5,0.4-0.5c0.2,0,0.3,0.2,0.3,0.5c-0.2,1-0.6,2-1.3,2.7
					c-0.8,0.8-1.1,1.2-1.9,2c-0.4,3-0.7,4.5-1.1,7.5c0,0.2,0.1,0.5,0.3,0.5c0.2,0,0.4-0.2,0.4-0.4c0.2-1.5,0.3-2.2,0.5-3.7
					C660.4,307,662.6,294.6,656.7,284.8z M651.3,298.4c-0.1,0.1-0.2,0.1-0.3,0.1c-0.1,0-0.2,0-0.2-0.1c-0.1-0.2-0.2-0.3-0.3-0.5
					c-0.1-0.2-0.1-0.5,0.1-0.6c0.2-0.2,0.4-0.2,0.5,0c0.1,0.2,0.2,0.3,0.3,0.5C651.5,298,651.5,298.3,651.3,298.4z M655.9,305.4
					c0,0.3-0.2,0.5-0.4,0.5c-0.2,0-0.3-0.2-0.3-0.5c0-0.3,0.1-0.5,0.1-0.8c0-0.2,0.2-0.5,0.4-0.5c0.2,0,0.3,0.2,0.3,0.5
					C655.9,304.9,655.9,305.1,655.9,305.4z"/>
			</g>
		</g>
	</g>
	<g>
		<g>
			<path class="st7" d="M609.1,377c8.7-17.6,16.1-26,23-32c7-5.9-5.3,16-4.9,20.1c0.5,5.1,5.1,6.8,2.6,11.3l-7.8,9L609.1,377z"/>
			<path class="st10" d="M429.1,430.6c-9.7,16.4,9.8,36.3,9.8,36.3s56.2,17.7,87.9,27.6c4.7,1.5,12.4,1.1,19.9,0.1
				c12.9-1.7,24.2-9.4,30.5-20.8c16.2-29.4,48.2-87.5,49.8-90.4c0.6-1,0.1-1.7-1.1-2.5c-3-2-10.6-3.5-14.7-8.3
				c-0.2-0.2-0.3-0.4-0.5-0.7c-4-5.7-43.6,52.3-60.2,77.1c-3.5,5.2-10.6,6.4-15.6,2.5c-5.3-4.2-14-9.8-27.8-16.6
				c-12-6-24.1-11.6-34.3-15.7C458.3,417.6,442.5,421.6,429.1,430.6z"/>
		</g>
		<path class="st6" d="M503.5,426.4c-1.9,1.3-3.9,2.6-5.9,3.9c-1.7,1.2-3.5,2.3-5.3,3.5c-3.5,2.3-7,4.7-10.6,7
			c-10.3,6.9-20.7,13.7-29.1,19.3c-0.4,0.2-0.7,0.5-1.1,0.7c-4,2.6-7.5,4.9-10.3,6.8c-4.5,3-7.2,4.7-7.2,4.7s-13.1,1.2-23.5-3.8
			c0.1-2.5,0.1-4.8,0.1-7.1c0.2-19.9,8.6-38.3,22.2-49.6c0,0,0,0,0,0c7.6-4.5,18.4-10.8,23.2-11.3c1.6-0.2,3.1-0.3,4.6-0.4
			c1-0.1,2-0.1,2.9,0c5.3,0.1,9.9,1.4,15.9,4.6l12.2,6.6l0.1,4.5l4.4,2.9C499.2,420.2,501.6,422.9,503.5,426.4z"/>
		<g>
			<polygon class="st7" points="492.1,421.7 479.6,422.1 461.3,422.5 461.2,419.1 460.7,400.1 460.7,399.5 460.4,386.6 460.4,383.2 
				460.3,380.8 460,369.3 459.8,361.8 460.2,361.8 490.6,361.1 491.3,389.7 491.3,391.3 491.4,395.1 491.9,411.3 492,415.8 			"/>
			<path class="st6" d="M491.4,395.1c-10.3,2.4-22.6-2.2-31.1-11.9l-0.4-13.8l21.2-6.7l10.1,27.1L491.4,395.1z"/>
			<path class="st7" d="M506.3,340c2.3,7.1,3.1,14.2,2.8,20.8c0,1.9-0.3,3.7-0.5,5.5c-1.9,12-7.9,21.6-17.2,25l-1.1,0.4
				c-9.6,3-20.2-1-28.8-9.5c-0.5-0.4-0.8-0.8-1.2-1.3c-5.4-5.7-10-13.4-12.7-22.2c-7.4-23.4-0.2-46.4,16-51.6
				c10.6-3.3,22.4,1.7,31.3,12.2C499.7,324.6,503.8,331.8,506.3,340z"/>
			<path class="st6" d="M460.1,387.5c9.3-21.7-16.2-56.3,0.6-42.6c13.2,10.7,11.7-4.1,26.9-16.9c9.4-8,13.5-20.6,9.4-32.2l-1.1-3.1
				c-2.2-6.3-9.9-8.6-15.4-4.7C445,312.5,400.8,324.1,460.1,387.5z"/>
			<path class="st7" d="M499.9,360l12.7-4.3c2.4-0.8,3.4-3.7,1.9-5.8l-10.1-14.8l-11.6,3.9L499.9,360z"/>
		</g>
		<path class="st5" d="M517.5,616c-34.6-7.2-68.8-16.4-102.3-28c-0.2-0.1-0.3-0.1-0.5-0.2c-1.3-0.5-2.6-0.9-3.9-1.4
			c-3-1.1-6-2.2-9-3.3c4.3-46.9,8-86.8,8.7-114.5c0-1.8,0.1-3.6,0.1-5.4c0-0.6,0-1.1,0-1.7c0-0.6,0-1.2,0-1.9c0-1.2,0.1-2.5,0.2-3.7
			c0.1-1.2,0.2-2.4,0.4-3.6c0.2-1.8,0.6-3.6,1-5.4c0.2-1.2,0.5-2.3,0.9-3.5c3.5-12.6,10.4-23.8,19.7-31.6c0,0,0,0,0,0h0
			c2.3-2,4.8-3.7,7.4-5.2l4.3-2.5c6.6-3.9,11.4-5.2,16.1-4.6c1,0.1,2,0.3,3,0.6c0,0,0,0,0,0h0c4.6,1.2,9.3,4,15.9,7.5l12.3,8.2
			l4.4,2.9c0.4,0.2,0.7,0.4,1.1,0.6c0.2,0.1,0.3,0.2,0.5,0.4c0.2,0.1,0.3,0.2,0.5,0.4c0.2,0.2,0.5,0.4,0.7,0.6
			c0.2,0.2,0.5,0.4,0.7,0.7c0.2,0.2,0.3,0.3,0.5,0.5c0,0,0,0,0.1,0.1c0.2,0.2,0.3,0.4,0.5,0.6c0.1,0.1,0.2,0.3,0.4,0.4
			c0.1,0.2,0.3,0.3,0.4,0.5c0.5,0.7,1,1.5,1.5,2.3c0.1,0.2,0.3,0.5,0.4,0.7c1.4,2.5,2.5,5.3,3.5,8.5c2.7,8.8,3.8,19.9,4.2,31
			c0,0,0,0,0,0c0,0,0,0,0,0c0.1,3.9,0.2,7.7,0.1,11.5c0,0.2,0,0.4,0,0.7c0,1,0,2-0.1,3c0,0.5,0,1,0,1.5c0,1-0.1,1.9-0.1,2.9
			c0,0.8-0.1,1.7-0.1,2.5c0,0.1,0,0.2,0,0.3c0,0.5,0,0.9-0.1,1.4c0,0,0,0,0,0c0,0.7-0.1,1.3-0.1,2c0,0.5-0.1,1-0.1,1.4
			c0,0.4-0.1,0.7-0.1,1.1c-0.1,0.9-0.1,1.8-0.2,2.7c0,0.2,0,0.4,0,0.5c-0.1,0.7-0.1,1.4-0.2,2c0,0.5-0.1,1-0.1,1.5
			c-0.2,1.8-0.3,3.4-0.5,4.9c-0.2,2.1-0.4,4.4-0.7,6.5c-2,19.2,6.7,28.9,7.7,52.6c0.1,1.6,0.1,3.2,0.2,4.8c0.1,1.8,0.1,3.6,0.1,5.4
			c0,1.2,0,2.3,0,3.5c0,0.7,0,1.5,0,2.2c0,2.5-0.1,5.1-0.2,7.8c-0.1,1.7-0.1,3.4-0.1,5.1c-0.1,5.9,0.1,11.8,0.5,17.8
			C517.3,613,517.4,614.5,517.5,616z"/>
		<g>
			<path class="st6" d="M516.9,578.7c0,0.7,0,1.5,0,2.2c-1.1-0.4-2.3-0.8-3.3-1.1c-9.7-3.3-17.3-11-20.5-20.7
				c-5.8-17.4-11.7-34.7-20.2-50.9c0,0-18.3-24.4-20.9-39.9c-2.6-15.6,4.9-37.7,33.7-26.7c10.4,4,18.1,13,21.9,23.5
				c1.4,3.8,2.6,8,3.8,12.4c0,0.2,0,0.4,0,0.7c0,1,0,2-0.1,3c0,0.5,0,1,0,1.5c0,1-0.1,1.9-0.1,2.9c0,0.8-0.1,1.7-0.1,2.5
				c0,0.1,0,0.2,0,0.3c0,0.5,0,0.9-0.1,1.4c0,0,0,0,0,0c0,0.7-0.1,1.3-0.1,2c0,0.5-0.1,1-0.1,1.4c0,0.4-0.1,0.7-0.1,1.1
				c-0.1,0.9-0.1,1.8-0.2,2.7c0,0.2,0,0.4,0,0.5c-0.1,0.7-0.1,1.4-0.2,2c0,0.5-0.1,1-0.1,1.5c-0.2,1.8-0.3,3.4-0.5,4.9
				c-0.2,2.1-0.4,4.4-0.7,6.5c-2,19.2,6.7,28.9,7.7,52.6c0.1,1.6,0.1,3.2,0.2,4.8c0.1,1.8,0.1,3.6,0.1,5.4
				C516.9,576.3,516.9,577.5,516.9,578.7z"/>
		</g>
		<g>
			<path class="st7" d="M602.6,582.1c4.6,3.8,2,1.9,2.3-0.4c0.2-1.8,1-2.1,4.5-0.7c3.6,1.3,14.3,9.4,8.7,16.9
				c-2.5,3.3-6.6,3.8-10.5,3.3c-4.8-0.6-12.1-5.3-15.6-8.5l0-0.5L602.6,582.1z"/>
			<path class="st5" d="M507.6,453.9c7.5,20.8,11.8,53.8,13.7,72.4c0.9,8.7,6.3,16.2,14.3,19.9c25.1,11.5,77.2,36,71.3,38.5
				c-7.8,3.2-10.9,15.2-14,12.5c-2.3-2-53-19.6-79.2-28.5c-9.7-3.3-17.3-11-20.6-20.7c-5.8-17.4-11.7-34.7-20.2-51
				c0,0-18.3-24.4-20.9-39.9c-2.6-15.6,4.9-37.7,33.7-26.7C496.1,434.4,503.8,443.4,507.6,453.9z"/>
		</g>
	</g>
	<g>
		<path class="st3" d="M922.8,163.1v10.9c0,0.9-0.8,1.7-1.7,1.7H660.6c-0.9,0-1.7-0.8-1.7-1.7v-20.4c0-0.9,0.8-1.7,1.7-1.7h251.1
			C917.7,152.2,922.5,157.1,922.8,163.1z"/>
		<g>
			<path class="st6" d="M922.8,163.7v45.1c-1.1-0.2-2.3-0.3-3.5-0.3h-8.4v-56.7c0.3,0,0.6,0,0.9,0c6,0.4,10.7,5.3,11,11.3
				C922.8,163.3,922.8,163.5,922.8,163.7z"/>
			<path class="st3" d="M899,163.7v45.1c1.1-0.2,2.3-0.3,3.5-0.3h8.4v-56.7C904.3,151.8,899,157.2,899,163.7z"/>
		</g>
		<g>
			<path class="st3" d="M910.9,208.4v238.7h31.8V231.9c0-11.8-8.6-21.5-19.9-23.1c-1.1-0.2-2.3-0.3-3.5-0.3H910.9z"/>
			<path class="st5" d="M879,231.9v215.3h31.8V208.4h-8.4c-1.2,0-2.4,0.1-3.5,0.3C887.7,210.4,879,220.1,879,231.9z"/>
		</g>
		<g>
			<path class="st5" d="M1000.7,470.5v95.2c-17.4,14-36.6,26-56.9,35.9c-10.7,5.2-21.8,9.9-33,13.9V447.2h66.4
				C990.2,447.2,1000.7,457.7,1000.7,470.5z"/>
			<path class="st4" d="M910.9,447.2v168.4c-6.5,2.3-13,4.5-19.6,6.4c-9.6,2.8-19.4,5.3-29.1,7.4c-13.6,2.9-27.3,5.2-41.1,6.8V470.5
				c0-12.9,10.5-23.4,23.4-23.4H910.9z"/>
		</g>
		<g>
			<path class="st6" d="M871.6,367.6c0,2.7,2.2,4.9,4.9,4.9h68.7c2.7,0,4.9-2.2,4.9-4.9c0-2.7-2.2-4.9-4.9-4.9h-68.7
				C873.8,362.7,871.6,364.9,871.6,367.6z"/>
			<path class="st3" d="M871.6,367.6c0,2.7,2.2,4.9,4.9,4.9h34.4v-9.9h-34.4C873.8,362.7,871.6,364.9,871.6,367.6z"/>
		</g>
		<g>
			<path class="st6" d="M871.6,288c0,2.7,2.2,4.9,4.9,4.9h68.7c2.7,0,4.9-2.2,4.9-4.9c0-2.7-2.2-4.9-4.9-4.9h-68.7
				C873.8,283.1,871.6,285.3,871.6,288z"/>
			<path class="st3" d="M871.6,288c0,2.7,2.2,4.9,4.9,4.9h34.4v-9.9h-34.4C873.8,283.1,871.6,285.3,871.6,288z"/>
		</g>
		<g>
			<path class="st4" d="M616.2,140.4V187c0,7,5.7,12.7,12.7,12.7h60c7,0,12.7-5.7,12.7-12.7v-46.6c0-7-5.7-12.7-12.7-12.7h-60
				C621.9,127.7,616.2,133.4,616.2,140.4z"/>
			<path class="st5" d="M658.9,140.4V187c0,7,5.7,12.7,12.7,12.7H689c7,0,12.7-5.7,12.7-12.7v-46.6c0-7-5.7-12.7-12.7-12.7h-17.4
				C664.6,127.7,658.9,133.4,658.9,140.4z"/>
			<circle class="st3" cx="680.3" cy="163.7" r="8"/>
			<circle class="st5" cx="637.3" cy="163.7" r="8"/>
			<circle class="st3" cx="637.3" cy="163.7" r="4.5"/>
			<circle class="st11" cx="680.3" cy="163.7" r="4.5"/>
		</g>
	</g>
	<g>
		<path class="st5" d="M369.9,351.4c-6.6-15.9-13.1-31.8-19.6-47.5c-8-19.4-16.8-39.8-33.5-52.5c-10.4-7.8-23-12.1-35.4-15.6
			c-16.9-4.8-34.7-8.4-52-5.4c-17.3,3.1-34.1,14.5-39,31.2c-4.7,16.1,2,33.5,12.6,46.5c10.6,13,24.6,22.5,37.3,33.3
			c12.8,10.7,24.9,23.5,29.5,39.6c5.7,19.8-1,40.9,0.4,61.5c1.5,21.2,12.1,41.6,28.5,55l0.1,0.1c6.7,5.5,15.6,7.6,24.2,6
			c5.1-1,10.1-2,15.2-3.2c8.9-2,17.7-4.5,25.4-9.4c12.9-8.1,21.2-22.2,24.9-37C397,419.5,383.3,384,369.9,351.4z"/>
		<g>
			<g>
				<path class="st3" d="M339.6,499.7c0,0.1,0,0.1,0,0.2c-1.3,15.6-3.5,31.7-6.4,48.3c-1.7-1.2-3.4-2.4-5.1-3.7
					c2.6-15.2,4.5-29.6,5.7-43.2c0-0.1,0-0.2,0-0.3c3.1-35.9,1.6-65.9-2.5-90.7c0,0,0,0,0,0c-0.5-3.2-1.1-6.4-1.7-9.4
					c0,0,0-0.1,0-0.1c-1.7-8.7-3.8-16.7-6-24.1c-2.2-7.4-4.7-14.1-7.2-20.1c-4.5-10.7-9.4-20-14.5-28c-0.2-0.4-0.4-0.7-0.7-1
					c-2.5-3.9-5-7.5-7.4-10.7c-4.7-6.2-9.3-11.3-13.4-15.4c-10-10-17.4-14.2-17.6-14.3c-1.3-0.7-1.8-2.4-1.1-3.7
					c0.7-1.3,2.4-1.9,3.7-1.1c0.6,0.3,7.7,4.3,17.3,13.5c4.4,4.2,9.3,9.4,14.3,15.9c1.8,2.2,3.5,4.6,5.3,7.2c0,0,0,0.1,0.1,0.1
					c1.5,2.2,3,4.5,4.5,6.9c0,0,0,0,0,0.1c2.5,4,4.9,8.3,7.3,12.9c2.4,4.6,4.8,9.6,7,15c7,16.6,12.1,34.8,15.4,54.4c0,0,0,0,0,0v0.1
					c0,0.1,0,0.2,0.1,0.3c0,0.1,0,0.2,0,0.2v0c2.2,13,3.5,26.5,4,40.7c0,0.1,0,0.3,0,0.4c0.1,3.1,0.2,6.2,0.2,9.3c0,0.2,0,0.3,0,0.4
					c0.1,0.8,0.1,1.4,0.1,1.9C341.3,473.9,340.8,486.6,339.6,499.7z"/>
			</g>
			<g>
				<path class="st3" d="M304.1,329.2c1.2,0,2.2-0.7,2.6-1.9c0.2-0.5,4.4-14-2.7-31.2c-0.6-1.4-2.2-2-3.6-1.5
					c-1.4,0.6-2,2.2-1.5,3.6c6.4,15.3,2.7,27.3,2.6,27.4c-0.4,1.4,0.4,3,1.8,3.5C303.5,329.2,303.8,329.2,304.1,329.2z"/>
			</g>
			<g>
				<path class="st3" d="M334.2,411.8c0.8,0,1.5-0.3,2-0.9c1-1.2,0.9-2.8-0.2-3.9c-0.3-0.3-30.8-27.8-35.4-54.7
					c-0.3-1.5-1.7-2.5-3.2-2.2c-1.5,0.3-2.5,1.7-2.2,3.2c4.9,28.8,35.8,56.7,37.1,57.8C332.9,411.6,333.5,411.8,334.2,411.8z"/>
			</g>
			<g>
				<path class="st3" d="M338.5,461.4c0.8,0,1.6-0.4,2.2-1.1c0.9-1.2,21.4-28.1,15.6-52.5c-0.4-1.5-1.9-2.4-3.3-2
					c-1.5,0.4-2.4,1.9-2,3.3c5.1,21.8-14.5,47.6-14.6,47.9c-0.9,1.2-0.7,2.9,0.5,3.8C337.3,461.2,337.9,461.4,338.5,461.4z"/>
			</g>
		</g>
	</g>
	<g>
		<path class="st5" d="M1177.2,265.9c-0.3,21.4-4.4,42.6-10.9,62.9c-13.1,40.7-36.3,77.9-66.3,108.4c-12.6,12.8-26.6,24.5-42.5,32.9
			c-4.3,2.2-9.1,3.9-14.3,5.2c-7.7,1.9-15-4.3-14.4-12.2c0-0.1,0-0.1,0-0.2c3.9-50.3-21.6-99.9-15.3-149.9
			c3.1-24.6,13.9-47.8,28.7-67.7c15.2-20.4,35.7-38.2,60.6-44c24.8-5.7,54,3.3,66.5,25.5C1175.9,238.6,1177.4,252.5,1177.2,265.9z"
			/>
		<g>
			<g>
				<path class="st3" d="M1113.5,255.2c-0.2,0.4-14,33.2-26.8,82.9c-0.3,1.3-0.7,2.6-1,3.9c-1,3.9-1.9,7.8-2.9,11.9
					c-1.8,7.9-3.6,16.2-5.3,24.7c-0.1,0.7-0.3,1.4-0.4,2.2c-0.9,4.9-1.8,9.8-2.7,14.9c-1.3,7.8-3,14.8-4.9,21.1
					c-0.6,1.9-1.2,3.8-1.8,5.6c-6,17.2-13.7,29.3-20.8,40.4c-2.7,4.2-5.4,8.4-7.9,12.7c-9.3,16.1-15.9,34.2-13.1,67
					c-0.1,0.1-0.3,0.3-0.4,0.4c-1,1.1-2.1,2.1-3.1,3.2c-3.6-35.5,3.1-54.7,12.8-71.7c2.6-4.6,5.5-9.1,8.4-13.6
					c10.6-16.6,21.6-33.7,27-65.6c0.9-5.3,1.8-10.5,2.8-15.6c0.4-1.8,0.7-3.7,1.1-5.5c2.1-10.2,4.2-19.9,6.5-29.1
					c5-20.5,10.3-38.4,15-52.8c0.4-1.4,0.9-2.7,1.3-4c7.1-21.5,12.5-34.2,12.6-34.4c0.4-1,1.5-1.4,2.5-1
					C1113.4,253.1,1113.9,254.3,1113.5,255.2z"/>
			</g>
		</g>
		<g>
			<path class="st3" d="M1096.7,292.3c-0.5,0-1.1-0.2-1.5-0.7c-0.3-0.4-8.4-10.3-8.4-28.2c0-1.1,0.9-1.9,1.9-1.9s1.9,0.9,1.9,1.9
				c0,16.5,7.5,25.7,7.5,25.8c0.7,0.8,0.6,2-0.2,2.7C1097.5,292.1,1097.1,292.3,1096.7,292.3z"/>
		</g>
		<g>
			<path class="st3" d="M1086.2,342.2c-0.9,0-1.7-0.6-1.9-1.5c-0.2-1,0.4-2,1.5-2.3c0.3-0.1,21.5-4.7,32.1-21.2
				c0.6-0.9,1.8-1.1,2.6-0.6c0.9,0.6,1.1,1.8,0.6,2.6c-11.6,17.9-33.6,22.7-34.6,22.9C1086.5,342.2,1086.3,342.2,1086.2,342.2z"/>
		</g>
		<g>
			<path class="st3" d="M1075.8,381.5c-0.6,0-1.1-0.3-1.5-0.7c-0.6-0.8-15.8-20.8-8.6-41.1c0.4-1,1.4-1.5,2.4-1.2
				c1,0.4,1.5,1.4,1.2,2.4c-6.5,18.3,7.8,37.3,8,37.5c0.6,0.8,0.5,2-0.3,2.7C1076.6,381.3,1076.2,381.5,1075.8,381.5z"/>
		</g>
		<g>
			<path class="st3" d="M1067.5,422.5c-0.7,0-1.3-0.3-1.6-0.9c-0.5-0.9-0.2-2.1,0.7-2.6l0,0c0.2-0.1,16.8-10.2,26.5-33.6
				c0.4-1,1.5-1.4,2.5-1c1,0.4,1.4,1.5,1,2.5c-10.3,24.6-27.4,35-28.1,35.4C1068.2,422.4,1067.9,422.5,1067.5,422.5z"/>
		</g>
	</g>
</g>
</svg>
