<svg xmlns="http://www.w3.org/2000/svg" width="98.227" height="38" viewBox="0 0 98.227 38">
  <g id="pintarai_4_" data-name="pintarai (4)" transform="translate(-23.7 -23.762)">
    <g id="Group_7" data-name="Group 7" transform="translate(53.307 32.558)">
      <path id="Path_3" data-name="Path 3" d="M89.8,54.469h2.15l.269,1.389h.09A3.716,3.716,0,0,1,93.562,54.6a3.3,3.3,0,0,1,1.7-.4,3.122,3.122,0,0,1,2.777,1.389,8.556,8.556,0,0,1,.941,4.614,9.063,9.063,0,0,1-1.165,4.972,3.759,3.759,0,0,1-3.359,1.747,5.7,5.7,0,0,1-.985-.09,2.282,2.282,0,0,1-.761-.314v4.927H89.845V54.469Zm2.867,9.361a1.744,1.744,0,0,0,1.344.493,1.643,1.643,0,0,0,1.478-.941,7.18,7.18,0,0,0,.493-3.27,6.03,6.03,0,0,0-.4-2.553,1.366,1.366,0,0,0-1.3-.851c-.806,0-1.344.493-1.657,1.433V63.83Z" transform="translate(-89.8 -49.363)" fill="#044661"/>
      <path id="Path_4" data-name="Path 4" d="M113.7,45.1a1.621,1.621,0,0,1,.448-1.209,2.091,2.091,0,0,1,2.643-.045,1.676,1.676,0,0,1,0,2.374,2.2,2.2,0,0,1-1.344.448,1.7,1.7,0,0,1-1.3-.448A1.591,1.591,0,0,1,113.7,45.1Zm.358,3.4h2.867V60.6h-2.867Z" transform="translate(-102.995 -43.4)" fill="#044661"/>
      <path id="Path_5" data-name="Path 5" d="M132.1,66.507V59.161a3.835,3.835,0,0,0-.314-1.881,1.173,1.173,0,0,0-1.075-.537,1.605,1.605,0,0,0-1.075.4,2.161,2.161,0,0,0-.672.985v8.376H126.1V54.414h2.284l.358,1.389h.09A4.24,4.24,0,0,1,130,54.593a3.665,3.665,0,0,1,1.971-.493,3.945,3.945,0,0,1,1.3.224,2.123,2.123,0,0,1,.941.717,3.12,3.12,0,0,1,.582,1.344,9.024,9.024,0,0,1,.179,2.06v8.062Z" transform="translate(-109.841 -49.307)" fill="#044661"/>
      <path id="Path_6" data-name="Path 6" d="M148.2,50.88h1.344V48.6l2.867-.9v3.18h2.329v2.553H152.41v5.285a3.919,3.919,0,0,0,.224,1.478.8.8,0,0,0,.717.448,3.457,3.457,0,0,0,.672-.09,5.43,5.43,0,0,0,.627-.224l.358,2.284a6.756,6.756,0,0,1-1.254.448,5.146,5.146,0,0,1-1.478.179,2.51,2.51,0,0,1-2.06-.806,4.218,4.218,0,0,1-.672-2.687V53.433H148.2Z" transform="translate(-122.042 -45.774)" fill="#044661"/>
      <path id="Path_7" data-name="Path 7" d="M165.382,55.185a7.458,7.458,0,0,1,1.792-.717,10.376,10.376,0,0,1,2.464-.269,3.352,3.352,0,0,1,2.867,1.075,4.936,4.936,0,0,1,.806,3.046c0,.761,0,1.523-.045,2.24s-.09,1.433-.09,2.15,0,1.389.045,2.016a8.29,8.29,0,0,0,.314,1.836h-2.329l-.448-1.478h-.09a3.8,3.8,0,0,1-1.075,1.165,3.075,3.075,0,0,1-1.747.448,2.812,2.812,0,0,1-2.24-.941A3.793,3.793,0,0,1,164.8,63.2a3.352,3.352,0,0,1,1.568-3.091,7.253,7.253,0,0,1,4.166-.761,4.237,4.237,0,0,0-.179-2.016,1.333,1.333,0,0,0-1.3-.627,6.735,6.735,0,0,0-2.867.672Zm3.449,9.048a1.618,1.618,0,0,0,1.075-.314,2.334,2.334,0,0,0,.627-.717V61.187a8.632,8.632,0,0,0-1.075-.045,2.629,2.629,0,0,0-.9.224,1.709,1.709,0,0,0-.627.493,1.95,1.95,0,0,0,.09,1.971A.819.819,0,0,0,168.831,64.233Z" transform="translate(-131.207 -49.363)" fill="#044661"/>
      <path id="Path_8" data-name="Path 8" d="M194.089,57.291a3.548,3.548,0,0,0-1.075-.224,1.857,1.857,0,0,0-1.12.358,1.63,1.63,0,0,0-.627,1.03v8.062H188.4V54.424h2.195l.314,1.478H191a2.917,2.917,0,0,1,.9-1.254,2.152,2.152,0,0,1,1.389-.448,3.119,3.119,0,0,1,1.12.224Z" transform="translate(-144.236 -49.363)" fill="#044661"/>
      <path id="Path_9" data-name="Path 9" d="M201,76.092a1.828,1.828,0,0,1,.493-1.344,1.66,1.66,0,0,1,1.254-.448,1.7,1.7,0,0,1,1.3.448,1.809,1.809,0,0,1,.448,1.344A1.828,1.828,0,0,1,204,77.435a1.792,1.792,0,0,1-1.3.493,1.686,1.686,0,0,1-1.254-.493A1.809,1.809,0,0,1,201,76.092Z" transform="translate(-151.192 -60.459)" fill="#4eb682"/>
      <path id="Path_10" data-name="Path 10" d="M212.282,55.185a7.458,7.458,0,0,1,1.792-.717,10.376,10.376,0,0,1,2.464-.269,3.352,3.352,0,0,1,2.867,1.075,4.936,4.936,0,0,1,.806,3.046c0,.761,0,1.523-.045,2.24s-.09,1.433-.09,2.15,0,1.389.045,2.016a8.29,8.29,0,0,0,.314,1.836h-2.329l-.448-1.478h-.09a3.8,3.8,0,0,1-1.075,1.165,3.074,3.074,0,0,1-1.747.448,2.812,2.812,0,0,1-2.24-.941A3.793,3.793,0,0,1,211.7,63.2a3.352,3.352,0,0,1,1.568-3.091,7.253,7.253,0,0,1,4.166-.761,4.237,4.237,0,0,0-.179-2.016,1.333,1.333,0,0,0-1.3-.627,6.735,6.735,0,0,0-2.867.672Zm3.449,9.048a1.618,1.618,0,0,0,1.075-.314,2.334,2.334,0,0,0,.627-.717V61.187a8.631,8.631,0,0,0-1.075-.045,2.629,2.629,0,0,0-.9.224,1.709,1.709,0,0,0-.627.493,1.95,1.95,0,0,0,.09,1.971A.819.819,0,0,0,215.731,64.233Z" transform="translate(-157.099 -49.363)" fill="#4eb682"/>
      <path id="Path_11" data-name="Path 11" d="M235,45.1a1.621,1.621,0,0,1,.448-1.209,1.792,1.792,0,0,1,1.3-.493,1.879,1.879,0,0,1,1.344.448,1.676,1.676,0,0,1,0,2.374,2.2,2.2,0,0,1-1.344.448,1.767,1.767,0,0,1-1.3-.448A1.591,1.591,0,0,1,235,45.1Zm.358,3.4h2.867V60.6h-2.867Z" transform="translate(-169.963 -43.4)" fill="#4eb682"/>
    </g>
    <g id="Group_8" data-name="Group 8" transform="translate(23.7 23.762)">
      <path id="Path_12" data-name="Path 12" d="M33.465,24.137a1.314,1.314,0,0,0-1.792-.045c-3.628,3.449-15.99,17.469.045,33.683a2.484,2.484,0,0,0,.358.269V50.878l-3-3a1.518,1.518,0,0,1-1.7-.269A1.489,1.489,0,0,1,29.478,45.5a1.506,1.506,0,0,1,.269,1.7l2.329,2.329V42.95l-2.911-2.956a.507.507,0,1,1,.717-.717l2.24,2.24V36.1a1.523,1.523,0,1,1,1.075,0v8.376l3.539-3.539a1.479,1.479,0,0,1,2.374-1.7,1.541,1.541,0,0,1,0,2.15,1.506,1.506,0,0,1-1.7.269l-4.255,4.255v5.778l1.568-1.568a3.189,3.189,0,0,0,.941-2.24.493.493,0,0,1,.985,0,4.284,4.284,0,0,1-1.209,2.956l-2.284,2.284v5.017a1.058,1.058,0,0,0,.4-.269C37.137,54.371,49.5,40.4,33.465,24.137ZM27.552,37.709a.544.544,0,0,1,.717,0l.493.493a.544.544,0,0,1,0,.717.545.545,0,0,1-.717,0l-.493-.493A.544.544,0,0,1,27.552,37.709ZM36.6,46.443a.493.493,0,1,1-.985,0v-.851a.493.493,0,0,1,.985,0Z" transform="translate(-23.7 -23.762)" fill="#4eb682"/>
      <path id="Path_13" data-name="Path 13" d="M45.685,97.6H44.7v4.434a.5.5,0,0,0,.493.493h0a.5.5,0,0,0,.493-.493V97.6Z" transform="translate(-35.294 -64.527)" fill="#4eb682"/>
    </g>
  </g>
</svg>
