<?xml version="1.0" encoding="utf-8"?>
<!-- Generator: Adobe Illustrator 22.1.0, SVG Export Plug-In . SVG Version: 6.00 Build 0)  -->
<svg version="1.1" id="Layer_1" xmlns="http://www.w3.org/2000/svg" xmlns:xlink="http://www.w3.org/1999/xlink" x="0px" y="0px"
	 viewBox="0 0 841.9 595.3" style="enable-background:new 0 0 841.9 595.3;" xml:space="preserve">
<style type="text/css">
	.st0{fill:#044661;}
	.st1{fill:#4EB682;}
</style>
<g>
	<g>
		<g>
			<rect x="236" y="394.3" class="st0" width="16" height="112"/>
		</g>
		<rect x="268" y="386.3" class="st1" width="32" height="128"/>
		<g>
			<rect x="588" y="394.3" class="st0" width="16" height="112"/>
		</g>
		<rect x="540" y="386.3" class="st1" width="32" height="128"/>
		<rect x="356" y="298.3" class="st1" width="128" height="32"/>
		<g>
			<rect x="364" y="266.3" class="st0" width="112" height="16"/>
		</g>
		<rect x="540" y="82.3" class="st1" width="32" height="128"/>
		<g>
			<rect x="588" y="90.3" class="st0" width="16" height="112"/>
		</g>
	</g>
</g>
<path d="M604,202.3"/>
<g>
	<g>
		<g>
			<path class="st0" d="M476,402.3h48v96H316v-96h48c4.4,0,8-3.6,8-8v-48h96v48C468,398.7,471.6,402.3,476,402.3L476,402.3z"/>
		</g>
		<g>
			<path class="st0" d="M468.6,250.3h-96.1c4.2-81.9,69.7-147.4,151.6-151.6v96.1C495,198.5,472.2,221.3,468.6,250.3L468.6,250.3z"
				/>
		</g>
		<g>
			<rect x="620" y="98.3" class="st0" width="40" height="96"/>
		</g>
		<g>
			<rect x="620" y="402.3" class="st0" width="40" height="96"/>
		</g>
		<g>
			<rect x="180" y="402.3" class="st0" width="40" height="96"/>
		</g>
	</g>
</g>
</svg>
