<?xml version="1.0" encoding="utf-8"?>
<!-- Generator: Adobe Illustrator 22.1.0, SVG Export Plug-In . SVG Version: 6.00 Build 0)  -->
<svg version="1.1" id="Layer_1" xmlns="http://www.w3.org/2000/svg" xmlns:xlink="http://www.w3.org/1999/xlink" x="0px" y="0px"
	 viewBox="0 0 500 500" style="enable-background:new 0 0 500 500;" xml:space="preserve">
<style type="text/css">
	.st0{fill:#73C599;}
	.st1{fill:#478784;}
	.st2{fill:#153B60;}
	.st3{fill:#FFFFFF;}
</style>
<path class="st0" d="M492.9,190.6c-71-19.5-146.7-22.1-218.8-7C212.4,196.5,154,221.8,93,237.7c-4.8,1.3-9.7,2.5-14.6,3.5
	c0,0,0,0,0,0c-23.5-2.9-46.5-7.8-67-19.3c-3.1-1.8-6.2-3.7-9.1-5.7C18.7,94.1,123.4,0,250,0C367.6,0,466.3,81.2,492.9,190.6z"/>
<path class="st1" d="M500,250c0,16.1-1.5,31.8-4.4,47c-4-1.9-8-3.7-12.1-5.4c-49.7-20.4-104.2-25-157.7-29.5
	c-72.7-6-145.3-12-218-18c-9.8-0.8-19.6-1.7-29.4-2.9c4.9-1.1,9.8-2.3,14.6-3.5c61-15.9,119.4-41.3,181.1-54.2
	c72.1-15.1,147.8-12.5,218.8,7C497.5,209.6,500,229.5,500,250z"/>
<g>
	<path class="st2" d="M495.6,297C473.6,412.6,372,500,250,500C111.9,500,0,388.1,0,250c0-3.9,0.1-7.8,0.3-11.7c0.3-7.4,1-14.8,2-22
		c2.9,2.1,6,4,9.1,5.7c20.4,11.5,43.5,16.4,67,19.3c0,0,0,0,0,0c9.8,1.2,19.7,2,29.4,2.9c72.7,6,145.4,12,218,18
		c53.5,4.4,108,9.1,157.7,29.5C487.6,293.3,491.6,295.1,495.6,297z"/>
</g>
<g>
	<path class="st3" d="M256.9,101c-3.9-3.9-10.2-4-14.2-0.2c-28.9,27.7-127.8,139.5,0.4,269.4c0.9,0.9,1.9,1.6,2.9,2V315l-24.1-24.1
		c-4.5,2.1-10,1.4-13.7-2.3c-4.7-4.7-4.7-12.3,0-17c4.7-4.7,12.3-4.7,17,0c3.7,3.7,4.4,9.2,2.3,13.6l18.5,18.5v-52.1l-23.7-23.7
		c-1.6-1.6-1.6-4.1,0-5.7c1.6-1.6,4.1-1.6,5.7,0l18,18v-43.6c-4.7-1.6-8.1-6.1-8.1-11.3c0-6.7,5.4-12,12.1-12c6.6,0,12,5.4,12,12
		c0,5.2-3.4,9.7-8,11.3v67.1l28.4-28.5c-2.2-4.5-1.4-10,2.3-13.7c4.7-4.7,12.3-4.7,17,0c4.7,4.7,4.7,12.3,0,17
		c-3.7,3.7-9.2,4.4-13.6,2.3L254,275v46.2l12.5-12.5c4.8-4.8,7.4-11.1,7.4-17.9c0-2.2,1.8-4,4-4c2.2,0,4,1.8,4,4
		c0,8.9-3.5,17.3-9.8,23.6L254,332.6v29.9h0v38.7c0,0.5,0.4,0.9,0.9,0.9h6.3c0.5,0,0.9-0.4,0.9-0.9v-35.3
		C295.4,331.7,378.8,224.6,256.9,101z M219.3,219.2c-0.8,0.8-1.8,1.2-2.9,1.2c-1,0-2-0.4-2.8-1.2l-4-4.1c-1.6-1.5-1.6-4.1,0-5.7
		c1.6-1.5,4.1-1.5,5.6,0l4.1,4.1C220.9,215.1,220.9,217.6,219.3,219.2z M282,279.5c0,2.2-1.8,4-4,4c-2.2,0-4-1.8-4-4v-6.8
		c0-2.2,1.8-4,4-4c2.2,0,4,1.8,4,4V279.5z"/>
</g>
</svg>
